%TF.GenerationSoftware,KiCad,Pcbnew,9.0.2*%
%TF.CreationDate,2026-01-14T17:50:12+01:00*%
%TF.ProjectId,keypad,6b657970-6164-42e6-9b69-6361645f7063,rev?*%
%TF.SameCoordinates,Original*%
%TF.FileFunction,Copper,L1,Top*%
%TF.FilePolarity,Positive*%
%FSLAX46Y46*%
G04 Gerber Fmt 4.6, Leading zero omitted, Abs format (unit mm)*
G04 Created by KiCad (PCBNEW 9.0.2) date 2026-01-14 17:50:12*
%MOMM*%
%LPD*%
G01*
G04 APERTURE LIST*
G04 Aperture macros list*
%AMRoundRect*
0 Rectangle with rounded corners*
0 $1 Rounding radius*
0 $2 $3 $4 $5 $6 $7 $8 $9 X,Y pos of 4 corners*
0 Add a 4 corners polygon primitive as box body*
4,1,4,$2,$3,$4,$5,$6,$7,$8,$9,$2,$3,0*
0 Add four circle primitives for the rounded corners*
1,1,$1+$1,$2,$3*
1,1,$1+$1,$4,$5*
1,1,$1+$1,$6,$7*
1,1,$1+$1,$8,$9*
0 Add four rect primitives between the rounded corners*
20,1,$1+$1,$2,$3,$4,$5,0*
20,1,$1+$1,$4,$5,$6,$7,0*
20,1,$1+$1,$6,$7,$8,$9,0*
20,1,$1+$1,$8,$9,$2,$3,0*%
%AMFreePoly0*
4,1,37,0.800000,0.796148,0.878414,0.796148,1.032228,0.765552,1.177117,0.705537,1.307515,0.618408,1.418408,0.507515,1.505537,0.377117,1.565552,0.232228,1.596148,0.078414,1.596148,-0.078414,1.565552,-0.232228,1.505537,-0.377117,1.418408,-0.507515,1.307515,-0.618408,1.177117,-0.705537,1.032228,-0.765552,0.878414,-0.796148,0.800000,-0.796148,0.800000,-0.800000,-1.400000,-0.800000,
-1.403843,-0.796157,-1.439018,-0.796157,-1.511114,-0.766294,-1.566294,-0.711114,-1.596157,-0.639018,-1.596157,-0.603843,-1.600000,-0.600000,-1.600000,0.600000,-1.596157,0.603843,-1.596157,0.639018,-1.566294,0.711114,-1.511114,0.766294,-1.439018,0.796157,-1.403843,0.796157,-1.400000,0.800000,0.800000,0.800000,0.800000,0.796148,0.800000,0.796148,$1*%
%AMFreePoly1*
4,1,37,0.000000,0.796148,0.078414,0.796148,0.232228,0.765552,0.377117,0.705537,0.507515,0.618408,0.618408,0.507515,0.705537,0.377117,0.765552,0.232228,0.796148,0.078414,0.796148,-0.078414,0.765552,-0.232228,0.705537,-0.377117,0.618408,-0.507515,0.507515,-0.618408,0.377117,-0.705537,0.232228,-0.765552,0.078414,-0.796148,0.000000,-0.796148,0.000000,-0.800000,-0.600000,-0.800000,
-0.603843,-0.796157,-0.639018,-0.796157,-0.711114,-0.766294,-0.766294,-0.711114,-0.796157,-0.639018,-0.796157,-0.603843,-0.800000,-0.600000,-0.800000,0.600000,-0.796157,0.603843,-0.796157,0.639018,-0.766294,0.711114,-0.711114,0.766294,-0.639018,0.796157,-0.603843,0.796157,-0.600000,0.800000,0.000000,0.800000,0.000000,0.796148,0.000000,0.796148,$1*%
%AMFreePoly2*
4,1,37,0.603843,0.796157,0.639018,0.796157,0.711114,0.766294,0.766294,0.711114,0.796157,0.639018,0.796157,0.603843,0.800000,0.600000,0.800000,-0.600000,0.796157,-0.603843,0.796157,-0.639018,0.766294,-0.711114,0.711114,-0.766294,0.639018,-0.796157,0.603843,-0.796157,0.600000,-0.800000,0.000000,-0.800000,0.000000,-0.796148,-0.078414,-0.796148,-0.232228,-0.765552,-0.377117,-0.705537,
-0.507515,-0.618408,-0.618408,-0.507515,-0.705537,-0.377117,-0.765552,-0.232228,-0.796148,-0.078414,-0.796148,0.078414,-0.765552,0.232228,-0.705537,0.377117,-0.618408,0.507515,-0.507515,0.618408,-0.377117,0.705537,-0.232228,0.765552,-0.078414,0.796148,0.000000,0.796148,0.000000,0.800000,0.600000,0.800000,0.603843,0.796157,0.603843,0.796157,$1*%
%AMFreePoly3*
4,1,37,1.403843,0.796157,1.439018,0.796157,1.511114,0.766294,1.566294,0.711114,1.596157,0.639018,1.596157,0.603843,1.600000,0.600000,1.600000,-0.600000,1.596157,-0.603843,1.596157,-0.639018,1.566294,-0.711114,1.511114,-0.766294,1.439018,-0.796157,1.403843,-0.796157,1.400000,-0.800000,-0.800000,-0.800000,-0.800000,-0.796148,-0.878414,-0.796148,-1.032228,-0.765552,-1.177117,-0.705537,
-1.307515,-0.618408,-1.418408,-0.507515,-1.505537,-0.377117,-1.565552,-0.232228,-1.596148,-0.078414,-1.596148,0.078414,-1.565552,0.232228,-1.505537,0.377117,-1.418408,0.507515,-1.307515,0.618408,-1.177117,0.705537,-1.032228,0.765552,-0.878414,0.796148,-0.800000,0.796148,-0.800000,0.800000,1.400000,0.800000,1.403843,0.796157,1.403843,0.796157,$1*%
G04 Aperture macros list end*
%TA.AperFunction,ComponentPad*%
%ADD10C,2.200000*%
%TD*%
%TA.AperFunction,SMDPad,CuDef*%
%ADD11RoundRect,0.800000X-0.000010X0.800000X-0.000010X-0.800000X0.000010X-0.800000X0.000010X0.800000X0*%
%TD*%
%TA.AperFunction,ComponentPad*%
%ADD12C,1.600000*%
%TD*%
%TA.AperFunction,SMDPad,CuDef*%
%ADD13FreePoly0,270.000000*%
%TD*%
%TA.AperFunction,ComponentPad*%
%ADD14FreePoly1,270.000000*%
%TD*%
%TA.AperFunction,ComponentPad*%
%ADD15FreePoly2,270.000000*%
%TD*%
%TA.AperFunction,SMDPad,CuDef*%
%ADD16FreePoly3,270.000000*%
%TD*%
%TA.AperFunction,ComponentPad*%
%ADD17RoundRect,0.200000X-0.600000X0.600000X-0.600000X-0.600000X0.600000X-0.600000X0.600000X0.600000X0*%
%TD*%
%TA.AperFunction,ComponentPad*%
%ADD18C,0.800000*%
%TD*%
%TA.AperFunction,ComponentPad*%
%ADD19C,6.400000*%
%TD*%
%TA.AperFunction,ComponentPad*%
%ADD20R,1.700000X1.700000*%
%TD*%
%TA.AperFunction,ComponentPad*%
%ADD21C,1.700000*%
%TD*%
%TA.AperFunction,ViaPad*%
%ADD22C,0.600000*%
%TD*%
%TA.AperFunction,Conductor*%
%ADD23C,0.500000*%
%TD*%
G04 APERTURE END LIST*
D10*
%TO.P,U3,6,SW2*%
%TO.N,GND*%
X53900000Y-35920000D03*
%TO.P,U3,5,SW1*%
%TO.N,Net-(A1-GPIO28_ADC2)*%
X47550000Y-38460000D03*
%TD*%
D11*
%TO.P,A1,40,VBUS*%
%TO.N,unconnected-(A1-VBUS-Pad40)*%
X61160000Y-29500000D03*
D12*
X61160000Y-28700000D03*
D11*
%TO.P,A1,39,VSYS*%
%TO.N,unconnected-(A1-VSYS-Pad39)*%
X58620000Y-29500000D03*
D12*
X58620000Y-28700000D03*
D13*
%TO.P,A1,38,GND*%
%TO.N,GND*%
X56080000Y-29500000D03*
D14*
X56080000Y-28700000D03*
D11*
%TO.P,A1,37,3V3_EN*%
%TO.N,unconnected-(A1-3V3_EN-Pad37)*%
X53540000Y-29500000D03*
D12*
X53540000Y-28700000D03*
D11*
%TO.P,A1,36,3V3*%
%TO.N,+3.3V*%
X51000000Y-29500000D03*
D12*
X51000000Y-28700000D03*
D11*
%TO.P,A1,35,ADC_VREF*%
%TO.N,unconnected-(A1-ADC_VREF-Pad35)*%
X48460000Y-29500000D03*
D12*
X48460000Y-28700000D03*
D11*
%TO.P,A1,34,GPIO28_ADC2*%
%TO.N,Net-(A1-GPIO28_ADC2)*%
X45920000Y-29500000D03*
D12*
X45920000Y-28700000D03*
D13*
%TO.P,A1,33,AGND*%
%TO.N,unconnected-(A1-AGND-Pad33)*%
X43380000Y-29500000D03*
D14*
X43380000Y-28700000D03*
D11*
%TO.P,A1,32,GPIO27_ADC1*%
%TO.N,Net-(A1-GPIO27_ADC1)*%
X40840000Y-29500000D03*
D12*
X40840000Y-28700000D03*
D11*
%TO.P,A1,31,GPIO26_ADC0*%
%TO.N,unconnected-(A1-GPIO26_ADC0-Pad31)*%
X38300000Y-29500000D03*
D12*
X38300000Y-28700000D03*
D11*
%TO.P,A1,30,RUN*%
%TO.N,unconnected-(A1-RUN-Pad30)*%
X35760000Y-29500000D03*
D12*
X35760000Y-28700000D03*
D11*
%TO.P,A1,29,GPIO22*%
%TO.N,unconnected-(A1-GPIO22-Pad29)*%
X33220000Y-29500000D03*
D12*
X33220000Y-28700000D03*
D13*
%TO.P,A1,28,GND*%
%TO.N,GND*%
X30680000Y-29500000D03*
D14*
X30680000Y-28700000D03*
D11*
%TO.P,A1,27,GPIO21*%
%TO.N,Net-(A1-GPIO21)*%
X28140000Y-29500000D03*
D12*
X28140000Y-28700000D03*
D11*
%TO.P,A1,26,GPIO20*%
%TO.N,unconnected-(A1-GPIO20-Pad26)*%
X25600000Y-29500000D03*
D12*
X25600000Y-28700000D03*
D11*
%TO.P,A1,25,GPIO19*%
%TO.N,unconnected-(A1-GPIO19-Pad25)*%
X23060000Y-29500000D03*
D12*
X23060000Y-28700000D03*
D11*
%TO.P,A1,24,GPIO18*%
%TO.N,unconnected-(A1-GPIO18-Pad24)*%
X20520000Y-29500000D03*
D12*
X20520000Y-28700000D03*
D13*
%TO.P,A1,23,GND*%
%TO.N,GND*%
X17980000Y-29500000D03*
D14*
X17980000Y-28700000D03*
D11*
%TO.P,A1,22,GPIO17*%
%TO.N,unconnected-(A1-GPIO17-Pad22)*%
X15440000Y-29500000D03*
D12*
X15440000Y-28700000D03*
D11*
%TO.P,A1,21,GPIO16*%
%TO.N,Net-(A1-GPIO16)*%
X12900000Y-29500000D03*
D12*
X12900000Y-28700000D03*
%TO.P,A1,20,GPIO15*%
%TO.N,unconnected-(A1-GPIO15-Pad20)*%
X12900000Y-10920000D03*
D11*
X12900000Y-10120000D03*
D12*
%TO.P,A1,19,GPIO14*%
%TO.N,unconnected-(A1-GPIO14-Pad19)*%
X15440000Y-10920000D03*
D11*
X15440000Y-10120000D03*
D15*
%TO.P,A1,18,GND*%
%TO.N,GND*%
X17980000Y-10920000D03*
D16*
X17980000Y-10120000D03*
D12*
%TO.P,A1,17,GPIO13*%
%TO.N,unconnected-(A1-GPIO13-Pad17)*%
X20520000Y-10920000D03*
D11*
X20520000Y-10120000D03*
D12*
%TO.P,A1,16,GPIO12*%
%TO.N,unconnected-(A1-GPIO12-Pad16)*%
X23060000Y-10920000D03*
D11*
X23060000Y-10120000D03*
D12*
%TO.P,A1,15,GPIO11*%
%TO.N,unconnected-(A1-GPIO11-Pad15)*%
X25600000Y-10920000D03*
D11*
X25600000Y-10120000D03*
D12*
%TO.P,A1,14,GPIO10*%
%TO.N,unconnected-(A1-GPIO10-Pad14)*%
X28140000Y-10920000D03*
D11*
X28140000Y-10120000D03*
D15*
%TO.P,A1,13,GND*%
%TO.N,GND*%
X30680000Y-10920000D03*
D16*
X30680000Y-10120000D03*
D12*
%TO.P,A1,12,GPIO9*%
%TO.N,unconnected-(A1-GPIO9-Pad12)*%
X33220000Y-10920000D03*
D11*
X33220000Y-10120000D03*
D12*
%TO.P,A1,11,GPIO8*%
%TO.N,unconnected-(A1-GPIO8-Pad11)*%
X35760000Y-10920000D03*
D11*
X35760000Y-10120000D03*
D12*
%TO.P,A1,10,GPIO7*%
%TO.N,unconnected-(A1-GPIO7-Pad10)*%
X38300000Y-10920000D03*
D11*
X38300000Y-10120000D03*
D12*
%TO.P,A1,9,GPIO6*%
%TO.N,unconnected-(A1-GPIO6-Pad9)*%
X40840000Y-10920000D03*
D11*
X40840000Y-10120000D03*
D15*
%TO.P,A1,8,GND*%
%TO.N,GND*%
X43380000Y-10920000D03*
D16*
X43380000Y-10120000D03*
D12*
%TO.P,A1,7,GPIO5*%
%TO.N,scl*%
X45920000Y-10920000D03*
D11*
X45920000Y-10120000D03*
D12*
%TO.P,A1,6,GPIO4*%
%TO.N,sda*%
X48460000Y-10920000D03*
D11*
X48460000Y-10120000D03*
D12*
%TO.P,A1,5,GPIO3*%
%TO.N,unconnected-(A1-GPIO3-Pad5)*%
X51000000Y-10920000D03*
D11*
X51000000Y-10120000D03*
D12*
%TO.P,A1,4,GPIO2*%
%TO.N,unconnected-(A1-GPIO2-Pad4)*%
X53540000Y-10920000D03*
D11*
X53540000Y-10120000D03*
D15*
%TO.P,A1,3,GND*%
%TO.N,GND*%
X56080000Y-10920000D03*
D16*
X56080000Y-10120000D03*
D12*
%TO.P,A1,2,GPIO1*%
%TO.N,unconnected-(A1-GPIO1-Pad2)*%
X58620000Y-10920000D03*
D11*
X58620000Y-10120000D03*
D17*
%TO.P,A1,1,GPIO0*%
%TO.N,unconnected-(A1-GPIO0-Pad1)*%
X61160000Y-10920000D03*
D13*
X61160000Y-10120000D03*
%TD*%
D10*
%TO.P,U1,5,SW1*%
%TO.N,Net-(A1-GPIO16)*%
X9450000Y-38460000D03*
%TO.P,U1,6,SW2*%
%TO.N,GND*%
X15800000Y-35920000D03*
%TD*%
%TO.P,U2,5,SW1*%
%TO.N,Net-(A1-GPIO21)*%
X28500000Y-38460000D03*
%TO.P,U2,6,SW2*%
%TO.N,GND*%
X34850000Y-35920000D03*
%TD*%
D18*
%TO.P,H2,1,1*%
%TO.N,unconnected-(H2-Pad1)*%
X58402944Y-4000000D03*
X59105888Y-2302944D03*
X59105888Y-5697056D03*
X60802944Y-1600000D03*
D19*
X60802944Y-4000000D03*
D18*
X60802944Y-6400000D03*
X62500000Y-2302944D03*
X62500000Y-5697056D03*
X63202944Y-4000000D03*
%TD*%
%TO.P,H1,1,1*%
%TO.N,unconnected-(H1-Pad1)*%
X1600000Y-4000000D03*
X2302944Y-2302944D03*
X2302944Y-5697056D03*
X4000000Y-1600000D03*
D19*
X4000000Y-4000000D03*
D18*
X4000000Y-6400000D03*
X5697056Y-2302944D03*
X5697056Y-5697056D03*
X6400000Y-4000000D03*
%TD*%
D20*
%TO.P,J1,1,Pin_1*%
%TO.N,GND*%
X39880000Y-3500000D03*
D21*
%TO.P,J1,2,Pin_2*%
%TO.N,+3.3V*%
X42420000Y-3500000D03*
%TO.P,J1,3,Pin_3*%
%TO.N,scl*%
X44960000Y-3500000D03*
%TO.P,J1,4,Pin_4*%
%TO.N,sda*%
X47500000Y-3500000D03*
%TD*%
D22*
%TO.N,GND*%
X28000000Y-45250000D03*
%TO.N,+3.3V*%
X35250000Y-48750000D03*
X54000000Y-48250000D03*
%TD*%
D23*
%TO.N,+3.3V*%
X53500000Y-48750000D02*
X35250000Y-48750000D01*
X54000000Y-48250000D02*
X53500000Y-48750000D01*
X51000000Y-36500000D02*
X51000000Y-29500000D01*
X54000000Y-39500000D02*
X51000000Y-36500000D01*
X54000000Y-48250000D02*
X54000000Y-39500000D01*
X42420000Y-5920000D02*
X44636000Y-8136000D01*
X44636000Y-8136000D02*
X44636000Y-18136000D01*
X44636000Y-18136000D02*
X51000000Y-24500000D01*
X51000000Y-24500000D02*
X51000000Y-28700000D01*
X42420000Y-3500000D02*
X42420000Y-5920000D01*
%TO.N,sda*%
X48460000Y-10120000D02*
X48460000Y-6960000D01*
X47500000Y-6000000D02*
X47500000Y-3500000D01*
X48460000Y-6960000D02*
X47500000Y-6000000D01*
%TO.N,scl*%
X45920000Y-7420000D02*
X44960000Y-6460000D01*
X44960000Y-6460000D02*
X44960000Y-3500000D01*
X45920000Y-10920000D02*
X45920000Y-7420000D01*
%TO.N,Net-(A1-GPIO28_ADC2)*%
X47550000Y-35050000D02*
X45920000Y-33420000D01*
X45920000Y-33420000D02*
X45920000Y-29500000D01*
X47550000Y-38460000D02*
X47550000Y-35050000D01*
%TO.N,Net-(A1-GPIO21)*%
X28140000Y-34140000D02*
X28140000Y-29500000D01*
X28500000Y-38460000D02*
X28500000Y-34500000D01*
X28500000Y-34500000D02*
X28140000Y-34140000D01*
%TO.N,Net-(A1-GPIO16)*%
X9450000Y-38460000D02*
X9450000Y-36050000D01*
X12900000Y-32600000D02*
X12900000Y-29500000D01*
X9450000Y-36050000D02*
X12900000Y-32600000D01*
%TD*%
%TA.AperFunction,Conductor*%
%TO.N,GND*%
G36*
X43573039Y-10139685D02*
G01*
X43618794Y-10192489D01*
X43630000Y-10244000D01*
X43630000Y-10486988D01*
X43572993Y-10454075D01*
X43445826Y-10420000D01*
X43314174Y-10420000D01*
X43187007Y-10454075D01*
X43130000Y-10486988D01*
X43130000Y-10244000D01*
X43149685Y-10176961D01*
X43202489Y-10131206D01*
X43254000Y-10120000D01*
X43506000Y-10120000D01*
X43573039Y-10139685D01*
G37*
%TD.AperFunction*%
%TA.AperFunction,Conductor*%
G36*
X59009861Y-501946D02*
G01*
X59014886Y-500900D01*
X59043046Y-511690D01*
X59071975Y-520185D01*
X59075335Y-524063D01*
X59080129Y-525900D01*
X59097987Y-550204D01*
X59117730Y-572989D01*
X59118460Y-578068D01*
X59121500Y-582205D01*
X59123382Y-612301D01*
X59127674Y-642147D01*
X59125541Y-646816D01*
X59125862Y-651938D01*
X59111177Y-678268D01*
X59098649Y-705703D01*
X59093653Y-709691D01*
X59091831Y-712960D01*
X59063389Y-733858D01*
X58898223Y-822140D01*
X58898205Y-822151D01*
X58595908Y-1024140D01*
X58595894Y-1024150D01*
X58314837Y-1254807D01*
X58057751Y-1511893D01*
X57827094Y-1792950D01*
X57827084Y-1792964D01*
X57625095Y-2095261D01*
X57625084Y-2095279D01*
X57453700Y-2415916D01*
X57453698Y-2415921D01*
X57314558Y-2751834D01*
X57209011Y-3099776D01*
X57209008Y-3099787D01*
X57138081Y-3456369D01*
X57127301Y-3565826D01*
X57102444Y-3818206D01*
X57102444Y-4181794D01*
X57113281Y-4291829D01*
X57138081Y-4543630D01*
X57209008Y-4900212D01*
X57209011Y-4900223D01*
X57314558Y-5248165D01*
X57453698Y-5584078D01*
X57453700Y-5584083D01*
X57625084Y-5904720D01*
X57625095Y-5904738D01*
X57827084Y-6207035D01*
X57827094Y-6207049D01*
X58057751Y-6488106D01*
X58314837Y-6745192D01*
X58314842Y-6745196D01*
X58314843Y-6745197D01*
X58595900Y-6975854D01*
X58898212Y-7177853D01*
X58898221Y-7177858D01*
X58898223Y-7177859D01*
X59218860Y-7349243D01*
X59218862Y-7349243D01*
X59218868Y-7349247D01*
X59554780Y-7488386D01*
X59902711Y-7593930D01*
X59902717Y-7593931D01*
X59902720Y-7593932D01*
X59902731Y-7593935D01*
X60259313Y-7664862D01*
X60621150Y-7700500D01*
X60621153Y-7700500D01*
X60984735Y-7700500D01*
X60984738Y-7700500D01*
X61346575Y-7664862D01*
X61415989Y-7651054D01*
X61703156Y-7593935D01*
X61703167Y-7593932D01*
X61703167Y-7593931D01*
X61703177Y-7593930D01*
X62051108Y-7488386D01*
X62387020Y-7349247D01*
X62707676Y-7177853D01*
X63009988Y-6975854D01*
X63291045Y-6745197D01*
X63548141Y-6488101D01*
X63778798Y-6207044D01*
X63892398Y-6037029D01*
X63946010Y-5992225D01*
X64015335Y-5983518D01*
X64078363Y-6013672D01*
X64115082Y-6073115D01*
X64119500Y-6105921D01*
X64119500Y-49996948D01*
X64119351Y-50003033D01*
X64102947Y-50336928D01*
X64101754Y-50349037D01*
X64053151Y-50676694D01*
X64050777Y-50688630D01*
X63970292Y-51009944D01*
X63966759Y-51021588D01*
X63855170Y-51333459D01*
X63850514Y-51344702D01*
X63708885Y-51644151D01*
X63703148Y-51654883D01*
X63532862Y-51938988D01*
X63526102Y-51949106D01*
X63328775Y-52215170D01*
X63321055Y-52224576D01*
X63098611Y-52470006D01*
X63090006Y-52478611D01*
X62844576Y-52701055D01*
X62835170Y-52708775D01*
X62569106Y-52906102D01*
X62558988Y-52912862D01*
X62274883Y-53083148D01*
X62264151Y-53088885D01*
X61964702Y-53230514D01*
X61953459Y-53235170D01*
X61641588Y-53346759D01*
X61629944Y-53350292D01*
X61308630Y-53430777D01*
X61296694Y-53433151D01*
X60969037Y-53481754D01*
X60956928Y-53482947D01*
X60641989Y-53498419D01*
X60623031Y-53499351D01*
X60616949Y-53499500D01*
X4003051Y-53499500D01*
X3996968Y-53499351D01*
X3976900Y-53498365D01*
X3663071Y-53482947D01*
X3650962Y-53481754D01*
X3323305Y-53433151D01*
X3311369Y-53430777D01*
X2990055Y-53350292D01*
X2978411Y-53346759D01*
X2666540Y-53235170D01*
X2655301Y-53230515D01*
X2355844Y-53088883D01*
X2345121Y-53083150D01*
X2061011Y-52912862D01*
X2050893Y-52906102D01*
X1784829Y-52708775D01*
X1775423Y-52701055D01*
X1736475Y-52665755D01*
X1529986Y-52478604D01*
X1521395Y-52470013D01*
X1298944Y-52224576D01*
X1291224Y-52215170D01*
X1093897Y-51949106D01*
X1087137Y-51938988D01*
X916844Y-51654871D01*
X911120Y-51644163D01*
X769479Y-51344688D01*
X764829Y-51333459D01*
X653240Y-51021588D01*
X649707Y-51009944D01*
X640958Y-50975015D01*
X569219Y-50688617D01*
X566848Y-50676694D01*
X518245Y-50349037D01*
X517052Y-50336927D01*
X500649Y-50003032D01*
X500500Y-49996948D01*
X500500Y-44484108D01*
X11059500Y-44484108D01*
X11059500Y-47615891D01*
X11093608Y-47743187D01*
X11126554Y-47800250D01*
X11159500Y-47857314D01*
X11252686Y-47950500D01*
X11366814Y-48016392D01*
X11494108Y-48050500D01*
X11494110Y-48050500D01*
X15025890Y-48050500D01*
X15025892Y-48050500D01*
X15153186Y-48016392D01*
X15267314Y-47950500D01*
X15360500Y-47857314D01*
X15426392Y-47743186D01*
X15460500Y-47615892D01*
X15460500Y-44484108D01*
X30109500Y-44484108D01*
X30109500Y-47615891D01*
X30143608Y-47743187D01*
X30176554Y-47800250D01*
X30209500Y-47857314D01*
X30302686Y-47950500D01*
X30416814Y-48016392D01*
X30544108Y-48050500D01*
X30544110Y-48050500D01*
X34075890Y-48050500D01*
X34075892Y-48050500D01*
X34203186Y-48016392D01*
X34317314Y-47950500D01*
X34410500Y-47857314D01*
X34476392Y-47743186D01*
X34510500Y-47615892D01*
X34510500Y-44484108D01*
X34476392Y-44356814D01*
X34410500Y-44242686D01*
X34317314Y-44149500D01*
X34260250Y-44116554D01*
X34203187Y-44083608D01*
X34139539Y-44066554D01*
X34075892Y-44049500D01*
X30675892Y-44049500D01*
X30544108Y-44049500D01*
X30416812Y-44083608D01*
X30302686Y-44149500D01*
X30302683Y-44149502D01*
X30209502Y-44242683D01*
X30209500Y-44242686D01*
X30143608Y-44356812D01*
X30109500Y-44484108D01*
X15460500Y-44484108D01*
X15426392Y-44356814D01*
X15360500Y-44242686D01*
X15267314Y-44149500D01*
X15210250Y-44116554D01*
X15153187Y-44083608D01*
X15089539Y-44066554D01*
X15025892Y-44049500D01*
X11625892Y-44049500D01*
X11494108Y-44049500D01*
X11366812Y-44083608D01*
X11252686Y-44149500D01*
X11252683Y-44149502D01*
X11159502Y-44242683D01*
X11159500Y-44242686D01*
X11093608Y-44356812D01*
X11059500Y-44484108D01*
X500500Y-44484108D01*
X500500Y-40913389D01*
X7079500Y-40913389D01*
X7079500Y-41086611D01*
X7106598Y-41257701D01*
X7160127Y-41422445D01*
X7238768Y-41576788D01*
X7340586Y-41716928D01*
X7463072Y-41839414D01*
X7603212Y-41941232D01*
X7757555Y-42019873D01*
X7922299Y-42073402D01*
X8093389Y-42100500D01*
X8093390Y-42100500D01*
X8266610Y-42100500D01*
X8266611Y-42100500D01*
X8437701Y-42073402D01*
X8602445Y-42019873D01*
X8756788Y-41941232D01*
X8896928Y-41839414D01*
X9019414Y-41716928D01*
X9121232Y-41576788D01*
X9199873Y-41422445D01*
X9253402Y-41257701D01*
X9280500Y-41086611D01*
X9280500Y-40913389D01*
X9270854Y-40852486D01*
X11009500Y-40852486D01*
X11009500Y-41147513D01*
X11041571Y-41391113D01*
X11048007Y-41439993D01*
X11122212Y-41716930D01*
X11124361Y-41724951D01*
X11124364Y-41724961D01*
X11237254Y-41997500D01*
X11237258Y-41997510D01*
X11384761Y-42252993D01*
X11564352Y-42487040D01*
X11564358Y-42487047D01*
X11772952Y-42695641D01*
X11772959Y-42695647D01*
X12007006Y-42875238D01*
X12262489Y-43022741D01*
X12262490Y-43022741D01*
X12262493Y-43022743D01*
X12535048Y-43135639D01*
X12820007Y-43211993D01*
X13112494Y-43250500D01*
X13112501Y-43250500D01*
X13407499Y-43250500D01*
X13407506Y-43250500D01*
X13699993Y-43211993D01*
X13984952Y-43135639D01*
X14257507Y-43022743D01*
X14512994Y-42875238D01*
X14747042Y-42695646D01*
X14955646Y-42487042D01*
X15135238Y-42252994D01*
X15282743Y-41997507D01*
X15395639Y-41724952D01*
X15471993Y-41439993D01*
X15510500Y-41147506D01*
X15510500Y-40913389D01*
X17239500Y-40913389D01*
X17239500Y-41086611D01*
X17266598Y-41257701D01*
X17320127Y-41422445D01*
X17398768Y-41576788D01*
X17500586Y-41716928D01*
X17623072Y-41839414D01*
X17763212Y-41941232D01*
X17917555Y-42019873D01*
X18082299Y-42073402D01*
X18253389Y-42100500D01*
X18253390Y-42100500D01*
X18426610Y-42100500D01*
X18426611Y-42100500D01*
X18597701Y-42073402D01*
X18762445Y-42019873D01*
X18916788Y-41941232D01*
X19056928Y-41839414D01*
X19179414Y-41716928D01*
X19281232Y-41576788D01*
X19359873Y-41422445D01*
X19413402Y-41257701D01*
X19440500Y-41086611D01*
X19440500Y-40913389D01*
X19413402Y-40742299D01*
X19359873Y-40577555D01*
X19281232Y-40423212D01*
X19179414Y-40283072D01*
X19056928Y-40160586D01*
X18916788Y-40058768D01*
X18762445Y-39980127D01*
X18597701Y-39926598D01*
X18597699Y-39926597D01*
X18597698Y-39926597D01*
X18466271Y-39905781D01*
X18426611Y-39899500D01*
X18253389Y-39899500D01*
X18213728Y-39905781D01*
X18082302Y-39926597D01*
X17917552Y-39980128D01*
X17763211Y-40058768D01*
X17706289Y-40100125D01*
X17623072Y-40160586D01*
X17623070Y-40160588D01*
X17623069Y-40160588D01*
X17500588Y-40283069D01*
X17500588Y-40283070D01*
X17500586Y-40283072D01*
X17456859Y-40343256D01*
X17398768Y-40423211D01*
X17320128Y-40577552D01*
X17266597Y-40742302D01*
X17239500Y-40913389D01*
X15510500Y-40913389D01*
X15510500Y-40852494D01*
X15471993Y-40560007D01*
X15395639Y-40275048D01*
X15282743Y-40002493D01*
X15227309Y-39906479D01*
X15135238Y-39747006D01*
X14955647Y-39512959D01*
X14955641Y-39512952D01*
X14747047Y-39304358D01*
X14747040Y-39304352D01*
X14512993Y-39124761D01*
X14257510Y-38977258D01*
X14257500Y-38977254D01*
X13984961Y-38864364D01*
X13984954Y-38864362D01*
X13984952Y-38864361D01*
X13699993Y-38788007D01*
X13651113Y-38781571D01*
X13407513Y-38749500D01*
X13407506Y-38749500D01*
X13112494Y-38749500D01*
X13112486Y-38749500D01*
X12834085Y-38786153D01*
X12820007Y-38788007D01*
X12669612Y-38828305D01*
X12535048Y-38864361D01*
X12535038Y-38864364D01*
X12262499Y-38977254D01*
X12262489Y-38977258D01*
X12007006Y-39124761D01*
X11772959Y-39304352D01*
X11772952Y-39304358D01*
X11564358Y-39512952D01*
X11564352Y-39512959D01*
X11384761Y-39747006D01*
X11237258Y-40002489D01*
X11237254Y-40002499D01*
X11124364Y-40275038D01*
X11124361Y-40275048D01*
X11048008Y-40560004D01*
X11048006Y-40560015D01*
X11009500Y-40852486D01*
X9270854Y-40852486D01*
X9253402Y-40742299D01*
X9199873Y-40577555D01*
X9121232Y-40423212D01*
X9019414Y-40283072D01*
X8967482Y-40231140D01*
X8933997Y-40169817D01*
X8938981Y-40100125D01*
X8980853Y-40044192D01*
X9046317Y-40019775D01*
X9074561Y-40020986D01*
X9075212Y-40021089D01*
X9075215Y-40021090D01*
X9324038Y-40060500D01*
X9324039Y-40060500D01*
X9575961Y-40060500D01*
X9575962Y-40060500D01*
X9824785Y-40021090D01*
X10064379Y-39943241D01*
X10288845Y-39828870D01*
X10492656Y-39680793D01*
X10670793Y-39502656D01*
X10818870Y-39298845D01*
X10933241Y-39074379D01*
X11011090Y-38834785D01*
X11050500Y-38585962D01*
X11050500Y-38334038D01*
X11011090Y-38085215D01*
X10933241Y-37845621D01*
X10933239Y-37845618D01*
X10933239Y-37845616D01*
X10891747Y-37764184D01*
X10818870Y-37621155D01*
X10716753Y-37480602D01*
X10670798Y-37417350D01*
X10670794Y-37417345D01*
X10492654Y-37239205D01*
X10492649Y-37239201D01*
X10288848Y-37091131D01*
X10268203Y-37080612D01*
X10217408Y-37032637D01*
X10200500Y-36970128D01*
X10200500Y-36412230D01*
X10220185Y-36345191D01*
X10236819Y-36324549D01*
X10767297Y-35794071D01*
X14200000Y-35794071D01*
X14200000Y-36045928D01*
X14239397Y-36294669D01*
X14317219Y-36534184D01*
X14431557Y-36758583D01*
X14505748Y-36860697D01*
X14505748Y-36860698D01*
X15122421Y-36244024D01*
X15135359Y-36275258D01*
X15217437Y-36398097D01*
X15321903Y-36502563D01*
X15444742Y-36584641D01*
X15475974Y-36597577D01*
X14859300Y-37214250D01*
X14961416Y-37288442D01*
X15185815Y-37402780D01*
X15425330Y-37480602D01*
X15674072Y-37520000D01*
X15925928Y-37520000D01*
X16174669Y-37480602D01*
X16414184Y-37402780D01*
X16638575Y-37288446D01*
X16638581Y-37288442D01*
X16740697Y-37214250D01*
X16740698Y-37214250D01*
X16124025Y-36597578D01*
X16155258Y-36584641D01*
X16278097Y-36502563D01*
X16382563Y-36398097D01*
X16464641Y-36275258D01*
X16477578Y-36244025D01*
X17094250Y-36860698D01*
X17094250Y-36860697D01*
X17168442Y-36758581D01*
X17168446Y-36758575D01*
X17282780Y-36534184D01*
X17360602Y-36294669D01*
X17400000Y-36045928D01*
X17400000Y-35794071D01*
X17360602Y-35545330D01*
X17282780Y-35305815D01*
X17168442Y-35081416D01*
X17094250Y-34979301D01*
X17094250Y-34979300D01*
X16477577Y-35595973D01*
X16464641Y-35564742D01*
X16382563Y-35441903D01*
X16278097Y-35337437D01*
X16155258Y-35255359D01*
X16124024Y-35242421D01*
X16740698Y-34625748D01*
X16638583Y-34551557D01*
X16414184Y-34437219D01*
X16174669Y-34359397D01*
X15925928Y-34320000D01*
X15674072Y-34320000D01*
X15425330Y-34359397D01*
X15185815Y-34437219D01*
X14961413Y-34551559D01*
X14859301Y-34625747D01*
X14859300Y-34625748D01*
X15475974Y-35242421D01*
X15444742Y-35255359D01*
X15321903Y-35337437D01*
X15217437Y-35441903D01*
X15135359Y-35564742D01*
X15122421Y-35595974D01*
X14505748Y-34979300D01*
X14505747Y-34979301D01*
X14431559Y-35081413D01*
X14317219Y-35305815D01*
X14239397Y-35545330D01*
X14200000Y-35794071D01*
X10767297Y-35794071D01*
X11976041Y-34585327D01*
X12695917Y-33865451D01*
X13482952Y-33078416D01*
X13532186Y-33004729D01*
X13565084Y-32955495D01*
X13621658Y-32818913D01*
X13650500Y-32673918D01*
X13650500Y-31426662D01*
X13670185Y-31359623D01*
X13703379Y-31325086D01*
X13739140Y-31300046D01*
X13900045Y-31139141D01*
X13900047Y-31139139D01*
X14030568Y-30952734D01*
X14057618Y-30894724D01*
X14103790Y-30842285D01*
X14170983Y-30823133D01*
X14237865Y-30843348D01*
X14282382Y-30894725D01*
X14309429Y-30952728D01*
X14309432Y-30952734D01*
X14439954Y-31139141D01*
X14600858Y-31300045D01*
X14600861Y-31300047D01*
X14787266Y-31430568D01*
X14993504Y-31526739D01*
X14993509Y-31526740D01*
X14993511Y-31526741D01*
X15029100Y-31536277D01*
X15213308Y-31585635D01*
X15383214Y-31600499D01*
X15383215Y-31600500D01*
X15383216Y-31600500D01*
X15496785Y-31600500D01*
X15496785Y-31600499D01*
X15666692Y-31585635D01*
X15886496Y-31526739D01*
X16092734Y-31430568D01*
X16279139Y-31300047D01*
X16440047Y-31139139D01*
X16570568Y-30952734D01*
X16594795Y-30900777D01*
X16640965Y-30848341D01*
X16708158Y-30829188D01*
X16775040Y-30849403D01*
X16816534Y-30894730D01*
X16851155Y-30959501D01*
X16851167Y-30959521D01*
X16938704Y-31090530D01*
X16938708Y-31090536D01*
X17001514Y-31167064D01*
X17112935Y-31278485D01*
X17189463Y-31341291D01*
X17189469Y-31341295D01*
X17320478Y-31428832D01*
X17320498Y-31428844D01*
X17407801Y-31475509D01*
X17553387Y-31535814D01*
X17648135Y-31564554D01*
X17730000Y-31580837D01*
X17730000Y-29133012D01*
X17787007Y-29165925D01*
X17914174Y-29200000D01*
X18045826Y-29200000D01*
X18172993Y-29165925D01*
X18230000Y-29133012D01*
X18230000Y-31580837D01*
X18311864Y-31564554D01*
X18406612Y-31535814D01*
X18552198Y-31475509D01*
X18639501Y-31428844D01*
X18639521Y-31428832D01*
X18770530Y-31341295D01*
X18770536Y-31341291D01*
X18847064Y-31278485D01*
X18958485Y-31167064D01*
X19021291Y-31090536D01*
X19021295Y-31090530D01*
X19108832Y-30959521D01*
X19108844Y-30959500D01*
X19143464Y-30894732D01*
X19192426Y-30844887D01*
X19260564Y-30829426D01*
X19326244Y-30853257D01*
X19365205Y-30900779D01*
X19389431Y-30952732D01*
X19389432Y-30952734D01*
X19519954Y-31139141D01*
X19680858Y-31300045D01*
X19680861Y-31300047D01*
X19867266Y-31430568D01*
X20073504Y-31526739D01*
X20073509Y-31526740D01*
X20073511Y-31526741D01*
X20109100Y-31536277D01*
X20293308Y-31585635D01*
X20463214Y-31600499D01*
X20463215Y-31600500D01*
X20463216Y-31600500D01*
X20576785Y-31600500D01*
X20576785Y-31600499D01*
X20746692Y-31585635D01*
X20966496Y-31526739D01*
X21172734Y-31430568D01*
X21359139Y-31300047D01*
X21520047Y-31139139D01*
X21650568Y-30952734D01*
X21677618Y-30894724D01*
X21723790Y-30842285D01*
X21790983Y-30823133D01*
X21857865Y-30843348D01*
X21902382Y-30894725D01*
X21929429Y-30952728D01*
X21929432Y-30952734D01*
X22059954Y-31139141D01*
X22220858Y-31300045D01*
X22220861Y-31300047D01*
X22407266Y-31430568D01*
X22613504Y-31526739D01*
X22613509Y-31526740D01*
X22613511Y-31526741D01*
X22649100Y-31536277D01*
X22833308Y-31585635D01*
X23003214Y-31600499D01*
X23003215Y-31600500D01*
X23003216Y-31600500D01*
X23116785Y-31600500D01*
X23116785Y-31600499D01*
X23286692Y-31585635D01*
X23506496Y-31526739D01*
X23712734Y-31430568D01*
X23899139Y-31300047D01*
X24060047Y-31139139D01*
X24190568Y-30952734D01*
X24217618Y-30894724D01*
X24263790Y-30842285D01*
X24330983Y-30823133D01*
X24397865Y-30843348D01*
X24442382Y-30894725D01*
X24469429Y-30952728D01*
X24469432Y-30952734D01*
X24599954Y-31139141D01*
X24760858Y-31300045D01*
X24760861Y-31300047D01*
X24947266Y-31430568D01*
X25153504Y-31526739D01*
X25153509Y-31526740D01*
X25153511Y-31526741D01*
X25189100Y-31536277D01*
X25373308Y-31585635D01*
X25543214Y-31600499D01*
X25543215Y-31600500D01*
X25543216Y-31600500D01*
X25656785Y-31600500D01*
X25656785Y-31600499D01*
X25826692Y-31585635D01*
X26046496Y-31526739D01*
X26252734Y-31430568D01*
X26439139Y-31300047D01*
X26600047Y-31139139D01*
X26730568Y-30952734D01*
X26757618Y-30894724D01*
X26803790Y-30842285D01*
X26870983Y-30823133D01*
X26937865Y-30843348D01*
X26982382Y-30894725D01*
X27009429Y-30952728D01*
X27009432Y-30952734D01*
X27139954Y-31139141D01*
X27300859Y-31300046D01*
X27336621Y-31325086D01*
X27380247Y-31379662D01*
X27389500Y-31426662D01*
X27389500Y-34213918D01*
X27389500Y-34213920D01*
X27389499Y-34213920D01*
X27418340Y-34358907D01*
X27418343Y-34358917D01*
X27474914Y-34495492D01*
X27507812Y-34544727D01*
X27507813Y-34544730D01*
X27557046Y-34618414D01*
X27557047Y-34618415D01*
X27557048Y-34618416D01*
X27713182Y-34774550D01*
X27746666Y-34835872D01*
X27749500Y-34862230D01*
X27749500Y-36970128D01*
X27729815Y-37037167D01*
X27681797Y-37080612D01*
X27661151Y-37091131D01*
X27457350Y-37239201D01*
X27457345Y-37239205D01*
X27279205Y-37417345D01*
X27279201Y-37417350D01*
X27131132Y-37621151D01*
X27016760Y-37845616D01*
X26938910Y-38085214D01*
X26938910Y-38085215D01*
X26899500Y-38334038D01*
X26899500Y-38585962D01*
X26914119Y-38678263D01*
X26938910Y-38834785D01*
X27016760Y-39074383D01*
X27052490Y-39144506D01*
X27122082Y-39281088D01*
X27131132Y-39298848D01*
X27279201Y-39502649D01*
X27279205Y-39502654D01*
X27279207Y-39502656D01*
X27457344Y-39680793D01*
X27457345Y-39680794D01*
X27457344Y-39680794D01*
X27463661Y-39685383D01*
X27506327Y-39740714D01*
X27512305Y-39810327D01*
X27479699Y-39872122D01*
X27418860Y-39906479D01*
X27371378Y-39908174D01*
X27316611Y-39899500D01*
X27143389Y-39899500D01*
X27103728Y-39905781D01*
X26972302Y-39926597D01*
X26807552Y-39980128D01*
X26653211Y-40058768D01*
X26596289Y-40100125D01*
X26513072Y-40160586D01*
X26513070Y-40160588D01*
X26513069Y-40160588D01*
X26390588Y-40283069D01*
X26390588Y-40283070D01*
X26390586Y-40283072D01*
X26346859Y-40343256D01*
X26288768Y-40423211D01*
X26210128Y-40577552D01*
X26156597Y-40742302D01*
X26129500Y-40913389D01*
X26129500Y-41086611D01*
X26156598Y-41257701D01*
X26210127Y-41422445D01*
X26288768Y-41576788D01*
X26390586Y-41716928D01*
X26513072Y-41839414D01*
X26653212Y-41941232D01*
X26807555Y-42019873D01*
X26972299Y-42073402D01*
X27143389Y-42100500D01*
X27143390Y-42100500D01*
X27316610Y-42100500D01*
X27316611Y-42100500D01*
X27487701Y-42073402D01*
X27652445Y-42019873D01*
X27806788Y-41941232D01*
X27946928Y-41839414D01*
X28069414Y-41716928D01*
X28171232Y-41576788D01*
X28249873Y-41422445D01*
X28303402Y-41257701D01*
X28330500Y-41086611D01*
X28330500Y-40913389D01*
X28320854Y-40852486D01*
X30059500Y-40852486D01*
X30059500Y-41147513D01*
X30091571Y-41391113D01*
X30098007Y-41439993D01*
X30172212Y-41716930D01*
X30174361Y-41724951D01*
X30174364Y-41724961D01*
X30287254Y-41997500D01*
X30287258Y-41997510D01*
X30434761Y-42252993D01*
X30614352Y-42487040D01*
X30614358Y-42487047D01*
X30822952Y-42695641D01*
X30822959Y-42695647D01*
X31057006Y-42875238D01*
X31312489Y-43022741D01*
X31312490Y-43022741D01*
X31312493Y-43022743D01*
X31585048Y-43135639D01*
X31870007Y-43211993D01*
X32162494Y-43250500D01*
X32162501Y-43250500D01*
X32457499Y-43250500D01*
X32457506Y-43250500D01*
X32749993Y-43211993D01*
X33034952Y-43135639D01*
X33307507Y-43022743D01*
X33562994Y-42875238D01*
X33797042Y-42695646D01*
X34005646Y-42487042D01*
X34185238Y-42252994D01*
X34332743Y-41997507D01*
X34445639Y-41724952D01*
X34521993Y-41439993D01*
X34560500Y-41147506D01*
X34560500Y-40913389D01*
X36289500Y-40913389D01*
X36289500Y-41086611D01*
X36316598Y-41257701D01*
X36370127Y-41422445D01*
X36448768Y-41576788D01*
X36550586Y-41716928D01*
X36673072Y-41839414D01*
X36813212Y-41941232D01*
X36967555Y-42019873D01*
X37132299Y-42073402D01*
X37303389Y-42100500D01*
X37303390Y-42100500D01*
X37476610Y-42100500D01*
X37476611Y-42100500D01*
X37647701Y-42073402D01*
X37812445Y-42019873D01*
X37966788Y-41941232D01*
X38106928Y-41839414D01*
X38229414Y-41716928D01*
X38331232Y-41576788D01*
X38409873Y-41422445D01*
X38463402Y-41257701D01*
X38490500Y-41086611D01*
X38490500Y-40913389D01*
X38463402Y-40742299D01*
X38409873Y-40577555D01*
X38331232Y-40423212D01*
X38229414Y-40283072D01*
X38106928Y-40160586D01*
X37966788Y-40058768D01*
X37812445Y-39980127D01*
X37647701Y-39926598D01*
X37647699Y-39926597D01*
X37647698Y-39926597D01*
X37516271Y-39905781D01*
X37476611Y-39899500D01*
X37303389Y-39899500D01*
X37263728Y-39905781D01*
X37132302Y-39926597D01*
X36967552Y-39980128D01*
X36813211Y-40058768D01*
X36756289Y-40100125D01*
X36673072Y-40160586D01*
X36673070Y-40160588D01*
X36673069Y-40160588D01*
X36550588Y-40283069D01*
X36550588Y-40283070D01*
X36550586Y-40283072D01*
X36506859Y-40343256D01*
X36448768Y-40423211D01*
X36370128Y-40577552D01*
X36316597Y-40742302D01*
X36289500Y-40913389D01*
X34560500Y-40913389D01*
X34560500Y-40852494D01*
X34521993Y-40560007D01*
X34445639Y-40275048D01*
X34332743Y-40002493D01*
X34277309Y-39906479D01*
X34185238Y-39747006D01*
X34005647Y-39512959D01*
X34005641Y-39512952D01*
X33797047Y-39304358D01*
X33797040Y-39304352D01*
X33562993Y-39124761D01*
X33307510Y-38977258D01*
X33307500Y-38977254D01*
X33034961Y-38864364D01*
X33034954Y-38864362D01*
X33034952Y-38864361D01*
X32749993Y-38788007D01*
X32701113Y-38781571D01*
X32457513Y-38749500D01*
X32457506Y-38749500D01*
X32162494Y-38749500D01*
X32162486Y-38749500D01*
X31884085Y-38786153D01*
X31870007Y-38788007D01*
X31719612Y-38828305D01*
X31585048Y-38864361D01*
X31585038Y-38864364D01*
X31312499Y-38977254D01*
X31312489Y-38977258D01*
X31057006Y-39124761D01*
X30822959Y-39304352D01*
X30822952Y-39304358D01*
X30614358Y-39512952D01*
X30614352Y-39512959D01*
X30434761Y-39747006D01*
X30287258Y-40002489D01*
X30287254Y-40002499D01*
X30174364Y-40275038D01*
X30174361Y-40275048D01*
X30098008Y-40560004D01*
X30098006Y-40560015D01*
X30059500Y-40852486D01*
X28320854Y-40852486D01*
X28303402Y-40742299D01*
X28249873Y-40577555D01*
X28171232Y-40423212D01*
X28069414Y-40283072D01*
X28017482Y-40231140D01*
X27983997Y-40169817D01*
X27988981Y-40100125D01*
X28030853Y-40044192D01*
X28096317Y-40019775D01*
X28124561Y-40020986D01*
X28125212Y-40021089D01*
X28125215Y-40021090D01*
X28374038Y-40060500D01*
X28374039Y-40060500D01*
X28625961Y-40060500D01*
X28625962Y-40060500D01*
X28874785Y-40021090D01*
X29114379Y-39943241D01*
X29338845Y-39828870D01*
X29542656Y-39680793D01*
X29720793Y-39502656D01*
X29868870Y-39298845D01*
X29983241Y-39074379D01*
X30061090Y-38834785D01*
X30100500Y-38585962D01*
X30100500Y-38334038D01*
X30061090Y-38085215D01*
X29983241Y-37845621D01*
X29983239Y-37845618D01*
X29983239Y-37845616D01*
X29941747Y-37764184D01*
X29868870Y-37621155D01*
X29766753Y-37480602D01*
X29720798Y-37417350D01*
X29720794Y-37417345D01*
X29542654Y-37239205D01*
X29542649Y-37239201D01*
X29338848Y-37091131D01*
X29318203Y-37080612D01*
X29267408Y-37032637D01*
X29250500Y-36970128D01*
X29250500Y-35794071D01*
X33250000Y-35794071D01*
X33250000Y-36045928D01*
X33289397Y-36294669D01*
X33367219Y-36534184D01*
X33481557Y-36758583D01*
X33555748Y-36860697D01*
X33555748Y-36860698D01*
X34172421Y-36244024D01*
X34185359Y-36275258D01*
X34267437Y-36398097D01*
X34371903Y-36502563D01*
X34494742Y-36584641D01*
X34525974Y-36597577D01*
X33909300Y-37214250D01*
X34011416Y-37288442D01*
X34235815Y-37402780D01*
X34475330Y-37480602D01*
X34724072Y-37520000D01*
X34975928Y-37520000D01*
X35224669Y-37480602D01*
X35464184Y-37402780D01*
X35688575Y-37288446D01*
X35688581Y-37288442D01*
X35790697Y-37214250D01*
X35790698Y-37214250D01*
X35174025Y-36597578D01*
X35205258Y-36584641D01*
X35328097Y-36502563D01*
X35432563Y-36398097D01*
X35514641Y-36275258D01*
X35527577Y-36244025D01*
X36144250Y-36860698D01*
X36144250Y-36860697D01*
X36218442Y-36758581D01*
X36218446Y-36758575D01*
X36332780Y-36534184D01*
X36410602Y-36294669D01*
X36450000Y-36045928D01*
X36450000Y-35794071D01*
X36410602Y-35545330D01*
X36332780Y-35305815D01*
X36218442Y-35081416D01*
X36144250Y-34979301D01*
X36144250Y-34979300D01*
X35527577Y-35595973D01*
X35514641Y-35564742D01*
X35432563Y-35441903D01*
X35328097Y-35337437D01*
X35205258Y-35255359D01*
X35174024Y-35242421D01*
X35790698Y-34625748D01*
X35688583Y-34551557D01*
X35464184Y-34437219D01*
X35224669Y-34359397D01*
X34975928Y-34320000D01*
X34724072Y-34320000D01*
X34475330Y-34359397D01*
X34235815Y-34437219D01*
X34011413Y-34551559D01*
X33909301Y-34625747D01*
X33909300Y-34625748D01*
X34525974Y-35242421D01*
X34494742Y-35255359D01*
X34371903Y-35337437D01*
X34267437Y-35441903D01*
X34185359Y-35564742D01*
X34172421Y-35595974D01*
X33555748Y-34979300D01*
X33555747Y-34979301D01*
X33481559Y-35081413D01*
X33367219Y-35305815D01*
X33289397Y-35545330D01*
X33250000Y-35794071D01*
X29250500Y-35794071D01*
X29250500Y-34426079D01*
X29221659Y-34281092D01*
X29221658Y-34281091D01*
X29221658Y-34281087D01*
X29193836Y-34213918D01*
X29165087Y-34144511D01*
X29165083Y-34144504D01*
X29125380Y-34085084D01*
X29082952Y-34021584D01*
X28926819Y-33865451D01*
X28893334Y-33804128D01*
X28890500Y-33777770D01*
X28890500Y-31426662D01*
X28910185Y-31359623D01*
X28943379Y-31325086D01*
X28979140Y-31300046D01*
X29140045Y-31139141D01*
X29140047Y-31139139D01*
X29270568Y-30952734D01*
X29294795Y-30900777D01*
X29340965Y-30848341D01*
X29408158Y-30829188D01*
X29475040Y-30849403D01*
X29516534Y-30894730D01*
X29551155Y-30959501D01*
X29551167Y-30959521D01*
X29638704Y-31090530D01*
X29638708Y-31090536D01*
X29701514Y-31167064D01*
X29812935Y-31278485D01*
X29889463Y-31341291D01*
X29889469Y-31341295D01*
X30020478Y-31428832D01*
X30020498Y-31428844D01*
X30107801Y-31475509D01*
X30253387Y-31535814D01*
X30348135Y-31564554D01*
X30430000Y-31580837D01*
X30430000Y-29133012D01*
X30487007Y-29165925D01*
X30614174Y-29200000D01*
X30745826Y-29200000D01*
X30872993Y-29165925D01*
X30930000Y-29133012D01*
X30930000Y-31580837D01*
X31011864Y-31564554D01*
X31106612Y-31535814D01*
X31252198Y-31475509D01*
X31339501Y-31428844D01*
X31339521Y-31428832D01*
X31470530Y-31341295D01*
X31470536Y-31341291D01*
X31547064Y-31278485D01*
X31658485Y-31167064D01*
X31721291Y-31090536D01*
X31721295Y-31090530D01*
X31808832Y-30959521D01*
X31808844Y-30959500D01*
X31843464Y-30894732D01*
X31892426Y-30844887D01*
X31960564Y-30829426D01*
X32026244Y-30853257D01*
X32065205Y-30900779D01*
X32089431Y-30952732D01*
X32089432Y-30952734D01*
X32219954Y-31139141D01*
X32380858Y-31300045D01*
X32380861Y-31300047D01*
X32567266Y-31430568D01*
X32773504Y-31526739D01*
X32773509Y-31526740D01*
X32773511Y-31526741D01*
X32809100Y-31536277D01*
X32993308Y-31585635D01*
X33163214Y-31600499D01*
X33163215Y-31600500D01*
X33163216Y-31600500D01*
X33276785Y-31600500D01*
X33276785Y-31600499D01*
X33446692Y-31585635D01*
X33666496Y-31526739D01*
X33872734Y-31430568D01*
X34059139Y-31300047D01*
X34220047Y-31139139D01*
X34350568Y-30952734D01*
X34377618Y-30894724D01*
X34423790Y-30842285D01*
X34490983Y-30823133D01*
X34557865Y-30843348D01*
X34602382Y-30894725D01*
X34629429Y-30952728D01*
X34629432Y-30952734D01*
X34759954Y-31139141D01*
X34920858Y-31300045D01*
X34920861Y-31300047D01*
X35107266Y-31430568D01*
X35313504Y-31526739D01*
X35313509Y-31526740D01*
X35313511Y-31526741D01*
X35349100Y-31536277D01*
X35533308Y-31585635D01*
X35703214Y-31600499D01*
X35703215Y-31600500D01*
X35703216Y-31600500D01*
X35816785Y-31600500D01*
X35816785Y-31600499D01*
X35986692Y-31585635D01*
X36206496Y-31526739D01*
X36412734Y-31430568D01*
X36599139Y-31300047D01*
X36760047Y-31139139D01*
X36890568Y-30952734D01*
X36917618Y-30894724D01*
X36963790Y-30842285D01*
X37030983Y-30823133D01*
X37097865Y-30843348D01*
X37142382Y-30894725D01*
X37169429Y-30952728D01*
X37169432Y-30952734D01*
X37299954Y-31139141D01*
X37460858Y-31300045D01*
X37460861Y-31300047D01*
X37647266Y-31430568D01*
X37853504Y-31526739D01*
X37853509Y-31526740D01*
X37853511Y-31526741D01*
X37889100Y-31536277D01*
X38073308Y-31585635D01*
X38243214Y-31600499D01*
X38243215Y-31600500D01*
X38243216Y-31600500D01*
X38356785Y-31600500D01*
X38356785Y-31600499D01*
X38526692Y-31585635D01*
X38746496Y-31526739D01*
X38952734Y-31430568D01*
X39139139Y-31300047D01*
X39300047Y-31139139D01*
X39430568Y-30952734D01*
X39457618Y-30894724D01*
X39503790Y-30842285D01*
X39570983Y-30823133D01*
X39637865Y-30843348D01*
X39682382Y-30894725D01*
X39709429Y-30952728D01*
X39709432Y-30952734D01*
X39839954Y-31139141D01*
X40000858Y-31300045D01*
X40000861Y-31300047D01*
X40187266Y-31430568D01*
X40393504Y-31526739D01*
X40393509Y-31526740D01*
X40393511Y-31526741D01*
X40429100Y-31536277D01*
X40613308Y-31585635D01*
X40783214Y-31600499D01*
X40783215Y-31600500D01*
X40783216Y-31600500D01*
X40896785Y-31600500D01*
X40896785Y-31600499D01*
X41066692Y-31585635D01*
X41286496Y-31526739D01*
X41492734Y-31430568D01*
X41679139Y-31300047D01*
X41840047Y-31139139D01*
X41970568Y-30952734D01*
X41994532Y-30901341D01*
X42040702Y-30848905D01*
X42107895Y-30829752D01*
X42174777Y-30849967D01*
X42216271Y-30895294D01*
X42250739Y-30959779D01*
X42250751Y-30959799D01*
X42338278Y-31090793D01*
X42338286Y-31090804D01*
X42338291Y-31090811D01*
X42401157Y-31167412D01*
X42512588Y-31278843D01*
X42589189Y-31341709D01*
X42589198Y-31341715D01*
X42589206Y-31341721D01*
X42720200Y-31429248D01*
X42720205Y-31429251D01*
X42720217Y-31429259D01*
X42720226Y-31429263D01*
X42720228Y-31429265D01*
X42807603Y-31475968D01*
X42807605Y-31475968D01*
X42807611Y-31475972D01*
X42953202Y-31536278D01*
X43048032Y-31565044D01*
X43202590Y-31595787D01*
X43301207Y-31605500D01*
X43301209Y-31605500D01*
X43458791Y-31605500D01*
X43458793Y-31605500D01*
X43557410Y-31595787D01*
X43711968Y-31565044D01*
X43806798Y-31536278D01*
X43952389Y-31475972D01*
X44039783Y-31429259D01*
X44170811Y-31341709D01*
X44247412Y-31278843D01*
X44358843Y-31167412D01*
X44421709Y-31090811D01*
X44509259Y-30959783D01*
X44543729Y-30895293D01*
X44592689Y-30845451D01*
X44660827Y-30829990D01*
X44726507Y-30853821D01*
X44765468Y-30901343D01*
X44789431Y-30952732D01*
X44789432Y-30952734D01*
X44919954Y-31139141D01*
X45080859Y-31300046D01*
X45116621Y-31325086D01*
X45160247Y-31379662D01*
X45169500Y-31426662D01*
X45169500Y-33493918D01*
X45169500Y-33493920D01*
X45169499Y-33493920D01*
X45198340Y-33638907D01*
X45198343Y-33638917D01*
X45254913Y-33775490D01*
X45254914Y-33775491D01*
X45254916Y-33775495D01*
X45260936Y-33784504D01*
X45260937Y-33784507D01*
X45337046Y-33898414D01*
X45337052Y-33898421D01*
X46763181Y-35324548D01*
X46796666Y-35385871D01*
X46799500Y-35412229D01*
X46799500Y-36970128D01*
X46779815Y-37037167D01*
X46731797Y-37080612D01*
X46711151Y-37091131D01*
X46507350Y-37239201D01*
X46507345Y-37239205D01*
X46329205Y-37417345D01*
X46329201Y-37417350D01*
X46181132Y-37621151D01*
X46066760Y-37845616D01*
X45988910Y-38085214D01*
X45988910Y-38085215D01*
X45949500Y-38334038D01*
X45949500Y-38585962D01*
X45964119Y-38678263D01*
X45988910Y-38834785D01*
X46066760Y-39074383D01*
X46102490Y-39144506D01*
X46172082Y-39281088D01*
X46181132Y-39298848D01*
X46329201Y-39502649D01*
X46329205Y-39502654D01*
X46329207Y-39502656D01*
X46507344Y-39680793D01*
X46507345Y-39680794D01*
X46507344Y-39680794D01*
X46513661Y-39685383D01*
X46556327Y-39740714D01*
X46562305Y-39810327D01*
X46529699Y-39872122D01*
X46468860Y-39906479D01*
X46421378Y-39908174D01*
X46366611Y-39899500D01*
X46193389Y-39899500D01*
X46153728Y-39905781D01*
X46022302Y-39926597D01*
X45857552Y-39980128D01*
X45703211Y-40058768D01*
X45646289Y-40100125D01*
X45563072Y-40160586D01*
X45563070Y-40160588D01*
X45563069Y-40160588D01*
X45440588Y-40283069D01*
X45440588Y-40283070D01*
X45440586Y-40283072D01*
X45396859Y-40343256D01*
X45338768Y-40423211D01*
X45260128Y-40577552D01*
X45206597Y-40742302D01*
X45179500Y-40913389D01*
X45179500Y-41086611D01*
X45206598Y-41257701D01*
X45260127Y-41422445D01*
X45338768Y-41576788D01*
X45440586Y-41716928D01*
X45563072Y-41839414D01*
X45703212Y-41941232D01*
X45857555Y-42019873D01*
X46022299Y-42073402D01*
X46193389Y-42100500D01*
X46193390Y-42100500D01*
X46366610Y-42100500D01*
X46366611Y-42100500D01*
X46537701Y-42073402D01*
X46702445Y-42019873D01*
X46856788Y-41941232D01*
X46996928Y-41839414D01*
X47119414Y-41716928D01*
X47221232Y-41576788D01*
X47299873Y-41422445D01*
X47353402Y-41257701D01*
X47380500Y-41086611D01*
X47380500Y-40913389D01*
X47353402Y-40742299D01*
X47299873Y-40577555D01*
X47221232Y-40423212D01*
X47119414Y-40283072D01*
X47067482Y-40231140D01*
X47033997Y-40169817D01*
X47038981Y-40100125D01*
X47080853Y-40044192D01*
X47146317Y-40019775D01*
X47174561Y-40020986D01*
X47175212Y-40021089D01*
X47175215Y-40021090D01*
X47424038Y-40060500D01*
X47424039Y-40060500D01*
X47675961Y-40060500D01*
X47675962Y-40060500D01*
X47924785Y-40021090D01*
X48164379Y-39943241D01*
X48388845Y-39828870D01*
X48592656Y-39680793D01*
X48770793Y-39502656D01*
X48918870Y-39298845D01*
X49033241Y-39074379D01*
X49111090Y-38834785D01*
X49150500Y-38585962D01*
X49150500Y-38334038D01*
X49111090Y-38085215D01*
X49033241Y-37845621D01*
X49033239Y-37845618D01*
X49033239Y-37845616D01*
X48991747Y-37764184D01*
X48918870Y-37621155D01*
X48816753Y-37480602D01*
X48770798Y-37417350D01*
X48770794Y-37417345D01*
X48592654Y-37239205D01*
X48592649Y-37239201D01*
X48388848Y-37091131D01*
X48368203Y-37080612D01*
X48317408Y-37032637D01*
X48300500Y-36970128D01*
X48300500Y-34976079D01*
X48271659Y-34831092D01*
X48271658Y-34831091D01*
X48271658Y-34831087D01*
X48248239Y-34774548D01*
X48215087Y-34694511D01*
X48215080Y-34694498D01*
X48132952Y-34571585D01*
X48106094Y-34544727D01*
X48028416Y-34467049D01*
X47390499Y-33829132D01*
X46706819Y-33145451D01*
X46673334Y-33084128D01*
X46670500Y-33057770D01*
X46670500Y-31426662D01*
X46690185Y-31359623D01*
X46723379Y-31325086D01*
X46759140Y-31300046D01*
X46920045Y-31139141D01*
X46920047Y-31139139D01*
X47050568Y-30952734D01*
X47077618Y-30894724D01*
X47123790Y-30842285D01*
X47190983Y-30823133D01*
X47257865Y-30843348D01*
X47302382Y-30894725D01*
X47329429Y-30952728D01*
X47329432Y-30952734D01*
X47459954Y-31139141D01*
X47620858Y-31300045D01*
X47620861Y-31300047D01*
X47807266Y-31430568D01*
X48013504Y-31526739D01*
X48013509Y-31526740D01*
X48013511Y-31526741D01*
X48049100Y-31536277D01*
X48233308Y-31585635D01*
X48403214Y-31600499D01*
X48403215Y-31600500D01*
X48403216Y-31600500D01*
X48516785Y-31600500D01*
X48516785Y-31600499D01*
X48686692Y-31585635D01*
X48906496Y-31526739D01*
X49112734Y-31430568D01*
X49299139Y-31300047D01*
X49460047Y-31139139D01*
X49590568Y-30952734D01*
X49617618Y-30894724D01*
X49663790Y-30842285D01*
X49730983Y-30823133D01*
X49797865Y-30843348D01*
X49842382Y-30894725D01*
X49869429Y-30952728D01*
X49869432Y-30952734D01*
X49999954Y-31139141D01*
X50160859Y-31300046D01*
X50196621Y-31325086D01*
X50240247Y-31379662D01*
X50249500Y-31426662D01*
X50249500Y-36573918D01*
X50249500Y-36573920D01*
X50249499Y-36573920D01*
X50278340Y-36718907D01*
X50278343Y-36718917D01*
X50334912Y-36855488D01*
X50334920Y-36855502D01*
X50363923Y-36898907D01*
X50363924Y-36898910D01*
X50363925Y-36898910D01*
X50411510Y-36970128D01*
X50417051Y-36978420D01*
X50417052Y-36978421D01*
X52055572Y-38616940D01*
X52089057Y-38678263D01*
X52084073Y-38747955D01*
X52042201Y-38803888D01*
X51976737Y-38828305D01*
X51935800Y-38824396D01*
X51799993Y-38788007D01*
X51751113Y-38781571D01*
X51507513Y-38749500D01*
X51507506Y-38749500D01*
X51212494Y-38749500D01*
X51212486Y-38749500D01*
X50934085Y-38786153D01*
X50920007Y-38788007D01*
X50769612Y-38828305D01*
X50635048Y-38864361D01*
X50635038Y-38864364D01*
X50362499Y-38977254D01*
X50362489Y-38977258D01*
X50107006Y-39124761D01*
X49872959Y-39304352D01*
X49872952Y-39304358D01*
X49664358Y-39512952D01*
X49664352Y-39512959D01*
X49484761Y-39747006D01*
X49337258Y-40002489D01*
X49337254Y-40002499D01*
X49224364Y-40275038D01*
X49224361Y-40275048D01*
X49148008Y-40560004D01*
X49148006Y-40560015D01*
X49109500Y-40852486D01*
X49109500Y-41147513D01*
X49141571Y-41391113D01*
X49148007Y-41439993D01*
X49222212Y-41716930D01*
X49224361Y-41724951D01*
X49224364Y-41724961D01*
X49337254Y-41997500D01*
X49337258Y-41997510D01*
X49484761Y-42252993D01*
X49664352Y-42487040D01*
X49664358Y-42487047D01*
X49872952Y-42695641D01*
X49872959Y-42695647D01*
X50107006Y-42875238D01*
X50362489Y-43022741D01*
X50362490Y-43022741D01*
X50362493Y-43022743D01*
X50635048Y-43135639D01*
X50920007Y-43211993D01*
X51212494Y-43250500D01*
X51212501Y-43250500D01*
X51507499Y-43250500D01*
X51507506Y-43250500D01*
X51799993Y-43211993D01*
X52084952Y-43135639D01*
X52357507Y-43022743D01*
X52612994Y-42875238D01*
X52847042Y-42695646D01*
X52847047Y-42695641D01*
X53037819Y-42504870D01*
X53099142Y-42471385D01*
X53168834Y-42476369D01*
X53224767Y-42518241D01*
X53249184Y-42583705D01*
X53249500Y-42592551D01*
X53249500Y-43925500D01*
X53229815Y-43992539D01*
X53177011Y-44038294D01*
X53125500Y-44049500D01*
X49594108Y-44049500D01*
X49466812Y-44083608D01*
X49352686Y-44149500D01*
X49352683Y-44149502D01*
X49259502Y-44242683D01*
X49259500Y-44242686D01*
X49193608Y-44356812D01*
X49159500Y-44484108D01*
X49159500Y-47615891D01*
X49193608Y-47743187D01*
X49212447Y-47775817D01*
X49234204Y-47813500D01*
X49250677Y-47881399D01*
X49227825Y-47947426D01*
X49172904Y-47990617D01*
X49126817Y-47999500D01*
X35554604Y-47999500D01*
X35507155Y-47990062D01*
X35483497Y-47980263D01*
X35483493Y-47980262D01*
X35483488Y-47980260D01*
X35328845Y-47949500D01*
X35328842Y-47949500D01*
X35171158Y-47949500D01*
X35171155Y-47949500D01*
X35016510Y-47980261D01*
X35016498Y-47980264D01*
X34870827Y-48040602D01*
X34870814Y-48040609D01*
X34739711Y-48128210D01*
X34739707Y-48128213D01*
X34628213Y-48239707D01*
X34628210Y-48239711D01*
X34540609Y-48370814D01*
X34540602Y-48370827D01*
X34480264Y-48516498D01*
X34480261Y-48516510D01*
X34449500Y-48671153D01*
X34449500Y-48828846D01*
X34480261Y-48983489D01*
X34480264Y-48983501D01*
X34540602Y-49129172D01*
X34540609Y-49129185D01*
X34628210Y-49260288D01*
X34628213Y-49260292D01*
X34739707Y-49371786D01*
X34739711Y-49371789D01*
X34870814Y-49459390D01*
X34870827Y-49459397D01*
X34970060Y-49500500D01*
X35016503Y-49519737D01*
X35171153Y-49550499D01*
X35171156Y-49550500D01*
X35171158Y-49550500D01*
X35328844Y-49550500D01*
X35328845Y-49550499D01*
X35405152Y-49535320D01*
X35483488Y-49519739D01*
X35483489Y-49519738D01*
X35483497Y-49519737D01*
X35507155Y-49509937D01*
X35554604Y-49500500D01*
X53573920Y-49500500D01*
X53671462Y-49481096D01*
X53718913Y-49471658D01*
X53855495Y-49415084D01*
X53920291Y-49371789D01*
X53920294Y-49371786D01*
X53920296Y-49371786D01*
X53949547Y-49352240D01*
X53978416Y-49332952D01*
X54315299Y-48996067D01*
X54355524Y-48969191D01*
X54379179Y-48959394D01*
X54510289Y-48871789D01*
X54621789Y-48760289D01*
X54709394Y-48629179D01*
X54769737Y-48483497D01*
X54800500Y-48328842D01*
X54800500Y-48171158D01*
X54800500Y-48171155D01*
X54800499Y-48171153D01*
X54769739Y-48016511D01*
X54769738Y-48016508D01*
X54769737Y-48016503D01*
X54759937Y-47992844D01*
X54750500Y-47945396D01*
X54750500Y-40913389D01*
X55339500Y-40913389D01*
X55339500Y-41086611D01*
X55366598Y-41257701D01*
X55420127Y-41422445D01*
X55498768Y-41576788D01*
X55600586Y-41716928D01*
X55723072Y-41839414D01*
X55863212Y-41941232D01*
X56017555Y-42019873D01*
X56182299Y-42073402D01*
X56353389Y-42100500D01*
X56353390Y-42100500D01*
X56526610Y-42100500D01*
X56526611Y-42100500D01*
X56697701Y-42073402D01*
X56862445Y-42019873D01*
X57016788Y-41941232D01*
X57156928Y-41839414D01*
X57279414Y-41716928D01*
X57381232Y-41576788D01*
X57459873Y-41422445D01*
X57513402Y-41257701D01*
X57540500Y-41086611D01*
X57540500Y-40913389D01*
X57513402Y-40742299D01*
X57459873Y-40577555D01*
X57381232Y-40423212D01*
X57279414Y-40283072D01*
X57156928Y-40160586D01*
X57016788Y-40058768D01*
X56862445Y-39980127D01*
X56697701Y-39926598D01*
X56697699Y-39926597D01*
X56697698Y-39926597D01*
X56566271Y-39905781D01*
X56526611Y-39899500D01*
X56353389Y-39899500D01*
X56313728Y-39905781D01*
X56182302Y-39926597D01*
X56017552Y-39980128D01*
X55863211Y-40058768D01*
X55806289Y-40100125D01*
X55723072Y-40160586D01*
X55723070Y-40160588D01*
X55723069Y-40160588D01*
X55600588Y-40283069D01*
X55600588Y-40283070D01*
X55600586Y-40283072D01*
X55556859Y-40343256D01*
X55498768Y-40423211D01*
X55420128Y-40577552D01*
X55366597Y-40742302D01*
X55339500Y-40913389D01*
X54750500Y-40913389D01*
X54750500Y-39426081D01*
X54744763Y-39397242D01*
X54744763Y-39397240D01*
X54736991Y-39358168D01*
X54721659Y-39281088D01*
X54667408Y-39150117D01*
X54665764Y-39145522D01*
X54582954Y-39021588D01*
X54582953Y-39021587D01*
X54582951Y-39021584D01*
X54478416Y-38917049D01*
X53174544Y-37613176D01*
X53141060Y-37551855D01*
X53146044Y-37482163D01*
X53187916Y-37426230D01*
X53253380Y-37401813D01*
X53300544Y-37407566D01*
X53525330Y-37480602D01*
X53774072Y-37520000D01*
X54025928Y-37520000D01*
X54274669Y-37480602D01*
X54514184Y-37402780D01*
X54738575Y-37288446D01*
X54738581Y-37288442D01*
X54840697Y-37214250D01*
X54840698Y-37214250D01*
X54224025Y-36597578D01*
X54255258Y-36584641D01*
X54378097Y-36502563D01*
X54482563Y-36398097D01*
X54564641Y-36275258D01*
X54577577Y-36244025D01*
X55194250Y-36860698D01*
X55194250Y-36860697D01*
X55268442Y-36758581D01*
X55268446Y-36758575D01*
X55382780Y-36534184D01*
X55460602Y-36294669D01*
X55500000Y-36045928D01*
X55500000Y-35794071D01*
X55460602Y-35545330D01*
X55382780Y-35305815D01*
X55268442Y-35081416D01*
X55194250Y-34979301D01*
X55194250Y-34979300D01*
X54577577Y-35595973D01*
X54564641Y-35564742D01*
X54482563Y-35441903D01*
X54378097Y-35337437D01*
X54255258Y-35255359D01*
X54224024Y-35242421D01*
X54840698Y-34625748D01*
X54738583Y-34551557D01*
X54514184Y-34437219D01*
X54274669Y-34359397D01*
X54025928Y-34320000D01*
X53774072Y-34320000D01*
X53525330Y-34359397D01*
X53285815Y-34437219D01*
X53061413Y-34551559D01*
X52959301Y-34625747D01*
X52959300Y-34625748D01*
X53575974Y-35242421D01*
X53544742Y-35255359D01*
X53421903Y-35337437D01*
X53317437Y-35441903D01*
X53235359Y-35564742D01*
X53222421Y-35595974D01*
X52605748Y-34979300D01*
X52605747Y-34979301D01*
X52531559Y-35081413D01*
X52417219Y-35305815D01*
X52339397Y-35545330D01*
X52300000Y-35794071D01*
X52300000Y-36045928D01*
X52339397Y-36294669D01*
X52412433Y-36519454D01*
X52414428Y-36589296D01*
X52378347Y-36649128D01*
X52315646Y-36679956D01*
X52246232Y-36671991D01*
X52206821Y-36645453D01*
X51786819Y-36225451D01*
X51753334Y-36164128D01*
X51750500Y-36137770D01*
X51750500Y-31426662D01*
X51770185Y-31359623D01*
X51803379Y-31325086D01*
X51839140Y-31300046D01*
X52000045Y-31139141D01*
X52000047Y-31139139D01*
X52130568Y-30952734D01*
X52157618Y-30894724D01*
X52203790Y-30842285D01*
X52270983Y-30823133D01*
X52337865Y-30843348D01*
X52382382Y-30894725D01*
X52409429Y-30952728D01*
X52409432Y-30952734D01*
X52539954Y-31139141D01*
X52700858Y-31300045D01*
X52700861Y-31300047D01*
X52887266Y-31430568D01*
X53093504Y-31526739D01*
X53093509Y-31526740D01*
X53093511Y-31526741D01*
X53129100Y-31536277D01*
X53313308Y-31585635D01*
X53483214Y-31600499D01*
X53483215Y-31600500D01*
X53483216Y-31600500D01*
X53596785Y-31600500D01*
X53596785Y-31600499D01*
X53766692Y-31585635D01*
X53986496Y-31526739D01*
X54192734Y-31430568D01*
X54379139Y-31300047D01*
X54540047Y-31139139D01*
X54670568Y-30952734D01*
X54694795Y-30900777D01*
X54740965Y-30848341D01*
X54808158Y-30829188D01*
X54875040Y-30849403D01*
X54916534Y-30894730D01*
X54951155Y-30959501D01*
X54951167Y-30959521D01*
X55038704Y-31090530D01*
X55038708Y-31090536D01*
X55101514Y-31167064D01*
X55212935Y-31278485D01*
X55289463Y-31341291D01*
X55289469Y-31341295D01*
X55420478Y-31428832D01*
X55420498Y-31428844D01*
X55507801Y-31475509D01*
X55653387Y-31535814D01*
X55748135Y-31564554D01*
X55830000Y-31580837D01*
X55830000Y-29133012D01*
X55887007Y-29165925D01*
X56014174Y-29200000D01*
X56145826Y-29200000D01*
X56272993Y-29165925D01*
X56330000Y-29133012D01*
X56330000Y-31580837D01*
X56411864Y-31564554D01*
X56506612Y-31535814D01*
X56652198Y-31475509D01*
X56739501Y-31428844D01*
X56739521Y-31428832D01*
X56870530Y-31341295D01*
X56870536Y-31341291D01*
X56947064Y-31278485D01*
X57058485Y-31167064D01*
X57121291Y-31090536D01*
X57121295Y-31090530D01*
X57208832Y-30959521D01*
X57208844Y-30959500D01*
X57243464Y-30894732D01*
X57292426Y-30844887D01*
X57360564Y-30829426D01*
X57426244Y-30853257D01*
X57465205Y-30900779D01*
X57489431Y-30952732D01*
X57489432Y-30952734D01*
X57619954Y-31139141D01*
X57780858Y-31300045D01*
X57780861Y-31300047D01*
X57967266Y-31430568D01*
X58173504Y-31526739D01*
X58173509Y-31526740D01*
X58173511Y-31526741D01*
X58209100Y-31536277D01*
X58393308Y-31585635D01*
X58563214Y-31600499D01*
X58563215Y-31600500D01*
X58563216Y-31600500D01*
X58676785Y-31600500D01*
X58676785Y-31600499D01*
X58846692Y-31585635D01*
X59066496Y-31526739D01*
X59272734Y-31430568D01*
X59459139Y-31300047D01*
X59620047Y-31139139D01*
X59750568Y-30952734D01*
X59777618Y-30894724D01*
X59823790Y-30842285D01*
X59890983Y-30823133D01*
X59957865Y-30843348D01*
X60002382Y-30894725D01*
X60029429Y-30952728D01*
X60029432Y-30952734D01*
X60159954Y-31139141D01*
X60320858Y-31300045D01*
X60320861Y-31300047D01*
X60507266Y-31430568D01*
X60713504Y-31526739D01*
X60713509Y-31526740D01*
X60713511Y-31526741D01*
X60749100Y-31536277D01*
X60933308Y-31585635D01*
X61103214Y-31600499D01*
X61103215Y-31600500D01*
X61103216Y-31600500D01*
X61216785Y-31600500D01*
X61216785Y-31600499D01*
X61386692Y-31585635D01*
X61606496Y-31526739D01*
X61812734Y-31430568D01*
X61999139Y-31300047D01*
X62160047Y-31139139D01*
X62290568Y-30952734D01*
X62386739Y-30746496D01*
X62445635Y-30526692D01*
X62460500Y-30356784D01*
X62460500Y-28643216D01*
X62460500Y-28597648D01*
X62451593Y-28541417D01*
X62445635Y-28473308D01*
X62433825Y-28429233D01*
X62428477Y-28395466D01*
X62408378Y-28333609D01*
X62406535Y-28327386D01*
X62386742Y-28253513D01*
X62386740Y-28253510D01*
X62386739Y-28253504D01*
X62372266Y-28222467D01*
X62365220Y-28200781D01*
X62329067Y-28129827D01*
X62290568Y-28047266D01*
X62282436Y-28035652D01*
X62282436Y-28035651D01*
X62277462Y-28028548D01*
X62272287Y-28018390D01*
X62218821Y-27944800D01*
X62218215Y-27943935D01*
X62218205Y-27943920D01*
X62160045Y-27860858D01*
X61999140Y-27699953D01*
X61916078Y-27641793D01*
X61915180Y-27641164D01*
X61841610Y-27587713D01*
X61831448Y-27582535D01*
X61824346Y-27577562D01*
X61812734Y-27569432D01*
X61732128Y-27531844D01*
X61730169Y-27530930D01*
X61659219Y-27494780D01*
X61637534Y-27487733D01*
X61630662Y-27484529D01*
X61630661Y-27484528D01*
X61606494Y-27473260D01*
X61532600Y-27453460D01*
X61532600Y-27453459D01*
X61529446Y-27452614D01*
X61464534Y-27431523D01*
X61430766Y-27426174D01*
X61386692Y-27414365D01*
X61386689Y-27414364D01*
X61386686Y-27414364D01*
X61322891Y-27408783D01*
X61314301Y-27407728D01*
X61262352Y-27399500D01*
X61057648Y-27399500D01*
X61057644Y-27399500D01*
X61005697Y-27407728D01*
X61005695Y-27407728D01*
X61001410Y-27408406D01*
X60933308Y-27414365D01*
X60889245Y-27426170D01*
X60882841Y-27427185D01*
X60882824Y-27427189D01*
X60855463Y-27431523D01*
X60855459Y-27431524D01*
X60793627Y-27451615D01*
X60787404Y-27453459D01*
X60713504Y-27473261D01*
X60713503Y-27473261D01*
X60689338Y-27484529D01*
X60689337Y-27484528D01*
X60682456Y-27487736D01*
X60660781Y-27494780D01*
X60589886Y-27530901D01*
X60587900Y-27531828D01*
X60587882Y-27531838D01*
X60507262Y-27569433D01*
X60495655Y-27577559D01*
X60495656Y-27577560D01*
X60488549Y-27582535D01*
X60478390Y-27587713D01*
X60404870Y-27641126D01*
X60403939Y-27641779D01*
X60320859Y-27699954D01*
X60159954Y-27860859D01*
X60101781Y-27943934D01*
X60101782Y-27943935D01*
X60101132Y-27944863D01*
X60047713Y-28018390D01*
X60042535Y-28028550D01*
X60037560Y-28035656D01*
X60037558Y-28035656D01*
X60029435Y-28047260D01*
X60002380Y-28105276D01*
X59956206Y-28157714D01*
X59889012Y-28176864D01*
X59822131Y-28156646D01*
X59777617Y-28105272D01*
X59750570Y-28047270D01*
X59750568Y-28047266D01*
X59742436Y-28035652D01*
X59733524Y-28020818D01*
X59732288Y-28018391D01*
X59732286Y-28018388D01*
X59679462Y-27945682D01*
X59678205Y-27943920D01*
X59620045Y-27860858D01*
X59459140Y-27699953D01*
X59376078Y-27641793D01*
X59375180Y-27641164D01*
X59301610Y-27587713D01*
X59291448Y-27582535D01*
X59284346Y-27577562D01*
X59272734Y-27569432D01*
X59192128Y-27531844D01*
X59190169Y-27530930D01*
X59119219Y-27494780D01*
X59097534Y-27487733D01*
X59090662Y-27484529D01*
X59090661Y-27484528D01*
X59066494Y-27473260D01*
X58992600Y-27453460D01*
X58992600Y-27453459D01*
X58989446Y-27452614D01*
X58924534Y-27431523D01*
X58890766Y-27426174D01*
X58846692Y-27414365D01*
X58846689Y-27414364D01*
X58846686Y-27414364D01*
X58782891Y-27408783D01*
X58774301Y-27407728D01*
X58722352Y-27399500D01*
X58517648Y-27399500D01*
X58517644Y-27399500D01*
X58465697Y-27407728D01*
X58465695Y-27407728D01*
X58461410Y-27408406D01*
X58393308Y-27414365D01*
X58349245Y-27426170D01*
X58342841Y-27427185D01*
X58342824Y-27427189D01*
X58315463Y-27431523D01*
X58315459Y-27431524D01*
X58253627Y-27451615D01*
X58247404Y-27453459D01*
X58173504Y-27473261D01*
X58173503Y-27473261D01*
X58149338Y-27484529D01*
X58149337Y-27484528D01*
X58142456Y-27487736D01*
X58120781Y-27494780D01*
X58049886Y-27530901D01*
X58047900Y-27531828D01*
X58047882Y-27531838D01*
X57967262Y-27569433D01*
X57955655Y-27577559D01*
X57955656Y-27577560D01*
X57948549Y-27582535D01*
X57938390Y-27587713D01*
X57864870Y-27641126D01*
X57863939Y-27641779D01*
X57780859Y-27699954D01*
X57619954Y-27860859D01*
X57573374Y-27927380D01*
X57518796Y-27971004D01*
X57449298Y-27978195D01*
X57386944Y-27946671D01*
X57351652Y-27886918D01*
X57346559Y-27866962D01*
X57323135Y-27810414D01*
X56562961Y-28570588D01*
X56545925Y-28507007D01*
X56480099Y-28392993D01*
X56387007Y-28299901D01*
X56272993Y-28234075D01*
X56145826Y-28200000D01*
X56014174Y-28200000D01*
X55887007Y-28234075D01*
X55772993Y-28299901D01*
X55679901Y-28392993D01*
X55614075Y-28507007D01*
X55597037Y-28570589D01*
X54836863Y-27810415D01*
X54836862Y-27810415D01*
X54813446Y-27866947D01*
X54813431Y-27866987D01*
X54803491Y-27895164D01*
X54762625Y-27951835D01*
X54697607Y-27977417D01*
X54629079Y-27963785D01*
X54584979Y-27925032D01*
X54557916Y-27886382D01*
X54540047Y-27860861D01*
X54540045Y-27860859D01*
X54540044Y-27860857D01*
X54379140Y-27699953D01*
X54296078Y-27641793D01*
X54294316Y-27640536D01*
X54235763Y-27597995D01*
X54221612Y-27587714D01*
X54219169Y-27586469D01*
X54204347Y-27577563D01*
X54192734Y-27569432D01*
X54112128Y-27531844D01*
X54110169Y-27530930D01*
X54039219Y-27494780D01*
X54017534Y-27487733D01*
X54010662Y-27484529D01*
X54010661Y-27484528D01*
X53986494Y-27473260D01*
X53925300Y-27456863D01*
X55190414Y-27456863D01*
X55829999Y-28096448D01*
X56330000Y-28096448D01*
X56969584Y-27456862D01*
X56913059Y-27433449D01*
X56862053Y-27415455D01*
X56719780Y-27395000D01*
X56330000Y-27395000D01*
X56330000Y-28096448D01*
X55829999Y-28096448D01*
X55830000Y-28096447D01*
X55830000Y-27395000D01*
X55440214Y-27395000D01*
X55386237Y-27397893D01*
X55386235Y-27397893D01*
X55246976Y-27433436D01*
X55246962Y-27433441D01*
X55190414Y-27456863D01*
X53925300Y-27456863D01*
X53912600Y-27453460D01*
X53912600Y-27453459D01*
X53909446Y-27452614D01*
X53844534Y-27431523D01*
X53810766Y-27426174D01*
X53766692Y-27414365D01*
X53766689Y-27414364D01*
X53766686Y-27414364D01*
X53702891Y-27408783D01*
X53694301Y-27407728D01*
X53642352Y-27399500D01*
X53437648Y-27399500D01*
X53437644Y-27399500D01*
X53385697Y-27407728D01*
X53385695Y-27407728D01*
X53381410Y-27408406D01*
X53313308Y-27414365D01*
X53269245Y-27426170D01*
X53262841Y-27427185D01*
X53262824Y-27427189D01*
X53235463Y-27431523D01*
X53235459Y-27431524D01*
X53173627Y-27451615D01*
X53167404Y-27453459D01*
X53093504Y-27473261D01*
X53093503Y-27473261D01*
X53069338Y-27484529D01*
X53069337Y-27484528D01*
X53062456Y-27487736D01*
X53040781Y-27494780D01*
X52969886Y-27530901D01*
X52967900Y-27531828D01*
X52967882Y-27531838D01*
X52887262Y-27569433D01*
X52875655Y-27577559D01*
X52875656Y-27577560D01*
X52868549Y-27582535D01*
X52858390Y-27587713D01*
X52784870Y-27641126D01*
X52783939Y-27641779D01*
X52700859Y-27699954D01*
X52539954Y-27860859D01*
X52481781Y-27943934D01*
X52481782Y-27943935D01*
X52481132Y-27944863D01*
X52427713Y-28018390D01*
X52422535Y-28028550D01*
X52417560Y-28035656D01*
X52417558Y-28035656D01*
X52409435Y-28047260D01*
X52382380Y-28105276D01*
X52336206Y-28157714D01*
X52269012Y-28176864D01*
X52202131Y-28156646D01*
X52157617Y-28105272D01*
X52130570Y-28047270D01*
X52130568Y-28047266D01*
X52122436Y-28035652D01*
X52113524Y-28020818D01*
X52112288Y-28018391D01*
X52112286Y-28018388D01*
X52059462Y-27945682D01*
X52058205Y-27943920D01*
X52000045Y-27860858D01*
X51839141Y-27699954D01*
X51803377Y-27674912D01*
X51759752Y-27620335D01*
X51750500Y-27573337D01*
X51750500Y-24426079D01*
X51721659Y-24281092D01*
X51721658Y-24281091D01*
X51721658Y-24281087D01*
X51721656Y-24281082D01*
X51665087Y-24144511D01*
X51665080Y-24144498D01*
X51582952Y-24021585D01*
X51582951Y-24021584D01*
X51478416Y-23917049D01*
X49703853Y-22142486D01*
X56824500Y-22142486D01*
X56824500Y-22327513D01*
X56853445Y-22510265D01*
X56910619Y-22686232D01*
X56910620Y-22686235D01*
X56980178Y-22822749D01*
X56994622Y-22851096D01*
X57103379Y-23000787D01*
X57234213Y-23131621D01*
X57383904Y-23240378D01*
X57464763Y-23281577D01*
X57548764Y-23324379D01*
X57548767Y-23324380D01*
X57628053Y-23350141D01*
X57724736Y-23381555D01*
X57907486Y-23410500D01*
X57907487Y-23410500D01*
X58092513Y-23410500D01*
X58092514Y-23410500D01*
X58275264Y-23381555D01*
X58451235Y-23324379D01*
X58616096Y-23240378D01*
X58765787Y-23131621D01*
X58896621Y-23000787D01*
X59005378Y-22851096D01*
X59089379Y-22686235D01*
X59146555Y-22510264D01*
X59175500Y-22327514D01*
X59175500Y-22142486D01*
X59146555Y-21959736D01*
X59089379Y-21783765D01*
X59089379Y-21783764D01*
X59038065Y-21683055D01*
X59005378Y-21618904D01*
X58896621Y-21469213D01*
X58765787Y-21338379D01*
X58616096Y-21229622D01*
X58598978Y-21220900D01*
X58451235Y-21145620D01*
X58451232Y-21145619D01*
X58275265Y-21088445D01*
X58183889Y-21073972D01*
X58092514Y-21059500D01*
X57907486Y-21059500D01*
X57846569Y-21069148D01*
X57724734Y-21088445D01*
X57548767Y-21145619D01*
X57548764Y-21145620D01*
X57383903Y-21229622D01*
X57313092Y-21281070D01*
X57234213Y-21338379D01*
X57234211Y-21338381D01*
X57234210Y-21338381D01*
X57103381Y-21469210D01*
X57103381Y-21469211D01*
X57103379Y-21469213D01*
X57092405Y-21484318D01*
X56994622Y-21618903D01*
X56910620Y-21783764D01*
X56910619Y-21783767D01*
X56853445Y-21959734D01*
X56824500Y-22142486D01*
X49703853Y-22142486D01*
X46921368Y-19360000D01*
X57080000Y-19360000D01*
X57080000Y-19810000D01*
X57080000Y-20260000D01*
X57082139Y-20325545D01*
X57116067Y-20452167D01*
X57181612Y-20565694D01*
X57274306Y-20658388D01*
X57387833Y-20723933D01*
X57514455Y-20757861D01*
X57580000Y-20760000D01*
X58480000Y-20760000D01*
X58545545Y-20757861D01*
X58672167Y-20723933D01*
X58785694Y-20658388D01*
X58878388Y-20565694D01*
X58943933Y-20452167D01*
X58977861Y-20325545D01*
X58980000Y-20260000D01*
X58980000Y-19810000D01*
X58980000Y-19360000D01*
X58977861Y-19294455D01*
X58943932Y-19167833D01*
X58878388Y-19054306D01*
X58785694Y-18961612D01*
X58672167Y-18896068D01*
X58672168Y-18896068D01*
X58633420Y-18885685D01*
X58545545Y-18862139D01*
X58545542Y-18862138D01*
X58545543Y-18862138D01*
X58480000Y-18860000D01*
X57580000Y-18860000D01*
X57514458Y-18862138D01*
X57387832Y-18896068D01*
X57274307Y-18961611D01*
X57274304Y-18961613D01*
X57181613Y-19054304D01*
X57181611Y-19054307D01*
X57116068Y-19167832D01*
X57082138Y-19294458D01*
X57080735Y-19337463D01*
X57080000Y-19360000D01*
X46921368Y-19360000D01*
X45422819Y-17861451D01*
X45389334Y-17800128D01*
X45386500Y-17773770D01*
X45386500Y-16859999D01*
X47080000Y-16859999D01*
X47080000Y-17760000D01*
X47082138Y-17825541D01*
X47082138Y-17825544D01*
X47082139Y-17825545D01*
X47116068Y-17952167D01*
X47181612Y-18065694D01*
X47274306Y-18158388D01*
X47387833Y-18223932D01*
X47514455Y-18257861D01*
X47580000Y-18260000D01*
X54980000Y-18260000D01*
X55045545Y-18257861D01*
X55172167Y-18223933D01*
X55285694Y-18158388D01*
X55378388Y-18065694D01*
X55443933Y-17952167D01*
X55477861Y-17825545D01*
X55480000Y-17760000D01*
X55480000Y-17292486D01*
X56824500Y-17292486D01*
X56824500Y-17477513D01*
X56853445Y-17660265D01*
X56910619Y-17836232D01*
X56910620Y-17836235D01*
X56969679Y-17952143D01*
X56994622Y-18001096D01*
X57103379Y-18150787D01*
X57234213Y-18281621D01*
X57383904Y-18390378D01*
X57464763Y-18431577D01*
X57548764Y-18474379D01*
X57548767Y-18474380D01*
X57601443Y-18491495D01*
X57724736Y-18531555D01*
X57907486Y-18560500D01*
X57907487Y-18560500D01*
X58092513Y-18560500D01*
X58092514Y-18560500D01*
X58275264Y-18531555D01*
X58451235Y-18474379D01*
X58616096Y-18390378D01*
X58765787Y-18281621D01*
X58896621Y-18150787D01*
X59005378Y-18001096D01*
X59089379Y-17836235D01*
X59146555Y-17660264D01*
X59175500Y-17477514D01*
X59175500Y-17292486D01*
X59146555Y-17109736D01*
X59104083Y-16979020D01*
X59103983Y-16978713D01*
X59679500Y-16978713D01*
X59679500Y-17191286D01*
X59707528Y-17368252D01*
X59712754Y-17401243D01*
X59764658Y-17560987D01*
X59778444Y-17603414D01*
X59874951Y-17792820D01*
X59999890Y-17964786D01*
X60150213Y-18115109D01*
X60326125Y-18242915D01*
X60325330Y-18244009D01*
X60368084Y-18291268D01*
X60380351Y-18349218D01*
X60380000Y-18359989D01*
X60380000Y-18360000D01*
X60380000Y-18810000D01*
X60380000Y-19260000D01*
X60382139Y-19325545D01*
X60416067Y-19452167D01*
X60481612Y-19565694D01*
X60574306Y-19658388D01*
X60643305Y-19698225D01*
X60643406Y-19698283D01*
X60691621Y-19748851D01*
X60704843Y-19817458D01*
X60678875Y-19882322D01*
X60643405Y-19913057D01*
X60559309Y-19961609D01*
X60559304Y-19961613D01*
X60466613Y-20054304D01*
X60466611Y-20054307D01*
X60401068Y-20167832D01*
X60367138Y-20294458D01*
X60365000Y-20359999D01*
X60365000Y-21260004D01*
X60365687Y-21281070D01*
X60348198Y-21348716D01*
X60314638Y-21385430D01*
X60150214Y-21504890D01*
X60150209Y-21504894D01*
X59999890Y-21655213D01*
X59874951Y-21827179D01*
X59778444Y-22016585D01*
X59778443Y-22016587D01*
X59778443Y-22016588D01*
X59764625Y-22059115D01*
X59712753Y-22218760D01*
X59679500Y-22428713D01*
X59679500Y-22641286D01*
X59712730Y-22851096D01*
X59712754Y-22851243D01*
X59761344Y-23000788D01*
X59778444Y-23053414D01*
X59874951Y-23242820D01*
X59999890Y-23414786D01*
X60150213Y-23565109D01*
X60322179Y-23690048D01*
X60322181Y-23690049D01*
X60322184Y-23690051D01*
X60511588Y-23786557D01*
X60713757Y-23852246D01*
X60923713Y-23885500D01*
X60923714Y-23885500D01*
X61136286Y-23885500D01*
X61136287Y-23885500D01*
X61346243Y-23852246D01*
X61548412Y-23786557D01*
X61737816Y-23690051D01*
X61759789Y-23674086D01*
X61909786Y-23565109D01*
X61909788Y-23565106D01*
X61909792Y-23565104D01*
X62060104Y-23414792D01*
X62060106Y-23414788D01*
X62060109Y-23414786D01*
X62185048Y-23242820D01*
X62185047Y-23242820D01*
X62185051Y-23242816D01*
X62281557Y-23053412D01*
X62347246Y-22851243D01*
X62380500Y-22641287D01*
X62380500Y-22428713D01*
X62347246Y-22218757D01*
X62281557Y-22016588D01*
X62185051Y-21827184D01*
X62153505Y-21783764D01*
X62128147Y-21748861D01*
X62104668Y-21683055D01*
X62120494Y-21615001D01*
X62140779Y-21588302D01*
X62163388Y-21565694D01*
X62228933Y-21452167D01*
X62262861Y-21325545D01*
X62265000Y-21260000D01*
X62265000Y-20810000D01*
X62265000Y-20360000D01*
X62262861Y-20294455D01*
X62228932Y-20167833D01*
X62163388Y-20054306D01*
X62070694Y-19961612D01*
X62070693Y-19961611D01*
X62070690Y-19961609D01*
X62001594Y-19921717D01*
X61953379Y-19871150D01*
X61940155Y-19802543D01*
X61966123Y-19737679D01*
X62001594Y-19706943D01*
X62085694Y-19658388D01*
X62178388Y-19565694D01*
X62243933Y-19452167D01*
X62277861Y-19325545D01*
X62280000Y-19260000D01*
X62280000Y-18810000D01*
X62280000Y-18360000D01*
X62277861Y-18294455D01*
X62243932Y-18167833D01*
X62178388Y-18054306D01*
X62147096Y-18023014D01*
X62113611Y-17961691D01*
X62118595Y-17891999D01*
X62134454Y-17862455D01*
X62185051Y-17792816D01*
X62281557Y-17603412D01*
X62347246Y-17401243D01*
X62380500Y-17191287D01*
X62380500Y-16978713D01*
X62347246Y-16768757D01*
X62281557Y-16566588D01*
X62185051Y-16377184D01*
X62185049Y-16377181D01*
X62185048Y-16377179D01*
X62060109Y-16205213D01*
X61909786Y-16054890D01*
X61737820Y-15929951D01*
X61548414Y-15833444D01*
X61548413Y-15833443D01*
X61548412Y-15833443D01*
X61346243Y-15767754D01*
X61346241Y-15767753D01*
X61346240Y-15767753D01*
X61184957Y-15742208D01*
X61136287Y-15734500D01*
X60923713Y-15734500D01*
X60875042Y-15742208D01*
X60713760Y-15767753D01*
X60511585Y-15833444D01*
X60322179Y-15929951D01*
X60150213Y-16054890D01*
X59999890Y-16205213D01*
X59874951Y-16377179D01*
X59778444Y-16566585D01*
X59712753Y-16768760D01*
X59679500Y-16978713D01*
X59103983Y-16978713D01*
X59089380Y-16933767D01*
X59089379Y-16933764D01*
X59019931Y-16797466D01*
X59005378Y-16768904D01*
X58896621Y-16619213D01*
X58765787Y-16488379D01*
X58616096Y-16379622D01*
X58577586Y-16360000D01*
X58451235Y-16295620D01*
X58451232Y-16295619D01*
X58275265Y-16238445D01*
X58171789Y-16222056D01*
X58092514Y-16209500D01*
X57907486Y-16209500D01*
X57846569Y-16219148D01*
X57724734Y-16238445D01*
X57548767Y-16295619D01*
X57548764Y-16295620D01*
X57383903Y-16379622D01*
X57298499Y-16441672D01*
X57234213Y-16488379D01*
X57234211Y-16488381D01*
X57234210Y-16488381D01*
X57103381Y-16619210D01*
X57103381Y-16619211D01*
X57103379Y-16619213D01*
X57056672Y-16683499D01*
X56994622Y-16768903D01*
X56910620Y-16933764D01*
X56910619Y-16933767D01*
X56853445Y-17109734D01*
X56824500Y-17292486D01*
X55480000Y-17292486D01*
X55480000Y-16860000D01*
X55477861Y-16794455D01*
X55443933Y-16667833D01*
X55378388Y-16554306D01*
X55285694Y-16461612D01*
X55172167Y-16396067D01*
X55045545Y-16362139D01*
X54980000Y-16360000D01*
X51280000Y-16360000D01*
X47580000Y-16360000D01*
X47514458Y-16362138D01*
X47387832Y-16396068D01*
X47274307Y-16461611D01*
X47274304Y-16461613D01*
X47181613Y-16554304D01*
X47181611Y-16554307D01*
X47116068Y-16667832D01*
X47082138Y-16794458D01*
X47080000Y-16859999D01*
X45386500Y-16859999D01*
X45386500Y-12285025D01*
X45393544Y-12261033D01*
X45396516Y-12236202D01*
X45403219Y-12228084D01*
X45406185Y-12217986D01*
X45425079Y-12201613D01*
X45441006Y-12182328D01*
X45451035Y-12179123D01*
X45458989Y-12172231D01*
X45483738Y-12168672D01*
X45507560Y-12161060D01*
X45523454Y-12162961D01*
X45528147Y-12162287D01*
X45542590Y-12165250D01*
X45547410Y-12166541D01*
X45553609Y-12168378D01*
X45615466Y-12188477D01*
X45642822Y-12192809D01*
X45655498Y-12195503D01*
X45693308Y-12205635D01*
X45757103Y-12211215D01*
X45765690Y-12212269D01*
X45817648Y-12220500D01*
X45817649Y-12220500D01*
X46022350Y-12220500D01*
X46022352Y-12220500D01*
X46074308Y-12212270D01*
X46078582Y-12211592D01*
X46146692Y-12205635D01*
X46190766Y-12193825D01*
X46224534Y-12188477D01*
X46286404Y-12168373D01*
X46292617Y-12166534D01*
X46366490Y-12146741D01*
X46366492Y-12146739D01*
X46366496Y-12146739D01*
X46397532Y-12132266D01*
X46419219Y-12125220D01*
X46490172Y-12089067D01*
X46572734Y-12050568D01*
X46591446Y-12037465D01*
X46601610Y-12032287D01*
X46675199Y-11978821D01*
X46759139Y-11920047D01*
X46920047Y-11759139D01*
X46978821Y-11675199D01*
X47032287Y-11601610D01*
X47037465Y-11591446D01*
X47050568Y-11572734D01*
X47077617Y-11514724D01*
X47123788Y-11462287D01*
X47190981Y-11443134D01*
X47257862Y-11463349D01*
X47302381Y-11514724D01*
X47329433Y-11572736D01*
X47337563Y-11584347D01*
X47346469Y-11599169D01*
X47347714Y-11601612D01*
X47347714Y-11601613D01*
X47400536Y-11674316D01*
X47401793Y-11676078D01*
X47459953Y-11759140D01*
X47620858Y-11920045D01*
X47703904Y-11978194D01*
X47704800Y-11978821D01*
X47778390Y-12032287D01*
X47788547Y-12037462D01*
X47795648Y-12042434D01*
X47795652Y-12042436D01*
X47807266Y-12050568D01*
X47860672Y-12075472D01*
X47889827Y-12089067D01*
X47960781Y-12125220D01*
X47982467Y-12132266D01*
X48013504Y-12146739D01*
X48013510Y-12146740D01*
X48013513Y-12146742D01*
X48087386Y-12166535D01*
X48090528Y-12167377D01*
X48155466Y-12188477D01*
X48189233Y-12193825D01*
X48233308Y-12205635D01*
X48297103Y-12211215D01*
X48305690Y-12212269D01*
X48357648Y-12220500D01*
X48357649Y-12220500D01*
X48562350Y-12220500D01*
X48562352Y-12220500D01*
X48614308Y-12212270D01*
X48618582Y-12211592D01*
X48686692Y-12205635D01*
X48730766Y-12193825D01*
X48764534Y-12188477D01*
X48826404Y-12168373D01*
X48832617Y-12166534D01*
X48906490Y-12146741D01*
X48906492Y-12146739D01*
X48906496Y-12146739D01*
X48937532Y-12132266D01*
X48959219Y-12125220D01*
X49030172Y-12089067D01*
X49112734Y-12050568D01*
X49131446Y-12037465D01*
X49141610Y-12032287D01*
X49215199Y-11978821D01*
X49299139Y-11920047D01*
X49460047Y-11759139D01*
X49518821Y-11675199D01*
X49572287Y-11601610D01*
X49577465Y-11591446D01*
X49590568Y-11572734D01*
X49617617Y-11514724D01*
X49663788Y-11462287D01*
X49730981Y-11443134D01*
X49797862Y-11463349D01*
X49842381Y-11514724D01*
X49869433Y-11572736D01*
X49877563Y-11584347D01*
X49886469Y-11599169D01*
X49887714Y-11601612D01*
X49887714Y-11601613D01*
X49940536Y-11674316D01*
X49941793Y-11676078D01*
X49999953Y-11759140D01*
X50160858Y-11920045D01*
X50243904Y-11978194D01*
X50244800Y-11978821D01*
X50318390Y-12032287D01*
X50328547Y-12037462D01*
X50335648Y-12042434D01*
X50335652Y-12042436D01*
X50347266Y-12050568D01*
X50400672Y-12075472D01*
X50429827Y-12089067D01*
X50500781Y-12125220D01*
X50522467Y-12132266D01*
X50553504Y-12146739D01*
X50553510Y-12146740D01*
X50553513Y-12146742D01*
X50627386Y-12166535D01*
X50630528Y-12167377D01*
X50695466Y-12188477D01*
X50729233Y-12193825D01*
X50773308Y-12205635D01*
X50837103Y-12211215D01*
X50845690Y-12212269D01*
X50897648Y-12220500D01*
X50897649Y-12220500D01*
X51102350Y-12220500D01*
X51102352Y-12220500D01*
X51154308Y-12212270D01*
X51158582Y-12211592D01*
X51226692Y-12205635D01*
X51270766Y-12193825D01*
X51304534Y-12188477D01*
X51366404Y-12168373D01*
X51372617Y-12166534D01*
X51446490Y-12146741D01*
X51446492Y-12146739D01*
X51446496Y-12146739D01*
X51477532Y-12132266D01*
X51499219Y-12125220D01*
X51570172Y-12089067D01*
X51652734Y-12050568D01*
X51671446Y-12037465D01*
X51681610Y-12032287D01*
X51755199Y-11978821D01*
X51839139Y-11920047D01*
X52000047Y-11759139D01*
X52058821Y-11675199D01*
X52112287Y-11601610D01*
X52117465Y-11591446D01*
X52130568Y-11572734D01*
X52157617Y-11514724D01*
X52203788Y-11462287D01*
X52270981Y-11443134D01*
X52337862Y-11463349D01*
X52382381Y-11514724D01*
X52409433Y-11572736D01*
X52417563Y-11584347D01*
X52426469Y-11599169D01*
X52427714Y-11601612D01*
X52427714Y-11601613D01*
X52480536Y-11674316D01*
X52481793Y-11676078D01*
X52539953Y-11759140D01*
X52700858Y-11920045D01*
X52783904Y-11978194D01*
X52784800Y-11978821D01*
X52858390Y-12032287D01*
X52868547Y-12037462D01*
X52875648Y-12042434D01*
X52875652Y-12042436D01*
X52887266Y-12050568D01*
X52940672Y-12075472D01*
X52969827Y-12089067D01*
X53040781Y-12125220D01*
X53062467Y-12132266D01*
X53093504Y-12146739D01*
X53093510Y-12146740D01*
X53093513Y-12146742D01*
X53167386Y-12166535D01*
X53170528Y-12167377D01*
X53235466Y-12188477D01*
X53269233Y-12193825D01*
X53313308Y-12205635D01*
X53377103Y-12211215D01*
X53385690Y-12212269D01*
X53437648Y-12220500D01*
X53437649Y-12220500D01*
X53642350Y-12220500D01*
X53642352Y-12220500D01*
X53694308Y-12212270D01*
X53698582Y-12211592D01*
X53766692Y-12205635D01*
X53810766Y-12193825D01*
X53844534Y-12188477D01*
X53906404Y-12168373D01*
X53912617Y-12166534D01*
X53925303Y-12163135D01*
X55190414Y-12163135D01*
X55246960Y-12186557D01*
X55246964Y-12186559D01*
X55297946Y-12204544D01*
X55440219Y-12224999D01*
X55440221Y-12225000D01*
X55830000Y-12225000D01*
X56330000Y-12225000D01*
X56719786Y-12225000D01*
X56773762Y-12222106D01*
X56773764Y-12222106D01*
X56913039Y-12186558D01*
X56969584Y-12163136D01*
X56969584Y-12163135D01*
X56330000Y-11523551D01*
X56330000Y-12225000D01*
X55830000Y-12225000D01*
X55830000Y-11523552D01*
X55829999Y-11523551D01*
X55190414Y-12163135D01*
X53925303Y-12163135D01*
X53986490Y-12146741D01*
X53986492Y-12146739D01*
X53986496Y-12146739D01*
X54017532Y-12132266D01*
X54039219Y-12125220D01*
X54110172Y-12089067D01*
X54192734Y-12050568D01*
X54204382Y-12042411D01*
X54207618Y-12040222D01*
X54213211Y-12036565D01*
X54221610Y-12032287D01*
X54294358Y-11979432D01*
X54296047Y-11978227D01*
X54379139Y-11920047D01*
X54540047Y-11759139D01*
X54586623Y-11692619D01*
X54641196Y-11648996D01*
X54710695Y-11641801D01*
X54773050Y-11673322D01*
X54808344Y-11733073D01*
X54813438Y-11753028D01*
X54813442Y-11753043D01*
X54836862Y-11809584D01*
X55597037Y-11049409D01*
X55614075Y-11112993D01*
X55679901Y-11227007D01*
X55772993Y-11320099D01*
X55887007Y-11385925D01*
X56014174Y-11420000D01*
X56145826Y-11420000D01*
X56272993Y-11385925D01*
X56387007Y-11320099D01*
X56480099Y-11227007D01*
X56545925Y-11112993D01*
X56562962Y-11049410D01*
X57323135Y-11809584D01*
X57323136Y-11809584D01*
X57346556Y-11753045D01*
X57346558Y-11753039D01*
X57356507Y-11724838D01*
X57397372Y-11668165D01*
X57462390Y-11642583D01*
X57530917Y-11656213D01*
X57575019Y-11694966D01*
X57619954Y-11759141D01*
X57780858Y-11920045D01*
X57863904Y-11978194D01*
X57864800Y-11978821D01*
X57938390Y-12032287D01*
X57948547Y-12037462D01*
X57955648Y-12042434D01*
X57955652Y-12042436D01*
X57967266Y-12050568D01*
X58020672Y-12075472D01*
X58049827Y-12089067D01*
X58120781Y-12125220D01*
X58142467Y-12132266D01*
X58173504Y-12146739D01*
X58173510Y-12146740D01*
X58173513Y-12146742D01*
X58247386Y-12166535D01*
X58250528Y-12167377D01*
X58315466Y-12188477D01*
X58349233Y-12193825D01*
X58393308Y-12205635D01*
X58457103Y-12211215D01*
X58465690Y-12212269D01*
X58517648Y-12220500D01*
X58517649Y-12220500D01*
X58722350Y-12220500D01*
X58722352Y-12220500D01*
X58774308Y-12212270D01*
X58778582Y-12211592D01*
X58846692Y-12205635D01*
X58890766Y-12193825D01*
X58924534Y-12188477D01*
X58986404Y-12168373D01*
X58992617Y-12166534D01*
X59066490Y-12146741D01*
X59066492Y-12146739D01*
X59066496Y-12146739D01*
X59097532Y-12132266D01*
X59119219Y-12125220D01*
X59190172Y-12089067D01*
X59272734Y-12050568D01*
X59291446Y-12037465D01*
X59301610Y-12032287D01*
X59375199Y-11978821D01*
X59459139Y-11920047D01*
X59620047Y-11759139D01*
X59669496Y-11688515D01*
X59724071Y-11644892D01*
X59793569Y-11637697D01*
X59855924Y-11669218D01*
X59889456Y-11722749D01*
X59916520Y-11809602D01*
X59916521Y-11809604D01*
X59916522Y-11809606D01*
X59983285Y-11920045D01*
X60004530Y-11955188D01*
X60124811Y-12075469D01*
X60124813Y-12075470D01*
X60124815Y-12075472D01*
X60270394Y-12163478D01*
X60432804Y-12214086D01*
X60503384Y-12220500D01*
X61024350Y-12220500D01*
X61036502Y-12221096D01*
X61081207Y-12225500D01*
X61081210Y-12225500D01*
X61238790Y-12225500D01*
X61238793Y-12225500D01*
X61283497Y-12221096D01*
X61295650Y-12220500D01*
X61816613Y-12220500D01*
X61816616Y-12220500D01*
X61887196Y-12214086D01*
X62049606Y-12163478D01*
X62195185Y-12075472D01*
X62315472Y-11955185D01*
X62403478Y-11809606D01*
X62454086Y-11647196D01*
X62460500Y-11576616D01*
X62460500Y-11055650D01*
X62461097Y-11043496D01*
X62465500Y-10998793D01*
X62465500Y-8680218D01*
X62464443Y-8660506D01*
X62462604Y-8626185D01*
X62462603Y-8626181D01*
X62427023Y-8486778D01*
X62427021Y-8486773D01*
X62424570Y-8480855D01*
X62396580Y-8413280D01*
X62396568Y-8413252D01*
X62373220Y-8364451D01*
X62373217Y-8364446D01*
X62295309Y-8260375D01*
X62286994Y-8249267D01*
X62286989Y-8249262D01*
X62286984Y-8249256D01*
X62230747Y-8193019D01*
X62230731Y-8193005D01*
X62190475Y-8156843D01*
X62190467Y-8156837D01*
X62066736Y-8083426D01*
X62066737Y-8083426D01*
X62017729Y-8063127D01*
X61993226Y-8052978D01*
X61993212Y-8052973D01*
X61993204Y-8052970D01*
X61942199Y-8034976D01*
X61884761Y-8026718D01*
X61799782Y-8014500D01*
X60520218Y-8014500D01*
X60520216Y-8014500D01*
X60466185Y-8017395D01*
X60466181Y-8017396D01*
X60326778Y-8052976D01*
X60326766Y-8052980D01*
X60253280Y-8083419D01*
X60253252Y-8083431D01*
X60204451Y-8106779D01*
X60204446Y-8106782D01*
X60089268Y-8193005D01*
X60089256Y-8193015D01*
X60033019Y-8249252D01*
X59996843Y-8289524D01*
X59996837Y-8289532D01*
X59923426Y-8413263D01*
X59892978Y-8486773D01*
X59883139Y-8514663D01*
X59842271Y-8571334D01*
X59777252Y-8596914D01*
X59708725Y-8583281D01*
X59664629Y-8544532D01*
X59620047Y-8480861D01*
X59620044Y-8480858D01*
X59620042Y-8480855D01*
X59459141Y-8319954D01*
X59272734Y-8189432D01*
X59272732Y-8189431D01*
X59066497Y-8093261D01*
X59066488Y-8093258D01*
X58846697Y-8034366D01*
X58846687Y-8034364D01*
X58676785Y-8019500D01*
X58676784Y-8019500D01*
X58563216Y-8019500D01*
X58563215Y-8019500D01*
X58393312Y-8034364D01*
X58393302Y-8034366D01*
X58173511Y-8093258D01*
X58173502Y-8093261D01*
X57967267Y-8189431D01*
X57967265Y-8189432D01*
X57780858Y-8319954D01*
X57619954Y-8480858D01*
X57489433Y-8667264D01*
X57465205Y-8719221D01*
X57419032Y-8771660D01*
X57351838Y-8790811D01*
X57284957Y-8770595D01*
X57243465Y-8725268D01*
X57208849Y-8660506D01*
X57208832Y-8660478D01*
X57121295Y-8529469D01*
X57121291Y-8529463D01*
X57058485Y-8452935D01*
X56947064Y-8341514D01*
X56870536Y-8278708D01*
X56870530Y-8278704D01*
X56739521Y-8191167D01*
X56739501Y-8191155D01*
X56652198Y-8144490D01*
X56506612Y-8084185D01*
X56411860Y-8055443D01*
X56411849Y-8055440D01*
X56330000Y-8039160D01*
X56330000Y-10486988D01*
X56272993Y-10454075D01*
X56145826Y-10420000D01*
X56014174Y-10420000D01*
X55887007Y-10454075D01*
X55830000Y-10486988D01*
X55830000Y-8039161D01*
X55829999Y-8039160D01*
X55748150Y-8055440D01*
X55748139Y-8055443D01*
X55653387Y-8084185D01*
X55507801Y-8144490D01*
X55420498Y-8191155D01*
X55420478Y-8191167D01*
X55289469Y-8278704D01*
X55289463Y-8278708D01*
X55212935Y-8341514D01*
X55101514Y-8452935D01*
X55038708Y-8529463D01*
X55038704Y-8529469D01*
X54951167Y-8660478D01*
X54951155Y-8660499D01*
X54916534Y-8725269D01*
X54867571Y-8775113D01*
X54799433Y-8790573D01*
X54733753Y-8766741D01*
X54694794Y-8719219D01*
X54670568Y-8667266D01*
X54540047Y-8480861D01*
X54540045Y-8480858D01*
X54379141Y-8319954D01*
X54192734Y-8189432D01*
X54192732Y-8189431D01*
X53986497Y-8093261D01*
X53986488Y-8093258D01*
X53766697Y-8034366D01*
X53766687Y-8034364D01*
X53596785Y-8019500D01*
X53596784Y-8019500D01*
X53483216Y-8019500D01*
X53483215Y-8019500D01*
X53313312Y-8034364D01*
X53313302Y-8034366D01*
X53093511Y-8093258D01*
X53093502Y-8093261D01*
X52887267Y-8189431D01*
X52887265Y-8189432D01*
X52700858Y-8319954D01*
X52539954Y-8480858D01*
X52409432Y-8667265D01*
X52409431Y-8667267D01*
X52382382Y-8725275D01*
X52336209Y-8777714D01*
X52269016Y-8796866D01*
X52202135Y-8776650D01*
X52157618Y-8725275D01*
X52154794Y-8719219D01*
X52130568Y-8667266D01*
X52000047Y-8480861D01*
X52000045Y-8480858D01*
X51839141Y-8319954D01*
X51652734Y-8189432D01*
X51652732Y-8189431D01*
X51446497Y-8093261D01*
X51446488Y-8093258D01*
X51226697Y-8034366D01*
X51226687Y-8034364D01*
X51056785Y-8019500D01*
X51056784Y-8019500D01*
X50943216Y-8019500D01*
X50943215Y-8019500D01*
X50773312Y-8034364D01*
X50773302Y-8034366D01*
X50553511Y-8093258D01*
X50553502Y-8093261D01*
X50347267Y-8189431D01*
X50347265Y-8189432D01*
X50160858Y-8319954D01*
X49999954Y-8480858D01*
X49869432Y-8667265D01*
X49869431Y-8667267D01*
X49842382Y-8725275D01*
X49796209Y-8777714D01*
X49729016Y-8796866D01*
X49662135Y-8776650D01*
X49617618Y-8725275D01*
X49614794Y-8719219D01*
X49590568Y-8667266D01*
X49499917Y-8537802D01*
X49460048Y-8480862D01*
X49392438Y-8413252D01*
X49299139Y-8319953D01*
X49294373Y-8316615D01*
X49263375Y-8294910D01*
X49219751Y-8240332D01*
X49210500Y-8193336D01*
X49210500Y-6886079D01*
X49181659Y-6741092D01*
X49181658Y-6741091D01*
X49181658Y-6741087D01*
X49181656Y-6741082D01*
X49125086Y-6604509D01*
X49125085Y-6604507D01*
X49092186Y-6555270D01*
X49092185Y-6555268D01*
X49042956Y-6481589D01*
X49042952Y-6481584D01*
X48286819Y-5725451D01*
X48253334Y-5664128D01*
X48250500Y-5637770D01*
X48250500Y-4687220D01*
X48270185Y-4620181D01*
X48301614Y-4586902D01*
X48379792Y-4530104D01*
X48530104Y-4379792D01*
X48530106Y-4379788D01*
X48530109Y-4379786D01*
X48655048Y-4207820D01*
X48655047Y-4207820D01*
X48655051Y-4207816D01*
X48751557Y-4018412D01*
X48817246Y-3816243D01*
X48850500Y-3606287D01*
X48850500Y-3393713D01*
X48817246Y-3183757D01*
X48751557Y-2981588D01*
X48655051Y-2792184D01*
X48655049Y-2792181D01*
X48655048Y-2792179D01*
X48530109Y-2620213D01*
X48379786Y-2469890D01*
X48207820Y-2344951D01*
X48018414Y-2248444D01*
X48018413Y-2248443D01*
X48018412Y-2248443D01*
X47816243Y-2182754D01*
X47816241Y-2182753D01*
X47816240Y-2182753D01*
X47654957Y-2157208D01*
X47606287Y-2149500D01*
X47393713Y-2149500D01*
X47345042Y-2157208D01*
X47183760Y-2182753D01*
X46981585Y-2248444D01*
X46792179Y-2344951D01*
X46620213Y-2469890D01*
X46469890Y-2620213D01*
X46344949Y-2792182D01*
X46340484Y-2800946D01*
X46292509Y-2851742D01*
X46224688Y-2868536D01*
X46158553Y-2845998D01*
X46119516Y-2800946D01*
X46115050Y-2792182D01*
X45990109Y-2620213D01*
X45839786Y-2469890D01*
X45667820Y-2344951D01*
X45478414Y-2248444D01*
X45478413Y-2248443D01*
X45478412Y-2248443D01*
X45276243Y-2182754D01*
X45276241Y-2182753D01*
X45276240Y-2182753D01*
X45114957Y-2157208D01*
X45066287Y-2149500D01*
X44853713Y-2149500D01*
X44805042Y-2157208D01*
X44643760Y-2182753D01*
X44441585Y-2248444D01*
X44252179Y-2344951D01*
X44080213Y-2469890D01*
X43929890Y-2620213D01*
X43804949Y-2792182D01*
X43800484Y-2800946D01*
X43752509Y-2851742D01*
X43684688Y-2868536D01*
X43618553Y-2845998D01*
X43579516Y-2800946D01*
X43575050Y-2792182D01*
X43450109Y-2620213D01*
X43299786Y-2469890D01*
X43127820Y-2344951D01*
X42938414Y-2248444D01*
X42938413Y-2248443D01*
X42938412Y-2248443D01*
X42736243Y-2182754D01*
X42736241Y-2182753D01*
X42736240Y-2182753D01*
X42574957Y-2157208D01*
X42526287Y-2149500D01*
X42313713Y-2149500D01*
X42265042Y-2157208D01*
X42103760Y-2182753D01*
X41901585Y-2248444D01*
X41712179Y-2344951D01*
X41540215Y-2469889D01*
X41426285Y-2583819D01*
X41364962Y-2617303D01*
X41295270Y-2612319D01*
X41239337Y-2570447D01*
X41222422Y-2539470D01*
X41173354Y-2407913D01*
X41173350Y-2407906D01*
X41087190Y-2292812D01*
X41087187Y-2292809D01*
X40972093Y-2206649D01*
X40972086Y-2206645D01*
X40837379Y-2156403D01*
X40837372Y-2156401D01*
X40777844Y-2150000D01*
X40130000Y-2150000D01*
X40130000Y-3066988D01*
X40072993Y-3034075D01*
X39945826Y-3000000D01*
X39814174Y-3000000D01*
X39687007Y-3034075D01*
X39630000Y-3066988D01*
X39630000Y-2150000D01*
X38982155Y-2150000D01*
X38922627Y-2156401D01*
X38922620Y-2156403D01*
X38787913Y-2206645D01*
X38787906Y-2206649D01*
X38672812Y-2292809D01*
X38672809Y-2292812D01*
X38586649Y-2407906D01*
X38586645Y-2407913D01*
X38536403Y-2542620D01*
X38536401Y-2542627D01*
X38530000Y-2602155D01*
X38530000Y-3250000D01*
X39446988Y-3250000D01*
X39414075Y-3307007D01*
X39380000Y-3434174D01*
X39380000Y-3565826D01*
X39414075Y-3692993D01*
X39446988Y-3750000D01*
X38530000Y-3750000D01*
X38530000Y-4397844D01*
X38536401Y-4457372D01*
X38536403Y-4457379D01*
X38586645Y-4592086D01*
X38586649Y-4592093D01*
X38672809Y-4707187D01*
X38672812Y-4707190D01*
X38787906Y-4793350D01*
X38787913Y-4793354D01*
X38922620Y-4843596D01*
X38922627Y-4843598D01*
X38982155Y-4849999D01*
X38982172Y-4850000D01*
X39630000Y-4850000D01*
X39630000Y-3933012D01*
X39687007Y-3965925D01*
X39814174Y-4000000D01*
X39945826Y-4000000D01*
X40072993Y-3965925D01*
X40130000Y-3933012D01*
X40130000Y-4850000D01*
X40777828Y-4850000D01*
X40777844Y-4849999D01*
X40837372Y-4843598D01*
X40837379Y-4843596D01*
X40972086Y-4793354D01*
X40972093Y-4793350D01*
X41087187Y-4707190D01*
X41087190Y-4707187D01*
X41173350Y-4592093D01*
X41173354Y-4592086D01*
X41222422Y-4460529D01*
X41264293Y-4404595D01*
X41329757Y-4380178D01*
X41398030Y-4395030D01*
X41426285Y-4416181D01*
X41540208Y-4530104D01*
X41618384Y-4586902D01*
X41661051Y-4642231D01*
X41669500Y-4687220D01*
X41669500Y-5993918D01*
X41669500Y-5993920D01*
X41669499Y-5993920D01*
X41698340Y-6138907D01*
X41698343Y-6138917D01*
X41754912Y-6275487D01*
X41754913Y-6275489D01*
X41754916Y-6275495D01*
X41757929Y-6280004D01*
X41757930Y-6280007D01*
X41837046Y-6398414D01*
X41837052Y-6398421D01*
X43256051Y-7817419D01*
X43289536Y-7878742D01*
X43284552Y-7948434D01*
X43242680Y-8004367D01*
X43192561Y-8026718D01*
X43048133Y-8055445D01*
X42953387Y-8084185D01*
X42807801Y-8144490D01*
X42720498Y-8191155D01*
X42720478Y-8191167D01*
X42589469Y-8278704D01*
X42589463Y-8278708D01*
X42512935Y-8341514D01*
X42401514Y-8452935D01*
X42338708Y-8529463D01*
X42338704Y-8529469D01*
X42251167Y-8660478D01*
X42251155Y-8660499D01*
X42216534Y-8725269D01*
X42167571Y-8775113D01*
X42099433Y-8790573D01*
X42033753Y-8766741D01*
X41994794Y-8719219D01*
X41970568Y-8667266D01*
X41840047Y-8480861D01*
X41840045Y-8480858D01*
X41679141Y-8319954D01*
X41492734Y-8189432D01*
X41492732Y-8189431D01*
X41286497Y-8093261D01*
X41286488Y-8093258D01*
X41066697Y-8034366D01*
X41066687Y-8034364D01*
X40896785Y-8019500D01*
X40896784Y-8019500D01*
X40783216Y-8019500D01*
X40783215Y-8019500D01*
X40613312Y-8034364D01*
X40613302Y-8034366D01*
X40393511Y-8093258D01*
X40393502Y-8093261D01*
X40187267Y-8189431D01*
X40187265Y-8189432D01*
X40000858Y-8319954D01*
X39839954Y-8480858D01*
X39709432Y-8667265D01*
X39709431Y-8667267D01*
X39682382Y-8725275D01*
X39636209Y-8777714D01*
X39569016Y-8796866D01*
X39502135Y-8776650D01*
X39457618Y-8725275D01*
X39454794Y-8719219D01*
X39430568Y-8667266D01*
X39300047Y-8480861D01*
X39300045Y-8480858D01*
X39139141Y-8319954D01*
X38952734Y-8189432D01*
X38952732Y-8189431D01*
X38746497Y-8093261D01*
X38746488Y-8093258D01*
X38526697Y-8034366D01*
X38526687Y-8034364D01*
X38356785Y-8019500D01*
X38356784Y-8019500D01*
X38243216Y-8019500D01*
X38243215Y-8019500D01*
X38073312Y-8034364D01*
X38073302Y-8034366D01*
X37853511Y-8093258D01*
X37853502Y-8093261D01*
X37647267Y-8189431D01*
X37647265Y-8189432D01*
X37460858Y-8319954D01*
X37299954Y-8480858D01*
X37169432Y-8667265D01*
X37169431Y-8667267D01*
X37142382Y-8725275D01*
X37096209Y-8777714D01*
X37029016Y-8796866D01*
X36962135Y-8776650D01*
X36917618Y-8725275D01*
X36914794Y-8719219D01*
X36890568Y-8667266D01*
X36760047Y-8480861D01*
X36760045Y-8480858D01*
X36599141Y-8319954D01*
X36412734Y-8189432D01*
X36412732Y-8189431D01*
X36206497Y-8093261D01*
X36206488Y-8093258D01*
X35986697Y-8034366D01*
X35986687Y-8034364D01*
X35816785Y-8019500D01*
X35816784Y-8019500D01*
X35703216Y-8019500D01*
X35703215Y-8019500D01*
X35533312Y-8034364D01*
X35533302Y-8034366D01*
X35313511Y-8093258D01*
X35313502Y-8093261D01*
X35107267Y-8189431D01*
X35107265Y-8189432D01*
X34920858Y-8319954D01*
X34759954Y-8480858D01*
X34629432Y-8667265D01*
X34629431Y-8667267D01*
X34602382Y-8725275D01*
X34556209Y-8777714D01*
X34489016Y-8796866D01*
X34422135Y-8776650D01*
X34377618Y-8725275D01*
X34374794Y-8719219D01*
X34350568Y-8667266D01*
X34220047Y-8480861D01*
X34220045Y-8480858D01*
X34059141Y-8319954D01*
X33872734Y-8189432D01*
X33872732Y-8189431D01*
X33666497Y-8093261D01*
X33666488Y-8093258D01*
X33446697Y-8034366D01*
X33446687Y-8034364D01*
X33276785Y-8019500D01*
X33276784Y-8019500D01*
X33163216Y-8019500D01*
X33163215Y-8019500D01*
X32993312Y-8034364D01*
X32993302Y-8034366D01*
X32773511Y-8093258D01*
X32773502Y-8093261D01*
X32567267Y-8189431D01*
X32567265Y-8189432D01*
X32380858Y-8319954D01*
X32219954Y-8480858D01*
X32089433Y-8667264D01*
X32065205Y-8719221D01*
X32019032Y-8771660D01*
X31951838Y-8790811D01*
X31884957Y-8770595D01*
X31843465Y-8725268D01*
X31808849Y-8660506D01*
X31808832Y-8660478D01*
X31721295Y-8529469D01*
X31721291Y-8529463D01*
X31658485Y-8452935D01*
X31547064Y-8341514D01*
X31470536Y-8278708D01*
X31470530Y-8278704D01*
X31339521Y-8191167D01*
X31339501Y-8191155D01*
X31252198Y-8144490D01*
X31106612Y-8084185D01*
X31011860Y-8055443D01*
X31011849Y-8055440D01*
X30930000Y-8039160D01*
X30930000Y-10486988D01*
X30872993Y-10454075D01*
X30745826Y-10420000D01*
X30614174Y-10420000D01*
X30487007Y-10454075D01*
X30430000Y-10486988D01*
X30430000Y-8039161D01*
X30429999Y-8039160D01*
X30348150Y-8055440D01*
X30348139Y-8055443D01*
X30253387Y-8084185D01*
X30107801Y-8144490D01*
X30020498Y-8191155D01*
X30020478Y-8191167D01*
X29889469Y-8278704D01*
X29889463Y-8278708D01*
X29812935Y-8341514D01*
X29701514Y-8452935D01*
X29638708Y-8529463D01*
X29638704Y-8529469D01*
X29551167Y-8660478D01*
X29551155Y-8660499D01*
X29516534Y-8725269D01*
X29467571Y-8775113D01*
X29399433Y-8790573D01*
X29333753Y-8766741D01*
X29294794Y-8719219D01*
X29270568Y-8667266D01*
X29140047Y-8480861D01*
X29140045Y-8480858D01*
X28979141Y-8319954D01*
X28792734Y-8189432D01*
X28792732Y-8189431D01*
X28586497Y-8093261D01*
X28586488Y-8093258D01*
X28366697Y-8034366D01*
X28366687Y-8034364D01*
X28196785Y-8019500D01*
X28196784Y-8019500D01*
X28083216Y-8019500D01*
X28083215Y-8019500D01*
X27913312Y-8034364D01*
X27913302Y-8034366D01*
X27693511Y-8093258D01*
X27693502Y-8093261D01*
X27487267Y-8189431D01*
X27487265Y-8189432D01*
X27300858Y-8319954D01*
X27139954Y-8480858D01*
X27009432Y-8667265D01*
X27009431Y-8667267D01*
X26982382Y-8725275D01*
X26936209Y-8777714D01*
X26869016Y-8796866D01*
X26802135Y-8776650D01*
X26757618Y-8725275D01*
X26754794Y-8719219D01*
X26730568Y-8667266D01*
X26600047Y-8480861D01*
X26600045Y-8480858D01*
X26439141Y-8319954D01*
X26252734Y-8189432D01*
X26252732Y-8189431D01*
X26046497Y-8093261D01*
X26046488Y-8093258D01*
X25826697Y-8034366D01*
X25826687Y-8034364D01*
X25656785Y-8019500D01*
X25656784Y-8019500D01*
X25543216Y-8019500D01*
X25543215Y-8019500D01*
X25373312Y-8034364D01*
X25373302Y-8034366D01*
X25153511Y-8093258D01*
X25153502Y-8093261D01*
X24947267Y-8189431D01*
X24947265Y-8189432D01*
X24760858Y-8319954D01*
X24599954Y-8480858D01*
X24469432Y-8667265D01*
X24469431Y-8667267D01*
X24442382Y-8725275D01*
X24396209Y-8777714D01*
X24329016Y-8796866D01*
X24262135Y-8776650D01*
X24217618Y-8725275D01*
X24214794Y-8719219D01*
X24190568Y-8667266D01*
X24060047Y-8480861D01*
X24060045Y-8480858D01*
X23899141Y-8319954D01*
X23712734Y-8189432D01*
X23712732Y-8189431D01*
X23506497Y-8093261D01*
X23506488Y-8093258D01*
X23286697Y-8034366D01*
X23286687Y-8034364D01*
X23116785Y-8019500D01*
X23116784Y-8019500D01*
X23003216Y-8019500D01*
X23003215Y-8019500D01*
X22833312Y-8034364D01*
X22833302Y-8034366D01*
X22613511Y-8093258D01*
X22613502Y-8093261D01*
X22407267Y-8189431D01*
X22407265Y-8189432D01*
X22220858Y-8319954D01*
X22059954Y-8480858D01*
X21929432Y-8667265D01*
X21929431Y-8667267D01*
X21902382Y-8725275D01*
X21856209Y-8777714D01*
X21789016Y-8796866D01*
X21722135Y-8776650D01*
X21677618Y-8725275D01*
X21674794Y-8719219D01*
X21650568Y-8667266D01*
X21520047Y-8480861D01*
X21520045Y-8480858D01*
X21359141Y-8319954D01*
X21172734Y-8189432D01*
X21172732Y-8189431D01*
X20966497Y-8093261D01*
X20966488Y-8093258D01*
X20746697Y-8034366D01*
X20746687Y-8034364D01*
X20576785Y-8019500D01*
X20576784Y-8019500D01*
X20463216Y-8019500D01*
X20463215Y-8019500D01*
X20293312Y-8034364D01*
X20293302Y-8034366D01*
X20073511Y-8093258D01*
X20073502Y-8093261D01*
X19867267Y-8189431D01*
X19867265Y-8189432D01*
X19680858Y-8319954D01*
X19519954Y-8480858D01*
X19389433Y-8667264D01*
X19365205Y-8719221D01*
X19319032Y-8771660D01*
X19251838Y-8790811D01*
X19184957Y-8770595D01*
X19143465Y-8725268D01*
X19108849Y-8660506D01*
X19108832Y-8660478D01*
X19021295Y-8529469D01*
X19021291Y-8529463D01*
X18958485Y-8452935D01*
X18847064Y-8341514D01*
X18770536Y-8278708D01*
X18770530Y-8278704D01*
X18639521Y-8191167D01*
X18639501Y-8191155D01*
X18552198Y-8144490D01*
X18406612Y-8084185D01*
X18311860Y-8055443D01*
X18311849Y-8055440D01*
X18230000Y-8039160D01*
X18230000Y-10486988D01*
X18172993Y-10454075D01*
X18045826Y-10420000D01*
X17914174Y-10420000D01*
X17787007Y-10454075D01*
X17730000Y-10486988D01*
X17730000Y-8039161D01*
X17729999Y-8039160D01*
X17648150Y-8055440D01*
X17648139Y-8055443D01*
X17553387Y-8084185D01*
X17407801Y-8144490D01*
X17320498Y-8191155D01*
X17320478Y-8191167D01*
X17189469Y-8278704D01*
X17189463Y-8278708D01*
X17112935Y-8341514D01*
X17001514Y-8452935D01*
X16938708Y-8529463D01*
X16938704Y-8529469D01*
X16851167Y-8660478D01*
X16851155Y-8660499D01*
X16816534Y-8725269D01*
X16767571Y-8775113D01*
X16699433Y-8790573D01*
X16633753Y-8766741D01*
X16594794Y-8719219D01*
X16570568Y-8667266D01*
X16440047Y-8480861D01*
X16440045Y-8480858D01*
X16279141Y-8319954D01*
X16092734Y-8189432D01*
X16092732Y-8189431D01*
X15886497Y-8093261D01*
X15886488Y-8093258D01*
X15666697Y-8034366D01*
X15666687Y-8034364D01*
X15496785Y-8019500D01*
X15496784Y-8019500D01*
X15383216Y-8019500D01*
X15383215Y-8019500D01*
X15213312Y-8034364D01*
X15213302Y-8034366D01*
X14993511Y-8093258D01*
X14993502Y-8093261D01*
X14787267Y-8189431D01*
X14787265Y-8189432D01*
X14600858Y-8319954D01*
X14439954Y-8480858D01*
X14309432Y-8667265D01*
X14309431Y-8667267D01*
X14282382Y-8725275D01*
X14236209Y-8777714D01*
X14169016Y-8796866D01*
X14102135Y-8776650D01*
X14057618Y-8725275D01*
X14054794Y-8719219D01*
X14030568Y-8667266D01*
X13900047Y-8480861D01*
X13900045Y-8480858D01*
X13739141Y-8319954D01*
X13552734Y-8189432D01*
X13552732Y-8189431D01*
X13346497Y-8093261D01*
X13346488Y-8093258D01*
X13126697Y-8034366D01*
X13126687Y-8034364D01*
X12956785Y-8019500D01*
X12956784Y-8019500D01*
X12843216Y-8019500D01*
X12843215Y-8019500D01*
X12673312Y-8034364D01*
X12673302Y-8034366D01*
X12453511Y-8093258D01*
X12453502Y-8093261D01*
X12247267Y-8189431D01*
X12247265Y-8189432D01*
X12060858Y-8319954D01*
X11899954Y-8480858D01*
X11769432Y-8667265D01*
X11769431Y-8667267D01*
X11673261Y-8873502D01*
X11673258Y-8873511D01*
X11614366Y-9093302D01*
X11614364Y-9093312D01*
X11599500Y-9263214D01*
X11599500Y-9263216D01*
X11599500Y-10817648D01*
X11599500Y-11022352D01*
X11608406Y-11078582D01*
X11614365Y-11146692D01*
X11626171Y-11190756D01*
X11627188Y-11197175D01*
X11627190Y-11197181D01*
X11631521Y-11224525D01*
X11631522Y-11224530D01*
X11651617Y-11286378D01*
X11653460Y-11292600D01*
X11673260Y-11366494D01*
X11684529Y-11390662D01*
X11687733Y-11397532D01*
X11694780Y-11419219D01*
X11730930Y-11490169D01*
X11731844Y-11492128D01*
X11769432Y-11572734D01*
X11777562Y-11584346D01*
X11782535Y-11591448D01*
X11787713Y-11601610D01*
X11841164Y-11675180D01*
X11841793Y-11676078D01*
X11899953Y-11759140D01*
X12060858Y-11920045D01*
X12143904Y-11978194D01*
X12144800Y-11978821D01*
X12218390Y-12032287D01*
X12228547Y-12037462D01*
X12235648Y-12042434D01*
X12235652Y-12042436D01*
X12247266Y-12050568D01*
X12300672Y-12075472D01*
X12329827Y-12089067D01*
X12400781Y-12125220D01*
X12422467Y-12132266D01*
X12453504Y-12146739D01*
X12453510Y-12146740D01*
X12453513Y-12146742D01*
X12527386Y-12166535D01*
X12530528Y-12167377D01*
X12595466Y-12188477D01*
X12629233Y-12193825D01*
X12673308Y-12205635D01*
X12737103Y-12211215D01*
X12745690Y-12212269D01*
X12797648Y-12220500D01*
X12797649Y-12220500D01*
X13002350Y-12220500D01*
X13002352Y-12220500D01*
X13054308Y-12212270D01*
X13058582Y-12211592D01*
X13126692Y-12205635D01*
X13170766Y-12193825D01*
X13204534Y-12188477D01*
X13266404Y-12168373D01*
X13272617Y-12166534D01*
X13346490Y-12146741D01*
X13346492Y-12146739D01*
X13346496Y-12146739D01*
X13377532Y-12132266D01*
X13399219Y-12125220D01*
X13470172Y-12089067D01*
X13552734Y-12050568D01*
X13571446Y-12037465D01*
X13581610Y-12032287D01*
X13655199Y-11978821D01*
X13739139Y-11920047D01*
X13900047Y-11759139D01*
X13958821Y-11675199D01*
X14012287Y-11601610D01*
X14017465Y-11591446D01*
X14030568Y-11572734D01*
X14057617Y-11514724D01*
X14103788Y-11462287D01*
X14170981Y-11443134D01*
X14237862Y-11463349D01*
X14282381Y-11514724D01*
X14309433Y-11572736D01*
X14317563Y-11584347D01*
X14326469Y-11599169D01*
X14327714Y-11601612D01*
X14327714Y-11601613D01*
X14380536Y-11674316D01*
X14381793Y-11676078D01*
X14439953Y-11759140D01*
X14600858Y-11920045D01*
X14683904Y-11978194D01*
X14684800Y-11978821D01*
X14758390Y-12032287D01*
X14768547Y-12037462D01*
X14775648Y-12042434D01*
X14775652Y-12042436D01*
X14787266Y-12050568D01*
X14840672Y-12075472D01*
X14869827Y-12089067D01*
X14940781Y-12125220D01*
X14962467Y-12132266D01*
X14993504Y-12146739D01*
X14993510Y-12146740D01*
X14993513Y-12146742D01*
X15067386Y-12166535D01*
X15070528Y-12167377D01*
X15135466Y-12188477D01*
X15169233Y-12193825D01*
X15213308Y-12205635D01*
X15277103Y-12211215D01*
X15285690Y-12212269D01*
X15337648Y-12220500D01*
X15337649Y-12220500D01*
X15542350Y-12220500D01*
X15542352Y-12220500D01*
X15594308Y-12212270D01*
X15598582Y-12211592D01*
X15666692Y-12205635D01*
X15710766Y-12193825D01*
X15744534Y-12188477D01*
X15806404Y-12168373D01*
X15812617Y-12166534D01*
X15825303Y-12163135D01*
X17090414Y-12163135D01*
X17146960Y-12186557D01*
X17146964Y-12186559D01*
X17197946Y-12204544D01*
X17340219Y-12224999D01*
X17340221Y-12225000D01*
X17730000Y-12225000D01*
X18230000Y-12225000D01*
X18619786Y-12225000D01*
X18673762Y-12222106D01*
X18673764Y-12222106D01*
X18813039Y-12186558D01*
X18869584Y-12163136D01*
X18869584Y-12163135D01*
X18230000Y-11523551D01*
X18230000Y-12225000D01*
X17730000Y-12225000D01*
X17730000Y-11523552D01*
X17729999Y-11523551D01*
X17090414Y-12163135D01*
X15825303Y-12163135D01*
X15886490Y-12146741D01*
X15886492Y-12146739D01*
X15886496Y-12146739D01*
X15917532Y-12132266D01*
X15939219Y-12125220D01*
X16010172Y-12089067D01*
X16092734Y-12050568D01*
X16104382Y-12042411D01*
X16107618Y-12040222D01*
X16113211Y-12036565D01*
X16121610Y-12032287D01*
X16194358Y-11979432D01*
X16196047Y-11978227D01*
X16279139Y-11920047D01*
X16440047Y-11759139D01*
X16486623Y-11692619D01*
X16541196Y-11648996D01*
X16610695Y-11641801D01*
X16673050Y-11673322D01*
X16708344Y-11733073D01*
X16713438Y-11753028D01*
X16713442Y-11753043D01*
X16736862Y-11809584D01*
X17497037Y-11049409D01*
X17514075Y-11112993D01*
X17579901Y-11227007D01*
X17672993Y-11320099D01*
X17787007Y-11385925D01*
X17914174Y-11420000D01*
X18045826Y-11420000D01*
X18172993Y-11385925D01*
X18287007Y-11320099D01*
X18380099Y-11227007D01*
X18445925Y-11112993D01*
X18462962Y-11049410D01*
X19223135Y-11809584D01*
X19223136Y-11809584D01*
X19246556Y-11753045D01*
X19246558Y-11753039D01*
X19256507Y-11724838D01*
X19297372Y-11668165D01*
X19362390Y-11642583D01*
X19430917Y-11656213D01*
X19475019Y-11694966D01*
X19519954Y-11759141D01*
X19680858Y-11920045D01*
X19763904Y-11978194D01*
X19764800Y-11978821D01*
X19838390Y-12032287D01*
X19848547Y-12037462D01*
X19855648Y-12042434D01*
X19855652Y-12042436D01*
X19867266Y-12050568D01*
X19920672Y-12075472D01*
X19949827Y-12089067D01*
X20020781Y-12125220D01*
X20042467Y-12132266D01*
X20073504Y-12146739D01*
X20073510Y-12146740D01*
X20073513Y-12146742D01*
X20147386Y-12166535D01*
X20150528Y-12167377D01*
X20215466Y-12188477D01*
X20249233Y-12193825D01*
X20293308Y-12205635D01*
X20357103Y-12211215D01*
X20365690Y-12212269D01*
X20417648Y-12220500D01*
X20417649Y-12220500D01*
X20622350Y-12220500D01*
X20622352Y-12220500D01*
X20674308Y-12212270D01*
X20678582Y-12211592D01*
X20746692Y-12205635D01*
X20790766Y-12193825D01*
X20824534Y-12188477D01*
X20886404Y-12168373D01*
X20892617Y-12166534D01*
X20966490Y-12146741D01*
X20966492Y-12146739D01*
X20966496Y-12146739D01*
X20997532Y-12132266D01*
X21019219Y-12125220D01*
X21090172Y-12089067D01*
X21172734Y-12050568D01*
X21191446Y-12037465D01*
X21201610Y-12032287D01*
X21275199Y-11978821D01*
X21359139Y-11920047D01*
X21520047Y-11759139D01*
X21578821Y-11675199D01*
X21632287Y-11601610D01*
X21637465Y-11591446D01*
X21650568Y-11572734D01*
X21677617Y-11514724D01*
X21723788Y-11462287D01*
X21790981Y-11443134D01*
X21857862Y-11463349D01*
X21902381Y-11514724D01*
X21929433Y-11572736D01*
X21937563Y-11584347D01*
X21946469Y-11599169D01*
X21947714Y-11601612D01*
X21947714Y-11601613D01*
X22000536Y-11674316D01*
X22001793Y-11676078D01*
X22059953Y-11759140D01*
X22220858Y-11920045D01*
X22303904Y-11978194D01*
X22304800Y-11978821D01*
X22378390Y-12032287D01*
X22388547Y-12037462D01*
X22395648Y-12042434D01*
X22395652Y-12042436D01*
X22407266Y-12050568D01*
X22460672Y-12075472D01*
X22489827Y-12089067D01*
X22560781Y-12125220D01*
X22582467Y-12132266D01*
X22613504Y-12146739D01*
X22613510Y-12146740D01*
X22613513Y-12146742D01*
X22687386Y-12166535D01*
X22690528Y-12167377D01*
X22755466Y-12188477D01*
X22789233Y-12193825D01*
X22833308Y-12205635D01*
X22897103Y-12211215D01*
X22905690Y-12212269D01*
X22957648Y-12220500D01*
X22957649Y-12220500D01*
X23162350Y-12220500D01*
X23162352Y-12220500D01*
X23214308Y-12212270D01*
X23218582Y-12211592D01*
X23286692Y-12205635D01*
X23330766Y-12193825D01*
X23364534Y-12188477D01*
X23426404Y-12168373D01*
X23432617Y-12166534D01*
X23506490Y-12146741D01*
X23506492Y-12146739D01*
X23506496Y-12146739D01*
X23537532Y-12132266D01*
X23559219Y-12125220D01*
X23630172Y-12089067D01*
X23712734Y-12050568D01*
X23731446Y-12037465D01*
X23741610Y-12032287D01*
X23815199Y-11978821D01*
X23899139Y-11920047D01*
X24060047Y-11759139D01*
X24118821Y-11675199D01*
X24172287Y-11601610D01*
X24177465Y-11591446D01*
X24190568Y-11572734D01*
X24217617Y-11514724D01*
X24263788Y-11462287D01*
X24330981Y-11443134D01*
X24397862Y-11463349D01*
X24442381Y-11514724D01*
X24469433Y-11572736D01*
X24477563Y-11584347D01*
X24486469Y-11599169D01*
X24487714Y-11601612D01*
X24487714Y-11601613D01*
X24540536Y-11674316D01*
X24541793Y-11676078D01*
X24599953Y-11759140D01*
X24760858Y-11920045D01*
X24843904Y-11978194D01*
X24844800Y-11978821D01*
X24918390Y-12032287D01*
X24928547Y-12037462D01*
X24935648Y-12042434D01*
X24935652Y-12042436D01*
X24947266Y-12050568D01*
X25000672Y-12075472D01*
X25029827Y-12089067D01*
X25100781Y-12125220D01*
X25122467Y-12132266D01*
X25153504Y-12146739D01*
X25153510Y-12146740D01*
X25153513Y-12146742D01*
X25227386Y-12166535D01*
X25230528Y-12167377D01*
X25295466Y-12188477D01*
X25329233Y-12193825D01*
X25373308Y-12205635D01*
X25437103Y-12211215D01*
X25445690Y-12212269D01*
X25497648Y-12220500D01*
X25497649Y-12220500D01*
X25702350Y-12220500D01*
X25702352Y-12220500D01*
X25754308Y-12212270D01*
X25758582Y-12211592D01*
X25826692Y-12205635D01*
X25870766Y-12193825D01*
X25904534Y-12188477D01*
X25966404Y-12168373D01*
X25972617Y-12166534D01*
X26046490Y-12146741D01*
X26046492Y-12146739D01*
X26046496Y-12146739D01*
X26077532Y-12132266D01*
X26099219Y-12125220D01*
X26170172Y-12089067D01*
X26252734Y-12050568D01*
X26271446Y-12037465D01*
X26281610Y-12032287D01*
X26355199Y-11978821D01*
X26439139Y-11920047D01*
X26600047Y-11759139D01*
X26658821Y-11675199D01*
X26712287Y-11601610D01*
X26717465Y-11591446D01*
X26730568Y-11572734D01*
X26757617Y-11514724D01*
X26803788Y-11462287D01*
X26870981Y-11443134D01*
X26937862Y-11463349D01*
X26982381Y-11514724D01*
X27009433Y-11572736D01*
X27017563Y-11584347D01*
X27026469Y-11599169D01*
X27027714Y-11601612D01*
X27027714Y-11601613D01*
X27080536Y-11674316D01*
X27081793Y-11676078D01*
X27139953Y-11759140D01*
X27300858Y-11920045D01*
X27383904Y-11978194D01*
X27384800Y-11978821D01*
X27458390Y-12032287D01*
X27468547Y-12037462D01*
X27475648Y-12042434D01*
X27475652Y-12042436D01*
X27487266Y-12050568D01*
X27540672Y-12075472D01*
X27569827Y-12089067D01*
X27640781Y-12125220D01*
X27662467Y-12132266D01*
X27693504Y-12146739D01*
X27693510Y-12146740D01*
X27693513Y-12146742D01*
X27767386Y-12166535D01*
X27770528Y-12167377D01*
X27835466Y-12188477D01*
X27869233Y-12193825D01*
X27913308Y-12205635D01*
X27977103Y-12211215D01*
X27985690Y-12212269D01*
X28037648Y-12220500D01*
X28037649Y-12220500D01*
X28242350Y-12220500D01*
X28242352Y-12220500D01*
X28294308Y-12212270D01*
X28298582Y-12211592D01*
X28366692Y-12205635D01*
X28410766Y-12193825D01*
X28444534Y-12188477D01*
X28506404Y-12168373D01*
X28512617Y-12166534D01*
X28525303Y-12163135D01*
X29790414Y-12163135D01*
X29846960Y-12186557D01*
X29846964Y-12186559D01*
X29897946Y-12204544D01*
X30040219Y-12224999D01*
X30040221Y-12225000D01*
X30430000Y-12225000D01*
X30930000Y-12225000D01*
X31319786Y-12225000D01*
X31373762Y-12222106D01*
X31373764Y-12222106D01*
X31513039Y-12186558D01*
X31569584Y-12163136D01*
X31569584Y-12163135D01*
X30930000Y-11523551D01*
X30930000Y-12225000D01*
X30430000Y-12225000D01*
X30430000Y-11523552D01*
X30429999Y-11523551D01*
X29790414Y-12163135D01*
X28525303Y-12163135D01*
X28586490Y-12146741D01*
X28586492Y-12146739D01*
X28586496Y-12146739D01*
X28617532Y-12132266D01*
X28639219Y-12125220D01*
X28710172Y-12089067D01*
X28792734Y-12050568D01*
X28804382Y-12042411D01*
X28807618Y-12040222D01*
X28813211Y-12036565D01*
X28821610Y-12032287D01*
X28894358Y-11979432D01*
X28896047Y-11978227D01*
X28979139Y-11920047D01*
X29140047Y-11759139D01*
X29186623Y-11692619D01*
X29241196Y-11648996D01*
X29310695Y-11641801D01*
X29373050Y-11673322D01*
X29408344Y-11733073D01*
X29413438Y-11753028D01*
X29413442Y-11753043D01*
X29436862Y-11809584D01*
X30197037Y-11049409D01*
X30214075Y-11112993D01*
X30279901Y-11227007D01*
X30372993Y-11320099D01*
X30487007Y-11385925D01*
X30614174Y-11420000D01*
X30745826Y-11420000D01*
X30872993Y-11385925D01*
X30987007Y-11320099D01*
X31080099Y-11227007D01*
X31145925Y-11112993D01*
X31162962Y-11049410D01*
X31923135Y-11809584D01*
X31923136Y-11809584D01*
X31946556Y-11753045D01*
X31946558Y-11753039D01*
X31956507Y-11724838D01*
X31997372Y-11668165D01*
X32062390Y-11642583D01*
X32130917Y-11656213D01*
X32175019Y-11694966D01*
X32219954Y-11759141D01*
X32380858Y-11920045D01*
X32463904Y-11978194D01*
X32464800Y-11978821D01*
X32538390Y-12032287D01*
X32548547Y-12037462D01*
X32555648Y-12042434D01*
X32555652Y-12042436D01*
X32567266Y-12050568D01*
X32620672Y-12075472D01*
X32649827Y-12089067D01*
X32720781Y-12125220D01*
X32742467Y-12132266D01*
X32773504Y-12146739D01*
X32773510Y-12146740D01*
X32773513Y-12146742D01*
X32847386Y-12166535D01*
X32850528Y-12167377D01*
X32915466Y-12188477D01*
X32949233Y-12193825D01*
X32993308Y-12205635D01*
X33057103Y-12211215D01*
X33065690Y-12212269D01*
X33117648Y-12220500D01*
X33117649Y-12220500D01*
X33322350Y-12220500D01*
X33322352Y-12220500D01*
X33374308Y-12212270D01*
X33378582Y-12211592D01*
X33446692Y-12205635D01*
X33490766Y-12193825D01*
X33524534Y-12188477D01*
X33586404Y-12168373D01*
X33592617Y-12166534D01*
X33666490Y-12146741D01*
X33666492Y-12146739D01*
X33666496Y-12146739D01*
X33697532Y-12132266D01*
X33719219Y-12125220D01*
X33790172Y-12089067D01*
X33872734Y-12050568D01*
X33891446Y-12037465D01*
X33901610Y-12032287D01*
X33975199Y-11978821D01*
X34059139Y-11920047D01*
X34220047Y-11759139D01*
X34278821Y-11675199D01*
X34332287Y-11601610D01*
X34337465Y-11591446D01*
X34350568Y-11572734D01*
X34377617Y-11514724D01*
X34423788Y-11462287D01*
X34490981Y-11443134D01*
X34557862Y-11463349D01*
X34602381Y-11514724D01*
X34629433Y-11572736D01*
X34637563Y-11584347D01*
X34646469Y-11599169D01*
X34647714Y-11601612D01*
X34647714Y-11601613D01*
X34700536Y-11674316D01*
X34701793Y-11676078D01*
X34759953Y-11759140D01*
X34920858Y-11920045D01*
X35003904Y-11978194D01*
X35004800Y-11978821D01*
X35078390Y-12032287D01*
X35088547Y-12037462D01*
X35095648Y-12042434D01*
X35095652Y-12042436D01*
X35107266Y-12050568D01*
X35160672Y-12075472D01*
X35189827Y-12089067D01*
X35260781Y-12125220D01*
X35282467Y-12132266D01*
X35313504Y-12146739D01*
X35313510Y-12146740D01*
X35313513Y-12146742D01*
X35387386Y-12166535D01*
X35390528Y-12167377D01*
X35455466Y-12188477D01*
X35489233Y-12193825D01*
X35533308Y-12205635D01*
X35597103Y-12211215D01*
X35605690Y-12212269D01*
X35657648Y-12220500D01*
X35657649Y-12220500D01*
X35862350Y-12220500D01*
X35862352Y-12220500D01*
X35914308Y-12212270D01*
X35918582Y-12211592D01*
X35986692Y-12205635D01*
X36030766Y-12193825D01*
X36064534Y-12188477D01*
X36126404Y-12168373D01*
X36132617Y-12166534D01*
X36206490Y-12146741D01*
X36206492Y-12146739D01*
X36206496Y-12146739D01*
X36237532Y-12132266D01*
X36259219Y-12125220D01*
X36330172Y-12089067D01*
X36412734Y-12050568D01*
X36431446Y-12037465D01*
X36441610Y-12032287D01*
X36515199Y-11978821D01*
X36599139Y-11920047D01*
X36760047Y-11759139D01*
X36818821Y-11675199D01*
X36872287Y-11601610D01*
X36877465Y-11591446D01*
X36890568Y-11572734D01*
X36917617Y-11514724D01*
X36963788Y-11462287D01*
X37030981Y-11443134D01*
X37097862Y-11463349D01*
X37142381Y-11514724D01*
X37169433Y-11572736D01*
X37177563Y-11584347D01*
X37186469Y-11599169D01*
X37187714Y-11601612D01*
X37187714Y-11601613D01*
X37240536Y-11674316D01*
X37241793Y-11676078D01*
X37299953Y-11759140D01*
X37460858Y-11920045D01*
X37543904Y-11978194D01*
X37544800Y-11978821D01*
X37618390Y-12032287D01*
X37628547Y-12037462D01*
X37635648Y-12042434D01*
X37635652Y-12042436D01*
X37647266Y-12050568D01*
X37700672Y-12075472D01*
X37729827Y-12089067D01*
X37800781Y-12125220D01*
X37822467Y-12132266D01*
X37853504Y-12146739D01*
X37853510Y-12146740D01*
X37853513Y-12146742D01*
X37927386Y-12166535D01*
X37930528Y-12167377D01*
X37995466Y-12188477D01*
X38029233Y-12193825D01*
X38073308Y-12205635D01*
X38137103Y-12211215D01*
X38145690Y-12212269D01*
X38197648Y-12220500D01*
X38197649Y-12220500D01*
X38402350Y-12220500D01*
X38402352Y-12220500D01*
X38454308Y-12212270D01*
X38458582Y-12211592D01*
X38526692Y-12205635D01*
X38570766Y-12193825D01*
X38604534Y-12188477D01*
X38666404Y-12168373D01*
X38672617Y-12166534D01*
X38746490Y-12146741D01*
X38746492Y-12146739D01*
X38746496Y-12146739D01*
X38777532Y-12132266D01*
X38799219Y-12125220D01*
X38870172Y-12089067D01*
X38952734Y-12050568D01*
X38971446Y-12037465D01*
X38981610Y-12032287D01*
X39055199Y-11978821D01*
X39139139Y-11920047D01*
X39300047Y-11759139D01*
X39358821Y-11675199D01*
X39412287Y-11601610D01*
X39417465Y-11591446D01*
X39430568Y-11572734D01*
X39457617Y-11514724D01*
X39503788Y-11462287D01*
X39570981Y-11443134D01*
X39637862Y-11463349D01*
X39682381Y-11514724D01*
X39709433Y-11572736D01*
X39717563Y-11584347D01*
X39726469Y-11599169D01*
X39727714Y-11601612D01*
X39727714Y-11601613D01*
X39780536Y-11674316D01*
X39781793Y-11676078D01*
X39839953Y-11759140D01*
X40000858Y-11920045D01*
X40083904Y-11978194D01*
X40084800Y-11978821D01*
X40158390Y-12032287D01*
X40168547Y-12037462D01*
X40175648Y-12042434D01*
X40175652Y-12042436D01*
X40187266Y-12050568D01*
X40240672Y-12075472D01*
X40269827Y-12089067D01*
X40340781Y-12125220D01*
X40362467Y-12132266D01*
X40393504Y-12146739D01*
X40393510Y-12146740D01*
X40393513Y-12146742D01*
X40467386Y-12166535D01*
X40470528Y-12167377D01*
X40535466Y-12188477D01*
X40569233Y-12193825D01*
X40613308Y-12205635D01*
X40677103Y-12211215D01*
X40685690Y-12212269D01*
X40737648Y-12220500D01*
X40737649Y-12220500D01*
X40942350Y-12220500D01*
X40942352Y-12220500D01*
X40994308Y-12212270D01*
X40998582Y-12211592D01*
X41066692Y-12205635D01*
X41110766Y-12193825D01*
X41144534Y-12188477D01*
X41206404Y-12168373D01*
X41212617Y-12166534D01*
X41225303Y-12163135D01*
X42490414Y-12163135D01*
X42546960Y-12186557D01*
X42546964Y-12186559D01*
X42597946Y-12204544D01*
X42740219Y-12224999D01*
X42740221Y-12225000D01*
X43130000Y-12225000D01*
X43130000Y-11523552D01*
X43129999Y-11523551D01*
X42490414Y-12163135D01*
X41225303Y-12163135D01*
X41286490Y-12146741D01*
X41286492Y-12146739D01*
X41286496Y-12146739D01*
X41317532Y-12132266D01*
X41339219Y-12125220D01*
X41410172Y-12089067D01*
X41492734Y-12050568D01*
X41504382Y-12042411D01*
X41507618Y-12040222D01*
X41513211Y-12036565D01*
X41521610Y-12032287D01*
X41594358Y-11979432D01*
X41596047Y-11978227D01*
X41679139Y-11920047D01*
X41840047Y-11759139D01*
X41886623Y-11692619D01*
X41941196Y-11648996D01*
X42010695Y-11641801D01*
X42073050Y-11673322D01*
X42108344Y-11733073D01*
X42113438Y-11753028D01*
X42113442Y-11753043D01*
X42136862Y-11809584D01*
X42897037Y-11049409D01*
X42914075Y-11112993D01*
X42979901Y-11227007D01*
X43072993Y-11320099D01*
X43187007Y-11385925D01*
X43314174Y-11420000D01*
X43445826Y-11420000D01*
X43572993Y-11385925D01*
X43630000Y-11353012D01*
X43630000Y-12225000D01*
X43761500Y-12225000D01*
X43828539Y-12244685D01*
X43874294Y-12297489D01*
X43885500Y-12349000D01*
X43885500Y-18209918D01*
X43885500Y-18209920D01*
X43885499Y-18209920D01*
X43914340Y-18354907D01*
X43914343Y-18354917D01*
X43970914Y-18491491D01*
X43970916Y-18491495D01*
X43997683Y-18531555D01*
X43997682Y-18531555D01*
X44053046Y-18614414D01*
X44053052Y-18614421D01*
X50213181Y-24774548D01*
X50246666Y-24835871D01*
X50249500Y-24862229D01*
X50249500Y-27573337D01*
X50229815Y-27640376D01*
X50196626Y-27674909D01*
X50168999Y-27694254D01*
X50160858Y-27699955D01*
X49999954Y-27860859D01*
X49941781Y-27943934D01*
X49941782Y-27943935D01*
X49941132Y-27944863D01*
X49887713Y-28018390D01*
X49882535Y-28028550D01*
X49877560Y-28035656D01*
X49877558Y-28035656D01*
X49869435Y-28047260D01*
X49842380Y-28105276D01*
X49796206Y-28157714D01*
X49729012Y-28176864D01*
X49662131Y-28156646D01*
X49617617Y-28105272D01*
X49590570Y-28047270D01*
X49590568Y-28047266D01*
X49582436Y-28035652D01*
X49573524Y-28020818D01*
X49572288Y-28018391D01*
X49572286Y-28018388D01*
X49519462Y-27945682D01*
X49518205Y-27943920D01*
X49460045Y-27860858D01*
X49299140Y-27699953D01*
X49216078Y-27641793D01*
X49215180Y-27641164D01*
X49141610Y-27587713D01*
X49131448Y-27582535D01*
X49124346Y-27577562D01*
X49112734Y-27569432D01*
X49032128Y-27531844D01*
X49030169Y-27530930D01*
X48959219Y-27494780D01*
X48937534Y-27487733D01*
X48930662Y-27484529D01*
X48930661Y-27484528D01*
X48906494Y-27473260D01*
X48832600Y-27453460D01*
X48832600Y-27453459D01*
X48829446Y-27452614D01*
X48764534Y-27431523D01*
X48730766Y-27426174D01*
X48686692Y-27414365D01*
X48686689Y-27414364D01*
X48686686Y-27414364D01*
X48622891Y-27408783D01*
X48614301Y-27407728D01*
X48562352Y-27399500D01*
X48357648Y-27399500D01*
X48357644Y-27399500D01*
X48305697Y-27407728D01*
X48305695Y-27407728D01*
X48301410Y-27408406D01*
X48233308Y-27414365D01*
X48189245Y-27426170D01*
X48182841Y-27427185D01*
X48182824Y-27427189D01*
X48155463Y-27431523D01*
X48155459Y-27431524D01*
X48093627Y-27451615D01*
X48087404Y-27453459D01*
X48013504Y-27473261D01*
X48013503Y-27473261D01*
X47989338Y-27484529D01*
X47989337Y-27484528D01*
X47982456Y-27487736D01*
X47960781Y-27494780D01*
X47889886Y-27530901D01*
X47887900Y-27531828D01*
X47887882Y-27531838D01*
X47807262Y-27569433D01*
X47795655Y-27577559D01*
X47795656Y-27577560D01*
X47788549Y-27582535D01*
X47778390Y-27587713D01*
X47704870Y-27641126D01*
X47703939Y-27641779D01*
X47620859Y-27699954D01*
X47459954Y-27860859D01*
X47401781Y-27943934D01*
X47401782Y-27943935D01*
X47401132Y-27944863D01*
X47347713Y-28018390D01*
X47342535Y-28028550D01*
X47337560Y-28035656D01*
X47337558Y-28035656D01*
X47329435Y-28047260D01*
X47302380Y-28105276D01*
X47256206Y-28157714D01*
X47189012Y-28176864D01*
X47122131Y-28156646D01*
X47077617Y-28105272D01*
X47050570Y-28047270D01*
X47050568Y-28047266D01*
X47042436Y-28035652D01*
X47033524Y-28020818D01*
X47032288Y-28018391D01*
X47032286Y-28018388D01*
X46979462Y-27945682D01*
X46978205Y-27943920D01*
X46920045Y-27860858D01*
X46759140Y-27699953D01*
X46676078Y-27641793D01*
X46675180Y-27641164D01*
X46601610Y-27587713D01*
X46591448Y-27582535D01*
X46584346Y-27577562D01*
X46572734Y-27569432D01*
X46492128Y-27531844D01*
X46490169Y-27530930D01*
X46419219Y-27494780D01*
X46397534Y-27487733D01*
X46390662Y-27484529D01*
X46390661Y-27484528D01*
X46366494Y-27473260D01*
X46292600Y-27453460D01*
X46292600Y-27453459D01*
X46289446Y-27452614D01*
X46224534Y-27431523D01*
X46190766Y-27426174D01*
X46146692Y-27414365D01*
X46146689Y-27414364D01*
X46146686Y-27414364D01*
X46082891Y-27408783D01*
X46074301Y-27407728D01*
X46022352Y-27399500D01*
X45817648Y-27399500D01*
X45817644Y-27399500D01*
X45765697Y-27407728D01*
X45765695Y-27407728D01*
X45761410Y-27408406D01*
X45693308Y-27414365D01*
X45649245Y-27426170D01*
X45642841Y-27427185D01*
X45642824Y-27427189D01*
X45615463Y-27431523D01*
X45615459Y-27431524D01*
X45553627Y-27451615D01*
X45547404Y-27453459D01*
X45473504Y-27473261D01*
X45473503Y-27473261D01*
X45449338Y-27484529D01*
X45449337Y-27484528D01*
X45442456Y-27487736D01*
X45420781Y-27494780D01*
X45349886Y-27530901D01*
X45347900Y-27531828D01*
X45347882Y-27531838D01*
X45267262Y-27569433D01*
X45255655Y-27577559D01*
X45255656Y-27577560D01*
X45248549Y-27582535D01*
X45238390Y-27587713D01*
X45164870Y-27641126D01*
X45163939Y-27641779D01*
X45080859Y-27699954D01*
X44919954Y-27860859D01*
X44873748Y-27926846D01*
X44819170Y-27970470D01*
X44749672Y-27977661D01*
X44687318Y-27946137D01*
X44652027Y-27886383D01*
X44647022Y-27866774D01*
X44644570Y-27860855D01*
X44616580Y-27793280D01*
X44616568Y-27793252D01*
X44593220Y-27744451D01*
X44593217Y-27744446D01*
X44559909Y-27699953D01*
X44506994Y-27629267D01*
X44506989Y-27629262D01*
X44506984Y-27629256D01*
X44450747Y-27573019D01*
X44450731Y-27573005D01*
X44410475Y-27536843D01*
X44410467Y-27536837D01*
X44286736Y-27463426D01*
X44286737Y-27463426D01*
X44237729Y-27443127D01*
X44213226Y-27432978D01*
X44213212Y-27432973D01*
X44213204Y-27432970D01*
X44162199Y-27414976D01*
X44111786Y-27407728D01*
X44019782Y-27394500D01*
X42740218Y-27394500D01*
X42740216Y-27394500D01*
X42686185Y-27397395D01*
X42686181Y-27397396D01*
X42546778Y-27432976D01*
X42546766Y-27432980D01*
X42473280Y-27463419D01*
X42473252Y-27463431D01*
X42424451Y-27486779D01*
X42424446Y-27486782D01*
X42309268Y-27573005D01*
X42309256Y-27573015D01*
X42253019Y-27629252D01*
X42216843Y-27669524D01*
X42216837Y-27669532D01*
X42143426Y-27793263D01*
X42112978Y-27866773D01*
X42103139Y-27894663D01*
X42062271Y-27951334D01*
X41997252Y-27976914D01*
X41928725Y-27963281D01*
X41884629Y-27924532D01*
X41840047Y-27860861D01*
X41840043Y-27860857D01*
X41840042Y-27860855D01*
X41679140Y-27699953D01*
X41596078Y-27641793D01*
X41595180Y-27641164D01*
X41521610Y-27587713D01*
X41511448Y-27582535D01*
X41504346Y-27577562D01*
X41492734Y-27569432D01*
X41412128Y-27531844D01*
X41410169Y-27530930D01*
X41339219Y-27494780D01*
X41317534Y-27487733D01*
X41310662Y-27484529D01*
X41310661Y-27484528D01*
X41286494Y-27473260D01*
X41212600Y-27453460D01*
X41212600Y-27453459D01*
X41209446Y-27452614D01*
X41144534Y-27431523D01*
X41110766Y-27426174D01*
X41066692Y-27414365D01*
X41066689Y-27414364D01*
X41066686Y-27414364D01*
X41002891Y-27408783D01*
X40994301Y-27407728D01*
X40942352Y-27399500D01*
X40737648Y-27399500D01*
X40737644Y-27399500D01*
X40685697Y-27407728D01*
X40685695Y-27407728D01*
X40681410Y-27408406D01*
X40613308Y-27414365D01*
X40569245Y-27426170D01*
X40562841Y-27427185D01*
X40562824Y-27427189D01*
X40535463Y-27431523D01*
X40535459Y-27431524D01*
X40473627Y-27451615D01*
X40467404Y-27453459D01*
X40393504Y-27473261D01*
X40393503Y-27473261D01*
X40369338Y-27484529D01*
X40369337Y-27484528D01*
X40362456Y-27487736D01*
X40340781Y-27494780D01*
X40269886Y-27530901D01*
X40267900Y-27531828D01*
X40267882Y-27531838D01*
X40187262Y-27569433D01*
X40175655Y-27577559D01*
X40175656Y-27577560D01*
X40168549Y-27582535D01*
X40158390Y-27587713D01*
X40084870Y-27641126D01*
X40083939Y-27641779D01*
X40000859Y-27699954D01*
X39839954Y-27860859D01*
X39781781Y-27943934D01*
X39781782Y-27943935D01*
X39781132Y-27944863D01*
X39727713Y-28018390D01*
X39722535Y-28028550D01*
X39717560Y-28035656D01*
X39717558Y-28035656D01*
X39709435Y-28047260D01*
X39682380Y-28105276D01*
X39636206Y-28157714D01*
X39569012Y-28176864D01*
X39502131Y-28156646D01*
X39457617Y-28105272D01*
X39430570Y-28047270D01*
X39430568Y-28047266D01*
X39422436Y-28035652D01*
X39413524Y-28020818D01*
X39412288Y-28018391D01*
X39412286Y-28018388D01*
X39359462Y-27945682D01*
X39358205Y-27943920D01*
X39300045Y-27860858D01*
X39139140Y-27699953D01*
X39056078Y-27641793D01*
X39055180Y-27641164D01*
X38981610Y-27587713D01*
X38971448Y-27582535D01*
X38964346Y-27577562D01*
X38952734Y-27569432D01*
X38872128Y-27531844D01*
X38870169Y-27530930D01*
X38799219Y-27494780D01*
X38777534Y-27487733D01*
X38770662Y-27484529D01*
X38770661Y-27484528D01*
X38746494Y-27473260D01*
X38672600Y-27453460D01*
X38672600Y-27453459D01*
X38669446Y-27452614D01*
X38604534Y-27431523D01*
X38570766Y-27426174D01*
X38526692Y-27414365D01*
X38526689Y-27414364D01*
X38526686Y-27414364D01*
X38462891Y-27408783D01*
X38454301Y-27407728D01*
X38402352Y-27399500D01*
X38197648Y-27399500D01*
X38197644Y-27399500D01*
X38145697Y-27407728D01*
X38145695Y-27407728D01*
X38141410Y-27408406D01*
X38073308Y-27414365D01*
X38029245Y-27426170D01*
X38022841Y-27427185D01*
X38022824Y-27427189D01*
X37995463Y-27431523D01*
X37995459Y-27431524D01*
X37933627Y-27451615D01*
X37927404Y-27453459D01*
X37853504Y-27473261D01*
X37853503Y-27473261D01*
X37829338Y-27484529D01*
X37829337Y-27484528D01*
X37822456Y-27487736D01*
X37800781Y-27494780D01*
X37729886Y-27530901D01*
X37727900Y-27531828D01*
X37727882Y-27531838D01*
X37647262Y-27569433D01*
X37635655Y-27577559D01*
X37635656Y-27577560D01*
X37628549Y-27582535D01*
X37618390Y-27587713D01*
X37544870Y-27641126D01*
X37543939Y-27641779D01*
X37460859Y-27699954D01*
X37299954Y-27860859D01*
X37241781Y-27943934D01*
X37241782Y-27943935D01*
X37241132Y-27944863D01*
X37187713Y-28018390D01*
X37182535Y-28028550D01*
X37177560Y-28035656D01*
X37177558Y-28035656D01*
X37169435Y-28047260D01*
X37142380Y-28105276D01*
X37096206Y-28157714D01*
X37029012Y-28176864D01*
X36962131Y-28156646D01*
X36917617Y-28105272D01*
X36890570Y-28047270D01*
X36890568Y-28047266D01*
X36882436Y-28035652D01*
X36873524Y-28020818D01*
X36872288Y-28018391D01*
X36872286Y-28018388D01*
X36819462Y-27945682D01*
X36818205Y-27943920D01*
X36760045Y-27860858D01*
X36599140Y-27699953D01*
X36516078Y-27641793D01*
X36515180Y-27641164D01*
X36441610Y-27587713D01*
X36431448Y-27582535D01*
X36424346Y-27577562D01*
X36412734Y-27569432D01*
X36332128Y-27531844D01*
X36330169Y-27530930D01*
X36259219Y-27494780D01*
X36237534Y-27487733D01*
X36230662Y-27484529D01*
X36230661Y-27484528D01*
X36206494Y-27473260D01*
X36132600Y-27453460D01*
X36132600Y-27453459D01*
X36129446Y-27452614D01*
X36064534Y-27431523D01*
X36030766Y-27426174D01*
X35986692Y-27414365D01*
X35986689Y-27414364D01*
X35986686Y-27414364D01*
X35922891Y-27408783D01*
X35914301Y-27407728D01*
X35862352Y-27399500D01*
X35657648Y-27399500D01*
X35657644Y-27399500D01*
X35605697Y-27407728D01*
X35605695Y-27407728D01*
X35601410Y-27408406D01*
X35533308Y-27414365D01*
X35489245Y-27426170D01*
X35482841Y-27427185D01*
X35482824Y-27427189D01*
X35455463Y-27431523D01*
X35455459Y-27431524D01*
X35393627Y-27451615D01*
X35387404Y-27453459D01*
X35313504Y-27473261D01*
X35313503Y-27473261D01*
X35289338Y-27484529D01*
X35289337Y-27484528D01*
X35282456Y-27487736D01*
X35260781Y-27494780D01*
X35189886Y-27530901D01*
X35187900Y-27531828D01*
X35187882Y-27531838D01*
X35107262Y-27569433D01*
X35095655Y-27577559D01*
X35095656Y-27577560D01*
X35088549Y-27582535D01*
X35078390Y-27587713D01*
X35004870Y-27641126D01*
X35003939Y-27641779D01*
X34920859Y-27699954D01*
X34759954Y-27860859D01*
X34701781Y-27943934D01*
X34701782Y-27943935D01*
X34701132Y-27944863D01*
X34647713Y-28018390D01*
X34642535Y-28028550D01*
X34637560Y-28035656D01*
X34637558Y-28035656D01*
X34629435Y-28047260D01*
X34602380Y-28105276D01*
X34556206Y-28157714D01*
X34489012Y-28176864D01*
X34422131Y-28156646D01*
X34377617Y-28105272D01*
X34350570Y-28047270D01*
X34350568Y-28047266D01*
X34342436Y-28035652D01*
X34333524Y-28020818D01*
X34332288Y-28018391D01*
X34332286Y-28018388D01*
X34279462Y-27945682D01*
X34278205Y-27943920D01*
X34220045Y-27860858D01*
X34059140Y-27699953D01*
X33976078Y-27641793D01*
X33975180Y-27641164D01*
X33901610Y-27587713D01*
X33891448Y-27582535D01*
X33884346Y-27577562D01*
X33872734Y-27569432D01*
X33792128Y-27531844D01*
X33790169Y-27530930D01*
X33719219Y-27494780D01*
X33697534Y-27487733D01*
X33690662Y-27484529D01*
X33690661Y-27484528D01*
X33666494Y-27473260D01*
X33592600Y-27453460D01*
X33592600Y-27453459D01*
X33589446Y-27452614D01*
X33524534Y-27431523D01*
X33490766Y-27426174D01*
X33446692Y-27414365D01*
X33446689Y-27414364D01*
X33446686Y-27414364D01*
X33382891Y-27408783D01*
X33374301Y-27407728D01*
X33322352Y-27399500D01*
X33117648Y-27399500D01*
X33117644Y-27399500D01*
X33065697Y-27407728D01*
X33065695Y-27407728D01*
X33061410Y-27408406D01*
X32993308Y-27414365D01*
X32949245Y-27426170D01*
X32942841Y-27427185D01*
X32942824Y-27427189D01*
X32915463Y-27431523D01*
X32915459Y-27431524D01*
X32853627Y-27451615D01*
X32847404Y-27453459D01*
X32773504Y-27473261D01*
X32773503Y-27473261D01*
X32749338Y-27484529D01*
X32749337Y-27484528D01*
X32742456Y-27487736D01*
X32720781Y-27494780D01*
X32649886Y-27530901D01*
X32647900Y-27531828D01*
X32647882Y-27531838D01*
X32567262Y-27569433D01*
X32555655Y-27577559D01*
X32555656Y-27577560D01*
X32548549Y-27582535D01*
X32538390Y-27587713D01*
X32464870Y-27641126D01*
X32463939Y-27641779D01*
X32380859Y-27699954D01*
X32219954Y-27860859D01*
X32173374Y-27927380D01*
X32118796Y-27971004D01*
X32049298Y-27978195D01*
X31986944Y-27946671D01*
X31951652Y-27886918D01*
X31946559Y-27866962D01*
X31923135Y-27810414D01*
X31162961Y-28570588D01*
X31145925Y-28507007D01*
X31080099Y-28392993D01*
X30987007Y-28299901D01*
X30872993Y-28234075D01*
X30745826Y-28200000D01*
X30614174Y-28200000D01*
X30487007Y-28234075D01*
X30372993Y-28299901D01*
X30279901Y-28392993D01*
X30214075Y-28507007D01*
X30197037Y-28570589D01*
X29436863Y-27810415D01*
X29436862Y-27810415D01*
X29413446Y-27866947D01*
X29413431Y-27866987D01*
X29403491Y-27895164D01*
X29362625Y-27951835D01*
X29297607Y-27977417D01*
X29229079Y-27963785D01*
X29184979Y-27925032D01*
X29157916Y-27886382D01*
X29140047Y-27860861D01*
X29140045Y-27860859D01*
X29140044Y-27860857D01*
X28979140Y-27699953D01*
X28896078Y-27641793D01*
X28894316Y-27640536D01*
X28835763Y-27597995D01*
X28821612Y-27587714D01*
X28819169Y-27586469D01*
X28804347Y-27577563D01*
X28792734Y-27569432D01*
X28712128Y-27531844D01*
X28710169Y-27530930D01*
X28639219Y-27494780D01*
X28617534Y-27487733D01*
X28610662Y-27484529D01*
X28610661Y-27484528D01*
X28586494Y-27473260D01*
X28525300Y-27456863D01*
X29790414Y-27456863D01*
X30429999Y-28096448D01*
X30930000Y-28096448D01*
X31569584Y-27456862D01*
X31513059Y-27433449D01*
X31462053Y-27415455D01*
X31319780Y-27395000D01*
X30930000Y-27395000D01*
X30930000Y-28096448D01*
X30429999Y-28096448D01*
X30430000Y-28096447D01*
X30430000Y-27395000D01*
X30040214Y-27395000D01*
X29986237Y-27397893D01*
X29986235Y-27397893D01*
X29846976Y-27433436D01*
X29846962Y-27433441D01*
X29790414Y-27456863D01*
X28525300Y-27456863D01*
X28512600Y-27453460D01*
X28512600Y-27453459D01*
X28509446Y-27452614D01*
X28444534Y-27431523D01*
X28410766Y-27426174D01*
X28366692Y-27414365D01*
X28366689Y-27414364D01*
X28366686Y-27414364D01*
X28302891Y-27408783D01*
X28294301Y-27407728D01*
X28242352Y-27399500D01*
X28037648Y-27399500D01*
X28037644Y-27399500D01*
X27985697Y-27407728D01*
X27985695Y-27407728D01*
X27981410Y-27408406D01*
X27913308Y-27414365D01*
X27869245Y-27426170D01*
X27862841Y-27427185D01*
X27862824Y-27427189D01*
X27835463Y-27431523D01*
X27835459Y-27431524D01*
X27773627Y-27451615D01*
X27767404Y-27453459D01*
X27693504Y-27473261D01*
X27693503Y-27473261D01*
X27669338Y-27484529D01*
X27669337Y-27484528D01*
X27662456Y-27487736D01*
X27640781Y-27494780D01*
X27569886Y-27530901D01*
X27567900Y-27531828D01*
X27567882Y-27531838D01*
X27487262Y-27569433D01*
X27475655Y-27577559D01*
X27475656Y-27577560D01*
X27468549Y-27582535D01*
X27458390Y-27587713D01*
X27384870Y-27641126D01*
X27383939Y-27641779D01*
X27300859Y-27699954D01*
X27139954Y-27860859D01*
X27081781Y-27943934D01*
X27081782Y-27943935D01*
X27081132Y-27944863D01*
X27027713Y-28018390D01*
X27022535Y-28028550D01*
X27017560Y-28035656D01*
X27017558Y-28035656D01*
X27009435Y-28047260D01*
X26982380Y-28105276D01*
X26936206Y-28157714D01*
X26869012Y-28176864D01*
X26802131Y-28156646D01*
X26757617Y-28105272D01*
X26730570Y-28047270D01*
X26730568Y-28047266D01*
X26722436Y-28035652D01*
X26713524Y-28020818D01*
X26712288Y-28018391D01*
X26712286Y-28018388D01*
X26659462Y-27945682D01*
X26658205Y-27943920D01*
X26600045Y-27860858D01*
X26439140Y-27699953D01*
X26356078Y-27641793D01*
X26355180Y-27641164D01*
X26281610Y-27587713D01*
X26271448Y-27582535D01*
X26264346Y-27577562D01*
X26252734Y-27569432D01*
X26172128Y-27531844D01*
X26170169Y-27530930D01*
X26099219Y-27494780D01*
X26077534Y-27487733D01*
X26070662Y-27484529D01*
X26070661Y-27484528D01*
X26046494Y-27473260D01*
X25972600Y-27453460D01*
X25972600Y-27453459D01*
X25969446Y-27452614D01*
X25904534Y-27431523D01*
X25870766Y-27426174D01*
X25826692Y-27414365D01*
X25826689Y-27414364D01*
X25826686Y-27414364D01*
X25762891Y-27408783D01*
X25754301Y-27407728D01*
X25702352Y-27399500D01*
X25497648Y-27399500D01*
X25497644Y-27399500D01*
X25445697Y-27407728D01*
X25445695Y-27407728D01*
X25441410Y-27408406D01*
X25373308Y-27414365D01*
X25329245Y-27426170D01*
X25322841Y-27427185D01*
X25322824Y-27427189D01*
X25295463Y-27431523D01*
X25295459Y-27431524D01*
X25233627Y-27451615D01*
X25227404Y-27453459D01*
X25153504Y-27473261D01*
X25153503Y-27473261D01*
X25129338Y-27484529D01*
X25129337Y-27484528D01*
X25122456Y-27487736D01*
X25100781Y-27494780D01*
X25029886Y-27530901D01*
X25027900Y-27531828D01*
X25027882Y-27531838D01*
X24947262Y-27569433D01*
X24935655Y-27577559D01*
X24935656Y-27577560D01*
X24928549Y-27582535D01*
X24918390Y-27587713D01*
X24844870Y-27641126D01*
X24843939Y-27641779D01*
X24760859Y-27699954D01*
X24599954Y-27860859D01*
X24541781Y-27943934D01*
X24541782Y-27943935D01*
X24541132Y-27944863D01*
X24487713Y-28018390D01*
X24482535Y-28028550D01*
X24477560Y-28035656D01*
X24477558Y-28035656D01*
X24469435Y-28047260D01*
X24442380Y-28105276D01*
X24396206Y-28157714D01*
X24329012Y-28176864D01*
X24262131Y-28156646D01*
X24217617Y-28105272D01*
X24190570Y-28047270D01*
X24190568Y-28047266D01*
X24182436Y-28035652D01*
X24173524Y-28020818D01*
X24172288Y-28018391D01*
X24172286Y-28018388D01*
X24119462Y-27945682D01*
X24118205Y-27943920D01*
X24060045Y-27860858D01*
X23899140Y-27699953D01*
X23816078Y-27641793D01*
X23815180Y-27641164D01*
X23741610Y-27587713D01*
X23731448Y-27582535D01*
X23724346Y-27577562D01*
X23712734Y-27569432D01*
X23632128Y-27531844D01*
X23630169Y-27530930D01*
X23559219Y-27494780D01*
X23537534Y-27487733D01*
X23530662Y-27484529D01*
X23530661Y-27484528D01*
X23506494Y-27473260D01*
X23432600Y-27453460D01*
X23432600Y-27453459D01*
X23429446Y-27452614D01*
X23364534Y-27431523D01*
X23330766Y-27426174D01*
X23286692Y-27414365D01*
X23286689Y-27414364D01*
X23286686Y-27414364D01*
X23222891Y-27408783D01*
X23214301Y-27407728D01*
X23162352Y-27399500D01*
X22957648Y-27399500D01*
X22957644Y-27399500D01*
X22905697Y-27407728D01*
X22905695Y-27407728D01*
X22901410Y-27408406D01*
X22833308Y-27414365D01*
X22789245Y-27426170D01*
X22782841Y-27427185D01*
X22782824Y-27427189D01*
X22755463Y-27431523D01*
X22755459Y-27431524D01*
X22693627Y-27451615D01*
X22687404Y-27453459D01*
X22613504Y-27473261D01*
X22613503Y-27473261D01*
X22589338Y-27484529D01*
X22589337Y-27484528D01*
X22582456Y-27487736D01*
X22560781Y-27494780D01*
X22489886Y-27530901D01*
X22487900Y-27531828D01*
X22487882Y-27531838D01*
X22407262Y-27569433D01*
X22395655Y-27577559D01*
X22395656Y-27577560D01*
X22388549Y-27582535D01*
X22378390Y-27587713D01*
X22304870Y-27641126D01*
X22303939Y-27641779D01*
X22220859Y-27699954D01*
X22059954Y-27860859D01*
X22001781Y-27943934D01*
X22001782Y-27943935D01*
X22001132Y-27944863D01*
X21947713Y-28018390D01*
X21942535Y-28028550D01*
X21937560Y-28035656D01*
X21937558Y-28035656D01*
X21929435Y-28047260D01*
X21902380Y-28105276D01*
X21856206Y-28157714D01*
X21789012Y-28176864D01*
X21722131Y-28156646D01*
X21677617Y-28105272D01*
X21650570Y-28047270D01*
X21650568Y-28047266D01*
X21642436Y-28035652D01*
X21633524Y-28020818D01*
X21632288Y-28018391D01*
X21632286Y-28018388D01*
X21579462Y-27945682D01*
X21578205Y-27943920D01*
X21520045Y-27860858D01*
X21359140Y-27699953D01*
X21276078Y-27641793D01*
X21275180Y-27641164D01*
X21201610Y-27587713D01*
X21191448Y-27582535D01*
X21184346Y-27577562D01*
X21172734Y-27569432D01*
X21092128Y-27531844D01*
X21090169Y-27530930D01*
X21019219Y-27494780D01*
X20997534Y-27487733D01*
X20990662Y-27484529D01*
X20990661Y-27484528D01*
X20966494Y-27473260D01*
X20892600Y-27453460D01*
X20892600Y-27453459D01*
X20889446Y-27452614D01*
X20824534Y-27431523D01*
X20790766Y-27426174D01*
X20746692Y-27414365D01*
X20746689Y-27414364D01*
X20746686Y-27414364D01*
X20682891Y-27408783D01*
X20674301Y-27407728D01*
X20622352Y-27399500D01*
X20417648Y-27399500D01*
X20417644Y-27399500D01*
X20365697Y-27407728D01*
X20365695Y-27407728D01*
X20361410Y-27408406D01*
X20293308Y-27414365D01*
X20249245Y-27426170D01*
X20242841Y-27427185D01*
X20242824Y-27427189D01*
X20215463Y-27431523D01*
X20215459Y-27431524D01*
X20153627Y-27451615D01*
X20147404Y-27453459D01*
X20073504Y-27473261D01*
X20073503Y-27473261D01*
X20049338Y-27484529D01*
X20049337Y-27484528D01*
X20042456Y-27487736D01*
X20020781Y-27494780D01*
X19949886Y-27530901D01*
X19947900Y-27531828D01*
X19947882Y-27531838D01*
X19867262Y-27569433D01*
X19855655Y-27577559D01*
X19855656Y-27577560D01*
X19848549Y-27582535D01*
X19838390Y-27587713D01*
X19764870Y-27641126D01*
X19763939Y-27641779D01*
X19680859Y-27699954D01*
X19519954Y-27860859D01*
X19473374Y-27927380D01*
X19418796Y-27971004D01*
X19349298Y-27978195D01*
X19286944Y-27946671D01*
X19251652Y-27886918D01*
X19246559Y-27866962D01*
X19223135Y-27810414D01*
X18462961Y-28570588D01*
X18445925Y-28507007D01*
X18380099Y-28392993D01*
X18287007Y-28299901D01*
X18172993Y-28234075D01*
X18045826Y-28200000D01*
X17914174Y-28200000D01*
X17787007Y-28234075D01*
X17672993Y-28299901D01*
X17579901Y-28392993D01*
X17514075Y-28507007D01*
X17497037Y-28570589D01*
X16736863Y-27810415D01*
X16736862Y-27810415D01*
X16713446Y-27866947D01*
X16713431Y-27866987D01*
X16703491Y-27895164D01*
X16662625Y-27951835D01*
X16597607Y-27977417D01*
X16529079Y-27963785D01*
X16484979Y-27925032D01*
X16457916Y-27886382D01*
X16440047Y-27860861D01*
X16440045Y-27860859D01*
X16440044Y-27860857D01*
X16279140Y-27699953D01*
X16196078Y-27641793D01*
X16194316Y-27640536D01*
X16135763Y-27597995D01*
X16121612Y-27587714D01*
X16119169Y-27586469D01*
X16104347Y-27577563D01*
X16092734Y-27569432D01*
X16012128Y-27531844D01*
X16010169Y-27530930D01*
X15939219Y-27494780D01*
X15917534Y-27487733D01*
X15910662Y-27484529D01*
X15910661Y-27484528D01*
X15886494Y-27473260D01*
X15825300Y-27456863D01*
X17090414Y-27456863D01*
X17729999Y-28096448D01*
X18230000Y-28096448D01*
X18869584Y-27456862D01*
X18813059Y-27433449D01*
X18762053Y-27415455D01*
X18619780Y-27395000D01*
X18230000Y-27395000D01*
X18230000Y-28096448D01*
X17729999Y-28096448D01*
X17730000Y-28096447D01*
X17730000Y-27395000D01*
X17340214Y-27395000D01*
X17286237Y-27397893D01*
X17286235Y-27397893D01*
X17146976Y-27433436D01*
X17146962Y-27433441D01*
X17090414Y-27456863D01*
X15825300Y-27456863D01*
X15812600Y-27453460D01*
X15812600Y-27453459D01*
X15809446Y-27452614D01*
X15744534Y-27431523D01*
X15710766Y-27426174D01*
X15666692Y-27414365D01*
X15666689Y-27414364D01*
X15666686Y-27414364D01*
X15602891Y-27408783D01*
X15594301Y-27407728D01*
X15542352Y-27399500D01*
X15337648Y-27399500D01*
X15337644Y-27399500D01*
X15285697Y-27407728D01*
X15285695Y-27407728D01*
X15281410Y-27408406D01*
X15213308Y-27414365D01*
X15169245Y-27426170D01*
X15162841Y-27427185D01*
X15162824Y-27427189D01*
X15135463Y-27431523D01*
X15135459Y-27431524D01*
X15073627Y-27451615D01*
X15067404Y-27453459D01*
X14993504Y-27473261D01*
X14993503Y-27473261D01*
X14969338Y-27484529D01*
X14969337Y-27484528D01*
X14962456Y-27487736D01*
X14940781Y-27494780D01*
X14869886Y-27530901D01*
X14867900Y-27531828D01*
X14867882Y-27531838D01*
X14787262Y-27569433D01*
X14775655Y-27577559D01*
X14775656Y-27577560D01*
X14768549Y-27582535D01*
X14758390Y-27587713D01*
X14684870Y-27641126D01*
X14683939Y-27641779D01*
X14600859Y-27699954D01*
X14439954Y-27860859D01*
X14381781Y-27943934D01*
X14381782Y-27943935D01*
X14381132Y-27944863D01*
X14327713Y-28018390D01*
X14322535Y-28028550D01*
X14317560Y-28035656D01*
X14317558Y-28035656D01*
X14309435Y-28047260D01*
X14282380Y-28105276D01*
X14236206Y-28157714D01*
X14169012Y-28176864D01*
X14102131Y-28156646D01*
X14057617Y-28105272D01*
X14030570Y-28047270D01*
X14030568Y-28047266D01*
X14022436Y-28035652D01*
X14013524Y-28020818D01*
X14012288Y-28018391D01*
X14012286Y-28018388D01*
X13959462Y-27945682D01*
X13958205Y-27943920D01*
X13900045Y-27860858D01*
X13739140Y-27699953D01*
X13656078Y-27641793D01*
X13655180Y-27641164D01*
X13581610Y-27587713D01*
X13571448Y-27582535D01*
X13564346Y-27577562D01*
X13552734Y-27569432D01*
X13472128Y-27531844D01*
X13470169Y-27530930D01*
X13399219Y-27494780D01*
X13377534Y-27487733D01*
X13370662Y-27484529D01*
X13370661Y-27484528D01*
X13346494Y-27473260D01*
X13272600Y-27453460D01*
X13272600Y-27453459D01*
X13269446Y-27452614D01*
X13204534Y-27431523D01*
X13170766Y-27426174D01*
X13126692Y-27414365D01*
X13126689Y-27414364D01*
X13126686Y-27414364D01*
X13062891Y-27408783D01*
X13054301Y-27407728D01*
X13002352Y-27399500D01*
X12797648Y-27399500D01*
X12797644Y-27399500D01*
X12745697Y-27407728D01*
X12745695Y-27407728D01*
X12741410Y-27408406D01*
X12673308Y-27414365D01*
X12629245Y-27426170D01*
X12622841Y-27427185D01*
X12622824Y-27427189D01*
X12595463Y-27431523D01*
X12595459Y-27431524D01*
X12533627Y-27451615D01*
X12527404Y-27453459D01*
X12453504Y-27473261D01*
X12453503Y-27473261D01*
X12429338Y-27484529D01*
X12429337Y-27484528D01*
X12422456Y-27487736D01*
X12400781Y-27494780D01*
X12329886Y-27530901D01*
X12327900Y-27531828D01*
X12327882Y-27531838D01*
X12247262Y-27569433D01*
X12235655Y-27577559D01*
X12235656Y-27577560D01*
X12228549Y-27582535D01*
X12218390Y-27587713D01*
X12144870Y-27641126D01*
X12143939Y-27641779D01*
X12060859Y-27699954D01*
X11899954Y-27860859D01*
X11841781Y-27943934D01*
X11841782Y-27943935D01*
X11841132Y-27944863D01*
X11787713Y-28018390D01*
X11782535Y-28028550D01*
X11777560Y-28035656D01*
X11777558Y-28035656D01*
X11769433Y-28047262D01*
X11731838Y-28127882D01*
X11730920Y-28129849D01*
X11694780Y-28200781D01*
X11687735Y-28222458D01*
X11684532Y-28229329D01*
X11684529Y-28229338D01*
X11673261Y-28253503D01*
X11673261Y-28253504D01*
X11653459Y-28327404D01*
X11653458Y-28327403D01*
X11652614Y-28330551D01*
X11631523Y-28395466D01*
X11626175Y-28429224D01*
X11624492Y-28435507D01*
X11624492Y-28435511D01*
X11614366Y-28473304D01*
X11614364Y-28473313D01*
X11608783Y-28537106D01*
X11607728Y-28545697D01*
X11599500Y-28597643D01*
X11599500Y-30356785D01*
X11614364Y-30526687D01*
X11614366Y-30526697D01*
X11673258Y-30746488D01*
X11673261Y-30746497D01*
X11769431Y-30952732D01*
X11769432Y-30952734D01*
X11899954Y-31139141D01*
X12060859Y-31300046D01*
X12096621Y-31325086D01*
X12140247Y-31379662D01*
X12149500Y-31426662D01*
X12149500Y-32237770D01*
X12129815Y-32304809D01*
X12113181Y-32325451D01*
X8867048Y-35571583D01*
X8846478Y-35602369D01*
X8826045Y-35632951D01*
X8784919Y-35694499D01*
X8784912Y-35694511D01*
X8728343Y-35831082D01*
X8728340Y-35831092D01*
X8699500Y-35976079D01*
X8699500Y-36970128D01*
X8679815Y-37037167D01*
X8631797Y-37080612D01*
X8611151Y-37091131D01*
X8407350Y-37239201D01*
X8407345Y-37239205D01*
X8229205Y-37417345D01*
X8229201Y-37417350D01*
X8081132Y-37621151D01*
X7966760Y-37845616D01*
X7888910Y-38085214D01*
X7888910Y-38085215D01*
X7849500Y-38334038D01*
X7849500Y-38585962D01*
X7864119Y-38678263D01*
X7888910Y-38834785D01*
X7966760Y-39074383D01*
X8002490Y-39144506D01*
X8072082Y-39281088D01*
X8081132Y-39298848D01*
X8229201Y-39502649D01*
X8229205Y-39502654D01*
X8229207Y-39502656D01*
X8407344Y-39680793D01*
X8407345Y-39680794D01*
X8407344Y-39680794D01*
X8413661Y-39685383D01*
X8456327Y-39740714D01*
X8462305Y-39810327D01*
X8429699Y-39872122D01*
X8368860Y-39906479D01*
X8321378Y-39908174D01*
X8266611Y-39899500D01*
X8093389Y-39899500D01*
X8053728Y-39905781D01*
X7922302Y-39926597D01*
X7757552Y-39980128D01*
X7603211Y-40058768D01*
X7546289Y-40100125D01*
X7463072Y-40160586D01*
X7463070Y-40160588D01*
X7463069Y-40160588D01*
X7340588Y-40283069D01*
X7340588Y-40283070D01*
X7340586Y-40283072D01*
X7296859Y-40343256D01*
X7238768Y-40423211D01*
X7160128Y-40577552D01*
X7106597Y-40742302D01*
X7079500Y-40913389D01*
X500500Y-40913389D01*
X500500Y-17270000D01*
X10530000Y-17270000D01*
X10532407Y-17368252D01*
X10532408Y-17368261D01*
X10570742Y-17560979D01*
X10570744Y-17560987D01*
X10645943Y-17742533D01*
X10645948Y-17742543D01*
X10755118Y-17905927D01*
X10755121Y-17905931D01*
X10894066Y-18044876D01*
X10894069Y-18044878D01*
X10894072Y-18044881D01*
X10974892Y-18098882D01*
X11019695Y-18152492D01*
X11030000Y-18201983D01*
X11030000Y-18878015D01*
X11010315Y-18945054D01*
X10974891Y-18981117D01*
X10894072Y-19035118D01*
X10894068Y-19035121D01*
X10755121Y-19174068D01*
X10755118Y-19174072D01*
X10645948Y-19337456D01*
X10645943Y-19337466D01*
X10570744Y-19519012D01*
X10570742Y-19519020D01*
X10532408Y-19711738D01*
X10532407Y-19711744D01*
X10532407Y-19711746D01*
X10530000Y-19810000D01*
X10532108Y-19896068D01*
X10532407Y-19908252D01*
X10532408Y-19908261D01*
X10570742Y-20100979D01*
X10570744Y-20100987D01*
X10645943Y-20282533D01*
X10645948Y-20282543D01*
X10755118Y-20445927D01*
X10755121Y-20445931D01*
X10894066Y-20584876D01*
X10894069Y-20584878D01*
X10894072Y-20584881D01*
X10974892Y-20638882D01*
X11019695Y-20692492D01*
X11030000Y-20741983D01*
X11030000Y-21418040D01*
X11010315Y-21485079D01*
X10974894Y-21521140D01*
X10894074Y-21575145D01*
X10755106Y-21714122D01*
X10645925Y-21877537D01*
X10645923Y-21877541D01*
X10570719Y-22059116D01*
X10532387Y-22251866D01*
X10532385Y-22251876D01*
X10530075Y-22350118D01*
X10530075Y-22350129D01*
X10530075Y-22350141D01*
X10532324Y-22448411D01*
X10532324Y-22448415D01*
X10532325Y-22448417D01*
X10570665Y-22641165D01*
X10570667Y-22641173D01*
X10645878Y-22822749D01*
X10755068Y-22986163D01*
X10755069Y-22986164D01*
X10755072Y-22986168D01*
X10894047Y-23125142D01*
X11057463Y-23234333D01*
X11057469Y-23234335D01*
X11057470Y-23234336D01*
X11239031Y-23309540D01*
X11239036Y-23309541D01*
X11239042Y-23309544D01*
X11239046Y-23309544D01*
X11239047Y-23309545D01*
X11431794Y-23347884D01*
X11431796Y-23347884D01*
X11431805Y-23347886D01*
X11464561Y-23348637D01*
X11530059Y-23350141D01*
X11530075Y-23350141D01*
X12864831Y-23350141D01*
X12931870Y-23369826D01*
X12962767Y-23398085D01*
X15345511Y-26466277D01*
X15690105Y-26910000D01*
X20030000Y-26910000D01*
X20030000Y-25453319D01*
X30338040Y-25453319D01*
X30338040Y-25453321D01*
X30352895Y-25646390D01*
X30404969Y-25832896D01*
X30492276Y-26005736D01*
X30611493Y-26158325D01*
X30758077Y-26284853D01*
X30758078Y-26284853D01*
X30758081Y-26284856D01*
X30926439Y-26380497D01*
X30926440Y-26380497D01*
X30926445Y-26380500D01*
X31110184Y-26441622D01*
X31302297Y-26465891D01*
X31330000Y-26466278D01*
X31522715Y-26447382D01*
X31708090Y-26391414D01*
X31879063Y-26300506D01*
X32029123Y-26178120D01*
X32152553Y-26028919D01*
X32244652Y-25858584D01*
X32301913Y-25673605D01*
X32322154Y-25481027D01*
X32304604Y-25288184D01*
X32249931Y-25102424D01*
X32236578Y-25076881D01*
X32160226Y-24930831D01*
X32160218Y-24930819D01*
X32141756Y-24907857D01*
X32038884Y-24779909D01*
X31977708Y-24728577D01*
X31890553Y-24655444D01*
X31890550Y-24655442D01*
X31720860Y-24562154D01*
X31687577Y-24551596D01*
X31536285Y-24503603D01*
X31536282Y-24503602D01*
X31536280Y-24503602D01*
X31343853Y-24482019D01*
X31343846Y-24482019D01*
X31150898Y-24498221D01*
X31150895Y-24498221D01*
X31150893Y-24498222D01*
X31038839Y-24530352D01*
X30964754Y-24551596D01*
X30792531Y-24640106D01*
X30792529Y-24640107D01*
X30640775Y-24760386D01*
X30515269Y-24907857D01*
X30420805Y-25076881D01*
X30360966Y-25261044D01*
X30338040Y-25453319D01*
X20030000Y-25453319D01*
X20030000Y-22913321D01*
X30338040Y-22913321D01*
X30352895Y-23106390D01*
X30404969Y-23292896D01*
X30492276Y-23465736D01*
X30611493Y-23618325D01*
X30758077Y-23744853D01*
X30758078Y-23744853D01*
X30758081Y-23744856D01*
X30926439Y-23840497D01*
X30926440Y-23840497D01*
X30926445Y-23840500D01*
X31110184Y-23901622D01*
X31302297Y-23925891D01*
X31330000Y-23926278D01*
X31522715Y-23907382D01*
X31708090Y-23851414D01*
X31879063Y-23760506D01*
X32029123Y-23638120D01*
X32152553Y-23488919D01*
X32244652Y-23318584D01*
X32301913Y-23133605D01*
X32322154Y-22941027D01*
X32304604Y-22748184D01*
X32273142Y-22641286D01*
X32249932Y-22562426D01*
X32249930Y-22562422D01*
X32160226Y-22390831D01*
X32160218Y-22390819D01*
X32141756Y-22367857D01*
X32038884Y-22239909D01*
X31977708Y-22188577D01*
X31890553Y-22115444D01*
X31890550Y-22115442D01*
X31720860Y-22022154D01*
X31687577Y-22011596D01*
X31536285Y-21963603D01*
X31536282Y-21963602D01*
X31536280Y-21963602D01*
X31343853Y-21942019D01*
X31343846Y-21942019D01*
X31150898Y-21958221D01*
X31150895Y-21958221D01*
X31150893Y-21958222D01*
X31038839Y-21990352D01*
X30964754Y-22011596D01*
X30792531Y-22100106D01*
X30792529Y-22100107D01*
X30640775Y-22220386D01*
X30515269Y-22367857D01*
X30420805Y-22536881D01*
X30360966Y-22721044D01*
X30345442Y-22851243D01*
X30338040Y-22913321D01*
X20030000Y-22913321D01*
X20030000Y-19606700D01*
X30342600Y-19606700D01*
X30342600Y-20394100D01*
X30342600Y-21181500D01*
X30344226Y-21214838D01*
X30344522Y-21220902D01*
X30374674Y-21293696D01*
X30374675Y-21293698D01*
X30374677Y-21293702D01*
X30430398Y-21349423D01*
X30430403Y-21349425D01*
X30503198Y-21379577D01*
X30503197Y-21379577D01*
X30503200Y-21379578D01*
X30542600Y-21381500D01*
X30542615Y-21381500D01*
X32117385Y-21381500D01*
X32117400Y-21381500D01*
X32156800Y-21379578D01*
X32229602Y-21349423D01*
X32285323Y-21293702D01*
X32315478Y-21220900D01*
X32317400Y-21181500D01*
X32317400Y-20394100D01*
X32317400Y-20360000D01*
X41080000Y-20360000D01*
X41080000Y-20810000D01*
X41080000Y-21260000D01*
X41082139Y-21325545D01*
X41116067Y-21452167D01*
X41181612Y-21565694D01*
X41274306Y-21658388D01*
X41387833Y-21723933D01*
X41514455Y-21757861D01*
X41580000Y-21760000D01*
X42480000Y-21760000D01*
X42545545Y-21757861D01*
X42672167Y-21723933D01*
X42785694Y-21658388D01*
X42878388Y-21565694D01*
X42943933Y-21452167D01*
X42977861Y-21325545D01*
X42980000Y-21260000D01*
X42980000Y-20810000D01*
X42980000Y-20360000D01*
X42977861Y-20294455D01*
X42943932Y-20167833D01*
X42878388Y-20054306D01*
X42785694Y-19961612D01*
X42672167Y-19896068D01*
X42672168Y-19896068D01*
X42620867Y-19882322D01*
X42545545Y-19862139D01*
X42545542Y-19862138D01*
X42545543Y-19862138D01*
X42480000Y-19860000D01*
X41580000Y-19860000D01*
X41514458Y-19862138D01*
X41387832Y-19896068D01*
X41274307Y-19961611D01*
X41274304Y-19961613D01*
X41181613Y-20054304D01*
X41181611Y-20054307D01*
X41116068Y-20167832D01*
X41082138Y-20294458D01*
X41081124Y-20325544D01*
X41080000Y-20360000D01*
X32317400Y-20360000D01*
X32317400Y-19606700D01*
X32315478Y-19567300D01*
X32285322Y-19494498D01*
X32285321Y-19494497D01*
X32285321Y-19494496D01*
X32229603Y-19438778D01*
X32193201Y-19423700D01*
X32156800Y-19408622D01*
X32117400Y-19406700D01*
X30542600Y-19406700D01*
X30503200Y-19408622D01*
X30430396Y-19438778D01*
X30430395Y-19438780D01*
X30374680Y-19494495D01*
X30374678Y-19494496D01*
X30345188Y-19565693D01*
X30344522Y-19567300D01*
X30342600Y-19606700D01*
X20030000Y-19606700D01*
X20030000Y-12710000D01*
X15690105Y-12710000D01*
X15690104Y-12710000D01*
X12962657Y-16222056D01*
X12905991Y-16262931D01*
X12864721Y-16270000D01*
X11530000Y-16270000D01*
X11431746Y-16272407D01*
X11431744Y-16272407D01*
X11431738Y-16272408D01*
X11239020Y-16310742D01*
X11239012Y-16310744D01*
X11057466Y-16385943D01*
X11057456Y-16385948D01*
X10894072Y-16495118D01*
X10894068Y-16495121D01*
X10755121Y-16634068D01*
X10755118Y-16634072D01*
X10645948Y-16797456D01*
X10645943Y-16797466D01*
X10570744Y-16979012D01*
X10570742Y-16979020D01*
X10532408Y-17171738D01*
X10532407Y-17171747D01*
X10530000Y-17270000D01*
X500500Y-17270000D01*
X500500Y-5798008D01*
X520185Y-5730969D01*
X572989Y-5685214D01*
X642147Y-5675270D01*
X705703Y-5704295D01*
X733858Y-5739555D01*
X822140Y-5904720D01*
X822151Y-5904738D01*
X1024140Y-6207035D01*
X1024150Y-6207049D01*
X1254807Y-6488106D01*
X1511893Y-6745192D01*
X1511898Y-6745196D01*
X1511899Y-6745197D01*
X1792956Y-6975854D01*
X2095268Y-7177853D01*
X2095277Y-7177858D01*
X2095279Y-7177859D01*
X2415916Y-7349243D01*
X2415918Y-7349243D01*
X2415924Y-7349247D01*
X2751836Y-7488386D01*
X3099767Y-7593930D01*
X3099773Y-7593931D01*
X3099776Y-7593932D01*
X3099787Y-7593935D01*
X3456369Y-7664862D01*
X3818206Y-7700500D01*
X3818209Y-7700500D01*
X4181791Y-7700500D01*
X4181794Y-7700500D01*
X4543631Y-7664862D01*
X4613045Y-7651054D01*
X4900212Y-7593935D01*
X4900223Y-7593932D01*
X4900223Y-7593931D01*
X4900233Y-7593930D01*
X5248164Y-7488386D01*
X5584076Y-7349247D01*
X5904732Y-7177853D01*
X6207044Y-6975854D01*
X6488101Y-6745197D01*
X6745197Y-6488101D01*
X6975854Y-6207044D01*
X7177853Y-5904732D01*
X7349247Y-5584076D01*
X7488386Y-5248164D01*
X7593930Y-4900233D01*
X7593932Y-4900223D01*
X7593935Y-4900212D01*
X7664862Y-4543630D01*
X7680999Y-4379786D01*
X7700500Y-4181794D01*
X7700500Y-3818206D01*
X7664862Y-3456369D01*
X7652399Y-3393713D01*
X7593935Y-3099787D01*
X7593932Y-3099776D01*
X7593931Y-3099773D01*
X7593930Y-3099767D01*
X7488386Y-2751836D01*
X7349247Y-2415924D01*
X7344961Y-2407906D01*
X7177859Y-2095279D01*
X7177858Y-2095277D01*
X7177853Y-2095268D01*
X6975854Y-1792956D01*
X6745197Y-1511899D01*
X6745196Y-1511898D01*
X6745192Y-1511893D01*
X6488106Y-1254807D01*
X6207049Y-1024150D01*
X6207048Y-1024149D01*
X6207044Y-1024146D01*
X5904732Y-822147D01*
X5904727Y-822144D01*
X5904720Y-822140D01*
X5739555Y-733858D01*
X5689711Y-684896D01*
X5674250Y-616758D01*
X5698082Y-551079D01*
X5753639Y-508710D01*
X5798008Y-500500D01*
X59004936Y-500500D01*
X59009861Y-501946D01*
G37*
%TD.AperFunction*%
%TD*%
M02*
