M48
; DRILL file {KiCad 9.0.2} date 2026-01-14T17:50:07+0100
; FORMAT={-:-/ absolute / metric / decimal}
; #@! TF.CreationDate,2026-01-14T17:50:07+01:00
; #@! TF.GenerationSoftware,Kicad,Pcbnew,9.0.2
; #@! TF.FileFunction,Plated,1,2,PTH
FMAT,2
METRIC
; #@! TA.AperFunction,Plated,PTH,ViaDrill
T1C0.300
; #@! TA.AperFunction,Plated,PTH,ComponentDrill
T2C0.500
; #@! TA.AperFunction,Plated,PTH,ComponentDrill
T3C1.000
; #@! TA.AperFunction,Plated,PTH,ComponentDrill
T4C1.500
; #@! TA.AperFunction,Plated,PTH,ComponentDrill
T5C3.200
%
G90
G05
T1
X28.0Y-45.25
X35.25Y-48.75
X54.0Y-48.25
T2
X1.6Y-4.0
X2.303Y-2.303
X2.303Y-5.697
X4.0Y-1.6
X4.0Y-6.4
X5.697Y-2.303
X5.697Y-5.697
X6.4Y-4.0
X58.403Y-4.0
X59.106Y-2.303
X59.106Y-5.697
X60.803Y-1.6
X60.803Y-6.4
X62.5Y-2.303
X62.5Y-5.697
X63.203Y-4.0
T3
X12.9Y-10.92
X12.9Y-28.7
X15.44Y-10.92
X15.44Y-28.7
X17.98Y-10.92
X17.98Y-28.7
X20.52Y-10.92
X20.52Y-28.7
X23.06Y-10.92
X23.06Y-28.7
X25.6Y-10.92
X25.6Y-28.7
X28.14Y-10.92
X28.14Y-28.7
X30.68Y-10.92
X30.68Y-28.7
X33.22Y-10.92
X33.22Y-28.7
X35.76Y-10.92
X35.76Y-28.7
X38.3Y-10.92
X38.3Y-28.7
X39.88Y-3.5
X40.84Y-10.92
X40.84Y-28.7
X42.42Y-3.5
X43.38Y-10.92
X43.38Y-28.7
X44.96Y-3.5
X45.92Y-10.92
X45.92Y-28.7
X47.5Y-3.5
X48.46Y-10.92
X48.46Y-28.7
X51.0Y-10.92
X51.0Y-28.7
X53.54Y-10.92
X53.54Y-28.7
X56.08Y-10.92
X56.08Y-28.7
X58.62Y-10.92
X58.62Y-28.7
X61.16Y-10.92
X61.16Y-28.7
T4
X9.45Y-38.46
X15.8Y-35.92
X28.5Y-38.46
X34.85Y-35.92
X47.55Y-38.46
X53.9Y-35.92
T5
X4.0Y-4.0
X60.803Y-4.0
M30
