%TF.GenerationSoftware,KiCad,Pcbnew,9.0.2*%
%TF.CreationDate,2026-01-14T17:50:12+01:00*%
%TF.ProjectId,keypad,6b657970-6164-42e6-9b69-6361645f7063,rev?*%
%TF.SameCoordinates,Original*%
%TF.FileFunction,Soldermask,Top*%
%TF.FilePolarity,Negative*%
%FSLAX46Y46*%
G04 Gerber Fmt 4.6, Leading zero omitted, Abs format (unit mm)*
G04 Created by KiCad (PCBNEW 9.0.2) date 2026-01-14 17:50:12*
%MOMM*%
%LPD*%
G01*
G04 APERTURE LIST*
G04 Aperture macros list*
%AMRoundRect*
0 Rectangle with rounded corners*
0 $1 Rounding radius*
0 $2 $3 $4 $5 $6 $7 $8 $9 X,Y pos of 4 corners*
0 Add a 4 corners polygon primitive as box body*
4,1,4,$2,$3,$4,$5,$6,$7,$8,$9,$2,$3,0*
0 Add four circle primitives for the rounded corners*
1,1,$1+$1,$2,$3*
1,1,$1+$1,$4,$5*
1,1,$1+$1,$6,$7*
1,1,$1+$1,$8,$9*
0 Add four rect primitives between the rounded corners*
20,1,$1+$1,$2,$3,$4,$5,0*
20,1,$1+$1,$4,$5,$6,$7,0*
20,1,$1+$1,$6,$7,$8,$9,0*
20,1,$1+$1,$8,$9,$2,$3,0*%
%AMFreePoly0*
4,1,37,0.800000,0.796148,0.878414,0.796148,1.032228,0.765552,1.177117,0.705537,1.307515,0.618408,1.418408,0.507515,1.505537,0.377117,1.565552,0.232228,1.596148,0.078414,1.596148,-0.078414,1.565552,-0.232228,1.505537,-0.377117,1.418408,-0.507515,1.307515,-0.618408,1.177117,-0.705537,1.032228,-0.765552,0.878414,-0.796148,0.800000,-0.796148,0.800000,-0.800000,-1.400000,-0.800000,
-1.403843,-0.796157,-1.439018,-0.796157,-1.511114,-0.766294,-1.566294,-0.711114,-1.596157,-0.639018,-1.596157,-0.603843,-1.600000,-0.600000,-1.600000,0.600000,-1.596157,0.603843,-1.596157,0.639018,-1.566294,0.711114,-1.511114,0.766294,-1.439018,0.796157,-1.403843,0.796157,-1.400000,0.800000,0.800000,0.800000,0.800000,0.796148,0.800000,0.796148,$1*%
%AMFreePoly1*
4,1,37,0.000000,0.796148,0.078414,0.796148,0.232228,0.765552,0.377117,0.705537,0.507515,0.618408,0.618408,0.507515,0.705537,0.377117,0.765552,0.232228,0.796148,0.078414,0.796148,-0.078414,0.765552,-0.232228,0.705537,-0.377117,0.618408,-0.507515,0.507515,-0.618408,0.377117,-0.705537,0.232228,-0.765552,0.078414,-0.796148,0.000000,-0.796148,0.000000,-0.800000,-0.600000,-0.800000,
-0.603843,-0.796157,-0.639018,-0.796157,-0.711114,-0.766294,-0.766294,-0.711114,-0.796157,-0.639018,-0.796157,-0.603843,-0.800000,-0.600000,-0.800000,0.600000,-0.796157,0.603843,-0.796157,0.639018,-0.766294,0.711114,-0.711114,0.766294,-0.639018,0.796157,-0.603843,0.796157,-0.600000,0.800000,0.000000,0.800000,0.000000,0.796148,0.000000,0.796148,$1*%
%AMFreePoly2*
4,1,37,0.603843,0.796157,0.639018,0.796157,0.711114,0.766294,0.766294,0.711114,0.796157,0.639018,0.796157,0.603843,0.800000,0.600000,0.800000,-0.600000,0.796157,-0.603843,0.796157,-0.639018,0.766294,-0.711114,0.711114,-0.766294,0.639018,-0.796157,0.603843,-0.796157,0.600000,-0.800000,0.000000,-0.800000,0.000000,-0.796148,-0.078414,-0.796148,-0.232228,-0.765552,-0.377117,-0.705537,
-0.507515,-0.618408,-0.618408,-0.507515,-0.705537,-0.377117,-0.765552,-0.232228,-0.796148,-0.078414,-0.796148,0.078414,-0.765552,0.232228,-0.705537,0.377117,-0.618408,0.507515,-0.507515,0.618408,-0.377117,0.705537,-0.232228,0.765552,-0.078414,0.796148,0.000000,0.796148,0.000000,0.800000,0.600000,0.800000,0.603843,0.796157,0.603843,0.796157,$1*%
%AMFreePoly3*
4,1,37,1.403843,0.796157,1.439018,0.796157,1.511114,0.766294,1.566294,0.711114,1.596157,0.639018,1.596157,0.603843,1.600000,0.600000,1.600000,-0.600000,1.596157,-0.603843,1.596157,-0.639018,1.566294,-0.711114,1.511114,-0.766294,1.439018,-0.796157,1.403843,-0.796157,1.400000,-0.800000,-0.800000,-0.800000,-0.800000,-0.796148,-0.878414,-0.796148,-1.032228,-0.765552,-1.177117,-0.705537,
-1.307515,-0.618408,-1.418408,-0.507515,-1.505537,-0.377117,-1.565552,-0.232228,-1.596148,-0.078414,-1.596148,0.078414,-1.565552,0.232228,-1.505537,0.377117,-1.418408,0.507515,-1.307515,0.618408,-1.177117,0.705537,-1.032228,0.765552,-0.878414,0.796148,-0.800000,0.796148,-0.800000,0.800000,1.400000,0.800000,1.403843,0.796157,1.403843,0.796157,$1*%
G04 Aperture macros list end*
%ADD10C,1.700000*%
%ADD11C,4.000000*%
%ADD12C,2.200000*%
%ADD13RoundRect,0.800000X-0.000010X0.800000X-0.000010X-0.800000X0.000010X-0.800000X0.000010X0.800000X0*%
%ADD14C,1.600000*%
%ADD15FreePoly0,270.000000*%
%ADD16FreePoly1,270.000000*%
%ADD17FreePoly2,270.000000*%
%ADD18FreePoly3,270.000000*%
%ADD19RoundRect,0.200000X-0.600000X0.600000X-0.600000X-0.600000X0.600000X-0.600000X0.600000X0.600000X0*%
%ADD20C,1.850000*%
%ADD21C,0.800000*%
%ADD22C,6.400000*%
%ADD23R,1.700000X1.700000*%
G04 APERTURE END LIST*
D10*
%TO.C,U3*%
X46280000Y-41000000D03*
X56440000Y-41000000D03*
D11*
X51360000Y-41000000D03*
D12*
X53900000Y-35920000D03*
X47550000Y-38460000D03*
%TD*%
D13*
%TO.C,A1*%
X61160000Y-29500000D03*
D14*
X61160000Y-28700000D03*
D13*
X58620000Y-29500000D03*
D14*
X58620000Y-28700000D03*
D15*
X56080000Y-29500000D03*
D16*
X56080000Y-28700000D03*
D13*
X53540000Y-29500000D03*
D14*
X53540000Y-28700000D03*
D13*
X51000000Y-29500000D03*
D14*
X51000000Y-28700000D03*
D13*
X48460000Y-29500000D03*
D14*
X48460000Y-28700000D03*
D13*
X45920000Y-29500000D03*
D14*
X45920000Y-28700000D03*
D15*
X43380000Y-29500000D03*
D16*
X43380000Y-28700000D03*
D13*
X40840000Y-29500000D03*
D14*
X40840000Y-28700000D03*
D13*
X38300000Y-29500000D03*
D14*
X38300000Y-28700000D03*
D13*
X35760000Y-29500000D03*
D14*
X35760000Y-28700000D03*
D13*
X33220000Y-29500000D03*
D14*
X33220000Y-28700000D03*
D15*
X30680000Y-29500000D03*
D16*
X30680000Y-28700000D03*
D13*
X28140000Y-29500000D03*
D14*
X28140000Y-28700000D03*
D13*
X25600000Y-29500000D03*
D14*
X25600000Y-28700000D03*
D13*
X23060000Y-29500000D03*
D14*
X23060000Y-28700000D03*
D13*
X20520000Y-29500000D03*
D14*
X20520000Y-28700000D03*
D15*
X17980000Y-29500000D03*
D16*
X17980000Y-28700000D03*
D13*
X15440000Y-29500000D03*
D14*
X15440000Y-28700000D03*
D13*
X12900000Y-29500000D03*
D14*
X12900000Y-28700000D03*
X12900000Y-10920000D03*
D13*
X12900000Y-10120000D03*
D14*
X15440000Y-10920000D03*
D13*
X15440000Y-10120000D03*
D17*
X17980000Y-10920000D03*
D18*
X17980000Y-10120000D03*
D14*
X20520000Y-10920000D03*
D13*
X20520000Y-10120000D03*
D14*
X23060000Y-10920000D03*
D13*
X23060000Y-10120000D03*
D14*
X25600000Y-10920000D03*
D13*
X25600000Y-10120000D03*
D14*
X28140000Y-10920000D03*
D13*
X28140000Y-10120000D03*
D17*
X30680000Y-10920000D03*
D18*
X30680000Y-10120000D03*
D14*
X33220000Y-10920000D03*
D13*
X33220000Y-10120000D03*
D14*
X35760000Y-10920000D03*
D13*
X35760000Y-10120000D03*
D14*
X38300000Y-10920000D03*
D13*
X38300000Y-10120000D03*
D14*
X40840000Y-10920000D03*
D13*
X40840000Y-10120000D03*
D17*
X43380000Y-10920000D03*
D18*
X43380000Y-10120000D03*
D14*
X45920000Y-10920000D03*
D13*
X45920000Y-10120000D03*
D14*
X48460000Y-10920000D03*
D13*
X48460000Y-10120000D03*
D14*
X51000000Y-10920000D03*
D13*
X51000000Y-10120000D03*
D14*
X53540000Y-10920000D03*
D13*
X53540000Y-10120000D03*
D17*
X56080000Y-10920000D03*
D18*
X56080000Y-10120000D03*
D14*
X58620000Y-10920000D03*
D13*
X58620000Y-10120000D03*
D19*
X61160000Y-10920000D03*
D15*
X61160000Y-10120000D03*
D12*
X61030000Y-22535000D03*
D20*
X58000000Y-22235000D03*
X58000000Y-17385000D03*
D12*
X61030000Y-17085000D03*
%TD*%
D11*
%TO.C,U1*%
X13260000Y-41000000D03*
D12*
X9450000Y-38460000D03*
X15800000Y-35920000D03*
D10*
X18340000Y-41000000D03*
X8180000Y-41000000D03*
%TD*%
D12*
%TO.C,U2*%
X28500000Y-38460000D03*
X34850000Y-35920000D03*
D11*
X32310000Y-41000000D03*
D10*
X37390000Y-41000000D03*
X27230000Y-41000000D03*
%TD*%
D21*
%TO.C,H2*%
X58402944Y-4000000D03*
X59105888Y-2302944D03*
X59105888Y-5697056D03*
X60802944Y-1600000D03*
D22*
X60802944Y-4000000D03*
D21*
X60802944Y-6400000D03*
X62500000Y-2302944D03*
X62500000Y-5697056D03*
X63202944Y-4000000D03*
%TD*%
%TO.C,H1*%
X1600000Y-4000000D03*
X2302944Y-2302944D03*
X2302944Y-5697056D03*
X4000000Y-1600000D03*
D22*
X4000000Y-4000000D03*
D21*
X4000000Y-6400000D03*
X5697056Y-2302944D03*
X5697056Y-5697056D03*
X6400000Y-4000000D03*
%TD*%
D23*
%TO.C,J1*%
X39880000Y-3500000D03*
D10*
X42420000Y-3500000D03*
X44960000Y-3500000D03*
X47500000Y-3500000D03*
%TD*%
M02*
