%TF.GenerationSoftware,KiCad,Pcbnew,9.0.2*%
%TF.CreationDate,2026-01-14T17:50:12+01:00*%
%TF.ProjectId,keypad,6b657970-6164-42e6-9b69-6361645f7063,rev?*%
%TF.SameCoordinates,Original*%
%TF.FileFunction,Legend,Top*%
%TF.FilePolarity,Positive*%
%FSLAX46Y46*%
G04 Gerber Fmt 4.6, Leading zero omitted, Abs format (unit mm)*
G04 Created by KiCad (PCBNEW 9.0.2) date 2026-01-14 17:50:12*
%MOMM*%
%LPD*%
G01*
G04 APERTURE LIST*
%ADD10C,0.100000*%
%ADD11C,0.250000*%
%ADD12C,0.150000*%
%ADD13C,0.000000*%
%ADD14C,0.120000*%
G04 APERTURE END LIST*
D10*
X2553884Y-51872419D02*
X2553884Y-51205752D01*
X2553884Y-51396228D02*
X2601503Y-51300990D01*
X2601503Y-51300990D02*
X2649122Y-51253371D01*
X2649122Y-51253371D02*
X2744360Y-51205752D01*
X2744360Y-51205752D02*
X2839598Y-51205752D01*
X3553884Y-51824800D02*
X3458646Y-51872419D01*
X3458646Y-51872419D02*
X3268170Y-51872419D01*
X3268170Y-51872419D02*
X3172932Y-51824800D01*
X3172932Y-51824800D02*
X3125313Y-51729561D01*
X3125313Y-51729561D02*
X3125313Y-51348609D01*
X3125313Y-51348609D02*
X3172932Y-51253371D01*
X3172932Y-51253371D02*
X3268170Y-51205752D01*
X3268170Y-51205752D02*
X3458646Y-51205752D01*
X3458646Y-51205752D02*
X3553884Y-51253371D01*
X3553884Y-51253371D02*
X3601503Y-51348609D01*
X3601503Y-51348609D02*
X3601503Y-51443847D01*
X3601503Y-51443847D02*
X3125313Y-51539085D01*
X3934837Y-51205752D02*
X4172932Y-51872419D01*
X4172932Y-51872419D02*
X4411027Y-51205752D01*
X4791980Y-51777180D02*
X4839599Y-51824800D01*
X4839599Y-51824800D02*
X4791980Y-51872419D01*
X4791980Y-51872419D02*
X4744361Y-51824800D01*
X4744361Y-51824800D02*
X4791980Y-51777180D01*
X4791980Y-51777180D02*
X4791980Y-51872419D01*
X4791980Y-51253371D02*
X4839599Y-51300990D01*
X4839599Y-51300990D02*
X4791980Y-51348609D01*
X4791980Y-51348609D02*
X4744361Y-51300990D01*
X4744361Y-51300990D02*
X4791980Y-51253371D01*
X4791980Y-51253371D02*
X4791980Y-51348609D01*
X6030075Y-51205752D02*
X6030075Y-52062895D01*
X6030075Y-52062895D02*
X5982456Y-52158133D01*
X5982456Y-52158133D02*
X5887218Y-52205752D01*
X5887218Y-52205752D02*
X5839599Y-52205752D01*
X6030075Y-50872419D02*
X5982456Y-50920038D01*
X5982456Y-50920038D02*
X6030075Y-50967657D01*
X6030075Y-50967657D02*
X6077694Y-50920038D01*
X6077694Y-50920038D02*
X6030075Y-50872419D01*
X6030075Y-50872419D02*
X6030075Y-50967657D01*
X6934836Y-51872419D02*
X6934836Y-51348609D01*
X6934836Y-51348609D02*
X6887217Y-51253371D01*
X6887217Y-51253371D02*
X6791979Y-51205752D01*
X6791979Y-51205752D02*
X6601503Y-51205752D01*
X6601503Y-51205752D02*
X6506265Y-51253371D01*
X6934836Y-51824800D02*
X6839598Y-51872419D01*
X6839598Y-51872419D02*
X6601503Y-51872419D01*
X6601503Y-51872419D02*
X6506265Y-51824800D01*
X6506265Y-51824800D02*
X6458646Y-51729561D01*
X6458646Y-51729561D02*
X6458646Y-51634323D01*
X6458646Y-51634323D02*
X6506265Y-51539085D01*
X6506265Y-51539085D02*
X6601503Y-51491466D01*
X6601503Y-51491466D02*
X6839598Y-51491466D01*
X6839598Y-51491466D02*
X6934836Y-51443847D01*
X7411027Y-51205752D02*
X7411027Y-51872419D01*
X7411027Y-51300990D02*
X7458646Y-51253371D01*
X7458646Y-51253371D02*
X7553884Y-51205752D01*
X7553884Y-51205752D02*
X7696741Y-51205752D01*
X7696741Y-51205752D02*
X7791979Y-51253371D01*
X7791979Y-51253371D02*
X7839598Y-51348609D01*
X7839598Y-51348609D02*
X7839598Y-51872419D01*
X9030075Y-50967657D02*
X9077694Y-50920038D01*
X9077694Y-50920038D02*
X9172932Y-50872419D01*
X9172932Y-50872419D02*
X9411027Y-50872419D01*
X9411027Y-50872419D02*
X9506265Y-50920038D01*
X9506265Y-50920038D02*
X9553884Y-50967657D01*
X9553884Y-50967657D02*
X9601503Y-51062895D01*
X9601503Y-51062895D02*
X9601503Y-51158133D01*
X9601503Y-51158133D02*
X9553884Y-51300990D01*
X9553884Y-51300990D02*
X8982456Y-51872419D01*
X8982456Y-51872419D02*
X9601503Y-51872419D01*
X10220551Y-50872419D02*
X10315789Y-50872419D01*
X10315789Y-50872419D02*
X10411027Y-50920038D01*
X10411027Y-50920038D02*
X10458646Y-50967657D01*
X10458646Y-50967657D02*
X10506265Y-51062895D01*
X10506265Y-51062895D02*
X10553884Y-51253371D01*
X10553884Y-51253371D02*
X10553884Y-51491466D01*
X10553884Y-51491466D02*
X10506265Y-51681942D01*
X10506265Y-51681942D02*
X10458646Y-51777180D01*
X10458646Y-51777180D02*
X10411027Y-51824800D01*
X10411027Y-51824800D02*
X10315789Y-51872419D01*
X10315789Y-51872419D02*
X10220551Y-51872419D01*
X10220551Y-51872419D02*
X10125313Y-51824800D01*
X10125313Y-51824800D02*
X10077694Y-51777180D01*
X10077694Y-51777180D02*
X10030075Y-51681942D01*
X10030075Y-51681942D02*
X9982456Y-51491466D01*
X9982456Y-51491466D02*
X9982456Y-51253371D01*
X9982456Y-51253371D02*
X10030075Y-51062895D01*
X10030075Y-51062895D02*
X10077694Y-50967657D01*
X10077694Y-50967657D02*
X10125313Y-50920038D01*
X10125313Y-50920038D02*
X10220551Y-50872419D01*
X10934837Y-50967657D02*
X10982456Y-50920038D01*
X10982456Y-50920038D02*
X11077694Y-50872419D01*
X11077694Y-50872419D02*
X11315789Y-50872419D01*
X11315789Y-50872419D02*
X11411027Y-50920038D01*
X11411027Y-50920038D02*
X11458646Y-50967657D01*
X11458646Y-50967657D02*
X11506265Y-51062895D01*
X11506265Y-51062895D02*
X11506265Y-51158133D01*
X11506265Y-51158133D02*
X11458646Y-51300990D01*
X11458646Y-51300990D02*
X10887218Y-51872419D01*
X10887218Y-51872419D02*
X11506265Y-51872419D01*
X12363408Y-50872419D02*
X12172932Y-50872419D01*
X12172932Y-50872419D02*
X12077694Y-50920038D01*
X12077694Y-50920038D02*
X12030075Y-50967657D01*
X12030075Y-50967657D02*
X11934837Y-51110514D01*
X11934837Y-51110514D02*
X11887218Y-51300990D01*
X11887218Y-51300990D02*
X11887218Y-51681942D01*
X11887218Y-51681942D02*
X11934837Y-51777180D01*
X11934837Y-51777180D02*
X11982456Y-51824800D01*
X11982456Y-51824800D02*
X12077694Y-51872419D01*
X12077694Y-51872419D02*
X12268170Y-51872419D01*
X12268170Y-51872419D02*
X12363408Y-51824800D01*
X12363408Y-51824800D02*
X12411027Y-51777180D01*
X12411027Y-51777180D02*
X12458646Y-51681942D01*
X12458646Y-51681942D02*
X12458646Y-51443847D01*
X12458646Y-51443847D02*
X12411027Y-51348609D01*
X12411027Y-51348609D02*
X12363408Y-51300990D01*
X12363408Y-51300990D02*
X12268170Y-51253371D01*
X12268170Y-51253371D02*
X12077694Y-51253371D01*
X12077694Y-51253371D02*
X11982456Y-51300990D01*
X11982456Y-51300990D02*
X11934837Y-51348609D01*
X11934837Y-51348609D02*
X11887218Y-51443847D01*
X51946741Y-52122419D02*
X51851503Y-52074800D01*
X51851503Y-52074800D02*
X51803884Y-51979561D01*
X51803884Y-51979561D02*
X51803884Y-51122419D01*
X52708646Y-52074800D02*
X52613408Y-52122419D01*
X52613408Y-52122419D02*
X52422932Y-52122419D01*
X52422932Y-52122419D02*
X52327694Y-52074800D01*
X52327694Y-52074800D02*
X52280075Y-51979561D01*
X52280075Y-51979561D02*
X52280075Y-51598609D01*
X52280075Y-51598609D02*
X52327694Y-51503371D01*
X52327694Y-51503371D02*
X52422932Y-51455752D01*
X52422932Y-51455752D02*
X52613408Y-51455752D01*
X52613408Y-51455752D02*
X52708646Y-51503371D01*
X52708646Y-51503371D02*
X52756265Y-51598609D01*
X52756265Y-51598609D02*
X52756265Y-51693847D01*
X52756265Y-51693847D02*
X52280075Y-51789085D01*
X53184837Y-51455752D02*
X53184837Y-52122419D01*
X53184837Y-51550990D02*
X53232456Y-51503371D01*
X53232456Y-51503371D02*
X53327694Y-51455752D01*
X53327694Y-51455752D02*
X53470551Y-51455752D01*
X53470551Y-51455752D02*
X53565789Y-51503371D01*
X53565789Y-51503371D02*
X53613408Y-51598609D01*
X53613408Y-51598609D02*
X53613408Y-52122419D01*
X54518170Y-52122419D02*
X54518170Y-51598609D01*
X54518170Y-51598609D02*
X54470551Y-51503371D01*
X54470551Y-51503371D02*
X54375313Y-51455752D01*
X54375313Y-51455752D02*
X54184837Y-51455752D01*
X54184837Y-51455752D02*
X54089599Y-51503371D01*
X54518170Y-52074800D02*
X54422932Y-52122419D01*
X54422932Y-52122419D02*
X54184837Y-52122419D01*
X54184837Y-52122419D02*
X54089599Y-52074800D01*
X54089599Y-52074800D02*
X54041980Y-51979561D01*
X54041980Y-51979561D02*
X54041980Y-51884323D01*
X54041980Y-51884323D02*
X54089599Y-51789085D01*
X54089599Y-51789085D02*
X54184837Y-51741466D01*
X54184837Y-51741466D02*
X54422932Y-51741466D01*
X54422932Y-51741466D02*
X54518170Y-51693847D01*
X54994361Y-52027180D02*
X55041980Y-52074800D01*
X55041980Y-52074800D02*
X54994361Y-52122419D01*
X54994361Y-52122419D02*
X54946742Y-52074800D01*
X54946742Y-52074800D02*
X54994361Y-52027180D01*
X54994361Y-52027180D02*
X54994361Y-52122419D01*
X55899122Y-52074800D02*
X55803884Y-52122419D01*
X55803884Y-52122419D02*
X55613408Y-52122419D01*
X55613408Y-52122419D02*
X55518170Y-52074800D01*
X55518170Y-52074800D02*
X55470551Y-52027180D01*
X55470551Y-52027180D02*
X55422932Y-51931942D01*
X55422932Y-51931942D02*
X55422932Y-51646228D01*
X55422932Y-51646228D02*
X55470551Y-51550990D01*
X55470551Y-51550990D02*
X55518170Y-51503371D01*
X55518170Y-51503371D02*
X55613408Y-51455752D01*
X55613408Y-51455752D02*
X55803884Y-51455752D01*
X55803884Y-51455752D02*
X55899122Y-51503371D01*
X56756265Y-52122419D02*
X56756265Y-51598609D01*
X56756265Y-51598609D02*
X56708646Y-51503371D01*
X56708646Y-51503371D02*
X56613408Y-51455752D01*
X56613408Y-51455752D02*
X56422932Y-51455752D01*
X56422932Y-51455752D02*
X56327694Y-51503371D01*
X56756265Y-52074800D02*
X56661027Y-52122419D01*
X56661027Y-52122419D02*
X56422932Y-52122419D01*
X56422932Y-52122419D02*
X56327694Y-52074800D01*
X56327694Y-52074800D02*
X56280075Y-51979561D01*
X56280075Y-51979561D02*
X56280075Y-51884323D01*
X56280075Y-51884323D02*
X56327694Y-51789085D01*
X56327694Y-51789085D02*
X56422932Y-51741466D01*
X56422932Y-51741466D02*
X56661027Y-51741466D01*
X56661027Y-51741466D02*
X56756265Y-51693847D01*
X57089599Y-51455752D02*
X57470551Y-51455752D01*
X57232456Y-51122419D02*
X57232456Y-51979561D01*
X57232456Y-51979561D02*
X57280075Y-52074800D01*
X57280075Y-52074800D02*
X57375313Y-52122419D01*
X57375313Y-52122419D02*
X57470551Y-52122419D01*
X58232456Y-51455752D02*
X58232456Y-52265276D01*
X58232456Y-52265276D02*
X58184837Y-52360514D01*
X58184837Y-52360514D02*
X58137218Y-52408133D01*
X58137218Y-52408133D02*
X58041980Y-52455752D01*
X58041980Y-52455752D02*
X57899123Y-52455752D01*
X57899123Y-52455752D02*
X57803885Y-52408133D01*
X58232456Y-52074800D02*
X58137218Y-52122419D01*
X58137218Y-52122419D02*
X57946742Y-52122419D01*
X57946742Y-52122419D02*
X57851504Y-52074800D01*
X57851504Y-52074800D02*
X57803885Y-52027180D01*
X57803885Y-52027180D02*
X57756266Y-51931942D01*
X57756266Y-51931942D02*
X57756266Y-51646228D01*
X57756266Y-51646228D02*
X57803885Y-51550990D01*
X57803885Y-51550990D02*
X57851504Y-51503371D01*
X57851504Y-51503371D02*
X57946742Y-51455752D01*
X57946742Y-51455752D02*
X58137218Y-51455752D01*
X58137218Y-51455752D02*
X58232456Y-51503371D01*
X58708647Y-52122419D02*
X58708647Y-51455752D01*
X58708647Y-51122419D02*
X58661028Y-51170038D01*
X58661028Y-51170038D02*
X58708647Y-51217657D01*
X58708647Y-51217657D02*
X58756266Y-51170038D01*
X58756266Y-51170038D02*
X58708647Y-51122419D01*
X58708647Y-51122419D02*
X58708647Y-51217657D01*
X59184837Y-52122419D02*
X59184837Y-51455752D01*
X59184837Y-51646228D02*
X59232456Y-51550990D01*
X59232456Y-51550990D02*
X59280075Y-51503371D01*
X59280075Y-51503371D02*
X59375313Y-51455752D01*
X59375313Y-51455752D02*
X59470551Y-51455752D01*
X59946742Y-52122419D02*
X59851504Y-52074800D01*
X59851504Y-52074800D02*
X59803885Y-51979561D01*
X59803885Y-51979561D02*
X59803885Y-51122419D01*
X60327695Y-52027180D02*
X60375314Y-52074800D01*
X60375314Y-52074800D02*
X60327695Y-52122419D01*
X60327695Y-52122419D02*
X60280076Y-52074800D01*
X60280076Y-52074800D02*
X60327695Y-52027180D01*
X60327695Y-52027180D02*
X60327695Y-52122419D01*
X61232456Y-52074800D02*
X61137218Y-52122419D01*
X61137218Y-52122419D02*
X60946742Y-52122419D01*
X60946742Y-52122419D02*
X60851504Y-52074800D01*
X60851504Y-52074800D02*
X60803885Y-52027180D01*
X60803885Y-52027180D02*
X60756266Y-51931942D01*
X60756266Y-51931942D02*
X60756266Y-51646228D01*
X60756266Y-51646228D02*
X60803885Y-51550990D01*
X60803885Y-51550990D02*
X60851504Y-51503371D01*
X60851504Y-51503371D02*
X60946742Y-51455752D01*
X60946742Y-51455752D02*
X61137218Y-51455752D01*
X61137218Y-51455752D02*
X61232456Y-51503371D01*
X61565790Y-51455752D02*
X62089599Y-51455752D01*
X62089599Y-51455752D02*
X61565790Y-52122419D01*
X61565790Y-52122419D02*
X62089599Y-52122419D01*
X16803884Y-6122419D02*
X16803884Y-5122419D01*
X16803884Y-5503371D02*
X16899122Y-5455752D01*
X16899122Y-5455752D02*
X17089598Y-5455752D01*
X17089598Y-5455752D02*
X17184836Y-5503371D01*
X17184836Y-5503371D02*
X17232455Y-5550990D01*
X17232455Y-5550990D02*
X17280074Y-5646228D01*
X17280074Y-5646228D02*
X17280074Y-5931942D01*
X17280074Y-5931942D02*
X17232455Y-6027180D01*
X17232455Y-6027180D02*
X17184836Y-6074800D01*
X17184836Y-6074800D02*
X17089598Y-6122419D01*
X17089598Y-6122419D02*
X16899122Y-6122419D01*
X16899122Y-6122419D02*
X16803884Y-6074800D01*
X17613408Y-5455752D02*
X17851503Y-6122419D01*
X18089598Y-5455752D02*
X17851503Y-6122419D01*
X17851503Y-6122419D02*
X17756265Y-6360514D01*
X17756265Y-6360514D02*
X17708646Y-6408133D01*
X17708646Y-6408133D02*
X17613408Y-6455752D01*
X18470551Y-6027180D02*
X18518170Y-6074800D01*
X18518170Y-6074800D02*
X18470551Y-6122419D01*
X18470551Y-6122419D02*
X18422932Y-6074800D01*
X18422932Y-6074800D02*
X18470551Y-6027180D01*
X18470551Y-6027180D02*
X18470551Y-6122419D01*
X18470551Y-5503371D02*
X18518170Y-5550990D01*
X18518170Y-5550990D02*
X18470551Y-5598609D01*
X18470551Y-5598609D02*
X18422932Y-5550990D01*
X18422932Y-5550990D02*
X18470551Y-5503371D01*
X18470551Y-5503371D02*
X18470551Y-5598609D01*
X19851503Y-6122419D02*
X19756265Y-6074800D01*
X19756265Y-6074800D02*
X19708646Y-5979561D01*
X19708646Y-5979561D02*
X19708646Y-5122419D01*
X20613408Y-6074800D02*
X20518170Y-6122419D01*
X20518170Y-6122419D02*
X20327694Y-6122419D01*
X20327694Y-6122419D02*
X20232456Y-6074800D01*
X20232456Y-6074800D02*
X20184837Y-5979561D01*
X20184837Y-5979561D02*
X20184837Y-5598609D01*
X20184837Y-5598609D02*
X20232456Y-5503371D01*
X20232456Y-5503371D02*
X20327694Y-5455752D01*
X20327694Y-5455752D02*
X20518170Y-5455752D01*
X20518170Y-5455752D02*
X20613408Y-5503371D01*
X20613408Y-5503371D02*
X20661027Y-5598609D01*
X20661027Y-5598609D02*
X20661027Y-5693847D01*
X20661027Y-5693847D02*
X20184837Y-5789085D01*
X21089599Y-5455752D02*
X21089599Y-6122419D01*
X21089599Y-5550990D02*
X21137218Y-5503371D01*
X21137218Y-5503371D02*
X21232456Y-5455752D01*
X21232456Y-5455752D02*
X21375313Y-5455752D01*
X21375313Y-5455752D02*
X21470551Y-5503371D01*
X21470551Y-5503371D02*
X21518170Y-5598609D01*
X21518170Y-5598609D02*
X21518170Y-6122419D01*
X22422932Y-6122419D02*
X22422932Y-5598609D01*
X22422932Y-5598609D02*
X22375313Y-5503371D01*
X22375313Y-5503371D02*
X22280075Y-5455752D01*
X22280075Y-5455752D02*
X22089599Y-5455752D01*
X22089599Y-5455752D02*
X21994361Y-5503371D01*
X22422932Y-6074800D02*
X22327694Y-6122419D01*
X22327694Y-6122419D02*
X22089599Y-6122419D01*
X22089599Y-6122419D02*
X21994361Y-6074800D01*
X21994361Y-6074800D02*
X21946742Y-5979561D01*
X21946742Y-5979561D02*
X21946742Y-5884323D01*
X21946742Y-5884323D02*
X21994361Y-5789085D01*
X21994361Y-5789085D02*
X22089599Y-5741466D01*
X22089599Y-5741466D02*
X22327694Y-5741466D01*
X22327694Y-5741466D02*
X22422932Y-5693847D01*
X24470552Y-6122419D02*
X24422933Y-6122419D01*
X24422933Y-6122419D02*
X24327694Y-6074800D01*
X24327694Y-6074800D02*
X24184837Y-5931942D01*
X24184837Y-5931942D02*
X23946742Y-5646228D01*
X23946742Y-5646228D02*
X23851504Y-5503371D01*
X23851504Y-5503371D02*
X23803885Y-5360514D01*
X23803885Y-5360514D02*
X23803885Y-5265276D01*
X23803885Y-5265276D02*
X23851504Y-5170038D01*
X23851504Y-5170038D02*
X23946742Y-5122419D01*
X23946742Y-5122419D02*
X23994361Y-5122419D01*
X23994361Y-5122419D02*
X24089599Y-5170038D01*
X24089599Y-5170038D02*
X24137218Y-5265276D01*
X24137218Y-5265276D02*
X24137218Y-5312895D01*
X24137218Y-5312895D02*
X24089599Y-5408133D01*
X24089599Y-5408133D02*
X24041980Y-5455752D01*
X24041980Y-5455752D02*
X23756266Y-5646228D01*
X23756266Y-5646228D02*
X23708647Y-5693847D01*
X23708647Y-5693847D02*
X23661028Y-5789085D01*
X23661028Y-5789085D02*
X23661028Y-5931942D01*
X23661028Y-5931942D02*
X23708647Y-6027180D01*
X23708647Y-6027180D02*
X23756266Y-6074800D01*
X23756266Y-6074800D02*
X23851504Y-6122419D01*
X23851504Y-6122419D02*
X23994361Y-6122419D01*
X23994361Y-6122419D02*
X24089599Y-6074800D01*
X24089599Y-6074800D02*
X24137218Y-6027180D01*
X24137218Y-6027180D02*
X24280075Y-5836704D01*
X24280075Y-5836704D02*
X24327694Y-5693847D01*
X24327694Y-5693847D02*
X24327694Y-5598609D01*
X25661028Y-6122419D02*
X25661028Y-5455752D01*
X25661028Y-5550990D02*
X25708647Y-5503371D01*
X25708647Y-5503371D02*
X25803885Y-5455752D01*
X25803885Y-5455752D02*
X25946742Y-5455752D01*
X25946742Y-5455752D02*
X26041980Y-5503371D01*
X26041980Y-5503371D02*
X26089599Y-5598609D01*
X26089599Y-5598609D02*
X26089599Y-6122419D01*
X26089599Y-5598609D02*
X26137218Y-5503371D01*
X26137218Y-5503371D02*
X26232456Y-5455752D01*
X26232456Y-5455752D02*
X26375313Y-5455752D01*
X26375313Y-5455752D02*
X26470552Y-5503371D01*
X26470552Y-5503371D02*
X26518171Y-5598609D01*
X26518171Y-5598609D02*
X26518171Y-6122419D01*
X26994361Y-5455752D02*
X26994361Y-6122419D01*
X26994361Y-5550990D02*
X27041980Y-5503371D01*
X27041980Y-5503371D02*
X27137218Y-5455752D01*
X27137218Y-5455752D02*
X27280075Y-5455752D01*
X27280075Y-5455752D02*
X27375313Y-5503371D01*
X27375313Y-5503371D02*
X27422932Y-5598609D01*
X27422932Y-5598609D02*
X27422932Y-6122419D01*
X28327694Y-5455752D02*
X28327694Y-6122419D01*
X27899123Y-5455752D02*
X27899123Y-5979561D01*
X27899123Y-5979561D02*
X27946742Y-6074800D01*
X27946742Y-6074800D02*
X28041980Y-6122419D01*
X28041980Y-6122419D02*
X28184837Y-6122419D01*
X28184837Y-6122419D02*
X28280075Y-6074800D01*
X28280075Y-6074800D02*
X28327694Y-6027180D01*
X28708647Y-6122419D02*
X29232456Y-5455752D01*
X28708647Y-5455752D02*
X29232456Y-6122419D01*
X2803884Y-20872419D02*
X2803884Y-19872419D01*
X2803884Y-20253371D02*
X2899122Y-20205752D01*
X2899122Y-20205752D02*
X3089598Y-20205752D01*
X3089598Y-20205752D02*
X3184836Y-20253371D01*
X3184836Y-20253371D02*
X3232455Y-20300990D01*
X3232455Y-20300990D02*
X3280074Y-20396228D01*
X3280074Y-20396228D02*
X3280074Y-20681942D01*
X3280074Y-20681942D02*
X3232455Y-20777180D01*
X3232455Y-20777180D02*
X3184836Y-20824800D01*
X3184836Y-20824800D02*
X3089598Y-20872419D01*
X3089598Y-20872419D02*
X2899122Y-20872419D01*
X2899122Y-20872419D02*
X2803884Y-20824800D01*
X3613408Y-20205752D02*
X3803884Y-20872419D01*
X3803884Y-20872419D02*
X3994360Y-20396228D01*
X3994360Y-20396228D02*
X4184836Y-20872419D01*
X4184836Y-20872419D02*
X4375312Y-20205752D01*
X5184836Y-20872419D02*
X5184836Y-20348609D01*
X5184836Y-20348609D02*
X5137217Y-20253371D01*
X5137217Y-20253371D02*
X5041979Y-20205752D01*
X5041979Y-20205752D02*
X4851503Y-20205752D01*
X4851503Y-20205752D02*
X4756265Y-20253371D01*
X5184836Y-20824800D02*
X5089598Y-20872419D01*
X5089598Y-20872419D02*
X4851503Y-20872419D01*
X4851503Y-20872419D02*
X4756265Y-20824800D01*
X4756265Y-20824800D02*
X4708646Y-20729561D01*
X4708646Y-20729561D02*
X4708646Y-20634323D01*
X4708646Y-20634323D02*
X4756265Y-20539085D01*
X4756265Y-20539085D02*
X4851503Y-20491466D01*
X4851503Y-20491466D02*
X5089598Y-20491466D01*
X5089598Y-20491466D02*
X5184836Y-20443847D01*
X6089598Y-20872419D02*
X6089598Y-20348609D01*
X6089598Y-20348609D02*
X6041979Y-20253371D01*
X6041979Y-20253371D02*
X5946741Y-20205752D01*
X5946741Y-20205752D02*
X5756265Y-20205752D01*
X5756265Y-20205752D02*
X5661027Y-20253371D01*
X6089598Y-20824800D02*
X5994360Y-20872419D01*
X5994360Y-20872419D02*
X5756265Y-20872419D01*
X5756265Y-20872419D02*
X5661027Y-20824800D01*
X5661027Y-20824800D02*
X5613408Y-20729561D01*
X5613408Y-20729561D02*
X5613408Y-20634323D01*
X5613408Y-20634323D02*
X5661027Y-20539085D01*
X5661027Y-20539085D02*
X5756265Y-20491466D01*
X5756265Y-20491466D02*
X5994360Y-20491466D01*
X5994360Y-20491466D02*
X6089598Y-20443847D01*
X6994360Y-20872419D02*
X6994360Y-20348609D01*
X6994360Y-20348609D02*
X6946741Y-20253371D01*
X6946741Y-20253371D02*
X6851503Y-20205752D01*
X6851503Y-20205752D02*
X6661027Y-20205752D01*
X6661027Y-20205752D02*
X6565789Y-20253371D01*
X6994360Y-20824800D02*
X6899122Y-20872419D01*
X6899122Y-20872419D02*
X6661027Y-20872419D01*
X6661027Y-20872419D02*
X6565789Y-20824800D01*
X6565789Y-20824800D02*
X6518170Y-20729561D01*
X6518170Y-20729561D02*
X6518170Y-20634323D01*
X6518170Y-20634323D02*
X6565789Y-20539085D01*
X6565789Y-20539085D02*
X6661027Y-20491466D01*
X6661027Y-20491466D02*
X6899122Y-20491466D01*
X6899122Y-20491466D02*
X6994360Y-20443847D01*
X8232456Y-20205752D02*
X8994361Y-20491466D01*
X8994361Y-20491466D02*
X8232456Y-20777180D01*
X9232456Y-20967657D02*
X9994360Y-20967657D01*
X10994361Y-20205752D02*
X10232456Y-20491466D01*
X10232456Y-20491466D02*
X10994361Y-20777180D01*
D11*
G36*
X27890427Y-2681016D02*
G01*
X27952215Y-2742805D01*
X28020424Y-2879222D01*
X28020424Y-3363062D01*
X27952216Y-3499477D01*
X27890425Y-3561269D01*
X27754012Y-3629476D01*
X27451124Y-3629476D01*
X27365662Y-3586745D01*
X27365662Y-2655539D01*
X27451124Y-2612809D01*
X27754012Y-2612809D01*
X27890427Y-2681016D01*
G37*
G36*
X24795111Y-2671453D02*
G01*
X24853758Y-2788746D01*
X24853758Y-2837714D01*
X24198996Y-2968666D01*
X24198996Y-2788746D01*
X24257641Y-2671455D01*
X24374934Y-2612809D01*
X24677822Y-2612809D01*
X24795111Y-2671453D01*
G37*
G36*
X29648996Y-3586746D02*
G01*
X29563536Y-3629476D01*
X29170172Y-3629476D01*
X29052879Y-3570830D01*
X28994234Y-3453538D01*
X28994234Y-3331603D01*
X29052879Y-3214312D01*
X29170172Y-3155666D01*
X29593044Y-3155666D01*
X29617430Y-3153264D01*
X29621578Y-3151545D01*
X29626060Y-3151227D01*
X29648946Y-3142469D01*
X29648996Y-3142444D01*
X29648996Y-3586746D01*
G37*
G36*
X31368044Y-2655539D02*
G01*
X31368044Y-3586746D01*
X31282584Y-3629476D01*
X30979696Y-3629476D01*
X30843278Y-3561267D01*
X30781490Y-3499479D01*
X30713282Y-3363063D01*
X30713282Y-2879222D01*
X30781489Y-2742807D01*
X30843280Y-2681016D01*
X30979696Y-2612809D01*
X31282584Y-2612809D01*
X31368044Y-2655539D01*
G37*
G36*
X31829155Y-4722939D02*
G01*
X14780742Y-4722939D01*
X14780742Y-4372175D01*
X25488072Y-4372175D01*
X25491530Y-4420825D01*
X25513342Y-4464448D01*
X25550187Y-4496404D01*
X25596457Y-4511828D01*
X25645107Y-4508370D01*
X25667993Y-4499612D01*
X25848944Y-4409137D01*
X25859438Y-4402530D01*
X25862489Y-4401267D01*
X25865925Y-4398446D01*
X25869682Y-4396082D01*
X25871842Y-4393590D01*
X25881431Y-4385722D01*
X25971908Y-4295246D01*
X25987453Y-4276304D01*
X25987749Y-4275587D01*
X25988293Y-4275031D01*
X25999580Y-4253281D01*
X26180532Y-3800900D01*
X26181186Y-3798641D01*
X26182190Y-3796518D01*
X26634571Y-2529851D01*
X26640511Y-2506077D01*
X26639603Y-2487809D01*
X27115662Y-2487809D01*
X27115662Y-4387809D01*
X27118064Y-4412195D01*
X27136728Y-4457255D01*
X27171216Y-4491743D01*
X27216276Y-4510407D01*
X27265048Y-4510407D01*
X27310108Y-4491743D01*
X27344596Y-4457255D01*
X27363260Y-4412195D01*
X27365662Y-4387809D01*
X27365662Y-3866253D01*
X27365713Y-3866279D01*
X27388599Y-3875037D01*
X27393079Y-3875355D01*
X27397229Y-3877074D01*
X27421615Y-3879476D01*
X27783520Y-3879476D01*
X27807906Y-3877074D01*
X27812054Y-3875355D01*
X27816536Y-3875037D01*
X27839422Y-3866279D01*
X28020373Y-3775804D01*
X28030869Y-3769196D01*
X28033919Y-3767933D01*
X28037353Y-3765114D01*
X28041111Y-3762749D01*
X28043272Y-3760257D01*
X28052861Y-3752388D01*
X28143337Y-3661911D01*
X28151205Y-3652322D01*
X28153697Y-3650162D01*
X28156061Y-3646405D01*
X28158882Y-3642969D01*
X28160145Y-3639917D01*
X28166751Y-3629425D01*
X28257227Y-3448473D01*
X28265985Y-3425587D01*
X28266303Y-3421106D01*
X28268022Y-3416957D01*
X28270424Y-3392571D01*
X28270424Y-3302095D01*
X28744234Y-3302095D01*
X28744234Y-3483047D01*
X28746636Y-3507433D01*
X28748354Y-3511581D01*
X28748673Y-3516063D01*
X28757430Y-3538948D01*
X28847906Y-3719901D01*
X28850473Y-3723979D01*
X28851115Y-3725904D01*
X28853193Y-3728300D01*
X28860960Y-3740638D01*
X28872802Y-3750909D01*
X28883071Y-3762749D01*
X28895405Y-3770513D01*
X28897805Y-3772595D01*
X28899731Y-3773237D01*
X28903809Y-3775804D01*
X29084761Y-3866279D01*
X29107647Y-3875037D01*
X29112127Y-3875355D01*
X29116277Y-3877074D01*
X29140663Y-3879476D01*
X29593044Y-3879476D01*
X29617430Y-3877074D01*
X29621578Y-3875355D01*
X29626060Y-3875037D01*
X29648946Y-3866279D01*
X29691261Y-3845121D01*
X29704550Y-3858410D01*
X29749610Y-3877074D01*
X29798382Y-3877074D01*
X29843442Y-3858410D01*
X29877930Y-3823922D01*
X29896594Y-3778862D01*
X29898996Y-3754476D01*
X29898996Y-2849714D01*
X30463282Y-2849714D01*
X30463282Y-3392571D01*
X30465684Y-3416957D01*
X30467402Y-3421105D01*
X30467721Y-3425587D01*
X30476479Y-3448473D01*
X30566954Y-3629424D01*
X30573563Y-3639922D01*
X30574825Y-3642969D01*
X30577640Y-3646400D01*
X30580009Y-3650162D01*
X30582503Y-3652325D01*
X30590370Y-3661911D01*
X30680847Y-3752388D01*
X30690433Y-3760256D01*
X30692596Y-3762749D01*
X30696353Y-3765114D01*
X30699789Y-3767934D01*
X30702840Y-3769198D01*
X30713333Y-3775803D01*
X30894285Y-3866279D01*
X30917171Y-3875037D01*
X30921651Y-3875355D01*
X30925801Y-3877074D01*
X30950187Y-3879476D01*
X31312092Y-3879476D01*
X31336478Y-3877074D01*
X31340626Y-3875355D01*
X31345108Y-3875037D01*
X31367994Y-3866279D01*
X31410309Y-3845121D01*
X31423598Y-3858410D01*
X31468658Y-3877074D01*
X31517430Y-3877074D01*
X31562490Y-3858410D01*
X31596978Y-3823922D01*
X31615642Y-3778862D01*
X31618044Y-3754476D01*
X31618044Y-1854476D01*
X31615642Y-1830090D01*
X31596978Y-1785030D01*
X31562490Y-1750542D01*
X31517430Y-1731878D01*
X31468658Y-1731878D01*
X31423598Y-1750542D01*
X31389110Y-1785030D01*
X31370446Y-1830090D01*
X31368044Y-1854476D01*
X31368044Y-2376030D01*
X31367994Y-2376006D01*
X31345108Y-2367248D01*
X31340626Y-2366929D01*
X31336478Y-2365211D01*
X31312092Y-2362809D01*
X30950187Y-2362809D01*
X30925801Y-2365211D01*
X30921651Y-2366929D01*
X30917171Y-2367248D01*
X30894285Y-2376006D01*
X30713333Y-2466482D01*
X30702840Y-2473087D01*
X30699789Y-2474351D01*
X30696352Y-2477171D01*
X30692596Y-2479536D01*
X30690435Y-2482027D01*
X30680847Y-2489896D01*
X30590370Y-2580372D01*
X30582500Y-2589961D01*
X30580008Y-2592123D01*
X30577642Y-2595881D01*
X30574825Y-2599314D01*
X30573562Y-2602362D01*
X30566954Y-2612860D01*
X30476478Y-2793813D01*
X30467721Y-2816698D01*
X30467402Y-2821179D01*
X30465684Y-2825328D01*
X30463282Y-2849714D01*
X29898996Y-2849714D01*
X29898996Y-2759238D01*
X29896594Y-2734852D01*
X29894875Y-2730702D01*
X29894557Y-2726222D01*
X29885799Y-2703336D01*
X29795324Y-2522384D01*
X29792756Y-2518305D01*
X29792115Y-2516381D01*
X29790035Y-2513983D01*
X29782269Y-2501646D01*
X29770428Y-2491376D01*
X29760159Y-2479536D01*
X29747821Y-2471769D01*
X29745424Y-2469690D01*
X29743499Y-2469048D01*
X29739421Y-2466481D01*
X29558470Y-2376006D01*
X29535584Y-2367248D01*
X29531102Y-2366929D01*
X29526954Y-2365211D01*
X29502568Y-2362809D01*
X29140663Y-2362809D01*
X29116277Y-2365211D01*
X29112127Y-2366929D01*
X29107647Y-2367248D01*
X29084761Y-2376006D01*
X28903809Y-2466481D01*
X28883071Y-2479536D01*
X28851115Y-2516381D01*
X28835691Y-2562651D01*
X28839149Y-2611301D01*
X28860961Y-2654924D01*
X28897806Y-2686880D01*
X28944076Y-2702304D01*
X28992726Y-2698846D01*
X29015611Y-2690089D01*
X29170172Y-2612809D01*
X29473060Y-2612809D01*
X29590349Y-2671453D01*
X29648996Y-2788746D01*
X29648996Y-2862936D01*
X29563536Y-2905666D01*
X29140663Y-2905666D01*
X29116277Y-2908068D01*
X29112127Y-2909786D01*
X29107647Y-2910105D01*
X29084761Y-2918863D01*
X28903809Y-3009338D01*
X28899731Y-3011904D01*
X28897805Y-3012547D01*
X28895405Y-3014628D01*
X28883071Y-3022393D01*
X28872802Y-3034232D01*
X28860960Y-3044504D01*
X28853193Y-3056841D01*
X28851115Y-3059238D01*
X28850473Y-3061162D01*
X28847906Y-3065241D01*
X28757430Y-3246194D01*
X28748673Y-3269079D01*
X28748354Y-3273560D01*
X28746636Y-3277709D01*
X28744234Y-3302095D01*
X28270424Y-3302095D01*
X28270424Y-2849714D01*
X28268022Y-2825328D01*
X28266303Y-2821178D01*
X28265985Y-2816698D01*
X28257227Y-2793812D01*
X28166752Y-2612860D01*
X28160144Y-2602363D01*
X28158881Y-2599314D01*
X28156062Y-2595879D01*
X28153697Y-2592122D01*
X28151205Y-2589960D01*
X28143336Y-2580372D01*
X28052860Y-2489897D01*
X28043274Y-2482030D01*
X28041111Y-2479536D01*
X28037349Y-2477167D01*
X28033918Y-2474352D01*
X28030871Y-2473090D01*
X28020373Y-2466481D01*
X27839422Y-2376006D01*
X27816536Y-2367248D01*
X27812054Y-2366929D01*
X27807906Y-2365211D01*
X27783520Y-2362809D01*
X27421615Y-2362809D01*
X27397229Y-2365211D01*
X27393079Y-2366929D01*
X27388599Y-2367248D01*
X27365713Y-2376006D01*
X27323396Y-2397163D01*
X27310108Y-2383875D01*
X27265048Y-2365211D01*
X27216276Y-2365211D01*
X27171216Y-2383875D01*
X27136728Y-2418363D01*
X27118064Y-2463423D01*
X27115662Y-2487809D01*
X26639603Y-2487809D01*
X26638089Y-2457365D01*
X26617210Y-2413287D01*
X26581053Y-2380555D01*
X26535122Y-2364151D01*
X26486410Y-2366572D01*
X26442331Y-2387452D01*
X26409599Y-2423609D01*
X26399135Y-2445767D01*
X26064472Y-3382823D01*
X25729809Y-2445767D01*
X25719345Y-2423610D01*
X25686613Y-2387452D01*
X25642534Y-2366573D01*
X25593822Y-2364151D01*
X25547892Y-2380555D01*
X25511734Y-2413287D01*
X25490855Y-2457366D01*
X25488433Y-2506078D01*
X25494373Y-2529851D01*
X25930844Y-3751971D01*
X25776988Y-4136611D01*
X25718997Y-4194601D01*
X25556189Y-4276006D01*
X25535452Y-4289060D01*
X25503496Y-4325905D01*
X25488072Y-4372175D01*
X14780742Y-4372175D01*
X14780742Y-2487809D01*
X14991853Y-2487809D01*
X14991853Y-3754476D01*
X14994255Y-3778862D01*
X15012919Y-3823922D01*
X15047407Y-3858410D01*
X15092467Y-3877074D01*
X15141239Y-3877074D01*
X15186299Y-3858410D01*
X15220787Y-3823922D01*
X15239451Y-3778862D01*
X15241853Y-3754476D01*
X15241853Y-2720538D01*
X15281375Y-2681016D01*
X15417791Y-2612809D01*
X15630203Y-2612809D01*
X15747492Y-2671453D01*
X15806139Y-2788746D01*
X15806139Y-3754476D01*
X15808541Y-3778862D01*
X15827205Y-3823922D01*
X15861693Y-3858410D01*
X15906753Y-3877074D01*
X15955525Y-3877074D01*
X16000585Y-3858410D01*
X16035073Y-3823922D01*
X16053737Y-3778862D01*
X16056139Y-3754476D01*
X16056139Y-2788746D01*
X16114784Y-2671455D01*
X16232077Y-2612809D01*
X16444487Y-2612809D01*
X16561779Y-2671454D01*
X16620425Y-2788746D01*
X16620425Y-3754476D01*
X16622827Y-3778862D01*
X16641491Y-3823922D01*
X16675979Y-3858410D01*
X16721039Y-3877074D01*
X16769811Y-3877074D01*
X16814871Y-3858410D01*
X16849359Y-3823922D01*
X16868023Y-3778862D01*
X16870425Y-3754476D01*
X16870425Y-2759238D01*
X16868023Y-2734852D01*
X16866304Y-2730702D01*
X16865986Y-2726222D01*
X16857228Y-2703336D01*
X16766753Y-2522384D01*
X16764186Y-2518306D01*
X16763544Y-2516380D01*
X16761462Y-2513980D01*
X16753698Y-2501646D01*
X16741858Y-2491377D01*
X16738763Y-2487809D01*
X17525186Y-2487809D01*
X17525186Y-3754476D01*
X17527588Y-3778862D01*
X17546252Y-3823922D01*
X17580740Y-3858410D01*
X17625800Y-3877074D01*
X17674572Y-3877074D01*
X17719632Y-3858410D01*
X17754120Y-3823922D01*
X17772784Y-3778862D01*
X17775186Y-3754476D01*
X17775186Y-2487809D01*
X18429948Y-2487809D01*
X18429948Y-3754476D01*
X18432350Y-3778862D01*
X18451014Y-3823922D01*
X18485502Y-3858410D01*
X18530562Y-3877074D01*
X18579334Y-3877074D01*
X18624394Y-3858410D01*
X18658882Y-3823922D01*
X18677546Y-3778862D01*
X18679948Y-3754476D01*
X18679948Y-2720538D01*
X18719470Y-2681016D01*
X18855886Y-2612809D01*
X19068298Y-2612809D01*
X19185587Y-2671453D01*
X19244234Y-2788746D01*
X19244234Y-3754476D01*
X19246636Y-3778862D01*
X19265300Y-3823922D01*
X19299788Y-3858410D01*
X19344848Y-3877074D01*
X19393620Y-3877074D01*
X19438680Y-3858410D01*
X19473168Y-3823922D01*
X19491832Y-3778862D01*
X19494234Y-3754476D01*
X19494234Y-2759238D01*
X19491832Y-2734852D01*
X19490113Y-2730702D01*
X19489795Y-2726222D01*
X19481037Y-2703336D01*
X19390562Y-2522384D01*
X19387994Y-2518305D01*
X19387353Y-2516381D01*
X19385273Y-2513983D01*
X19377507Y-2501646D01*
X19365666Y-2491376D01*
X19362572Y-2487809D01*
X20148996Y-2487809D01*
X20148996Y-3754476D01*
X20151398Y-3778862D01*
X20170062Y-3823922D01*
X20204550Y-3858410D01*
X20249610Y-3877074D01*
X20298382Y-3877074D01*
X20343442Y-3858410D01*
X20377930Y-3823922D01*
X20396594Y-3778862D01*
X20398996Y-3754476D01*
X20398996Y-2487809D01*
X20396594Y-2463423D01*
X20377930Y-2418363D01*
X20343442Y-2383875D01*
X20298382Y-2365211D01*
X20249610Y-2365211D01*
X20204550Y-2383875D01*
X20170062Y-2418363D01*
X20151398Y-2463423D01*
X20148996Y-2487809D01*
X19362572Y-2487809D01*
X19355397Y-2479536D01*
X19343059Y-2471769D01*
X19340662Y-2469690D01*
X19338737Y-2469048D01*
X19334659Y-2466481D01*
X19153708Y-2376006D01*
X19130822Y-2367248D01*
X19126340Y-2366929D01*
X19122192Y-2365211D01*
X19097806Y-2362809D01*
X18826377Y-2362809D01*
X18801991Y-2365211D01*
X18797841Y-2366929D01*
X18793361Y-2367248D01*
X18770475Y-2376006D01*
X18663493Y-2429496D01*
X18658882Y-2418363D01*
X18624394Y-2383875D01*
X18579334Y-2365211D01*
X18530562Y-2365211D01*
X18485502Y-2383875D01*
X18451014Y-2418363D01*
X18432350Y-2463423D01*
X18429948Y-2487809D01*
X17775186Y-2487809D01*
X17772784Y-2463423D01*
X17754120Y-2418363D01*
X17719632Y-2383875D01*
X17674572Y-2365211D01*
X17625800Y-2365211D01*
X17580740Y-2383875D01*
X17546252Y-2418363D01*
X17527588Y-2463423D01*
X17525186Y-2487809D01*
X16738763Y-2487809D01*
X16731587Y-2479535D01*
X16719249Y-2471768D01*
X16716853Y-2469690D01*
X16714928Y-2469048D01*
X16710850Y-2466481D01*
X16529897Y-2376005D01*
X16507012Y-2367248D01*
X16502530Y-2366929D01*
X16498382Y-2365211D01*
X16473996Y-2362809D01*
X16202568Y-2362809D01*
X16178182Y-2365211D01*
X16174032Y-2366929D01*
X16169552Y-2367248D01*
X16146666Y-2376006D01*
X15965714Y-2466481D01*
X15961636Y-2469047D01*
X15959710Y-2469690D01*
X15957310Y-2471771D01*
X15944976Y-2479536D01*
X15934707Y-2491375D01*
X15931138Y-2494470D01*
X15927571Y-2491376D01*
X15917302Y-2479536D01*
X15904964Y-2471769D01*
X15902567Y-2469690D01*
X15900642Y-2469048D01*
X15896564Y-2466481D01*
X15715613Y-2376006D01*
X15692727Y-2367248D01*
X15688245Y-2366929D01*
X15684097Y-2365211D01*
X15659711Y-2362809D01*
X15388282Y-2362809D01*
X15363896Y-2365211D01*
X15359746Y-2366929D01*
X15355266Y-2367248D01*
X15332380Y-2376006D01*
X15225398Y-2429496D01*
X15220787Y-2418363D01*
X15186299Y-2383875D01*
X15141239Y-2365211D01*
X15092467Y-2365211D01*
X15047407Y-2383875D01*
X15012919Y-2418363D01*
X14994255Y-2463423D01*
X14991853Y-2487809D01*
X14780742Y-2487809D01*
X14780742Y-1920565D01*
X17437112Y-1920565D01*
X17437112Y-1969339D01*
X17455777Y-2014398D01*
X17471322Y-2033340D01*
X17561797Y-2123816D01*
X17580739Y-2139361D01*
X17580740Y-2139362D01*
X17607135Y-2150294D01*
X17625799Y-2158026D01*
X17625800Y-2158026D01*
X17674572Y-2158026D01*
X17719632Y-2139362D01*
X17719633Y-2139361D01*
X17738574Y-2123817D01*
X17829051Y-2033341D01*
X17844596Y-2014399D01*
X17844597Y-2014398D01*
X17863261Y-1969338D01*
X17863261Y-1920565D01*
X20060922Y-1920565D01*
X20060922Y-1969339D01*
X20079587Y-2014398D01*
X20095132Y-2033340D01*
X20185607Y-2123816D01*
X20204549Y-2139361D01*
X20204550Y-2139362D01*
X20230945Y-2150294D01*
X20249609Y-2158026D01*
X20249610Y-2158026D01*
X20298382Y-2158026D01*
X20343442Y-2139362D01*
X20343443Y-2139361D01*
X20362384Y-2123817D01*
X20452861Y-2033341D01*
X20468406Y-2014399D01*
X20468407Y-2014398D01*
X20487071Y-1969338D01*
X20487071Y-1920565D01*
X20469797Y-1878863D01*
X20468407Y-1875506D01*
X20468406Y-1875505D01*
X20452861Y-1856563D01*
X20450774Y-1854476D01*
X22501377Y-1854476D01*
X22501377Y-3754476D01*
X22503779Y-3778862D01*
X22522443Y-3823922D01*
X22556931Y-3858410D01*
X22601991Y-3877074D01*
X22650763Y-3877074D01*
X22695823Y-3858410D01*
X22730311Y-3823922D01*
X22748975Y-3778862D01*
X22751377Y-3754476D01*
X22751377Y-3263395D01*
X22793805Y-3220966D01*
X23250187Y-3829476D01*
X23266740Y-3847543D01*
X23308707Y-3872393D01*
X23356990Y-3879291D01*
X23404237Y-3867186D01*
X23443254Y-3837923D01*
X23468104Y-3795955D01*
X23475002Y-3747672D01*
X23462897Y-3700426D01*
X23450187Y-3679476D01*
X22972376Y-3042395D01*
X23255534Y-2759238D01*
X23948996Y-2759238D01*
X23948996Y-3483047D01*
X23951398Y-3507433D01*
X23953116Y-3511581D01*
X23953435Y-3516063D01*
X23962192Y-3538948D01*
X24052668Y-3719901D01*
X24055235Y-3723979D01*
X24055877Y-3725904D01*
X24057955Y-3728300D01*
X24065722Y-3740638D01*
X24077564Y-3750909D01*
X24087833Y-3762749D01*
X24100167Y-3770513D01*
X24102567Y-3772595D01*
X24104493Y-3773237D01*
X24108571Y-3775804D01*
X24289523Y-3866279D01*
X24312409Y-3875037D01*
X24316889Y-3875355D01*
X24321039Y-3877074D01*
X24345425Y-3879476D01*
X24707330Y-3879476D01*
X24731716Y-3877074D01*
X24735864Y-3875355D01*
X24740346Y-3875037D01*
X24763232Y-3866279D01*
X24944183Y-3775804D01*
X24964921Y-3762749D01*
X24996877Y-3725904D01*
X25012300Y-3679634D01*
X25008842Y-3630984D01*
X24987031Y-3587361D01*
X24950186Y-3555405D01*
X24903915Y-3539982D01*
X24855266Y-3543439D01*
X24832380Y-3552197D01*
X24677822Y-3629476D01*
X24374934Y-3629476D01*
X24257641Y-3570830D01*
X24198996Y-3453538D01*
X24198996Y-3223617D01*
X25003273Y-3062763D01*
X25026714Y-3055625D01*
X25036889Y-3048810D01*
X25048204Y-3044124D01*
X25056954Y-3035373D01*
X25067239Y-3028486D01*
X25074032Y-3018295D01*
X25082692Y-3009636D01*
X25087428Y-2998201D01*
X25094293Y-2987904D01*
X25096669Y-2975890D01*
X25101356Y-2964576D01*
X25103758Y-2940190D01*
X25103758Y-2759238D01*
X25101356Y-2734852D01*
X25099637Y-2730702D01*
X25099319Y-2726222D01*
X25090561Y-2703336D01*
X25000086Y-2522384D01*
X24997518Y-2518305D01*
X24996877Y-2516381D01*
X24994797Y-2513983D01*
X24987031Y-2501646D01*
X24975190Y-2491376D01*
X24964921Y-2479536D01*
X24952583Y-2471769D01*
X24950186Y-2469690D01*
X24948261Y-2469048D01*
X24944183Y-2466481D01*
X24763232Y-2376006D01*
X24740346Y-2367248D01*
X24735864Y-2366929D01*
X24731716Y-2365211D01*
X24707330Y-2362809D01*
X24345425Y-2362809D01*
X24321039Y-2365211D01*
X24316889Y-2366929D01*
X24312409Y-2367248D01*
X24289523Y-2376006D01*
X24108571Y-2466481D01*
X24104493Y-2469047D01*
X24102567Y-2469690D01*
X24100167Y-2471771D01*
X24087833Y-2479536D01*
X24077564Y-2491375D01*
X24065722Y-2501647D01*
X24057955Y-2513984D01*
X24055877Y-2516381D01*
X24055235Y-2518305D01*
X24052668Y-2522384D01*
X23962192Y-2703337D01*
X23953435Y-2726222D01*
X23953116Y-2730703D01*
X23951398Y-2734852D01*
X23948996Y-2759238D01*
X23255534Y-2759238D01*
X23438575Y-2576197D01*
X23454120Y-2557255D01*
X23472785Y-2512196D01*
X23472785Y-2463422D01*
X23454120Y-2418363D01*
X23419633Y-2383876D01*
X23374574Y-2365211D01*
X23325800Y-2365211D01*
X23280741Y-2383876D01*
X23261799Y-2399421D01*
X22751377Y-2909843D01*
X22751377Y-1854476D01*
X22748975Y-1830090D01*
X22730311Y-1785030D01*
X22695823Y-1750542D01*
X22650763Y-1731878D01*
X22601991Y-1731878D01*
X22556931Y-1750542D01*
X22522443Y-1785030D01*
X22503779Y-1830090D01*
X22501377Y-1854476D01*
X20450774Y-1854476D01*
X20362384Y-1766087D01*
X20343442Y-1750542D01*
X20298382Y-1731878D01*
X20249609Y-1731878D01*
X20230945Y-1739609D01*
X20204550Y-1750542D01*
X20204549Y-1750543D01*
X20185607Y-1766088D01*
X20095132Y-1856564D01*
X20079588Y-1875505D01*
X20079587Y-1875506D01*
X20060922Y-1920565D01*
X17863261Y-1920565D01*
X17845987Y-1878863D01*
X17844597Y-1875506D01*
X17844596Y-1875505D01*
X17829051Y-1856563D01*
X17738574Y-1766087D01*
X17719632Y-1750542D01*
X17674572Y-1731878D01*
X17625799Y-1731878D01*
X17607135Y-1739609D01*
X17580740Y-1750542D01*
X17580739Y-1750543D01*
X17561797Y-1766088D01*
X17471322Y-1856564D01*
X17455778Y-1875505D01*
X17455777Y-1875506D01*
X17437112Y-1920565D01*
X14780742Y-1920565D01*
X14780742Y-1520767D01*
X31829155Y-1520767D01*
X31829155Y-4722939D01*
G37*
D10*
X25506265Y-17574800D02*
X25601503Y-17622419D01*
X25601503Y-17622419D02*
X25791979Y-17622419D01*
X25791979Y-17622419D02*
X25887217Y-17574800D01*
X25887217Y-17574800D02*
X25934836Y-17479561D01*
X25934836Y-17479561D02*
X25934836Y-17431942D01*
X25934836Y-17431942D02*
X25887217Y-17336704D01*
X25887217Y-17336704D02*
X25791979Y-17289085D01*
X25791979Y-17289085D02*
X25649122Y-17289085D01*
X25649122Y-17289085D02*
X25553884Y-17241466D01*
X25553884Y-17241466D02*
X25506265Y-17146228D01*
X25506265Y-17146228D02*
X25506265Y-17098609D01*
X25506265Y-17098609D02*
X25553884Y-17003371D01*
X25553884Y-17003371D02*
X25649122Y-16955752D01*
X25649122Y-16955752D02*
X25791979Y-16955752D01*
X25791979Y-16955752D02*
X25887217Y-17003371D01*
X26506265Y-17622419D02*
X26411027Y-17574800D01*
X26411027Y-17574800D02*
X26363408Y-17527180D01*
X26363408Y-17527180D02*
X26315789Y-17431942D01*
X26315789Y-17431942D02*
X26315789Y-17146228D01*
X26315789Y-17146228D02*
X26363408Y-17050990D01*
X26363408Y-17050990D02*
X26411027Y-17003371D01*
X26411027Y-17003371D02*
X26506265Y-16955752D01*
X26506265Y-16955752D02*
X26649122Y-16955752D01*
X26649122Y-16955752D02*
X26744360Y-17003371D01*
X26744360Y-17003371D02*
X26791979Y-17050990D01*
X26791979Y-17050990D02*
X26839598Y-17146228D01*
X26839598Y-17146228D02*
X26839598Y-17431942D01*
X26839598Y-17431942D02*
X26791979Y-17527180D01*
X26791979Y-17527180D02*
X26744360Y-17574800D01*
X26744360Y-17574800D02*
X26649122Y-17622419D01*
X26649122Y-17622419D02*
X26506265Y-17622419D01*
X28030075Y-17622419D02*
X28030075Y-16622419D01*
X28458646Y-17622419D02*
X28458646Y-17098609D01*
X28458646Y-17098609D02*
X28411027Y-17003371D01*
X28411027Y-17003371D02*
X28315789Y-16955752D01*
X28315789Y-16955752D02*
X28172932Y-16955752D01*
X28172932Y-16955752D02*
X28077694Y-17003371D01*
X28077694Y-17003371D02*
X28030075Y-17050990D01*
X28934837Y-17622419D02*
X28934837Y-16955752D01*
X28934837Y-16622419D02*
X28887218Y-16670038D01*
X28887218Y-16670038D02*
X28934837Y-16717657D01*
X28934837Y-16717657D02*
X28982456Y-16670038D01*
X28982456Y-16670038D02*
X28934837Y-16622419D01*
X28934837Y-16622419D02*
X28934837Y-16717657D01*
X29839598Y-17622419D02*
X29839598Y-16622419D01*
X29839598Y-17574800D02*
X29744360Y-17622419D01*
X29744360Y-17622419D02*
X29553884Y-17622419D01*
X29553884Y-17622419D02*
X29458646Y-17574800D01*
X29458646Y-17574800D02*
X29411027Y-17527180D01*
X29411027Y-17527180D02*
X29363408Y-17431942D01*
X29363408Y-17431942D02*
X29363408Y-17146228D01*
X29363408Y-17146228D02*
X29411027Y-17050990D01*
X29411027Y-17050990D02*
X29458646Y-17003371D01*
X29458646Y-17003371D02*
X29553884Y-16955752D01*
X29553884Y-16955752D02*
X29744360Y-16955752D01*
X29744360Y-16955752D02*
X29839598Y-17003371D01*
X30744360Y-17622419D02*
X30744360Y-16622419D01*
X30744360Y-17574800D02*
X30649122Y-17622419D01*
X30649122Y-17622419D02*
X30458646Y-17622419D01*
X30458646Y-17622419D02*
X30363408Y-17574800D01*
X30363408Y-17574800D02*
X30315789Y-17527180D01*
X30315789Y-17527180D02*
X30268170Y-17431942D01*
X30268170Y-17431942D02*
X30268170Y-17146228D01*
X30268170Y-17146228D02*
X30315789Y-17050990D01*
X30315789Y-17050990D02*
X30363408Y-17003371D01*
X30363408Y-17003371D02*
X30458646Y-16955752D01*
X30458646Y-16955752D02*
X30649122Y-16955752D01*
X30649122Y-16955752D02*
X30744360Y-17003371D01*
X31601503Y-17574800D02*
X31506265Y-17622419D01*
X31506265Y-17622419D02*
X31315789Y-17622419D01*
X31315789Y-17622419D02*
X31220551Y-17574800D01*
X31220551Y-17574800D02*
X31172932Y-17479561D01*
X31172932Y-17479561D02*
X31172932Y-17098609D01*
X31172932Y-17098609D02*
X31220551Y-17003371D01*
X31220551Y-17003371D02*
X31315789Y-16955752D01*
X31315789Y-16955752D02*
X31506265Y-16955752D01*
X31506265Y-16955752D02*
X31601503Y-17003371D01*
X31601503Y-17003371D02*
X31649122Y-17098609D01*
X31649122Y-17098609D02*
X31649122Y-17193847D01*
X31649122Y-17193847D02*
X31172932Y-17289085D01*
X32077694Y-16955752D02*
X32077694Y-17622419D01*
X32077694Y-17050990D02*
X32125313Y-17003371D01*
X32125313Y-17003371D02*
X32220551Y-16955752D01*
X32220551Y-16955752D02*
X32363408Y-16955752D01*
X32363408Y-16955752D02*
X32458646Y-17003371D01*
X32458646Y-17003371D02*
X32506265Y-17098609D01*
X32506265Y-17098609D02*
X32506265Y-17622419D01*
X33744361Y-16955752D02*
X34506266Y-17241466D01*
X34506266Y-17241466D02*
X33744361Y-17527180D01*
X34839599Y-17241466D02*
X34887218Y-17193847D01*
X34887218Y-17193847D02*
X34982456Y-17146228D01*
X34982456Y-17146228D02*
X35172932Y-17241466D01*
X35172932Y-17241466D02*
X35268170Y-17193847D01*
X35268170Y-17193847D02*
X35315789Y-17146228D01*
X36458647Y-16955752D02*
X35696742Y-17241466D01*
X35696742Y-17241466D02*
X36458647Y-17527180D01*
D12*
X50598095Y-31754819D02*
X50598095Y-32564342D01*
X50598095Y-32564342D02*
X50645714Y-32659580D01*
X50645714Y-32659580D02*
X50693333Y-32707200D01*
X50693333Y-32707200D02*
X50788571Y-32754819D01*
X50788571Y-32754819D02*
X50979047Y-32754819D01*
X50979047Y-32754819D02*
X51074285Y-32707200D01*
X51074285Y-32707200D02*
X51121904Y-32659580D01*
X51121904Y-32659580D02*
X51169523Y-32564342D01*
X51169523Y-32564342D02*
X51169523Y-31754819D01*
X51550476Y-31754819D02*
X52169523Y-31754819D01*
X52169523Y-31754819D02*
X51836190Y-32135771D01*
X51836190Y-32135771D02*
X51979047Y-32135771D01*
X51979047Y-32135771D02*
X52074285Y-32183390D01*
X52074285Y-32183390D02*
X52121904Y-32231009D01*
X52121904Y-32231009D02*
X52169523Y-32326247D01*
X52169523Y-32326247D02*
X52169523Y-32564342D01*
X52169523Y-32564342D02*
X52121904Y-32659580D01*
X52121904Y-32659580D02*
X52074285Y-32707200D01*
X52074285Y-32707200D02*
X51979047Y-32754819D01*
X51979047Y-32754819D02*
X51693333Y-32754819D01*
X51693333Y-32754819D02*
X51598095Y-32707200D01*
X51598095Y-32707200D02*
X51550476Y-32659580D01*
X12269160Y-7669104D02*
X12745350Y-7669104D01*
X12173922Y-7954819D02*
X12507255Y-6954819D01*
X12507255Y-6954819D02*
X12840588Y-7954819D01*
X13697731Y-7954819D02*
X13126303Y-7954819D01*
X13412017Y-7954819D02*
X13412017Y-6954819D01*
X13412017Y-6954819D02*
X13316779Y-7097676D01*
X13316779Y-7097676D02*
X13221541Y-7192914D01*
X13221541Y-7192914D02*
X13126303Y-7240533D01*
X12498095Y-31754819D02*
X12498095Y-32564342D01*
X12498095Y-32564342D02*
X12545714Y-32659580D01*
X12545714Y-32659580D02*
X12593333Y-32707200D01*
X12593333Y-32707200D02*
X12688571Y-32754819D01*
X12688571Y-32754819D02*
X12879047Y-32754819D01*
X12879047Y-32754819D02*
X12974285Y-32707200D01*
X12974285Y-32707200D02*
X13021904Y-32659580D01*
X13021904Y-32659580D02*
X13069523Y-32564342D01*
X13069523Y-32564342D02*
X13069523Y-31754819D01*
X14069523Y-32754819D02*
X13498095Y-32754819D01*
X13783809Y-32754819D02*
X13783809Y-31754819D01*
X13783809Y-31754819D02*
X13688571Y-31897676D01*
X13688571Y-31897676D02*
X13593333Y-31992914D01*
X13593333Y-31992914D02*
X13498095Y-32040533D01*
X31548095Y-31754819D02*
X31548095Y-32564342D01*
X31548095Y-32564342D02*
X31595714Y-32659580D01*
X31595714Y-32659580D02*
X31643333Y-32707200D01*
X31643333Y-32707200D02*
X31738571Y-32754819D01*
X31738571Y-32754819D02*
X31929047Y-32754819D01*
X31929047Y-32754819D02*
X32024285Y-32707200D01*
X32024285Y-32707200D02*
X32071904Y-32659580D01*
X32071904Y-32659580D02*
X32119523Y-32564342D01*
X32119523Y-32564342D02*
X32119523Y-31754819D01*
X32548095Y-31850057D02*
X32595714Y-31802438D01*
X32595714Y-31802438D02*
X32690952Y-31754819D01*
X32690952Y-31754819D02*
X32929047Y-31754819D01*
X32929047Y-31754819D02*
X33024285Y-31802438D01*
X33024285Y-31802438D02*
X33071904Y-31850057D01*
X33071904Y-31850057D02*
X33119523Y-31945295D01*
X33119523Y-31945295D02*
X33119523Y-32040533D01*
X33119523Y-32040533D02*
X33071904Y-32183390D01*
X33071904Y-32183390D02*
X32500476Y-32754819D01*
X32500476Y-32754819D02*
X33119523Y-32754819D01*
X39486666Y-1454819D02*
X39486666Y-2169104D01*
X39486666Y-2169104D02*
X39439047Y-2311961D01*
X39439047Y-2311961D02*
X39343809Y-2407200D01*
X39343809Y-2407200D02*
X39200952Y-2454819D01*
X39200952Y-2454819D02*
X39105714Y-2454819D01*
X40486666Y-2454819D02*
X39915238Y-2454819D01*
X40200952Y-2454819D02*
X40200952Y-1454819D01*
X40200952Y-1454819D02*
X40105714Y-1597676D01*
X40105714Y-1597676D02*
X40010476Y-1692914D01*
X40010476Y-1692914D02*
X39915238Y-1740533D01*
D13*
%TO.C,G\u002A\u002A\u002A*%
G36*
X6163800Y-9200581D02*
G01*
X6244472Y-9214849D01*
X6317356Y-9240313D01*
X6370924Y-9271049D01*
X6393650Y-9301132D01*
X6388188Y-9315916D01*
X6362844Y-9310831D01*
X6328577Y-9285804D01*
X6242168Y-9239056D01*
X6133116Y-9225727D01*
X6014387Y-9244067D01*
X5898949Y-9292329D01*
X5813377Y-9355308D01*
X5756881Y-9416327D01*
X5730951Y-9472969D01*
X5724729Y-9548826D01*
X5743814Y-9656230D01*
X5803341Y-9742174D01*
X5906717Y-9810735D01*
X5964124Y-9835363D01*
X6026398Y-9856679D01*
X6081996Y-9866815D01*
X6146850Y-9866313D01*
X6236893Y-9855714D01*
X6297103Y-9846680D01*
X6574033Y-9812977D01*
X6855153Y-9795457D01*
X7120541Y-9795044D01*
X7251231Y-9802336D01*
X7404412Y-9810170D01*
X7529206Y-9805044D01*
X7645801Y-9786060D01*
X7652762Y-9784509D01*
X7756039Y-9765570D01*
X7885665Y-9747926D01*
X8017973Y-9734675D01*
X8053157Y-9732116D01*
X8179100Y-9726385D01*
X8280990Y-9729622D01*
X8381218Y-9744021D01*
X8502176Y-9771777D01*
X8529713Y-9778837D01*
X8778324Y-9857573D01*
X8980164Y-9953457D01*
X9135836Y-10067491D01*
X9245941Y-10200673D01*
X9311082Y-10354005D01*
X9331861Y-10528487D01*
X9308881Y-10725120D01*
X9242743Y-10944904D01*
X9238394Y-10956310D01*
X9216490Y-11022253D01*
X9216271Y-11064418D01*
X9237894Y-11104208D01*
X9239507Y-11106457D01*
X9527902Y-11546657D01*
X9769844Y-12003687D01*
X9967133Y-12481098D01*
X10028392Y-12661182D01*
X10069529Y-12774530D01*
X10122853Y-12892685D01*
X10193273Y-13025061D01*
X10285697Y-13181071D01*
X10367670Y-13311822D01*
X10459614Y-13462317D01*
X10554702Y-13629005D01*
X10649206Y-13804251D01*
X10739397Y-13980421D01*
X10821547Y-14149880D01*
X10891928Y-14304994D01*
X10946811Y-14438127D01*
X10982467Y-14541647D01*
X10994310Y-14594925D01*
X10998968Y-14636505D01*
X10999192Y-14656685D01*
X10992381Y-14650448D01*
X10975935Y-14612779D01*
X10947252Y-14538665D01*
X10903730Y-14423089D01*
X10899907Y-14412906D01*
X10852794Y-14297394D01*
X10791137Y-14161058D01*
X10718594Y-14010620D01*
X10638826Y-13852801D01*
X10555490Y-13694321D01*
X10472244Y-13541902D01*
X10392749Y-13402265D01*
X10320661Y-13282130D01*
X10259640Y-13188220D01*
X10213345Y-13127254D01*
X10188753Y-13106497D01*
X10182600Y-13125584D01*
X10188122Y-13187387D01*
X10204000Y-13286287D01*
X10228915Y-13416668D01*
X10261549Y-13572913D01*
X10300584Y-13749402D01*
X10344699Y-13940519D01*
X10392578Y-14140647D01*
X10442900Y-14344167D01*
X10494347Y-14545463D01*
X10545602Y-14738916D01*
X10595343Y-14918910D01*
X10642254Y-15079825D01*
X10681322Y-15204792D01*
X10757523Y-15442298D01*
X10822967Y-15654833D01*
X10876285Y-15837607D01*
X10916106Y-15985828D01*
X10941063Y-16094702D01*
X10948387Y-16139606D01*
X10961058Y-16209213D01*
X10978034Y-16257221D01*
X10982464Y-16263477D01*
X10995227Y-16300665D01*
X11002758Y-16368988D01*
X11003698Y-16413625D01*
X11001659Y-16450358D01*
X10995572Y-16460047D01*
X10984056Y-16438755D01*
X10965733Y-16382543D01*
X10939222Y-16287473D01*
X10903143Y-16149607D01*
X10881375Y-16064532D01*
X10810212Y-15790465D01*
X10748442Y-15564136D01*
X10695659Y-15384201D01*
X10651457Y-15249317D01*
X10615429Y-15158140D01*
X10596370Y-15121940D01*
X10581649Y-15083365D01*
X10557945Y-15002493D01*
X10526946Y-14885925D01*
X10490338Y-14740263D01*
X10449808Y-14572108D01*
X10407043Y-14388061D01*
X10392808Y-14325320D01*
X10309863Y-13960966D01*
X10235067Y-13640762D01*
X10166917Y-13359751D01*
X10103909Y-13112971D01*
X10044540Y-12895465D01*
X9987306Y-12702274D01*
X9930705Y-12528438D01*
X9873233Y-12368998D01*
X9813387Y-12218995D01*
X9749663Y-12073470D01*
X9680559Y-11927464D01*
X9642877Y-11851452D01*
X9585838Y-11743159D01*
X9519150Y-11624856D01*
X9447811Y-11504459D01*
X9376816Y-11389885D01*
X9311162Y-11289050D01*
X9255846Y-11209871D01*
X9215864Y-11160265D01*
X9198378Y-11147192D01*
X9175562Y-11168163D01*
X9146454Y-11220503D01*
X9137591Y-11241034D01*
X9083507Y-11367414D01*
X9026577Y-11488224D01*
X8971351Y-11595028D01*
X8922382Y-11679391D01*
X8884221Y-11732878D01*
X8864126Y-11747783D01*
X8843172Y-11747271D01*
X8833255Y-11740146D01*
X8836709Y-11718025D01*
X8855869Y-11672525D01*
X8893069Y-11595262D01*
X8924325Y-11531586D01*
X8992850Y-11388330D01*
X9057246Y-11247035D01*
X9113989Y-11116108D01*
X9159550Y-11003955D01*
X9190406Y-10918985D01*
X9203028Y-10869603D01*
X9203152Y-10866796D01*
X9188988Y-10862954D01*
X9163828Y-10882646D01*
X9113458Y-10914810D01*
X9081810Y-10921970D01*
X9027891Y-10906444D01*
X8962164Y-10869190D01*
X8907885Y-10824194D01*
X8896984Y-10810810D01*
X8880684Y-10799822D01*
X8878215Y-10813828D01*
X8861673Y-10854554D01*
X8841383Y-10879770D01*
X8818788Y-10916485D01*
X8824629Y-10966343D01*
X8833600Y-10992162D01*
X8844721Y-11068863D01*
X8817730Y-11123632D01*
X8757780Y-11146954D01*
X8749645Y-11147192D01*
X8709681Y-11166553D01*
X8702660Y-11193362D01*
X8683231Y-11247145D01*
X8637894Y-11296806D01*
X8586071Y-11321958D01*
X8579781Y-11322364D01*
X8569131Y-11340326D01*
X8592838Y-11393676D01*
X8603057Y-11410753D01*
X8717800Y-11628358D01*
X8821177Y-11888917D01*
X8911785Y-12186338D01*
X8988223Y-12514525D01*
X9049087Y-12867388D01*
X9092976Y-13238831D01*
X9118488Y-13622761D01*
X9119769Y-13655911D01*
X9125937Y-13815281D01*
X9131721Y-13931389D01*
X9138069Y-14011004D01*
X9145931Y-14060895D01*
X9156256Y-14087830D01*
X9169994Y-14098579D01*
X9182065Y-14100098D01*
X9222108Y-14111941D01*
X9221335Y-14137555D01*
X9181124Y-14161709D01*
X9161284Y-14172750D01*
X9147295Y-14196716D01*
X9137686Y-14242012D01*
X9130989Y-14317044D01*
X9125733Y-14430217D01*
X9123621Y-14490546D01*
X9113171Y-14804449D01*
X9277029Y-14972304D01*
X9404268Y-15126934D01*
X9522606Y-15315906D01*
X9624200Y-15523526D01*
X9701211Y-15734098D01*
X9741079Y-15901260D01*
X9751226Y-15940124D01*
X9771509Y-15981893D01*
X9806633Y-16032368D01*
X9861304Y-16097350D01*
X9940226Y-16182639D01*
X10048104Y-16294038D01*
X10113643Y-16360603D01*
X10229270Y-16475650D01*
X10340311Y-16582490D01*
X10439393Y-16674304D01*
X10519143Y-16744272D01*
X10572187Y-16785574D01*
X10575217Y-16787538D01*
X10680982Y-16854304D01*
X10764787Y-16790383D01*
X10819596Y-16751267D01*
X10856724Y-16740330D01*
X10897934Y-16754948D01*
X10926601Y-16770866D01*
X10977673Y-16806158D01*
X11002918Y-16835065D01*
X10998034Y-16848953D01*
X10961133Y-16840193D01*
X10914530Y-16823196D01*
X10882694Y-16822036D01*
X10862368Y-16843664D01*
X10850294Y-16895033D01*
X10843215Y-16983095D01*
X10838320Y-17102323D01*
X10830107Y-17256553D01*
X10816717Y-17429642D01*
X10800431Y-17593951D01*
X10792031Y-17663297D01*
X10773140Y-17793332D01*
X10754764Y-17884012D01*
X10733947Y-17945910D01*
X10707730Y-17989600D01*
X10697357Y-18001861D01*
X10654735Y-18052470D01*
X10608287Y-18116206D01*
X10551537Y-18202580D01*
X10478012Y-18321107D01*
X10460385Y-18350067D01*
X10447769Y-18376531D01*
X10453464Y-18396709D01*
X10485470Y-18416161D01*
X10551784Y-18440445D01*
X10623644Y-18463532D01*
X10729412Y-18495446D01*
X10829374Y-18523068D01*
X10904088Y-18541064D01*
X10911682Y-18542560D01*
X10977601Y-18564026D01*
X11004739Y-18593723D01*
X11004926Y-18596491D01*
X10991123Y-18620816D01*
X10948620Y-18614982D01*
X10866851Y-18590681D01*
X10762760Y-18562191D01*
X10649674Y-18532862D01*
X10540922Y-18506041D01*
X10449831Y-18485077D01*
X10389729Y-18473319D01*
X10379988Y-18472109D01*
X10346447Y-18465617D01*
X10326939Y-18445485D01*
X10316599Y-18400066D01*
X10310563Y-18317714D01*
X10309868Y-18304236D01*
X10302806Y-18207472D01*
X10292847Y-18121606D01*
X10284165Y-18074249D01*
X10278225Y-18051352D01*
X10354619Y-18051352D01*
X10359955Y-18102488D01*
X10362780Y-18119924D01*
X10373378Y-18194582D01*
X10378847Y-18253541D01*
X10379035Y-18260443D01*
X10389296Y-18299134D01*
X10419016Y-18292046D01*
X10467762Y-18239325D01*
X10476867Y-18227248D01*
X10512238Y-18175866D01*
X10518579Y-18146588D01*
X10497579Y-18122001D01*
X10487829Y-18114214D01*
X10428005Y-18071715D01*
X10394336Y-18050684D01*
X10364596Y-18037339D01*
X10354619Y-18051352D01*
X10278225Y-18051352D01*
X10266699Y-18006923D01*
X10079014Y-18088507D01*
X9891330Y-18170092D01*
X9897322Y-18587509D01*
X9898862Y-18746086D01*
X9897970Y-18860775D01*
X9894245Y-18937696D01*
X9887282Y-18982969D01*
X9876678Y-19002714D01*
X9869811Y-19004926D01*
X9856101Y-18993671D01*
X9845227Y-18956027D01*
X9836478Y-18886173D01*
X9829140Y-18778292D01*
X9822502Y-18626563D01*
X9822073Y-18614921D01*
X9816521Y-18480564D01*
X9810506Y-18364772D01*
X9804582Y-18276349D01*
X9799305Y-18224099D01*
X9796786Y-18213863D01*
X9769987Y-18216959D01*
X9707832Y-18234666D01*
X9621664Y-18263598D01*
X9581423Y-18278142D01*
X9398595Y-18341583D01*
X9248151Y-18383638D01*
X9118274Y-18406400D01*
X8997149Y-18411962D01*
X8877123Y-18402940D01*
X8734328Y-18383513D01*
X8635110Y-18363655D01*
X8573144Y-18339148D01*
X8542100Y-18305774D01*
X8535650Y-18259316D01*
X8547468Y-18195555D01*
X8550214Y-18185031D01*
X8560802Y-18153071D01*
X8578764Y-18132239D01*
X8614230Y-18119208D01*
X8677327Y-18110656D01*
X8778186Y-18103257D01*
X8804462Y-18101580D01*
X8954471Y-18086704D01*
X9081449Y-18063612D01*
X9177683Y-18034362D01*
X9235463Y-18001011D01*
X9247548Y-17983365D01*
X9238494Y-17966107D01*
X9189466Y-17969626D01*
X9173882Y-17972883D01*
X9075594Y-17985698D01*
X8950049Y-17989006D01*
X8809207Y-17983954D01*
X8665031Y-17971693D01*
X8529482Y-17953370D01*
X8414520Y-17930134D01*
X8332108Y-17903133D01*
X8308446Y-17889783D01*
X8277901Y-17846715D01*
X8267089Y-17770585D01*
X8267128Y-17743188D01*
X8264970Y-17675349D01*
X8256758Y-17634232D01*
X8251200Y-17628571D01*
X8235148Y-17606857D01*
X8222008Y-17554534D01*
X8221862Y-17553555D01*
X8229284Y-17469126D01*
X8277960Y-17410869D01*
X8364962Y-17381448D01*
X8414620Y-17378325D01*
X8610948Y-17359550D01*
X8828259Y-17304870D01*
X8959081Y-17257851D01*
X9061493Y-17211582D01*
X9116086Y-17176060D01*
X9124545Y-17154682D01*
X9088558Y-17150845D01*
X9009810Y-17167946D01*
X8927881Y-17195019D01*
X8845343Y-17215500D01*
X8738453Y-17228534D01*
X8619284Y-17234302D01*
X8499914Y-17232982D01*
X8392416Y-17224755D01*
X8308866Y-17209799D01*
X8261339Y-17188294D01*
X8258473Y-17185075D01*
X8224771Y-17110898D01*
X8230294Y-17083717D01*
X8288966Y-17083717D01*
X8293668Y-17116745D01*
X8331108Y-17149284D01*
X8407335Y-17169943D01*
X8512533Y-17178779D01*
X8636885Y-17175850D01*
X8770574Y-17161212D01*
X8903782Y-17134924D01*
X8982091Y-17112714D01*
X9094058Y-17079635D01*
X9167029Y-17068244D01*
X9207953Y-17080388D01*
X9223780Y-17117912D01*
X9222147Y-17176462D01*
X9193883Y-17223303D01*
X9124409Y-17271738D01*
X9022339Y-17318595D01*
X8896285Y-17360704D01*
X8754859Y-17394892D01*
X8606675Y-17417989D01*
X8552512Y-17423040D01*
X8314778Y-17440886D01*
X8314778Y-17528473D01*
X8314778Y-17616059D01*
X8553889Y-17636616D01*
X8675159Y-17645261D01*
X8767511Y-17645439D01*
X8851639Y-17635302D01*
X8948235Y-17613002D01*
X9010948Y-17595793D01*
X9116919Y-17568893D01*
X9195818Y-17554806D01*
X9238856Y-17554954D01*
X9243554Y-17558132D01*
X9251115Y-17577265D01*
X9241144Y-17593344D01*
X9205543Y-17610540D01*
X9136218Y-17633029D01*
X9049876Y-17657963D01*
X8952876Y-17682609D01*
X8864979Y-17696614D01*
X8768591Y-17701455D01*
X8646120Y-17698607D01*
X8594843Y-17696119D01*
X8324367Y-17681945D01*
X8332085Y-17761613D01*
X8344607Y-17816319D01*
X8378403Y-17849442D01*
X8438201Y-17873408D01*
X8535259Y-17895786D01*
X8660944Y-17911788D01*
X8800459Y-17920933D01*
X8939009Y-17922741D01*
X9061797Y-17916732D01*
X9154027Y-17902424D01*
X9171378Y-17897215D01*
X9246417Y-17876114D01*
X9288356Y-17879163D01*
X9299143Y-17888171D01*
X9325754Y-17941553D01*
X9338267Y-18002522D01*
X9331464Y-18045396D01*
X9287680Y-18073612D01*
X9203309Y-18100022D01*
X9087814Y-18122642D01*
X8950657Y-18139492D01*
X8847503Y-18146758D01*
X8734088Y-18153395D01*
X8660983Y-18161397D01*
X8618455Y-18173102D01*
X8596774Y-18190848D01*
X8588515Y-18208972D01*
X8586604Y-18262274D01*
X8623673Y-18299768D01*
X8704402Y-18325384D01*
X8733443Y-18330636D01*
X8935754Y-18351007D01*
X9125298Y-18340757D01*
X9323730Y-18298229D01*
X9381503Y-18281040D01*
X9495183Y-18243331D01*
X9637953Y-18192706D01*
X9792667Y-18135406D01*
X9942176Y-18077672D01*
X9962107Y-18069754D01*
X10308154Y-17931712D01*
X10412550Y-17985473D01*
X10476210Y-18021327D01*
X10517771Y-18050506D01*
X10525287Y-18059124D01*
X10553221Y-18079775D01*
X10597079Y-18059255D01*
X10650316Y-18001115D01*
X10661589Y-17985172D01*
X10688693Y-17939298D01*
X10709826Y-17885732D01*
X10727292Y-17814541D01*
X10743391Y-17715791D01*
X10760427Y-17579549D01*
X10765091Y-17538563D01*
X10783782Y-17370925D01*
X10796300Y-17245338D01*
X10801774Y-17154085D01*
X10799334Y-17089448D01*
X10788109Y-17043709D01*
X10767229Y-17009153D01*
X10735823Y-16978062D01*
X10698374Y-16947102D01*
X10623526Y-16890344D01*
X10754679Y-16890344D01*
X10768192Y-16923646D01*
X10779704Y-16927881D01*
X10801905Y-16907613D01*
X10804729Y-16890344D01*
X10791216Y-16857042D01*
X10779704Y-16852807D01*
X10757503Y-16873076D01*
X10754679Y-16890344D01*
X10623526Y-16890344D01*
X10621143Y-16888537D01*
X10544641Y-16837576D01*
X10512976Y-16819504D01*
X10458745Y-16781921D01*
X10385540Y-16718594D01*
X10307124Y-16641638D01*
X10288486Y-16621870D01*
X10188231Y-16515150D01*
X10087779Y-16410783D01*
X9993151Y-16314741D01*
X9910368Y-16232996D01*
X9845452Y-16171521D01*
X9804426Y-16136288D01*
X9793064Y-16130516D01*
X9791930Y-16157985D01*
X9796524Y-16221592D01*
X9805855Y-16307879D01*
X9806456Y-16312766D01*
X9816471Y-16416165D01*
X9811237Y-16485407D01*
X9784364Y-16535593D01*
X9729460Y-16581824D01*
X9678487Y-16615157D01*
X9566007Y-16675334D01*
X9415805Y-16740038D01*
X9239518Y-16805484D01*
X9048778Y-16867889D01*
X8855219Y-16923467D01*
X8670476Y-16968435D01*
X8506182Y-16999008D01*
X8492366Y-17000984D01*
X8380719Y-17021849D01*
X8314445Y-17048538D01*
X8288966Y-17083717D01*
X8230294Y-17083717D01*
X8238218Y-17044720D01*
X8296175Y-16989403D01*
X8396005Y-16947807D01*
X8495927Y-16927453D01*
X8616785Y-16908034D01*
X8739550Y-16883920D01*
X8852519Y-16857892D01*
X8943988Y-16832734D01*
X9002257Y-16811226D01*
X9013476Y-16804411D01*
X9053168Y-16784373D01*
X9123415Y-16759257D01*
X9179562Y-16742668D01*
X9274163Y-16716487D01*
X9363718Y-16690866D01*
X9401189Y-16679740D01*
X9469541Y-16652721D01*
X9550815Y-16611813D01*
X9632442Y-16564586D01*
X9701856Y-16518612D01*
X9746485Y-16481460D01*
X9756230Y-16465894D01*
X9755742Y-16330400D01*
X9733472Y-16162615D01*
X9692022Y-15973954D01*
X9633994Y-15775834D01*
X9561989Y-15579671D01*
X9545002Y-15539014D01*
X9461080Y-15354852D01*
X9381994Y-15211093D01*
X9301040Y-15099441D01*
X9211517Y-15011597D01*
X9106720Y-14939265D01*
X9025269Y-14895666D01*
X8939603Y-14855375D01*
X8865958Y-14827225D01*
X8789964Y-14807827D01*
X8697249Y-14793788D01*
X8573443Y-14781717D01*
X8525720Y-14777781D01*
X8388951Y-14768875D01*
X8254230Y-14763767D01*
X8138134Y-14762884D01*
X8064532Y-14765940D01*
X7950416Y-14783523D01*
X7802178Y-14817516D01*
X7631613Y-14864414D01*
X7450517Y-14920714D01*
X7270683Y-14982910D01*
X7103907Y-15047499D01*
X7072477Y-15060685D01*
X6901716Y-15146535D01*
X6731292Y-15255778D01*
X6571098Y-15380172D01*
X6431030Y-15511476D01*
X6320980Y-15641449D01*
X6263295Y-15734691D01*
X6198522Y-15864335D01*
X6368276Y-15891014D01*
X6630200Y-15951026D01*
X6916324Y-16052071D01*
X7223879Y-16193017D01*
X7550097Y-16372736D01*
X7555196Y-16375767D01*
X7702828Y-16464835D01*
X7809392Y-16532133D01*
X7877794Y-16579789D01*
X7910940Y-16609930D01*
X7911738Y-16624684D01*
X7898488Y-16627029D01*
X7862224Y-16614707D01*
X7793470Y-16580723D01*
X7701993Y-16530234D01*
X7597560Y-16468397D01*
X7594560Y-16466562D01*
X7273063Y-16281712D01*
X6978877Y-16137682D01*
X6710975Y-16034039D01*
X6468330Y-15970350D01*
X6387244Y-15957156D01*
X6291836Y-15948093D01*
X6223075Y-15954736D01*
X6176256Y-15983502D01*
X6146677Y-16040809D01*
X6129633Y-16133072D01*
X6120420Y-16266709D01*
X6118184Y-16324199D01*
X6112610Y-16483768D01*
X6212709Y-16520097D01*
X6270266Y-16539305D01*
X6365421Y-16569191D01*
X6487688Y-16606540D01*
X6626582Y-16648137D01*
X6725714Y-16677367D01*
X6969613Y-16750660D01*
X7173413Y-16816263D01*
X7345888Y-16877270D01*
X7495812Y-16936775D01*
X7623811Y-16994006D01*
X7707035Y-17028584D01*
X7771770Y-17038369D01*
X7831145Y-17019780D01*
X7898292Y-16969234D01*
X7970273Y-16899493D01*
X8043824Y-16836259D01*
X8097771Y-16816165D01*
X8109778Y-16818060D01*
X8176682Y-16821284D01*
X8282126Y-16800913D01*
X8427418Y-16756567D01*
X8613867Y-16687863D01*
X8765221Y-16626874D01*
X8891452Y-16575444D01*
X9004405Y-16530927D01*
X9094583Y-16496953D01*
X9152489Y-16477155D01*
X9165615Y-16473816D01*
X9211798Y-16475206D01*
X9219582Y-16493659D01*
X9192201Y-16518456D01*
X9146964Y-16535702D01*
X9070228Y-16560212D01*
X9043112Y-16580733D01*
X9065231Y-16595381D01*
X9136202Y-16602271D01*
X9160610Y-16602561D01*
X9246075Y-16605918D01*
X9290677Y-16617489D01*
X9303251Y-16638919D01*
X9295695Y-16655707D01*
X9268349Y-16664700D01*
X9214196Y-16665941D01*
X9126218Y-16659475D01*
X8997396Y-16645344D01*
X8961427Y-16641036D01*
X8874628Y-16648731D01*
X8789718Y-16681121D01*
X8668222Y-16737913D01*
X8526264Y-16791620D01*
X8382762Y-16835997D01*
X8256636Y-16864802D01*
X8215785Y-16870515D01*
X8117414Y-16889013D01*
X8042832Y-16927330D01*
X7999318Y-16964022D01*
X7930946Y-17024056D01*
X7864126Y-17076185D01*
X7847577Y-17087577D01*
X7805995Y-17111552D01*
X7769598Y-17117403D01*
X7720528Y-17104205D01*
X7656355Y-17077678D01*
X7531940Y-17024156D01*
X7410354Y-17109839D01*
X7317821Y-17172074D01*
X7254100Y-17205174D01*
X7209320Y-17211761D01*
X7173613Y-17194459D01*
X7155903Y-17177483D01*
X7124457Y-17148507D01*
X7092855Y-17141463D01*
X7042662Y-17155388D01*
X7005576Y-17169621D01*
X6942540Y-17199938D01*
X6905135Y-17228657D01*
X6900703Y-17238229D01*
X6904130Y-17271132D01*
X6913729Y-17344688D01*
X6928286Y-17450048D01*
X6946583Y-17578364D01*
X6961190Y-17678620D01*
X6992393Y-17903839D01*
X7019093Y-18122177D01*
X7040923Y-18328240D01*
X7057519Y-18516631D01*
X7068514Y-18681956D01*
X7073544Y-18818818D01*
X7072242Y-18921822D01*
X7064244Y-18985572D01*
X7051034Y-19004926D01*
X7029783Y-18984268D01*
X7025949Y-18961133D01*
X7021135Y-18808877D01*
X7007701Y-18616516D01*
X6986615Y-18393065D01*
X6958849Y-18147540D01*
X6925372Y-17888957D01*
X6887155Y-17626332D01*
X6871772Y-17528473D01*
X6848592Y-17385347D01*
X6831087Y-17283036D01*
X6817142Y-17212917D01*
X6804643Y-17166363D01*
X6791476Y-17134753D01*
X6775528Y-17109460D01*
X6765905Y-17096558D01*
X6736493Y-17068179D01*
X6701298Y-17070470D01*
X6664869Y-17087539D01*
X6584498Y-17112054D01*
X6519185Y-17091531D01*
X6464553Y-17023948D01*
X6446130Y-16986521D01*
X6414069Y-16921488D01*
X6388435Y-16895024D01*
X6359297Y-16898398D01*
X6350728Y-16902652D01*
X6290964Y-16921290D01*
X6227509Y-16927881D01*
X6171793Y-16919142D01*
X6129851Y-16889224D01*
X6099915Y-16832575D01*
X6080219Y-16743644D01*
X6072269Y-16653834D01*
X6126326Y-16653834D01*
X6141255Y-16733977D01*
X6162606Y-16793977D01*
X6182483Y-16839615D01*
X6202695Y-16864623D01*
X6235186Y-16871249D01*
X6291900Y-16861742D01*
X6384783Y-16838350D01*
X6390529Y-16836872D01*
X6427922Y-16836733D01*
X6456849Y-16866340D01*
X6483317Y-16923525D01*
X6519854Y-17001779D01*
X6556879Y-17038675D01*
X6607134Y-17041381D01*
X6663037Y-17024614D01*
X6723296Y-17007077D01*
X6764796Y-17014474D01*
X6812069Y-17052404D01*
X6820664Y-17060584D01*
X6897075Y-17114585D01*
X6972641Y-17122182D01*
X7051034Y-17090541D01*
X7119959Y-17058975D01*
X7161186Y-17062714D01*
X7183281Y-17102569D01*
X7183408Y-17103054D01*
X7205899Y-17143220D01*
X7246037Y-17146220D01*
X7308654Y-17111095D01*
X7363842Y-17067244D01*
X7463940Y-16982129D01*
X7343076Y-16930014D01*
X7285347Y-16908299D01*
X7192227Y-16876928D01*
X7072194Y-16838435D01*
X6933727Y-16795349D01*
X6785303Y-16750204D01*
X6635398Y-16705530D01*
X6492492Y-16663860D01*
X6365062Y-16627724D01*
X6261584Y-16599654D01*
X6190537Y-16582182D01*
X6162730Y-16577537D01*
X6133486Y-16598303D01*
X6126326Y-16653834D01*
X6072269Y-16653834D01*
X6068997Y-16616878D01*
X6064481Y-16446726D01*
X6064261Y-16414876D01*
X6069629Y-16193337D01*
X6089805Y-16010834D01*
X6127341Y-15857880D01*
X6184789Y-15724985D01*
X6264703Y-15602663D01*
X6291980Y-15568375D01*
X6331658Y-15504016D01*
X6350167Y-15441942D01*
X6350344Y-15436996D01*
X6341207Y-15398970D01*
X6308620Y-15379232D01*
X6244821Y-15376299D01*
X6142046Y-15388682D01*
X6118068Y-15392546D01*
X6058456Y-15404393D01*
X6040583Y-15418674D01*
X6056617Y-15444697D01*
X6065642Y-15454832D01*
X6093258Y-15489213D01*
X6083833Y-15500488D01*
X6057806Y-15501477D01*
X6002594Y-15483759D01*
X5965504Y-15454789D01*
X5948816Y-15440379D01*
X5923840Y-15428958D01*
X5884543Y-15419985D01*
X5824893Y-15412917D01*
X5738856Y-15407214D01*
X5620400Y-15402336D01*
X5463491Y-15397740D01*
X5279704Y-15393291D01*
X5101541Y-15388624D01*
X4936868Y-15383238D01*
X4793264Y-15377467D01*
X4678310Y-15371644D01*
X4660230Y-15370371D01*
X6411247Y-15370371D01*
X6435845Y-15374379D01*
X6468303Y-15369778D01*
X6468690Y-15361235D01*
X6435197Y-15355261D01*
X6420726Y-15359260D01*
X6411247Y-15370371D01*
X4660230Y-15370371D01*
X4599585Y-15366101D01*
X4567340Y-15361989D01*
X4498522Y-15345495D01*
X4498522Y-15821222D01*
X4498522Y-16296950D01*
X4692463Y-16234427D01*
X4908602Y-16171313D01*
X5133745Y-16116909D01*
X5299310Y-16084778D01*
X5366847Y-16068561D01*
X5413924Y-16048741D01*
X5416432Y-16046931D01*
X5449449Y-16045387D01*
X5478521Y-16081684D01*
X5495096Y-16112417D01*
X5506953Y-16141960D01*
X5515860Y-16180542D01*
X5523585Y-16238391D01*
X5531895Y-16325735D01*
X5542471Y-16451752D01*
X5553082Y-16564585D01*
X5564320Y-16637728D01*
X5579047Y-16681490D01*
X5600127Y-16706182D01*
X5615705Y-16715487D01*
X5695143Y-16763174D01*
X5735395Y-16814403D01*
X5746062Y-16883887D01*
X5744736Y-16913205D01*
X5735853Y-16979542D01*
X5715204Y-17011049D01*
X5672258Y-17022928D01*
X5668423Y-17023386D01*
X5616656Y-17039567D01*
X5599954Y-17080264D01*
X5599606Y-17091843D01*
X5608343Y-17129792D01*
X5640743Y-17164855D01*
X5706090Y-17205393D01*
X5752500Y-17229564D01*
X5905395Y-17306744D01*
X5890760Y-17523842D01*
X5878943Y-17646905D01*
X5859672Y-17728194D01*
X5827558Y-17775940D01*
X5777207Y-17798376D01*
X5707433Y-17803743D01*
X5644479Y-17815769D01*
X5624090Y-17844851D01*
X5647048Y-17880497D01*
X5699704Y-17907592D01*
X5749301Y-17931425D01*
X5770502Y-17968382D01*
X5774778Y-18031413D01*
X5771415Y-18094691D01*
X5754565Y-18122418D01*
X5714085Y-18128984D01*
X5705960Y-18129034D01*
X5637142Y-18129003D01*
X5645160Y-18566965D01*
X5647614Y-18726101D01*
X5647955Y-18841874D01*
X5645710Y-18920943D01*
X5640400Y-18969967D01*
X5631553Y-18995606D01*
X5618690Y-19004518D01*
X5613880Y-19004926D01*
X5599382Y-18999389D01*
X5588892Y-18978303D01*
X5581789Y-18934949D01*
X5577452Y-18862611D01*
X5575259Y-18754573D01*
X5574589Y-18604116D01*
X5574581Y-18580150D01*
X5574581Y-18155374D01*
X5499507Y-18116551D01*
X5444700Y-18083090D01*
X5422287Y-18046556D01*
X5418194Y-17991662D01*
X5474482Y-17991662D01*
X5497342Y-18035884D01*
X5558452Y-18066668D01*
X5643399Y-18078253D01*
X5699957Y-18073181D01*
X5721945Y-18049242D01*
X5724729Y-18018652D01*
X5716705Y-17977698D01*
X5683640Y-17954751D01*
X5625549Y-17941534D01*
X5537245Y-17934492D01*
X5488594Y-17951596D01*
X5474482Y-17991662D01*
X5418194Y-17991662D01*
X5418177Y-17991428D01*
X5420693Y-17912469D01*
X5433031Y-17871333D01*
X5462373Y-17855864D01*
X5499507Y-17853793D01*
X5552219Y-17846544D01*
X5574575Y-17829079D01*
X5574581Y-17828768D01*
X5566146Y-17812893D01*
X5533980Y-17802694D01*
X5467785Y-17795882D01*
X5412451Y-17792714D01*
X5365022Y-17766672D01*
X5326283Y-17698929D01*
X5298675Y-17597444D01*
X5291346Y-17531016D01*
X5350858Y-17531016D01*
X5364884Y-17611585D01*
X5376364Y-17648519D01*
X5401162Y-17699633D01*
X5440253Y-17724878D01*
X5507743Y-17736029D01*
X5604885Y-17742175D01*
X5703030Y-17743803D01*
X5712216Y-17743627D01*
X5777715Y-17737951D01*
X5808500Y-17718970D01*
X5819754Y-17677312D01*
X5819764Y-17677231D01*
X5809660Y-17616758D01*
X5769714Y-17583410D01*
X5709844Y-17556877D01*
X5626610Y-17525405D01*
X5535906Y-17494338D01*
X5453628Y-17469018D01*
X5395669Y-17454788D01*
X5382979Y-17453399D01*
X5357014Y-17474631D01*
X5350858Y-17531016D01*
X5291346Y-17531016D01*
X5284634Y-17470173D01*
X5284056Y-17373712D01*
X5286322Y-17344829D01*
X5350942Y-17344829D01*
X5352820Y-17377028D01*
X5354105Y-17378660D01*
X5379556Y-17386510D01*
X5441168Y-17407247D01*
X5527896Y-17437126D01*
X5574581Y-17453399D01*
X5684880Y-17491671D01*
X5757001Y-17514708D01*
X5800014Y-17523785D01*
X5822986Y-17520179D01*
X5834988Y-17505166D01*
X5840824Y-17490880D01*
X5847632Y-17412141D01*
X5806596Y-17341544D01*
X5719668Y-17282193D01*
X5705456Y-17275624D01*
X5625724Y-17240019D01*
X5557480Y-17209068D01*
X5534522Y-17198428D01*
X5466654Y-17181863D01*
X5421912Y-17182154D01*
X5380458Y-17197186D01*
X5360483Y-17236696D01*
X5354105Y-17284482D01*
X5350942Y-17344829D01*
X5286322Y-17344829D01*
X5294078Y-17245973D01*
X5315740Y-17162066D01*
X5351556Y-17116613D01*
X5404036Y-17104238D01*
X5409769Y-17104571D01*
X5476348Y-17105807D01*
X5507614Y-17091557D01*
X5517468Y-17055429D01*
X5517498Y-17055038D01*
X5499961Y-17011102D01*
X5437217Y-16971691D01*
X5428981Y-16968124D01*
X5325134Y-16916466D01*
X5267175Y-16864815D01*
X5251456Y-16806024D01*
X5255635Y-16792673D01*
X5328733Y-16792673D01*
X5345059Y-16832909D01*
X5363628Y-16853070D01*
X5419344Y-16892217D01*
X5500720Y-16932609D01*
X5584691Y-16964044D01*
X5641922Y-16976167D01*
X5681621Y-16959504D01*
X5688071Y-16951484D01*
X5695848Y-16896122D01*
X5664933Y-16832872D01*
X5603773Y-16770666D01*
X5520817Y-16718433D01*
X5439320Y-16688507D01*
X5388522Y-16685528D01*
X5356208Y-16717276D01*
X5345487Y-16738702D01*
X5328733Y-16792673D01*
X5255635Y-16792673D01*
X5274328Y-16732949D01*
X5292212Y-16700233D01*
X5346771Y-16635229D01*
X5406554Y-16607472D01*
X5452785Y-16617130D01*
X5466431Y-16612655D01*
X5471618Y-16573229D01*
X5468668Y-16493195D01*
X5463527Y-16427909D01*
X5451799Y-16306477D01*
X5440175Y-16226621D01*
X5426045Y-16179940D01*
X5406799Y-16158035D01*
X5379828Y-16152505D01*
X5377963Y-16152510D01*
X5320833Y-16159172D01*
X5228179Y-16176527D01*
X5112632Y-16201633D01*
X4986823Y-16231548D01*
X4863384Y-16263332D01*
X4754947Y-16294042D01*
X4711231Y-16307769D01*
X4536059Y-16365392D01*
X4537434Y-16515258D01*
X4542002Y-16627429D01*
X4552098Y-16745491D01*
X4558948Y-16799392D01*
X4579087Y-16933662D01*
X4476927Y-16923920D01*
X4374768Y-16914177D01*
X4361116Y-17014872D01*
X4338426Y-17192500D01*
X4315593Y-17389739D01*
X4293488Y-17597219D01*
X4272979Y-17805570D01*
X4254938Y-18005420D01*
X4240234Y-18187398D01*
X4229736Y-18342135D01*
X4224315Y-18460260D01*
X4223764Y-18494506D01*
X4220796Y-18643077D01*
X4213263Y-18776091D01*
X4202057Y-18885590D01*
X4188069Y-18963614D01*
X4172188Y-19002202D01*
X4166636Y-19004926D01*
X4156683Y-18980701D01*
X4152633Y-18910554D01*
X4154589Y-18798272D01*
X4158765Y-18710886D01*
X4179589Y-18364590D01*
X4200793Y-18059840D01*
X4223077Y-17788137D01*
X4247142Y-17540979D01*
X4273689Y-17309865D01*
X4275433Y-17295864D01*
X4291467Y-17160100D01*
X4303641Y-17041695D01*
X4311179Y-16949579D01*
X4313306Y-16892686D01*
X4311614Y-16879089D01*
X4286061Y-16858404D01*
X4230536Y-16821439D01*
X4158639Y-16776544D01*
X4083971Y-16732064D01*
X4020131Y-16696348D01*
X3988385Y-16680693D01*
X3978456Y-16696666D01*
X3982530Y-16756522D01*
X4000161Y-16856229D01*
X4015770Y-16927881D01*
X4019402Y-16957361D01*
X4006842Y-16958931D01*
X3971990Y-16929363D01*
X3920219Y-16877264D01*
X3857147Y-16809037D01*
X3806062Y-16747969D01*
X3782603Y-16714621D01*
X3776175Y-16700842D01*
X3770353Y-16690016D01*
X3760704Y-16683998D01*
X3742794Y-16684645D01*
X3712191Y-16693813D01*
X3664462Y-16713358D01*
X3595174Y-16745136D01*
X3499894Y-16791005D01*
X3374190Y-16852819D01*
X3213627Y-16932435D01*
X3013773Y-17031710D01*
X2951357Y-17062693D01*
X2830816Y-17121134D01*
X2723666Y-17170518D01*
X2638998Y-17206848D01*
X2585901Y-17226126D01*
X2575042Y-17228177D01*
X2530829Y-17212715D01*
X2470145Y-17173814D01*
X2445557Y-17154120D01*
X2365987Y-17097832D01*
X2299421Y-17083304D01*
X2232394Y-17109819D01*
X2191692Y-17140591D01*
X2104154Y-17190856D01*
X2018178Y-17198683D01*
X1944372Y-17163643D01*
X1931695Y-17151111D01*
X1878349Y-17113508D01*
X1808949Y-17113381D01*
X1733300Y-17127691D01*
X1795862Y-17078392D01*
X1851268Y-17039283D01*
X1886477Y-17036307D01*
X1918819Y-17072483D01*
X1937478Y-17103054D01*
X1978052Y-17155845D01*
X2024588Y-17173488D01*
X2090117Y-17157878D01*
X2144389Y-17133133D01*
X2212568Y-17092723D01*
X2233608Y-17057707D01*
X2208615Y-17020168D01*
X2164639Y-16988352D01*
X2105093Y-16955625D01*
X2058659Y-16951361D01*
X2008571Y-16968454D01*
X1938446Y-16991961D01*
X1880567Y-17001827D01*
X1802713Y-16980516D01*
X1735566Y-16921270D01*
X1691160Y-16836187D01*
X1683397Y-16803622D01*
X1680242Y-16789279D01*
X1730617Y-16789279D01*
X1747209Y-16842588D01*
X1773893Y-16897120D01*
X1802336Y-16932341D01*
X1803683Y-16933245D01*
X1869276Y-16951108D01*
X1943874Y-16941177D01*
X1970912Y-16928486D01*
X1993206Y-16906380D01*
X1975684Y-16881514D01*
X1959979Y-16869480D01*
X1892407Y-16825088D01*
X1822684Y-16786892D01*
X1764993Y-16761855D01*
X1733515Y-16756945D01*
X1732450Y-16757729D01*
X1730617Y-16789279D01*
X1680242Y-16789279D01*
X1672990Y-16756309D01*
X1654574Y-16720134D01*
X1619152Y-16686787D01*
X1557724Y-16647958D01*
X1461293Y-16595337D01*
X1453167Y-16591012D01*
X1359439Y-16542214D01*
X1282079Y-16503918D01*
X1231779Y-16481314D01*
X1219200Y-16477438D01*
X1203138Y-16499720D01*
X1181214Y-16557943D01*
X1159671Y-16633842D01*
X1139457Y-16712743D01*
X1129021Y-16745573D01*
X1126644Y-16734973D01*
X1130607Y-16683583D01*
X1131161Y-16677635D01*
X1155393Y-16480163D01*
X1186615Y-16338133D01*
X1221760Y-16338133D01*
X1232649Y-16374253D01*
X1266234Y-16411503D01*
X1326742Y-16454707D01*
X1418398Y-16508689D01*
X1545431Y-16578273D01*
X1695763Y-16659452D01*
X1893642Y-16768028D01*
X2056280Y-16860840D01*
X2193508Y-16943887D01*
X2315156Y-17023167D01*
X2431055Y-17104678D01*
X2459014Y-17125171D01*
X2518303Y-17168086D01*
X2558703Y-17195751D01*
X2568117Y-17201101D01*
X2592057Y-17191033D01*
X2654722Y-17161631D01*
X2750016Y-17115839D01*
X2871847Y-17056602D01*
X3014121Y-16986865D01*
X3143683Y-16922963D01*
X3298344Y-16846431D01*
X3437547Y-16777460D01*
X3555202Y-16719074D01*
X3645219Y-16674299D01*
X3701508Y-16646160D01*
X3718248Y-16637605D01*
X3713177Y-16614415D01*
X3690988Y-16562143D01*
X3678488Y-16536168D01*
X3647495Y-16459228D01*
X3610107Y-16343903D01*
X3568767Y-16200289D01*
X3525918Y-16038477D01*
X3484003Y-15868563D01*
X3445464Y-15700638D01*
X3412744Y-15544796D01*
X3388285Y-15411132D01*
X3374531Y-15309737D01*
X3372413Y-15271430D01*
X3367502Y-15236119D01*
X3352802Y-15232504D01*
X3435028Y-15232504D01*
X3440814Y-15305873D01*
X3455434Y-15411715D01*
X3477457Y-15541934D01*
X3505451Y-15688435D01*
X3537985Y-15843123D01*
X3573627Y-15997904D01*
X3597801Y-16094797D01*
X3636576Y-16229152D01*
X3683094Y-16365752D01*
X3733989Y-16497259D01*
X3785897Y-16616334D01*
X3835451Y-16715639D01*
X3879285Y-16787835D01*
X3914034Y-16825583D01*
X3933130Y-16825949D01*
X3935389Y-16797913D01*
X3932174Y-16732382D01*
X3924196Y-16641528D01*
X3920155Y-16603713D01*
X3910761Y-16502838D01*
X3906426Y-16419072D01*
X3907754Y-16366365D01*
X3909545Y-16358144D01*
X3931310Y-16334274D01*
X3954701Y-16349725D01*
X3970652Y-16394927D01*
X3973005Y-16425131D01*
X3981650Y-16501092D01*
X3999953Y-16572300D01*
X4049821Y-16652706D01*
X4134797Y-16730087D01*
X4240346Y-16795067D01*
X4351931Y-16838269D01*
X4431692Y-16850766D01*
X4481133Y-16847045D01*
X4493686Y-16821588D01*
X4487625Y-16783990D01*
X4475156Y-16703605D01*
X4462815Y-16583332D01*
X4451204Y-16433327D01*
X4440926Y-16263748D01*
X4432583Y-16084755D01*
X4426778Y-15906503D01*
X4424114Y-15739152D01*
X4424016Y-15711913D01*
X4423448Y-15334269D01*
X4279556Y-15302815D01*
X4152248Y-15268805D01*
X4034156Y-15226199D01*
X3939228Y-15180674D01*
X3885762Y-15142539D01*
X3861292Y-15125442D01*
X3825153Y-15119357D01*
X3765477Y-15124318D01*
X3670398Y-15140362D01*
X3654966Y-15143237D01*
X3560497Y-15162854D01*
X3485403Y-15182010D01*
X3443144Y-15197175D01*
X3439509Y-15199703D01*
X3435028Y-15232504D01*
X3352802Y-15232504D01*
X3346621Y-15230984D01*
X3300556Y-15256695D01*
X3268481Y-15278986D01*
X3216363Y-15309780D01*
X3182428Y-15318358D01*
X3179271Y-15316676D01*
X3181872Y-15289282D01*
X3212956Y-15248861D01*
X3259029Y-15209644D01*
X3302066Y-15187169D01*
X3336320Y-15162157D01*
X3343792Y-15108818D01*
X3342559Y-15092688D01*
X3333041Y-15039998D01*
X3307687Y-15020235D01*
X3249965Y-15021000D01*
X3247290Y-15021235D01*
X3096410Y-15045661D01*
X2915490Y-15092614D01*
X2716584Y-15157541D01*
X2511745Y-15235893D01*
X2313027Y-15323120D01*
X2132483Y-15414670D01*
X2006812Y-15489542D01*
X1796405Y-15638513D01*
X1610376Y-15793670D01*
X1455041Y-15948911D01*
X1336721Y-16098137D01*
X1283012Y-16188312D01*
X1251168Y-16249987D01*
X1229342Y-16298319D01*
X1221760Y-16338133D01*
X1186615Y-16338133D01*
X1190678Y-16319648D01*
X1242780Y-16183278D01*
X1317465Y-16058241D01*
X1420496Y-15931724D01*
X1508078Y-15839931D01*
X1741854Y-15633486D01*
X2011108Y-15444659D01*
X2304579Y-15279158D01*
X2611007Y-15142693D01*
X2919132Y-15040971D01*
X3200151Y-14982147D01*
X3288728Y-14963267D01*
X3337157Y-14941412D01*
X3343968Y-14922064D01*
X3307691Y-14910704D01*
X3226857Y-14912813D01*
X3218492Y-14913720D01*
X3130340Y-14924733D01*
X3054438Y-14935891D01*
X3026228Y-14940939D01*
X2987241Y-14942356D01*
X2981658Y-14930560D01*
X3012050Y-14916443D01*
X3077370Y-14902039D01*
X3085779Y-14900886D01*
X3401152Y-14900886D01*
X3404383Y-15013497D01*
X3409031Y-15080685D01*
X3417068Y-15120952D01*
X3421294Y-15126088D01*
X3450702Y-15121310D01*
X3515980Y-15108694D01*
X3604038Y-15090786D01*
X3620825Y-15087295D01*
X3727599Y-15064208D01*
X3794444Y-15046456D01*
X3830603Y-15030057D01*
X3834856Y-15024558D01*
X3897931Y-15024558D01*
X3915411Y-15078044D01*
X3949163Y-15121839D01*
X4013972Y-15161723D01*
X4118400Y-15202042D01*
X4252121Y-15239949D01*
X4404813Y-15272599D01*
X4566150Y-15297147D01*
X4598620Y-15300842D01*
X4713783Y-15313276D01*
X4820104Y-15324954D01*
X4900816Y-15334027D01*
X4923940Y-15336722D01*
X4993458Y-15340982D01*
X5103812Y-15342936D01*
X5245856Y-15342822D01*
X5410444Y-15340879D01*
X5588427Y-15337343D01*
X5770658Y-15332453D01*
X5947990Y-15326447D01*
X6111276Y-15319562D01*
X6251369Y-15312036D01*
X6359121Y-15304108D01*
X6413591Y-15297984D01*
X6559862Y-15267830D01*
X6670234Y-15224610D01*
X6711118Y-15200156D01*
X6791238Y-15151046D01*
X6891427Y-15096050D01*
X6963448Y-15059927D01*
X7055451Y-15014371D01*
X7110948Y-14978495D01*
X7139177Y-14941675D01*
X7149378Y-14893289D01*
X7150749Y-14844581D01*
X7156892Y-14784245D01*
X7171641Y-14752276D01*
X7176157Y-14750739D01*
X7192021Y-14772895D01*
X7200654Y-14828057D01*
X7201182Y-14847884D01*
X7201182Y-14945030D01*
X7461065Y-14862557D01*
X7585388Y-14825700D01*
X7708992Y-14793463D01*
X7814029Y-14770304D01*
X7861459Y-14762527D01*
X7952934Y-14747356D01*
X7995022Y-14732860D01*
X7988334Y-14721948D01*
X7933482Y-14717526D01*
X7852679Y-14720807D01*
X7746710Y-14723855D01*
X7650162Y-14718546D01*
X7574694Y-14706374D01*
X7552942Y-14697444D01*
X8077044Y-14697444D01*
X8321034Y-14693539D01*
X8429714Y-14691428D01*
X8492753Y-14688704D01*
X8514560Y-14684395D01*
X8499543Y-14677529D01*
X8452108Y-14667133D01*
X8446157Y-14665943D01*
X8373457Y-14646391D01*
X8333459Y-14625864D01*
X8330906Y-14609256D01*
X8370540Y-14601460D01*
X8383596Y-14601384D01*
X8431835Y-14605225D01*
X8515779Y-14614911D01*
X8621646Y-14628775D01*
X8690147Y-14638435D01*
X8798986Y-14653821D01*
X8890643Y-14666071D01*
X8952886Y-14673588D01*
X8971674Y-14675178D01*
X9000742Y-14692985D01*
X9002955Y-14703146D01*
X8980138Y-14718255D01*
X8910841Y-14720855D01*
X8846551Y-14716468D01*
X8690147Y-14702307D01*
X8852807Y-14746903D01*
X8939184Y-14769912D01*
X8989130Y-14779118D01*
X9014454Y-14774054D01*
X9026964Y-14754255D01*
X9031742Y-14739838D01*
X9042833Y-14681653D01*
X9049826Y-14602544D01*
X9050510Y-14583509D01*
X9049254Y-14532472D01*
X9038241Y-14495642D01*
X9010808Y-14471230D01*
X8960290Y-14457449D01*
X8880020Y-14452513D01*
X8763335Y-14454635D01*
X8603569Y-14462027D01*
X8598437Y-14462291D01*
X8453613Y-14468098D01*
X8344482Y-14468975D01*
X8275774Y-14465002D01*
X8252216Y-14456392D01*
X8275981Y-14441086D01*
X8342243Y-14427213D01*
X8443456Y-14415514D01*
X8572074Y-14406728D01*
X8720549Y-14401596D01*
X8821527Y-14400572D01*
X8930003Y-14399870D01*
X8997926Y-14396425D01*
X9034791Y-14387924D01*
X9050092Y-14372053D01*
X9053325Y-14346499D01*
X9053346Y-14344088D01*
X9060374Y-14273117D01*
X9069811Y-14227524D01*
X9076706Y-14192896D01*
X9065865Y-14176863D01*
X9026387Y-14175198D01*
X8954534Y-14182827D01*
X8881086Y-14197007D01*
X8774166Y-14224655D01*
X8647284Y-14261979D01*
X8513949Y-14305191D01*
X8493882Y-14312065D01*
X8372596Y-14353765D01*
X8267704Y-14389500D01*
X8188570Y-14416105D01*
X8144555Y-14430415D01*
X8139606Y-14431835D01*
X8101585Y-14457504D01*
X8081999Y-14516563D01*
X8077427Y-14592712D01*
X8077044Y-14697444D01*
X7552942Y-14697444D01*
X7531962Y-14688831D01*
X7526502Y-14679017D01*
X7549531Y-14671378D01*
X7610902Y-14667866D01*
X7699042Y-14668953D01*
X7734531Y-14670531D01*
X7842721Y-14674351D01*
X7912956Y-14671067D01*
X7957015Y-14659208D01*
X7984778Y-14639233D01*
X8023066Y-14572162D01*
X8012115Y-14497820D01*
X7981655Y-14450045D01*
X7936316Y-14394053D01*
X7865390Y-14459785D01*
X7798238Y-14512856D01*
X7756780Y-14523273D01*
X7740322Y-14490913D01*
X7744059Y-14437931D01*
X7748711Y-14387881D01*
X7801773Y-14387881D01*
X7806917Y-14421271D01*
X7811221Y-14425418D01*
X7832812Y-14408835D01*
X7851822Y-14387881D01*
X7864889Y-14365714D01*
X7989514Y-14365714D01*
X7992586Y-14380430D01*
X8014482Y-14399367D01*
X8025584Y-14370910D01*
X8026611Y-14344088D01*
X8022408Y-14307957D01*
X8007555Y-14317585D01*
X8003238Y-14324125D01*
X7989514Y-14365714D01*
X7864889Y-14365714D01*
X7869270Y-14358281D01*
X7846280Y-14350379D01*
X7842374Y-14350344D01*
X7807271Y-14369078D01*
X7801773Y-14387881D01*
X7748711Y-14387881D01*
X7749550Y-14378854D01*
X7736361Y-14354336D01*
X7711205Y-14350438D01*
X7634594Y-14368907D01*
X7562493Y-14415938D01*
X7506553Y-14479412D01*
X7478426Y-14547212D01*
X7481161Y-14589692D01*
X7470840Y-14620995D01*
X7463940Y-14625615D01*
X7441696Y-14618377D01*
X7432236Y-14578578D01*
X7435567Y-14522049D01*
X7451694Y-14464619D01*
X7463883Y-14441530D01*
X7513170Y-14391618D01*
X7586886Y-14342058D01*
X7664387Y-14304884D01*
X7720443Y-14291966D01*
X7752481Y-14273942D01*
X7754751Y-14255799D01*
X7836056Y-14255799D01*
X7851011Y-14278906D01*
X7862508Y-14288320D01*
X7904217Y-14311342D01*
X7924345Y-14311188D01*
X7918674Y-14288829D01*
X7901147Y-14274293D01*
X7856047Y-14253071D01*
X7836056Y-14255799D01*
X7754751Y-14255799D01*
X7758010Y-14229759D01*
X7739309Y-14174201D01*
X7698659Y-14122047D01*
X7693545Y-14117646D01*
X7614107Y-14056216D01*
X7523031Y-13992247D01*
X7431459Y-13932786D01*
X7350531Y-13884883D01*
X7291388Y-13855584D01*
X7270267Y-13849852D01*
X7235687Y-13858315D01*
X7231010Y-13887864D01*
X7257232Y-13944736D01*
X7295024Y-14004929D01*
X7331675Y-14068095D01*
X7354059Y-14132395D01*
X7366494Y-14214975D01*
X7372471Y-14312459D01*
X7375583Y-14415507D01*
X7372264Y-14483191D01*
X7359506Y-14530080D01*
X7334301Y-14570743D01*
X7313941Y-14595850D01*
X7246782Y-14675665D01*
X6934554Y-14675665D01*
X6805221Y-14673510D01*
X6694155Y-14667588D01*
X6612192Y-14658710D01*
X6571567Y-14648500D01*
X6513610Y-14592126D01*
X6467449Y-14498755D01*
X6449952Y-14435318D01*
X6517802Y-14435318D01*
X6529671Y-14476627D01*
X6564827Y-14534321D01*
X6608938Y-14566271D01*
X6667765Y-14578825D01*
X6758469Y-14591166D01*
X6862902Y-14601543D01*
X6962914Y-14608209D01*
X7040356Y-14609414D01*
X7051034Y-14608880D01*
X7128159Y-14604655D01*
X7179377Y-14602624D01*
X7234866Y-14586154D01*
X7272916Y-14533101D01*
X7277474Y-14522577D01*
X7296042Y-14466424D01*
X7286472Y-14431189D01*
X7249229Y-14397708D01*
X7129630Y-14335266D01*
X6982073Y-14306972D01*
X6815431Y-14313081D01*
X6638572Y-14353850D01*
X6571372Y-14378148D01*
X6526150Y-14402220D01*
X6517802Y-14435318D01*
X6449952Y-14435318D01*
X6434810Y-14380418D01*
X6417421Y-14249142D01*
X6417010Y-14116958D01*
X6435304Y-13995896D01*
X6458289Y-13933267D01*
X7026009Y-13933267D01*
X7032495Y-14006886D01*
X7050582Y-14033909D01*
X7078212Y-14013172D01*
X7099601Y-13975045D01*
X7122041Y-13919927D01*
X7119494Y-13890426D01*
X7100090Y-13873733D01*
X7054446Y-13852766D01*
X7032152Y-13869257D01*
X7026021Y-13928983D01*
X7026009Y-13933267D01*
X6458289Y-13933267D01*
X6465885Y-13912568D01*
X6528832Y-13816401D01*
X6574629Y-13779211D01*
X7102882Y-13779211D01*
X7121072Y-13796511D01*
X7126108Y-13799803D01*
X7171958Y-13821909D01*
X7193841Y-13818235D01*
X7188670Y-13799803D01*
X7152957Y-13778029D01*
X7130887Y-13775161D01*
X7102882Y-13779211D01*
X6574629Y-13779211D01*
X6606127Y-13753633D01*
X6709945Y-13716987D01*
X6818606Y-13701730D01*
X6988473Y-13687085D01*
X6935589Y-13664686D01*
X7366717Y-13664686D01*
X7370362Y-13668511D01*
X7403285Y-13685169D01*
X7465854Y-13721015D01*
X7545279Y-13768696D01*
X7555359Y-13774878D01*
X7635176Y-13822345D01*
X7699120Y-13857426D01*
X7734814Y-13873380D01*
X7736779Y-13873699D01*
X7745031Y-13850715D01*
X7748725Y-13786276D01*
X7747651Y-13688789D01*
X7743658Y-13600255D01*
X7733434Y-13463930D01*
X7718197Y-13313933D01*
X7699512Y-13161489D01*
X7678945Y-13017824D01*
X7658064Y-12894165D01*
X7638433Y-12801736D01*
X7626873Y-12763166D01*
X7611440Y-12729052D01*
X7601581Y-12739257D01*
X7593306Y-12773793D01*
X7549339Y-12969278D01*
X7510110Y-13129440D01*
X7471933Y-13268292D01*
X7431125Y-13399846D01*
X7419236Y-13435756D01*
X7385253Y-13545996D01*
X7367311Y-13624380D01*
X7366717Y-13664686D01*
X6935589Y-13664686D01*
X6769771Y-13594454D01*
X6670043Y-13553186D01*
X6584711Y-13519650D01*
X6526323Y-13498696D01*
X6510920Y-13494408D01*
X6486427Y-13502964D01*
X6461505Y-13542660D01*
X6432601Y-13620429D01*
X6412179Y-13687192D01*
X6352280Y-13877902D01*
X6287395Y-14060391D01*
X6222805Y-14220591D01*
X6169457Y-14333771D01*
X6130360Y-14436299D01*
X6121406Y-14549164D01*
X6122251Y-14568087D01*
X6122761Y-14662809D01*
X6112934Y-14722513D01*
X6094427Y-14742085D01*
X6072329Y-14722129D01*
X6058700Y-14676867D01*
X6051021Y-14605499D01*
X6050432Y-14581757D01*
X6044775Y-14512507D01*
X6021605Y-14459926D01*
X5970714Y-14404019D01*
X5949915Y-14384873D01*
X5831511Y-14256120D01*
X5710989Y-14084677D01*
X5591556Y-13877618D01*
X5476418Y-13642015D01*
X5368783Y-13384945D01*
X5271857Y-13113481D01*
X5188846Y-12834697D01*
X5124781Y-12564585D01*
X5102945Y-12451348D01*
X5085830Y-12349359D01*
X5075770Y-12273251D01*
X5074088Y-12246998D01*
X5065852Y-12182350D01*
X5046766Y-12164441D01*
X5025267Y-12193978D01*
X5013512Y-12241913D01*
X4999456Y-12349758D01*
X4985238Y-12492269D01*
X4971985Y-12654077D01*
X4960823Y-12819817D01*
X4952879Y-12974120D01*
X4949278Y-13101619D01*
X4949179Y-13119568D01*
X4949882Y-13221012D01*
X4953781Y-13281543D01*
X4963176Y-13310291D01*
X4980369Y-13316383D01*
X4997734Y-13312229D01*
X5050929Y-13318027D01*
X5105192Y-13354934D01*
X5142455Y-13407814D01*
X5149162Y-13439081D01*
X5131558Y-13478452D01*
X5087075Y-13531996D01*
X5061576Y-13556296D01*
X4993949Y-13632441D01*
X4974433Y-13697857D01*
X5003047Y-13751503D01*
X5057191Y-13783846D01*
X5158005Y-13850638D01*
X5247234Y-13957432D01*
X5317380Y-14094348D01*
X5337927Y-14153716D01*
X5362936Y-14247182D01*
X5370459Y-14316898D01*
X5361781Y-14385507D01*
X5353127Y-14421316D01*
X5299752Y-14560739D01*
X5217754Y-14667369D01*
X5169501Y-14707958D01*
X5128999Y-14731232D01*
X5074940Y-14746231D01*
X4995844Y-14754834D01*
X4880232Y-14758918D01*
X4855531Y-14759306D01*
X4715271Y-14758020D01*
X4621315Y-14749406D01*
X4570409Y-14733138D01*
X4566927Y-14730564D01*
X4534411Y-14714437D01*
X4499115Y-14730099D01*
X4466077Y-14760434D01*
X4369648Y-14822723D01*
X4248615Y-14841692D01*
X4103605Y-14817243D01*
X4102011Y-14816772D01*
X4026960Y-14795849D01*
X3985120Y-14791161D01*
X3961979Y-14803862D01*
X3946190Y-14829157D01*
X3929982Y-14890367D01*
X3946768Y-14935848D01*
X3984731Y-14950936D01*
X4018512Y-14965614D01*
X4023054Y-14978673D01*
X4002468Y-14995295D01*
X3960492Y-14990709D01*
X3913933Y-14986115D01*
X3898544Y-15010851D01*
X3897931Y-15024558D01*
X3834856Y-15024558D01*
X3845322Y-15011025D01*
X3847881Y-14989444D01*
X3824507Y-14955342D01*
X3760771Y-14927346D01*
X3666250Y-14908262D01*
X3550523Y-14900897D01*
X3545708Y-14900886D01*
X3401152Y-14900886D01*
X3085779Y-14900886D01*
X3151576Y-14891864D01*
X3235860Y-14880549D01*
X3299027Y-14867423D01*
X3324841Y-14856937D01*
X3331262Y-14832472D01*
X3384926Y-14832472D01*
X3547586Y-14840431D01*
X3646124Y-14848156D01*
X3735421Y-14860052D01*
X3785320Y-14870724D01*
X3842148Y-14881039D01*
X3875307Y-14862907D01*
X3889951Y-14840667D01*
X3906495Y-14794629D01*
X3902463Y-14772286D01*
X3858241Y-14748048D01*
X3780785Y-14719956D01*
X3686226Y-14692390D01*
X3590696Y-14669734D01*
X3510328Y-14656368D01*
X3470601Y-14654987D01*
X3412572Y-14665318D01*
X3389159Y-14692116D01*
X3384926Y-14747812D01*
X3384926Y-14832472D01*
X3331262Y-14832472D01*
X3336602Y-14812125D01*
X3325550Y-14747812D01*
X3324969Y-14744430D01*
X3295247Y-14671973D01*
X3253648Y-14613774D01*
X3195620Y-14571021D01*
X3120699Y-14548573D01*
X3015912Y-14543429D01*
X2959507Y-14545727D01*
X2911536Y-14546490D01*
X2908168Y-14537597D01*
X2931324Y-14522303D01*
X2988771Y-14507289D01*
X3071133Y-14507595D01*
X3087728Y-14509549D01*
X3153474Y-14515899D01*
X3192545Y-14514533D01*
X3197241Y-14511360D01*
X3185541Y-14485234D01*
X3154223Y-14426421D01*
X3108960Y-14345420D01*
X3084630Y-14302926D01*
X3019272Y-14182623D01*
X2983531Y-14091473D01*
X2978763Y-14029602D01*
X2997044Y-14029602D01*
X3009347Y-14069814D01*
X3042691Y-14141739D01*
X3091726Y-14234564D01*
X3140936Y-14320455D01*
X3203097Y-14424593D01*
X3244478Y-14490308D01*
X3269703Y-14522296D01*
X3283395Y-14525258D01*
X3290175Y-14503893D01*
X3293434Y-14475468D01*
X3295411Y-14416074D01*
X3294333Y-14320278D01*
X3292071Y-14250246D01*
X3348813Y-14250246D01*
X3350820Y-14353197D01*
X3356916Y-14451061D01*
X3363451Y-14506748D01*
X3375992Y-14565090D01*
X3398425Y-14592253D01*
X3446599Y-14600147D01*
X3488299Y-14600591D01*
X3556687Y-14594920D01*
X3594303Y-14580233D01*
X3597635Y-14573173D01*
X3584147Y-14535751D01*
X3551186Y-14480646D01*
X3546325Y-14473697D01*
X3508773Y-14412818D01*
X3462178Y-14326174D01*
X3422350Y-14244612D01*
X3349685Y-14087586D01*
X3348813Y-14250246D01*
X3292071Y-14250246D01*
X3290501Y-14201613D01*
X3284658Y-14081330D01*
X3276252Y-13964149D01*
X3265975Y-13867642D01*
X3255089Y-13801370D01*
X3244854Y-13774894D01*
X3244211Y-13774778D01*
X3206666Y-13792679D01*
X3151441Y-13837896D01*
X3090883Y-13897702D01*
X3037335Y-13959369D01*
X3003142Y-14010172D01*
X2997044Y-14029602D01*
X2978763Y-14029602D01*
X2977865Y-14017952D01*
X3002732Y-13950536D01*
X3058590Y-13877701D01*
X3103399Y-13830434D01*
X3167246Y-13764056D01*
X3197878Y-13727101D01*
X3198239Y-13714390D01*
X3171274Y-13720744D01*
X3164331Y-13723292D01*
X3092899Y-13746005D01*
X3065328Y-13745379D01*
X3082543Y-13723129D01*
X3142485Y-13682759D01*
X3209414Y-13635281D01*
X3230045Y-13601745D01*
X3225684Y-13593014D01*
X3178677Y-13578548D01*
X3101211Y-13589119D01*
X3003406Y-13620468D01*
X2895382Y-13668334D01*
X2787258Y-13728459D01*
X2689154Y-13796581D01*
X2638705Y-13840098D01*
X2564841Y-13929815D01*
X2493094Y-14049714D01*
X2433843Y-14180617D01*
X2404038Y-14273722D01*
X2403550Y-14296893D01*
X2423763Y-14286709D01*
X2467952Y-14240563D01*
X2514896Y-14185477D01*
X2590126Y-14100934D01*
X2671044Y-14019288D01*
X2748373Y-13948901D01*
X2812840Y-13898139D01*
X2855170Y-13875364D01*
X2859311Y-13874876D01*
X2851683Y-13889819D01*
X2814428Y-13928882D01*
X2759201Y-13980342D01*
X2653602Y-14085521D01*
X2548769Y-14208323D01*
X2456335Y-14333797D01*
X2387932Y-14446992D01*
X2374597Y-14474614D01*
X2345064Y-14532340D01*
X2322511Y-14561886D01*
X2316767Y-14562612D01*
X2309187Y-14524693D01*
X2317856Y-14451713D01*
X2339917Y-14354872D01*
X2372512Y-14245370D01*
X2412783Y-14134404D01*
X2445188Y-14059333D01*
X2498373Y-13952225D01*
X2546114Y-13876393D01*
X2600548Y-13816254D01*
X2673817Y-13756224D01*
X2691626Y-13742986D01*
X2820440Y-13662738D01*
X2964685Y-13595133D01*
X3019388Y-13575443D01*
X3104959Y-13544424D01*
X3167992Y-13514896D01*
X3196640Y-13492549D01*
X3197241Y-13490033D01*
X3190626Y-13453400D01*
X3173209Y-13383401D01*
X3148634Y-13294590D01*
X3146354Y-13286718D01*
X3088161Y-13061753D01*
X3046998Y-12849283D01*
X3025102Y-12662050D01*
X3022073Y-12578701D01*
X3022073Y-12559105D01*
X3047292Y-12559105D01*
X3052704Y-12624080D01*
X3067259Y-12723779D01*
X3088684Y-12844194D01*
X3112564Y-12961477D01*
X3139038Y-13084487D01*
X3162586Y-13195439D01*
X3180593Y-13281918D01*
X3190280Y-13330591D01*
X3205140Y-13387699D01*
X3219349Y-13396049D01*
X3232493Y-13356930D01*
X3244156Y-13271632D01*
X3249007Y-13206997D01*
X3313066Y-13206997D01*
X3313120Y-13336847D01*
X3316991Y-13541976D01*
X3328039Y-13709383D01*
X3348538Y-13851153D01*
X3380762Y-13979371D01*
X3426984Y-14106125D01*
X3479950Y-14223774D01*
X3558599Y-14387881D01*
X3561092Y-14352509D01*
X3627713Y-14352509D01*
X3641013Y-14457782D01*
X3657794Y-14552026D01*
X3684765Y-14610452D01*
X3731173Y-14647282D01*
X3776808Y-14666619D01*
X3859056Y-14692691D01*
X3898499Y-14694415D01*
X3897604Y-14681089D01*
X4031751Y-14681089D01*
X4050699Y-14702309D01*
X4087025Y-14715199D01*
X4094926Y-14689215D01*
X4084920Y-14648450D01*
X4076858Y-14628595D01*
X4141371Y-14628595D01*
X4147734Y-14661189D01*
X4169678Y-14728726D01*
X4196550Y-14774159D01*
X4202673Y-14779380D01*
X4259130Y-14791199D01*
X4334106Y-14778657D01*
X4405649Y-14746838D01*
X4432324Y-14726210D01*
X4463884Y-14670569D01*
X4453014Y-14614933D01*
X4406718Y-14567140D01*
X4395002Y-14562105D01*
X4548571Y-14562105D01*
X4570131Y-14608641D01*
X4623678Y-14653248D01*
X4692512Y-14682395D01*
X4698719Y-14683764D01*
X4775519Y-14690937D01*
X4877492Y-14690024D01*
X4984635Y-14682316D01*
X5076946Y-14669104D01*
X5124669Y-14656260D01*
X5184666Y-14614405D01*
X5228510Y-14552266D01*
X5245027Y-14488326D01*
X5240715Y-14464268D01*
X5197330Y-14417466D01*
X5115910Y-14389790D01*
X5005593Y-14383635D01*
X4950984Y-14388271D01*
X4861244Y-14406244D01*
X4764674Y-14436297D01*
X4673448Y-14473170D01*
X4599738Y-14511606D01*
X4555718Y-14546346D01*
X4548571Y-14562105D01*
X4395002Y-14562105D01*
X4331997Y-14535028D01*
X4253354Y-14525900D01*
X4177846Y-14534629D01*
X4142901Y-14565809D01*
X4141371Y-14628595D01*
X4076858Y-14628595D01*
X4069448Y-14610346D01*
X4053954Y-14617397D01*
X4042187Y-14637031D01*
X4031751Y-14681089D01*
X3897604Y-14681089D01*
X3896877Y-14670266D01*
X3855928Y-14618718D01*
X3844924Y-14606847D01*
X3777372Y-14532522D01*
X3712067Y-14456892D01*
X3692224Y-14432757D01*
X3627713Y-14352509D01*
X3561092Y-14352509D01*
X3566976Y-14269014D01*
X3575343Y-14199705D01*
X3587221Y-14156867D01*
X3593793Y-14150147D01*
X3613890Y-14170734D01*
X3647056Y-14224076D01*
X3677436Y-14281527D01*
X3721622Y-14359343D01*
X3777807Y-14443056D01*
X3837507Y-14521799D01*
X3892242Y-14584706D01*
X3933527Y-14620912D01*
X3946051Y-14625615D01*
X3975255Y-14608926D01*
X4011984Y-14573972D01*
X4027714Y-14553002D01*
X4039327Y-14525113D01*
X4047324Y-14483312D01*
X4049834Y-14451078D01*
X4123152Y-14451078D01*
X4145596Y-14465370D01*
X4202692Y-14474344D01*
X4242019Y-14475851D01*
X4320735Y-14480719D01*
X4381656Y-14492571D01*
X4397228Y-14499224D01*
X4438181Y-14511755D01*
X4464505Y-14500291D01*
X4462039Y-14477173D01*
X4459639Y-14443763D01*
X4465722Y-14376797D01*
X4476739Y-14304172D01*
X4517913Y-14159646D01*
X4593369Y-14023185D01*
X4600958Y-14012213D01*
X4647694Y-13940646D01*
X4665548Y-13901361D01*
X4653074Y-13897544D01*
X4652983Y-13897593D01*
X4618153Y-13924704D01*
X4559723Y-13978825D01*
X4485234Y-14052078D01*
X4402230Y-14136584D01*
X4318252Y-14224462D01*
X4240843Y-14307835D01*
X4177545Y-14378824D01*
X4135900Y-14429548D01*
X4123152Y-14451078D01*
X4049834Y-14451078D01*
X4052206Y-14420609D01*
X4054475Y-14330010D01*
X4054633Y-14204523D01*
X4053180Y-14037156D01*
X4052816Y-14004662D01*
X4052722Y-13975952D01*
X4100171Y-13975952D01*
X4102729Y-14063703D01*
X4109294Y-14112165D01*
X4118426Y-14125123D01*
X4148614Y-14107922D01*
X4200016Y-14063036D01*
X4255753Y-14006256D01*
X4332867Y-13921960D01*
X4386297Y-13862899D01*
X4804264Y-13862899D01*
X4810403Y-13893893D01*
X4859065Y-13938137D01*
X4891237Y-13960898D01*
X4954982Y-13999381D01*
X4990949Y-14011571D01*
X4994081Y-13997400D01*
X4964457Y-13961867D01*
X4931523Y-13908698D01*
X4923940Y-13873089D01*
X4913671Y-13833181D01*
X4876942Y-13827925D01*
X4838401Y-13840017D01*
X4804264Y-13862899D01*
X4386297Y-13862899D01*
X4413198Y-13833163D01*
X4456972Y-13784236D01*
X4458585Y-13782420D01*
X4809190Y-13782420D01*
X4817010Y-13789444D01*
X4846563Y-13782631D01*
X4888449Y-13757766D01*
X4898916Y-13734322D01*
X4894322Y-13704319D01*
X4874958Y-13710282D01*
X4837929Y-13748013D01*
X4809190Y-13782420D01*
X4458585Y-13782420D01*
X4548610Y-13681083D01*
X4438483Y-13496452D01*
X4374790Y-13383236D01*
X4310842Y-13259102D01*
X4259804Y-13149677D01*
X4257035Y-13143184D01*
X4220487Y-13061363D01*
X4189972Y-13001344D01*
X4171430Y-12974681D01*
X4170200Y-12974267D01*
X4156300Y-12996114D01*
X4143572Y-13062927D01*
X4131913Y-13175831D01*
X4121219Y-13335956D01*
X4111387Y-13544429D01*
X4106717Y-13668423D01*
X4101531Y-13845372D01*
X4100171Y-13975952D01*
X4052722Y-13975952D01*
X4052249Y-13831934D01*
X4054203Y-13660809D01*
X4058358Y-13503282D01*
X4064392Y-13371343D01*
X4071988Y-13276988D01*
X4072305Y-13274285D01*
X4085280Y-13151944D01*
X4098575Y-13004019D01*
X4110070Y-12854918D01*
X4114174Y-12792561D01*
X4123583Y-12666239D01*
X4134205Y-12583567D01*
X4147248Y-12538147D01*
X4163918Y-12523580D01*
X4164915Y-12523546D01*
X4188302Y-12541659D01*
X4184777Y-12580930D01*
X4181945Y-12649457D01*
X4195278Y-12750777D01*
X4221628Y-12871511D01*
X4257848Y-12998279D01*
X4300789Y-13117702D01*
X4323169Y-13169140D01*
X4377032Y-13278193D01*
X4434825Y-13385307D01*
X4491206Y-13481701D01*
X4540835Y-13558600D01*
X4578370Y-13607223D01*
X4597272Y-13619606D01*
X4623868Y-13600499D01*
X4677075Y-13556907D01*
X4746155Y-13497667D01*
X4757371Y-13487847D01*
X4898916Y-13363576D01*
X4899001Y-13099965D01*
X4904909Y-12864008D01*
X4921337Y-12613019D01*
X4946559Y-12365772D01*
X4978849Y-12141040D01*
X4995434Y-12051221D01*
X5022500Y-11936105D01*
X5048207Y-11861376D01*
X5070591Y-11828913D01*
X5087682Y-11840596D01*
X5097515Y-11898304D01*
X5099118Y-11952151D01*
X5107595Y-12096796D01*
X5131328Y-12276874D01*
X5167780Y-12481040D01*
X5214416Y-12697945D01*
X5268701Y-12916242D01*
X5328099Y-13124586D01*
X5390074Y-13311629D01*
X5421216Y-13393567D01*
X5478043Y-13525535D01*
X5547487Y-13672134D01*
X5622597Y-13819934D01*
X5696426Y-13955504D01*
X5762024Y-14065412D01*
X5791536Y-14109305D01*
X5859237Y-14199170D01*
X5927236Y-14282080D01*
X5987511Y-14348987D01*
X6032039Y-14390843D01*
X6049631Y-14400394D01*
X6074077Y-14377950D01*
X6110113Y-14316381D01*
X6154388Y-14224328D01*
X6203552Y-14110433D01*
X6254253Y-13983337D01*
X6303142Y-13851682D01*
X6346867Y-13724110D01*
X6382079Y-13609263D01*
X6405426Y-13515782D01*
X6413296Y-13462431D01*
X6426862Y-13379927D01*
X6446279Y-13317303D01*
X6468301Y-13247384D01*
X6472460Y-13230221D01*
X6550429Y-13230221D01*
X6553964Y-13260047D01*
X6588219Y-13282760D01*
X6654014Y-13316233D01*
X6736007Y-13353709D01*
X6818852Y-13388434D01*
X6887207Y-13413653D01*
X6923248Y-13422620D01*
X6940884Y-13414424D01*
X6948569Y-13381358D01*
X6947233Y-13314279D01*
X6941502Y-13243005D01*
X6929863Y-13135861D01*
X6912335Y-12999368D01*
X6890554Y-12844063D01*
X6866155Y-12680481D01*
X6840775Y-12519159D01*
X6816049Y-12370632D01*
X6793612Y-12245436D01*
X6775101Y-12154108D01*
X6767866Y-12124572D01*
X6737353Y-12013380D01*
X6692703Y-12337281D01*
X6669241Y-12496052D01*
X6640746Y-12671877D01*
X6611253Y-12840566D01*
X6590682Y-12948965D01*
X6569819Y-13063876D01*
X6555984Y-13161159D01*
X6550429Y-13230221D01*
X6472460Y-13230221D01*
X6495113Y-13136748D01*
X6525148Y-12994322D01*
X6556839Y-12829033D01*
X6588617Y-12649808D01*
X6618915Y-12465574D01*
X6646165Y-12285257D01*
X6668799Y-12117785D01*
X6685251Y-11972084D01*
X6688302Y-11939100D01*
X6699550Y-11836949D01*
X6711966Y-11780596D01*
X6726664Y-11765790D01*
X6732619Y-11769703D01*
X6750412Y-11808144D01*
X6773288Y-11889107D01*
X6799914Y-12005480D01*
X6828959Y-12150148D01*
X6859092Y-12315997D01*
X6888981Y-12495914D01*
X6917294Y-12682785D01*
X6942701Y-12869496D01*
X6951018Y-12936453D01*
X6969046Y-13084327D01*
X6985623Y-13217598D01*
X6999600Y-13327230D01*
X7009825Y-13404189D01*
X7014822Y-13437786D01*
X7025143Y-13463810D01*
X7051122Y-13490699D01*
X7100475Y-13523738D01*
X7180917Y-13568210D01*
X7279106Y-13618745D01*
X7295814Y-13601431D01*
X7322483Y-13544352D01*
X7355992Y-13456052D01*
X7393223Y-13345078D01*
X7431058Y-13219974D01*
X7451477Y-13146443D01*
X7517086Y-12863742D01*
X7562078Y-12575660D01*
X7589403Y-12262534D01*
X7592449Y-12206486D01*
X7600457Y-12081050D01*
X7610346Y-11978031D01*
X7621056Y-11906076D01*
X7631523Y-11873830D01*
X7633428Y-11872906D01*
X7643034Y-11897023D01*
X7648196Y-11966106D01*
X7648727Y-12075253D01*
X7645547Y-12191970D01*
X7641891Y-12364164D01*
X7646385Y-12505020D01*
X7660122Y-12632751D01*
X7678224Y-12736327D01*
X7717282Y-12949337D01*
X7750697Y-13164149D01*
X7776926Y-13368573D01*
X7794429Y-13550418D01*
X7801667Y-13697495D01*
X7801773Y-13713848D01*
X7801773Y-13901443D01*
X7931090Y-14026742D01*
X8003684Y-14093022D01*
X8050422Y-14124663D01*
X8077505Y-14125460D01*
X8083037Y-14119813D01*
X8131310Y-14038193D01*
X8183692Y-13929596D01*
X8233295Y-13810768D01*
X8273228Y-13698453D01*
X8296605Y-13609397D01*
X8298727Y-13595524D01*
X8313348Y-13520391D01*
X8333339Y-13468759D01*
X8346059Y-13455676D01*
X8371782Y-13465041D01*
X8378080Y-13512029D01*
X8366921Y-13589018D01*
X8340275Y-13688384D01*
X8300111Y-13802507D01*
X8248398Y-13923761D01*
X8200084Y-14020690D01*
X8135183Y-14158714D01*
X8104855Y-14266304D01*
X8102069Y-14302859D01*
X8102069Y-14401679D01*
X8175610Y-14363649D01*
X8243808Y-14334083D01*
X8346572Y-14296212D01*
X8470061Y-14254446D01*
X8600433Y-14213196D01*
X8723849Y-14176874D01*
X8826466Y-14149890D01*
X8883194Y-14138158D01*
X8980244Y-14122282D01*
X9038181Y-14104379D01*
X9067052Y-14073029D01*
X9076904Y-14016810D01*
X9077785Y-13924302D01*
X9077771Y-13916983D01*
X9073773Y-13766482D01*
X9062957Y-13581023D01*
X9046535Y-13375047D01*
X9025721Y-13162995D01*
X9001726Y-12959311D01*
X8990167Y-12873891D01*
X8943649Y-12601323D01*
X8883156Y-12333783D01*
X8811422Y-12079742D01*
X8731182Y-11847675D01*
X8645169Y-11646053D01*
X8556118Y-11483349D01*
X8528022Y-11441718D01*
X8429801Y-11304554D01*
X8527505Y-11272309D01*
X8605577Y-11233506D01*
X8647334Y-11176087D01*
X8650120Y-11168603D01*
X8678869Y-11117928D01*
X8712393Y-11097142D01*
X8758281Y-11079632D01*
X8768521Y-11029020D01*
X8750885Y-10967617D01*
X8732513Y-10912578D01*
X8739901Y-10883009D01*
X8760987Y-10867785D01*
X8795551Y-10839084D01*
X8805313Y-10801222D01*
X8787744Y-10749130D01*
X8740312Y-10677738D01*
X8660487Y-10581977D01*
X8567314Y-10479817D01*
X8470653Y-10384566D01*
X8398600Y-10332408D01*
X8361799Y-10321379D01*
X8296785Y-10331974D01*
X8205006Y-10359427D01*
X8103962Y-10397235D01*
X8011152Y-10438900D01*
X7948058Y-10475068D01*
X7887735Y-10510322D01*
X7850436Y-10519868D01*
X7843302Y-10505272D01*
X7873472Y-10468098D01*
X7881799Y-10460545D01*
X7933346Y-10426236D01*
X8013719Y-10384664D01*
X8109982Y-10341158D01*
X8209197Y-10301049D01*
X8298428Y-10269667D01*
X8364738Y-10252342D01*
X8389821Y-10251234D01*
X8417764Y-10270445D01*
X8474734Y-10318835D01*
X8554105Y-10390458D01*
X8649252Y-10479369D01*
X8725981Y-10552857D01*
X8828397Y-10650178D01*
X8919985Y-10733900D01*
X8994145Y-10798251D01*
X9044280Y-10837461D01*
X9062117Y-10846896D01*
X9113762Y-10824575D01*
X9168784Y-10766104D01*
X9219848Y-10684224D01*
X9259617Y-10591675D01*
X9280756Y-10501197D01*
X9282238Y-10464610D01*
X9252508Y-10317816D01*
X9177903Y-10184389D01*
X9062345Y-10066572D01*
X8909758Y-9966613D01*
X8724063Y-9886755D01*
X8509184Y-9829243D01*
X8269044Y-9796323D01*
X8102069Y-9789182D01*
X7890249Y-9797094D01*
X7682938Y-9826088D01*
X7466449Y-9878983D01*
X7227096Y-9958598D01*
X7163645Y-9982408D01*
X7049572Y-10025614D01*
X6974177Y-10052605D01*
X6929570Y-10065503D01*
X6907858Y-10066429D01*
X6901152Y-10057505D01*
X6900886Y-10053043D01*
X6912440Y-10033161D01*
X6951216Y-10007954D01*
X7023385Y-9974289D01*
X7135119Y-9929027D01*
X7176157Y-9913148D01*
X7313793Y-9860279D01*
X7151133Y-9840634D01*
X7054076Y-9835142D01*
X6922550Y-9836090D01*
X6771584Y-9842505D01*
X6616206Y-9853416D01*
X6471446Y-9867851D01*
X6352331Y-9884840D01*
X6300295Y-9895636D01*
X6226075Y-9912827D01*
X6128653Y-9933657D01*
X6062561Y-9947006D01*
X5886854Y-9989638D01*
X5706817Y-10047725D01*
X5533295Y-10116560D01*
X5377131Y-10191436D01*
X5249168Y-10267644D01*
X5163105Y-10337497D01*
X5105310Y-10388560D01*
X5068966Y-10402069D01*
X5061706Y-10396664D01*
X5067547Y-10362064D01*
X5108827Y-10310684D01*
X5177195Y-10249975D01*
X5264298Y-10187392D01*
X5357729Y-10132499D01*
X5432811Y-10092270D01*
X5469194Y-10067429D01*
X5472647Y-10050399D01*
X5448940Y-10033602D01*
X5437614Y-10027590D01*
X5321341Y-9983348D01*
X5167116Y-9949014D01*
X4986149Y-9925110D01*
X4789649Y-9912155D01*
X4588826Y-9910673D01*
X4394890Y-9921184D01*
X4219049Y-9944210D01*
X4119296Y-9966261D01*
X3937028Y-10024930D01*
X3774635Y-10095874D01*
X3643894Y-10173508D01*
X3589014Y-10217713D01*
X3538775Y-10276507D01*
X3487296Y-10356735D01*
X3438650Y-10448673D01*
X3396913Y-10542593D01*
X3366158Y-10628769D01*
X3350462Y-10697475D01*
X3353899Y-10738985D01*
X3367362Y-10746798D01*
X3410333Y-10737252D01*
X3489131Y-10711098D01*
X3554133Y-10686866D01*
X3727280Y-10686866D01*
X3730942Y-10709544D01*
X3744222Y-10738105D01*
X3773922Y-10803293D01*
X3785280Y-10834384D01*
X3799670Y-10869205D01*
X3800644Y-10868793D01*
X3887713Y-10868793D01*
X3888671Y-10895141D01*
X3915111Y-10927199D01*
X3946677Y-10982313D01*
X3952410Y-11026258D01*
X3957928Y-11078357D01*
X3983482Y-11120409D01*
X4017007Y-11135551D01*
X4027855Y-11131712D01*
X4056849Y-11106309D01*
X4107144Y-11055838D01*
X4153963Y-11006178D01*
X4236466Y-10926772D01*
X4332039Y-10848786D01*
X4378598Y-10816077D01*
X4501280Y-10736581D01*
X4443596Y-10692865D01*
X4388585Y-10662917D01*
X4305075Y-10630057D01*
X4231390Y-10607183D01*
X4146350Y-10585246D01*
X4091914Y-10577767D01*
X4050492Y-10585705D01*
X4004490Y-10610022D01*
X3987400Y-10620511D01*
X3925909Y-10661086D01*
X3902895Y-10689955D01*
X3913528Y-10720498D01*
X3940002Y-10751808D01*
X3966785Y-10788000D01*
X3956986Y-10813839D01*
X3925901Y-10837639D01*
X3887713Y-10868793D01*
X3800644Y-10868793D01*
X3817274Y-10861760D01*
X3836187Y-10837183D01*
X3857553Y-10782337D01*
X3845175Y-10741741D01*
X3833772Y-10687214D01*
X3850356Y-10656229D01*
X3865872Y-10633240D01*
X3849345Y-10633766D01*
X3808300Y-10650384D01*
X3755332Y-10673653D01*
X3727609Y-10686669D01*
X3727280Y-10686866D01*
X3554133Y-10686866D01*
X3593848Y-10672061D01*
X3714577Y-10623864D01*
X3841413Y-10570234D01*
X3868261Y-10558470D01*
X3969282Y-10515271D01*
X4035697Y-10491563D01*
X4077932Y-10484987D01*
X4106410Y-10493189D01*
X4118507Y-10501894D01*
X4164802Y-10528082D01*
X4240646Y-10559202D01*
X4306182Y-10581172D01*
X4399876Y-10617555D01*
X4484524Y-10664347D01*
X4550401Y-10714318D01*
X4587781Y-10760236D01*
X4589301Y-10791680D01*
X4554487Y-10809014D01*
X4535746Y-10805776D01*
X4497809Y-10812929D01*
X4435416Y-10845246D01*
X4361172Y-10894255D01*
X4287684Y-10951484D01*
X4227556Y-11008463D01*
X4218123Y-11019226D01*
X4102436Y-11159339D01*
X4019802Y-11264791D01*
X3968928Y-11337324D01*
X3948520Y-11378682D01*
X3947980Y-11383222D01*
X3928091Y-11422235D01*
X3916088Y-11429346D01*
X3889345Y-11457685D01*
X3847173Y-11523585D01*
X3793890Y-11618617D01*
X3733815Y-11734353D01*
X3671268Y-11862366D01*
X3610565Y-11994226D01*
X3556027Y-12121507D01*
X3536751Y-12169643D01*
X3488885Y-12302129D01*
X3438558Y-12457690D01*
X3393950Y-12610495D01*
X3378258Y-12670136D01*
X3351913Y-12780467D01*
X3333551Y-12875704D01*
X3321843Y-12969462D01*
X3315458Y-13075354D01*
X3313066Y-13206997D01*
X3249007Y-13206997D01*
X3253926Y-13141445D01*
X3254544Y-13130394D01*
X3274751Y-12923167D01*
X3310518Y-12714388D01*
X3333367Y-12617076D01*
X3360430Y-12511400D01*
X3381838Y-12423073D01*
X3394825Y-12363790D01*
X3397438Y-12346375D01*
X3380511Y-12331330D01*
X3327853Y-12340150D01*
X3236651Y-12373533D01*
X3165960Y-12403992D01*
X3096168Y-12437752D01*
X3060983Y-12468066D01*
X3048638Y-12510312D01*
X3047292Y-12559105D01*
X3022073Y-12559105D01*
X3022069Y-12421145D01*
X3153448Y-12359980D01*
X3238049Y-12325798D01*
X3314695Y-12303488D01*
X3350581Y-12298569D01*
X3393670Y-12294300D01*
X3426652Y-12275900D01*
X3456712Y-12234411D01*
X3491032Y-12160881D01*
X3521413Y-12085615D01*
X3560404Y-11992982D01*
X3613010Y-11876368D01*
X3669899Y-11756270D01*
X3689445Y-11716502D01*
X3733340Y-11622686D01*
X3762281Y-11549460D01*
X3773003Y-11505809D01*
X3768998Y-11497537D01*
X3733008Y-11510909D01*
X3664551Y-11547429D01*
X3572271Y-11601700D01*
X3464811Y-11668326D01*
X3350816Y-11741909D01*
X3238929Y-11817053D01*
X3137796Y-11888363D01*
X3108979Y-11909592D01*
X2915460Y-12065623D01*
X2768836Y-12211728D01*
X2667886Y-12351755D01*
X2611389Y-12489554D01*
X2598124Y-12628973D01*
X2626871Y-12773862D01*
X2696407Y-12928069D01*
X2755443Y-13024039D01*
X2794621Y-13084644D01*
X2805903Y-13108864D01*
X2790531Y-13101005D01*
X2773476Y-13086601D01*
X2729194Y-13035646D01*
X2678473Y-12960125D01*
X2650881Y-12911428D01*
X2613743Y-12829472D01*
X2593451Y-12749230D01*
X2585503Y-12649354D01*
X2584768Y-12598048D01*
X2586624Y-12495513D01*
X2596428Y-12423290D01*
X2619284Y-12361726D01*
X2660296Y-12291165D01*
X2667327Y-12280152D01*
X2764918Y-12156767D01*
X2904512Y-12022402D01*
X3080481Y-11881449D01*
X3287197Y-11738296D01*
X3519032Y-11597335D01*
X3601982Y-11551013D01*
X3696382Y-11497816D01*
X3779162Y-11448283D01*
X3836242Y-11410927D01*
X3846708Y-11402995D01*
X3875677Y-11376157D01*
X3886849Y-11347943D01*
X3881233Y-11303076D01*
X3859841Y-11226274D01*
X3858655Y-11222266D01*
X3828216Y-11126284D01*
X3824543Y-11115704D01*
X3879867Y-11115704D01*
X3890407Y-11163871D01*
X3898160Y-11185333D01*
X3922301Y-11231238D01*
X3946361Y-11232928D01*
X3953323Y-11226932D01*
X3965669Y-11194405D01*
X3938241Y-11150282D01*
X3935864Y-11147630D01*
X3895116Y-11110193D01*
X3879867Y-11115704D01*
X3824543Y-11115704D01*
X3791362Y-11020139D01*
X3752146Y-10914274D01*
X3750916Y-10911155D01*
X3802221Y-10911155D01*
X3810104Y-10934482D01*
X3833399Y-11002469D01*
X3843452Y-11034581D01*
X3856029Y-11067476D01*
X3864631Y-11053622D01*
X3867383Y-11041303D01*
X3859980Y-10990192D01*
X3834035Y-10941204D01*
X3806163Y-10906207D01*
X3802221Y-10911155D01*
X3750916Y-10911155D01*
X3714622Y-10819136D01*
X3682844Y-10745167D01*
X3660865Y-10702812D01*
X3654691Y-10696748D01*
X3625397Y-10704704D01*
X3563331Y-10725438D01*
X3491641Y-10750956D01*
X3401362Y-10779260D01*
X3342053Y-10783746D01*
X3311868Y-10760140D01*
X3308962Y-10704170D01*
X3331488Y-10611562D01*
X3375834Y-10482842D01*
X3447625Y-10331008D01*
X3544350Y-10205566D01*
X3671561Y-10102406D01*
X3834810Y-10017414D01*
X4039648Y-9946481D01*
X4134209Y-9921188D01*
X4226731Y-9899548D01*
X4309233Y-9884826D01*
X4394062Y-9876149D01*
X4493564Y-9872641D01*
X4620087Y-9873429D01*
X4759825Y-9876873D01*
X4921359Y-9882492D01*
X5044760Y-9889735D01*
X5141941Y-9900137D01*
X5224818Y-9915232D01*
X5305306Y-9936558D01*
X5361872Y-9954449D01*
X5458565Y-9984938D01*
X5539755Y-10008014D01*
X5591653Y-10019841D01*
X5599606Y-10020622D01*
X5640410Y-10013642D01*
X5714250Y-9995011D01*
X5806538Y-9968469D01*
X5824827Y-9962879D01*
X6012512Y-9904958D01*
X5912413Y-9852845D01*
X5788972Y-9770214D01*
X5711054Y-9676216D01*
X5679908Y-9574001D01*
X5696781Y-9466720D01*
X5732305Y-9398437D01*
X5830199Y-9293900D01*
X5956940Y-9226017D01*
X6103215Y-9199059D01*
X6163800Y-9200581D01*
G37*
G36*
X10629556Y-18566995D02*
G01*
X10617044Y-18579507D01*
X10604532Y-18566995D01*
X10617044Y-18554482D01*
X10629556Y-18566995D01*
G37*
G36*
X5299310Y-17716157D02*
G01*
X5286798Y-17728670D01*
X5274285Y-17716157D01*
X5286798Y-17703645D01*
X5299310Y-17716157D01*
G37*
G36*
X1416559Y-16796550D02*
G01*
X1420492Y-16836260D01*
X1426481Y-16901514D01*
X1435682Y-16938347D01*
X1469507Y-16970309D01*
X1519297Y-16976273D01*
X1558052Y-16953029D01*
X1558128Y-16952906D01*
X1592976Y-16927428D01*
X1629728Y-16944131D01*
X1656748Y-16997012D01*
X1658619Y-17004745D01*
X1666932Y-17068719D01*
X1658330Y-17094939D01*
X1636063Y-17078704D01*
X1622684Y-17056731D01*
X1573498Y-17013754D01*
X1514301Y-16998282D01*
X1449224Y-16980248D01*
X1408060Y-16932001D01*
X1398134Y-16911269D01*
X1368497Y-16858046D01*
X1331867Y-16840881D01*
X1282448Y-16845209D01*
X1223182Y-16848059D01*
X1188739Y-16837209D01*
X1187777Y-16835903D01*
X1195482Y-16816583D01*
X1215876Y-16812507D01*
X1269290Y-16806287D01*
X1338945Y-16792694D01*
X1339162Y-16792644D01*
X1394398Y-16783386D01*
X1416559Y-16796550D01*
G37*
G36*
X5947314Y-15483964D02*
G01*
X5961273Y-15499552D01*
X5993873Y-15520934D01*
X6050336Y-15539077D01*
X6102750Y-15557233D01*
X6125113Y-15578162D01*
X6125123Y-15578540D01*
X6104123Y-15595520D01*
X6053870Y-15600074D01*
X5993480Y-15592621D01*
X5943694Y-15574547D01*
X5907328Y-15537231D01*
X5899901Y-15512746D01*
X5915526Y-15480110D01*
X5947314Y-15483964D01*
G37*
G36*
X2984354Y-13800089D02*
G01*
X2957589Y-13820834D01*
X2928906Y-13824315D01*
X2921970Y-13814992D01*
X2941599Y-13798920D01*
X2960807Y-13790254D01*
X2986639Y-13788505D01*
X2984354Y-13800089D01*
G37*
G36*
X1571488Y-15960849D02*
G01*
X1711782Y-16000999D01*
X1878676Y-16068062D01*
X2061144Y-16155949D01*
X2248161Y-16258572D01*
X2428699Y-16369842D01*
X2591733Y-16483670D01*
X2726236Y-16593967D01*
X2738389Y-16605221D01*
X2828217Y-16691176D01*
X2883894Y-16749123D01*
X2909123Y-16783800D01*
X2907604Y-16799946D01*
X2892708Y-16802758D01*
X2857731Y-16785930D01*
X2801933Y-16742101D01*
X2745752Y-16689025D01*
X2620283Y-16577623D01*
X2458763Y-16459064D01*
X2273133Y-16340393D01*
X2075335Y-16228655D01*
X1877309Y-16130895D01*
X1690997Y-16054157D01*
X1639639Y-16036441D01*
X1559670Y-16006047D01*
X1510512Y-15979271D01*
X1496086Y-15960465D01*
X1520315Y-15953980D01*
X1571488Y-15960849D01*
G37*
G36*
X4720172Y-14886167D02*
G01*
X4732878Y-14917691D01*
X4737817Y-14977681D01*
X4735291Y-15045205D01*
X4725602Y-15099336D01*
X4716842Y-15116326D01*
X4701823Y-15110442D01*
X4695938Y-15080229D01*
X4692489Y-14972795D01*
X4696083Y-14909330D01*
X4707429Y-14884160D01*
X4720172Y-14886167D01*
G37*
G36*
X4514192Y-14923087D02*
G01*
X4522908Y-14978547D01*
X4523546Y-15000985D01*
X4521848Y-15069800D01*
X4514468Y-15097189D01*
X4497978Y-15091724D01*
X4490180Y-15084400D01*
X4477101Y-15049015D01*
X4473699Y-14993230D01*
X4479026Y-14937904D01*
X4492133Y-14903895D01*
X4498522Y-14900886D01*
X4514192Y-14923087D01*
G37*
G36*
X4615161Y-14922885D02*
G01*
X4623429Y-14976978D01*
X4623645Y-14988473D01*
X4617360Y-15046364D01*
X4601904Y-15075302D01*
X4598620Y-15076059D01*
X4582080Y-15054060D01*
X4573812Y-14999967D01*
X4573596Y-14988473D01*
X4579881Y-14930581D01*
X4595336Y-14901643D01*
X4598620Y-14900886D01*
X4615161Y-14922885D01*
G37*
G36*
X6966837Y-14825171D02*
G01*
X6975160Y-14879607D01*
X6975960Y-14911922D01*
X6971050Y-14979591D01*
X6958611Y-15020487D01*
X6950936Y-15026009D01*
X6935169Y-15003831D01*
X6926493Y-14948518D01*
X6925911Y-14927388D01*
X6931728Y-14860754D01*
X6946176Y-14818043D01*
X6950936Y-14813300D01*
X6966837Y-14825171D01*
G37*
G36*
X6842353Y-14847811D02*
G01*
X6850621Y-14901904D01*
X6850837Y-14913399D01*
X6844552Y-14971290D01*
X6829097Y-15000228D01*
X6825812Y-15000985D01*
X6809272Y-14978986D01*
X6801004Y-14924893D01*
X6800788Y-14913399D01*
X6807073Y-14855507D01*
X6822528Y-14826569D01*
X6825812Y-14825812D01*
X6842353Y-14847811D01*
G37*
G36*
X5764028Y-14447925D02*
G01*
X5773089Y-14505470D01*
X5774778Y-14550541D01*
X5770277Y-14621917D01*
X5758768Y-14667221D01*
X5749753Y-14675665D01*
X5735478Y-14653158D01*
X5726417Y-14595613D01*
X5724729Y-14550541D01*
X5729230Y-14479166D01*
X5740739Y-14433862D01*
X5749753Y-14425418D01*
X5764028Y-14447925D01*
G37*
G36*
X5898989Y-14521649D02*
G01*
X5915504Y-14569839D01*
X5918941Y-14622140D01*
X5907662Y-14652889D01*
X5875831Y-14664270D01*
X5866952Y-14659399D01*
X5853107Y-14623562D01*
X5850387Y-14570347D01*
X5857754Y-14521932D01*
X5874168Y-14500495D01*
X5874400Y-14500492D01*
X5898989Y-14521649D01*
G37*
G36*
X5024039Y-14638128D02*
G01*
X5011527Y-14650640D01*
X4999014Y-14638128D01*
X5011527Y-14625615D01*
X5024039Y-14638128D01*
G37*
G36*
X5624630Y-12160689D02*
G01*
X5647668Y-12196902D01*
X5649655Y-12212143D01*
X5631990Y-12254573D01*
X5586665Y-12315659D01*
X5525184Y-12382892D01*
X5459051Y-12443766D01*
X5399768Y-12485772D01*
X5396276Y-12487630D01*
X5326540Y-12515610D01*
X5273298Y-12522435D01*
X5249521Y-12506701D01*
X5249261Y-12503549D01*
X5270362Y-12482884D01*
X5322469Y-12457324D01*
X5336031Y-12452175D01*
X5397679Y-12417375D01*
X5467038Y-12360226D01*
X5531929Y-12293318D01*
X5580174Y-12229237D01*
X5599595Y-12180573D01*
X5599606Y-12179733D01*
X5612991Y-12157481D01*
X5624630Y-12160689D01*
G37*
G36*
X6294959Y-12169338D02*
G01*
X6300295Y-12203207D01*
X6319940Y-12253879D01*
X6374732Y-12324232D01*
X6428263Y-12378380D01*
X6493239Y-12442157D01*
X6522878Y-12479693D01*
X6520664Y-12496335D01*
X6506524Y-12498522D01*
X6463753Y-12480991D01*
X6403838Y-12435561D01*
X6353532Y-12386470D01*
X6297434Y-12314148D01*
X6260512Y-12244186D01*
X6246196Y-12187033D01*
X6257918Y-12153140D01*
X6275271Y-12148177D01*
X6294959Y-12169338D01*
G37*
D14*
%TO.C,A1*%
X62640000Y-29810000D02*
G75*
G02*
X62219937Y-30389676I-610000J0D01*
G01*
X62220000Y-9230324D02*
G75*
G02*
X62640000Y-9810000I-190051J-579692D01*
G01*
X11840063Y-30389676D02*
G75*
G02*
X11419931Y-29810000I189837J579676D01*
G01*
X11420000Y-9810000D02*
G75*
G02*
X11840063Y-9230324I610002J-1D01*
G01*
X62640000Y-29810000D02*
X62640000Y-27320000D01*
X62640000Y-27320000D02*
X61726480Y-27320000D01*
X62640000Y-25972061D02*
X62640000Y-27320000D01*
X62640000Y-24045000D02*
X62640000Y-25047939D01*
X62640000Y-23710000D02*
X61724000Y-23710000D01*
X62640000Y-15910000D02*
X61724000Y-15910000D01*
X62640000Y-15575000D02*
X62640000Y-24045000D01*
X62640000Y-14572061D02*
X62640000Y-15575000D01*
X62640000Y-12300000D02*
X62640000Y-13647940D01*
X62640000Y-12300000D02*
X61726480Y-12300000D01*
X62640000Y-9810000D02*
X62640000Y-12300000D01*
X62220000Y-9230324D02*
X62220000Y-8720000D01*
X62219937Y-30080000D02*
X62577000Y-30080000D01*
X62219937Y-9540000D02*
X62577000Y-9540000D01*
X60100000Y-30420000D02*
X59680000Y-30420000D01*
X60100000Y-30080000D02*
X59680000Y-30080000D01*
X60100000Y-9540000D02*
X59680000Y-9540000D01*
X60100000Y-9200000D02*
X60100000Y-8720000D01*
X60100000Y-9200000D02*
X59680000Y-9200000D01*
X59336000Y-23710000D02*
X58120000Y-23710000D01*
X59336000Y-15910000D02*
X58120000Y-15910000D01*
X59333520Y-27320000D02*
X14726480Y-27320000D01*
X59333520Y-12300000D02*
X14726480Y-12300000D01*
X58120000Y-23413910D02*
X58120000Y-23710000D01*
X58120000Y-18563910D02*
X58120000Y-21056090D01*
X58120000Y-15910000D02*
X58120000Y-16206090D01*
X57560000Y-30420000D02*
X57140000Y-30420000D01*
X57560000Y-30080000D02*
X57140000Y-30080000D01*
X57560000Y-9540000D02*
X57140000Y-9540000D01*
X57560000Y-9200000D02*
X57140000Y-9200000D01*
X55020000Y-30420000D02*
X54600000Y-30420000D01*
X55020000Y-30080000D02*
X54600000Y-30080000D01*
X55020000Y-9540000D02*
X54600000Y-9540000D01*
X55020000Y-9200000D02*
X54600000Y-9200000D01*
X52480000Y-30420000D02*
X52060000Y-30420000D01*
X52480000Y-30080000D02*
X52060000Y-30080000D01*
X52480000Y-9540000D02*
X52060000Y-9540000D01*
X52480000Y-9200000D02*
X52060000Y-9200000D01*
X49940000Y-30420000D02*
X49520000Y-30420000D01*
X49940000Y-30080000D02*
X49520000Y-30080000D01*
X49940000Y-9540000D02*
X49520000Y-9540000D01*
X49940000Y-9200000D02*
X49520000Y-9200000D01*
X47400000Y-30420000D02*
X46980000Y-30420000D01*
X47400000Y-30080000D02*
X46980000Y-30080000D01*
X47400000Y-9540000D02*
X46980000Y-9540000D01*
X47400000Y-9200000D02*
X46980000Y-9200000D01*
X44860000Y-30420000D02*
X44440000Y-30420000D01*
X44860000Y-30080000D02*
X44440000Y-30080000D01*
X44860000Y-9540000D02*
X44440000Y-9540000D01*
X44860000Y-9200000D02*
X44440000Y-9200000D01*
X42320000Y-30420000D02*
X41900000Y-30420000D01*
X42320000Y-30080000D02*
X41900000Y-30080000D01*
X42320000Y-9540000D02*
X41900000Y-9540000D01*
X42320000Y-9200000D02*
X41900000Y-9200000D01*
X39780000Y-30420000D02*
X39360000Y-30420000D01*
X39780000Y-30080000D02*
X39360000Y-30080000D01*
X39780000Y-9540000D02*
X39360000Y-9540000D01*
X39780000Y-9200000D02*
X39360000Y-9200000D01*
X37240000Y-30420000D02*
X36820000Y-30420000D01*
X37240000Y-30080000D02*
X36820000Y-30080000D01*
X37240000Y-9540000D02*
X36820000Y-9540000D01*
X37240000Y-9200000D02*
X36820000Y-9200000D01*
X34700000Y-30420000D02*
X34280000Y-30420000D01*
X34700000Y-30080000D02*
X34280000Y-30080000D01*
X34700000Y-9540000D02*
X34280000Y-9540000D01*
X34700000Y-9200000D02*
X34280000Y-9200000D01*
X32160000Y-30420000D02*
X31740000Y-30420000D01*
X32160000Y-30080000D02*
X31740000Y-30080000D01*
X32160000Y-9540000D02*
X31740000Y-9540000D01*
X32160000Y-9200000D02*
X31740000Y-9200000D01*
X29620000Y-30420000D02*
X29200000Y-30420000D01*
X29620000Y-30080000D02*
X29200000Y-30080000D01*
X29620000Y-9540000D02*
X29200000Y-9540000D01*
X29620000Y-9200000D02*
X29200000Y-9200000D01*
X27080000Y-30420000D02*
X26660000Y-30420000D01*
X27080000Y-30080000D02*
X26660000Y-30080000D01*
X27080000Y-9540000D02*
X26660000Y-9540000D01*
X27080000Y-9200000D02*
X26660000Y-9200000D01*
X24540000Y-30420000D02*
X24120000Y-30420000D01*
X24540000Y-30080000D02*
X24120000Y-30080000D01*
X24540000Y-9540000D02*
X24120000Y-9540000D01*
X24540000Y-9200000D02*
X24120000Y-9200000D01*
X22000000Y-30420000D02*
X21580000Y-30420000D01*
X22000000Y-30080000D02*
X21580000Y-30080000D01*
X22000000Y-9540000D02*
X21580000Y-9540000D01*
X22000000Y-9200000D02*
X21580000Y-9200000D01*
X19460000Y-30420000D02*
X19040000Y-30420000D01*
X19460000Y-30080000D02*
X19040000Y-30080000D01*
X19460000Y-9540000D02*
X19040000Y-9540000D01*
X19460000Y-9200000D02*
X19040000Y-9200000D01*
X16920000Y-30420000D02*
X16500000Y-30420000D01*
X16920000Y-30080000D02*
X16500000Y-30080000D01*
X16920000Y-9540000D02*
X16500000Y-9540000D01*
X16920000Y-9200000D02*
X16500000Y-9200000D01*
X14380000Y-30420000D02*
X13960000Y-30420000D01*
X14380000Y-30080000D02*
X13960000Y-30080000D01*
X14380000Y-9540000D02*
X13960000Y-9540000D01*
X14380000Y-9200000D02*
X13960000Y-9200000D01*
X12333520Y-27320000D02*
X11420000Y-27320000D01*
X12333520Y-12300000D02*
X11420000Y-12300000D01*
X11840063Y-30080000D02*
X11483000Y-30080000D01*
X11840063Y-9540000D02*
X11483000Y-9540000D01*
X11420000Y-25972061D02*
X11420000Y-29810000D01*
X11420000Y-25047939D02*
X11420000Y-23410000D01*
X11420000Y-23410000D02*
X11420000Y-16210000D01*
X11420000Y-16210000D02*
X11420000Y-14572061D01*
X11420000Y-9810000D02*
X11420000Y-13647939D01*
%TO.C,J1*%
X38500000Y-4880000D02*
X38500000Y-3500000D01*
X39880000Y-4880000D02*
X38500000Y-4880000D01*
X41150000Y-2120000D02*
X48880000Y-2120000D01*
X41150000Y-4880000D02*
X41150000Y-2120000D01*
X41150000Y-4880000D02*
X48880000Y-4880000D01*
X48880000Y-4880000D02*
X48880000Y-2120000D01*
%TD*%
M02*
